<?xml version="1.0" encoding="utf-8"?>
<svg version="1.1" xmlns:xlink="http://www.w3.org/1999/xlink" width="15px" height="15px" viewBox="378 266.5  15 15" xmlns="http://www.w3.org/2000/svg">
  <path d="M 385.5 266.5  C 389.7 266.5  393 269.8  393 274  C 393 278.2  389.7 281.5  385.5 281.5  C 381.3 281.5  378 278.2  378 274  C 378 269.8  381.3 266.5  385.5 266.5  Z " fill-rule="nonzero" fill="#f2f2f2" stroke="none" />
  <path d="M 385.5 267  C 389.42 267  392.5 270.08  392.5 274  C 392.5 277.92  389.42 281  385.5 281  C 381.58 281  378.5 277.92  378.5 274  C 378.5 270.08  381.58 267  385.5 267  Z " stroke-width="1" stroke="#cccccc" fill="none" />
  <path d="M 385.5 277.75  C 383.4 277.75  381.75 276.1  381.75 274  C 381.75 271.9  383.4 270.25  385.5 270.25  C 387.6 270.25  389.25 271.9  389.25 274  C 389.25 276.1  387.6 277.75  385.5 277.75  " fill-rule="nonzero" fill="#cccccc" stroke="none" />
</svg>