<?xml version="1.0" encoding="utf-8"?>
<svg version="1.1" xmlns:xlink="http://www.w3.org/1999/xlink" width="15px" height="15px" viewBox="202 266.5  15 15" xmlns="http://www.w3.org/2000/svg">
  <path d="M 209.5 266.5  C 213.7 266.5  217 269.8  217 274  C 217 278.2  213.7 281.5  209.5 281.5  C 205.3 281.5  202 278.2  202 274  C 202 269.8  205.3 266.5  209.5 266.5  Z " fill-rule="nonzero" fill="#ffffff" stroke="none" />
  <path d="M 209.5 267  C 213.42 267  216.5 270.08  216.5 274  C 216.5 277.92  213.42 281  209.5 281  C 205.58 281  202.5 277.92  202.5 274  C 202.5 270.08  205.58 267  209.5 267  Z " stroke-width="1" stroke="#409eff" fill="none" />
  <path d="M 209.5 277.75  C 207.4 277.75  205.75 276.1  205.75 274  C 205.75 271.9  207.4 270.25  209.5 270.25  C 211.6 270.25  213.25 271.9  213.25 274  C 213.25 276.1  211.6 277.75  209.5 277.75  " fill-rule="nonzero" fill="#409eff" stroke="none" />
</svg>