<?xml version="1.0" encoding="utf-8"?>
<svg version="1.1" xmlns:xlink="http://www.w3.org/1999/xlink" width="70px" height="33px" xmlns="http://www.w3.org/2000/svg">
  <g transform="matrix(1 0 0 1 -652 -81 )">
    <path d="M 653 86  A 4 4 0 0 1 657 82 L 717 82  A 4 4 0 0 1 721 86 L 721 109  A 4 4 0 0 1 717 113 L 657 113  A 4 4 0 0 1 653 109 L 653 86  Z " fill-rule="nonzero" fill="#ffffff" stroke="none" fill-opacity="0" />
    <path d="M 652.5 86  A 4.5 4.5 0 0 1 657 81.5 L 717 81.5  A 4.5 4.5 0 0 1 721.5 86 L 721.5 109  A 4.5 4.5 0 0 1 717 113.5 L 657 113.5  A 4.5 4.5 0 0 1 652.5 109 L 652.5 86  Z " stroke-width="1" stroke-dasharray="3,1" stroke="#e4e4e4" fill="none" stroke-dashoffset="0.5" />
  </g>
</svg>