<?xml version="1.0" encoding="utf-8"?>
<svg version="1.1" xmlns:xlink="http://www.w3.org/1999/xlink" width="16px" height="16px" xmlns="http://www.w3.org/2000/svg">
  <g transform="matrix(1 0 0 1 -1556 -126 )">
    <path d="M 1565.5 126.5  L 1562.5 126.5  L 1562.5 132.5  L 1556.5 132.5  L 1556.5 135.5  L 1562.5 135.5  L 1562.5 141.5  L 1565.5 141.5  L 1565.5 135.5  L 1571.5 135.5  L 1571.5 132.5  L 1565.5 132.5  L 1565.5 126.5  Z " fill-rule="nonzero" fill="#ffffff" stroke="none" fill-opacity="0" />
    <path d="M 1565.5 126.5  L 1562.5 126.5  L 1562.5 132.5  L 1556.5 132.5  L 1556.5 135.5  L 1562.5 135.5  L 1562.5 141.5  L 1565.5 141.5  L 1565.5 135.5  L 1571.5 135.5  L 1571.5 132.5  L 1565.5 132.5  L 1565.5 126.5  Z " stroke-width="1" stroke="#02a7f0" fill="none" />
  </g>
</svg>