<?xml version="1.0" encoding="utf-8"?>
<svg version="1.1" xmlns:xlink="http://www.w3.org/1999/xlink" width="1px" height="1px" xmlns="http://www.w3.org/2000/svg">
  <g transform="matrix(1 0 0 1 -267 -1447 )">
    <path d="M 0.9814453125 0.0329861111111112  C 0.993815104166667 0.0549768518518517  1 0.0810185185185183  1 0.111111111111111  C 1 0.141203703703704  0.993815104166667 0.16724537037037  0.9814453125 0.189236111111111  L 0.5439453125 0.967013888888889  C 0.531575520833333 0.98900462962963  0.516927083333333 1  0.5 1  C 0.483072916666667 1  0.468424479166667 0.98900462962963  0.4560546875 0.967013888888889  L 0.0185546875 0.189236111111111  C 0.00618489583333333 0.16724537037037  0 0.141203703703704  0 0.111111111111111  C 0 0.0810185185185183  0.00618489583333333 0.0549768518518517  0.0185546875 0.0329861111111112  C 0.0309244791666667 0.0109953703703702  0.0455729166666667 0  0.0625 0  L 0.9375 0  C 0.954427083333333 0  0.969075520833333 0.0109953703703702  0.9814453125 0.0329861111111112  Z " fill-rule="nonzero" fill="#169bd5" stroke="none" transform="matrix(1 0 0 1 267 1447 )" />
  </g>
</svg>