<?xml version="1.0" encoding="utf-8"?>
<svg version="1.1" xmlns:xlink="http://www.w3.org/1999/xlink" width="17px" height="20px" xmlns="http://www.w3.org/2000/svg">
  <defs>
    <mask fill="white" id="clip124">
      <path d="M 1.06595721153849 14.5896250000001  C 1.06595721153849 14.5896250000001  0.597721634615368 14.4857499999999  0.597721634615368 14.4857499999999  C 0.597721634615368 14.4857499999999  0.471423076923088 13.3724999999999  0.471423076923088 13.3724999999999  C 0.471423076923088 13.3724999999999  0.0922495192307906 12.0335  0.0922495192307906 12.0335  C 0.0922495192307906 12.0335  0.352488461538542 11.5366250000001  0.352488461538542 11.5366250000001  C 0.352488461538542 11.5366250000001  0.947022596153715 11.44025  0.947022596153715 11.44025  C 0.947022596153715 11.44025  2.00993125000002 11.544  2.00993125000002 11.544  C 2.00993125000002 11.544  2.71603605769235 11.1954999999999  2.71603605769235 11.1954999999999  C 2.71603605769235 11.1954999999999  2.51540336538471 9.93587500000001  2.51540336538471 9.93587500000001  C 2.51540336538471 9.93587500000001  2.87957115384631 9.26200000000006  2.87957115384631 9.26200000000006  C 2.87957115384631 9.26200000000006  3.51134182692317 9.49900000000002  3.51134182692317 9.49900000000002  C 3.51134182692317 9.49900000000002  3.36267355769235 8.50712500000009  3.36267355769235 8.50712500000009  C 3.36267355769235 8.50712500000009  3.1620408653846 8.06337499999995  3.1620408653846 8.06337499999995  C 3.1620408653846 8.06337499999995  3.51884471153835 7.81187499999999  3.51884471153835 7.81187499999999  C 3.51884471153835 7.81187499999999  3.8978793269232 6.98387500000001  3.8978793269232 6.98387500000001  C 3.8978793269232 6.98387500000001  4.70805192307694 6.34849999999994  4.70805192307694 6.34849999999994  C 4.70805192307694 6.34849999999994  4.77502211538456 6.58487500000001  4.77502211538456 6.58487500000001  C 4.77502211538456 6.58487500000001  5.42165961538456 6.26724999999999  5.42165961538456 6.26724999999999  C 5.42165961538456 6.26724999999999  5.93449567307687 6.07524999999998  5.93449567307687 6.07524999999998  C 5.93449567307687 6.07524999999998  6.67033413461536 6.548  6.67033413461536 6.548  C 6.67033413461536 6.548  9.46460288461526 7.77487499999995  9.46460288461526 7.77487499999995  C 9.46460288461526 7.77487499999995  10.4085769230769 8.06337499999995  10.4085769230769 8.06337499999995  C 10.4085769230769 8.06337499999995  11.895120673077 9.09174999999993  11.895120673077 9.09174999999993  C 11.895120673077 9.09174999999993  12.9505264423077 10.6396250000001  12.9505264423077 10.6396250000001  C 12.9505264423077 10.6396250000001  14.6006052884616 13.780625  14.6006052884616 13.780625  C 14.6006052884616 13.780625  14.9722759615386 14.5005  14.9722759615386 14.5005  C 14.9722759615386 14.5005  15.1358110576924 15.1912500000001  15.1358110576924 15.1912500000001  C 15.1358110576924 15.1912500000001  15.172908653846 16.72225  15.172908653846 16.72225  C 15.172908653846 16.72225  14.6973091346155 17.2577500000001  14.6973091346155 17.2577500000001  C 14.6973091346155 17.2577500000001  14.8830750000001 17.7860000000001  14.8830750000001 17.7860000000001  C 14.8830750000001 17.7860000000001  14.5635076923078 17.964625  14.5635076923078 17.964625  C 14.5635076923078 17.964625  14.095133173077 17.4288750000001  14.095133173077 17.4288750000001  C 14.095133173077 17.4288750000001  11.3971514423076 17.3618749999999  11.3971514423076 17.3618749999999  C 11.3971514423076 17.3618749999999  10.4308076923078 17.555375  10.4308076923078 17.555375  C 10.4308076923078 17.555375  9.42000240384618 17.987  9.42000240384618 17.987  C 9.42000240384618 17.987  6.93043413461533 18.642125  6.93043413461533 18.642125  C 6.93043413461533 18.642125  6.15749807692305 19.372  6.15749807692305 19.372  C 6.15749807692305 19.372  5.10195336538459 19.40925  5.10195336538459 19.40925  C 5.10195336538459 19.40925  5.07221971153854 18.738875  5.07221971153854 18.738875  C 5.07221971153854 18.738875  4.58911730769228 18.2698750000001  4.58911730769228 18.2698750000001  C 4.58911730769228 18.2698750000001  4.40335144230778 17.8381250000001  4.40335144230778 17.8381250000001  C 4.40335144230778 17.8381250000001  3.8978793269232 18.0390000000001  3.8978793269232 18.0390000000001  C 3.8978793269232 18.0390000000001  3.27347259615385 17.934875  3.27347259615385 17.934875  C 3.27347259615385 17.934875  3.45187451923073 17.2502500000001  3.45187451923073 17.2502500000001  C 3.45187451923073 17.2502500000001  2.96877211538458 16.804  2.96877211538458 16.804  C 2.96877211538458 16.804  2.51540336538471 16.9751249999999  2.51540336538471 16.9751249999999  C 2.51540336538471 16.9751249999999  2.24780048076934 17.4288750000001  2.24780048076934 17.4288750000001  C 2.24780048076934 17.4288750000001  1.69036394230773 17.0941250000001  1.69036394230773 17.0941250000001  C 1.69036394230773 17.0941250000001  2.03230096153845 16.5883749999999  2.03230096153845 16.5883749999999  C 2.03230096153845 16.5883749999999  1.70523076923064 16.3356249999999  1.70523076923064 16.3356249999999  C 1.70523076923064 16.3356249999999  1.79443173076925 15.6295  1.79443173076925 15.6295  C 1.79443173076925 15.6295  1.66063028846145 14.53025  1.66063028846145 14.53025  C 1.66063028846145 14.53025  1.17752788461542 14.300125  1.17752788461542 14.300125  C 1.17752788461542 14.300125  1.06595721153849 14.5896250000001  1.06595721153849 14.5896250000001  Z M 11.8059197115384 3.73599999999999  C 11.8059197115384 3.73599999999999  14.9425423076923 5.8046250000001  14.9425423076923 5.8046250000001  C 14.9425423076923 5.8046250000001  15.1952783653846 7.59849999999994  15.1952783653846 7.59849999999994  C 15.1952783653846 7.59849999999994  15.0242403846154 8.01962500000002  15.0242403846154 8.01962500000002  C 15.0242403846154 8.01962500000002  13.9242341346154 8.52949999999998  13.9242341346154 8.52949999999998  C 13.9242341346154 8.52949999999998  13.0620971153845 8.39649999999995  13.0620971153845 8.39649999999995  C 13.0620971153845 8.39649999999995  11.4193822115385 7.62799999999993  11.4193822115385 7.62799999999993  C 11.4193822115385 7.62799999999993  10.7281442307692 7.47287500000004  10.7281442307692 7.47287500000004  C 10.7281442307692 7.47287500000004  8.39474711538458 7.044625  8.39474711538458 7.044625  C 8.39474711538458 7.044625  7.02713798076934 6.18825000000004  7.02713798076934 6.18825000000004  C 7.02713798076934 6.18825000000004  6.55890240384622 6.26212500000008  6.55890240384622 6.26212500000008  C 6.55890240384622 6.26212500000008  6.27643269230782 6.727125  6.27643269230782 6.727125  C 6.27643269230782 6.727125  5.28035528846158 5.81200000000001  5.28035528846158 5.81200000000001  C 5.28035528846158 5.81200000000001  3.54107548076922 2.57162500000004  3.54107548076922 2.57162500000004  C 3.54107548076922 2.57162500000004  3.22150817307693 2.49800000000005  3.22150817307693 2.49800000000005  C 3.22150817307693 2.49800000000005  4.20257980769225 1.40087499999993  4.20257980769225 1.40087499999993  C 4.20257980769225 1.40087499999993  4.99052163461545 0.981499999999983  4.99052163461545 0.981499999999983  C 4.99052163461545 0.981499999999983  5.68926250000015 0.915250000000015  5.68926250000015 0.915250000000015  C 5.68926250000015 0.915250000000015  6.43246490384627 1.423  6.43246490384627 1.423  C 6.43246490384627 1.423  6.99740432692306 2.35075000000006  6.99740432692306 2.35075000000006  C 6.99740432692306 2.35075000000006  7.80757692307691 2.58637499999998  7.80757692307691 2.58637499999998  C 7.80757692307691 2.58637499999998  10.4159408653846 3.30849999999998  10.4159408653846 3.30849999999998  C 10.4159408653846 3.30849999999998  10.9362798076924 3.3895  10.9362798076924 3.3895  C 10.9362798076924 3.3895  11.8059197115384 3.73599999999999  11.8059197115384 3.73599999999999  Z M 12.7423908653846 9.476  C 12.7423908653846 9.476  12.7796274038461 9.95699999999999  12.7796274038461 9.95699999999999  C 12.7796274038461 9.95699999999999  12.6531899038461 10.2307500000001  12.6531899038461 10.2307500000001  C 12.6531899038461 10.2307500000001  12.4004538461539 10.1716249999999  12.4004538461539 10.1716249999999  C 12.4004538461539 10.1716249999999  11.961951923077 9.60187500000006  11.961951923077 9.60187500000006  C 11.961951923077 9.60187500000006  8.69208365384611 7.17612500000007  8.69208365384611 7.17612500000007  C 8.69208365384611 7.17612500000007  7.94137836538471 6.50362500000006  7.94137836538471 6.50362500000006  C 7.94137836538471 6.50362500000006  8.07517980769228 6.33375000000012  8.07517980769228 6.33375000000012  C 8.07517980769228 6.33375000000012  8.6326163461539 6.48887500000001  8.6326163461539 6.48887500000001  C 8.6326163461539 6.48887500000001  8.85561874999996 6.90262500000006  8.85561874999996 6.90262500000006  C 8.85561874999996 6.90262500000006  12.1329899038462 7.59000000000003  12.1329899038462 7.59000000000003  C 12.1329899038462 7.59000000000003  12.7423908653846 9.476  12.7423908653846 9.476  Z M 11.4867692307693 8.72912499999995  C 11.4867692307693 8.72912499999995  11.4645384615384 8.32225000000005  11.4645384615384 8.32225000000005  C 11.4645384615384 8.32225000000005  11.3529677884616 8.01900000000001  11.3529677884616 8.01900000000001  C 11.3529677884616 8.01900000000001  11.9922413461538 8.06337499999995  11.9922413461538 8.06337499999995  C 11.9922413461538 8.06337499999995  13.2706495192309 8.60337500000003  13.2706495192309 8.60337500000003  C 13.2706495192309 8.60337500000003  15.7378480769231 8.79575  15.7378480769231 8.79575  C 15.7378480769231 8.79575  16.6520884615385 8.84012499999994  16.6520884615385 8.84012499999994  C 16.6520884615385 8.84012499999994  16.7264225961538 10.2900000000001  16.7264225961538 10.2900000000001  C 16.7264225961538 10.2900000000001  16.4217221153846 11.03775  16.4217221153846 11.03775  C 16.4217221153846 11.03775  15.4405115384616 10.65275  15.4405115384616 10.65275  C 15.4405115384616 10.65275  13.0402831730769 10.637875  13.0402831730769 10.637875  C 13.0402831730769 10.637875  11.9327740384615 10.4602500000001  11.9327740384615 10.4602500000001  C 11.9327740384615 10.4602500000001  11.4867692307693 8.72912499999995  11.4867692307693 8.72912499999995  Z M 10.8024783653847 8.12300000000005  C 10.8024783653847 8.12300000000005  10.7430110576925 8.29300000000012  10.7430110576925 8.29300000000012  C 10.7430110576925 8.29300000000012  8.78128461538449 6.54050000000007  8.78128461538449 6.54050000000007  C 8.78128461538449 6.54050000000007  10.8024783653847 8.12300000000005  10.8024783653847 8.12300000000005  Z M 13.3673533653846 12.43075  C 13.3673533653846 12.43075  13.1740846153846 10.3655  13.1740846153846 10.3655  C 13.1740846153846 10.3655  13.2632855769231 10.1728750000001  13.2632855769231 10.1728750000001  C 13.2632855769231 10.1728750000001  15.3513105769231 10.284  15.3513105769231 10.284  C 15.3513105769231 10.284  15.1952783653846 12.4085  15.1952783653846 12.4085  C 15.1952783653846 12.4085  13.3673533653846 12.43075  13.3673533653846 12.43075  Z M 14.1472365384616 11.911875  C 14.1472365384616 11.911875  12.4382461538463 10.0025000000001  12.4382461538463 10.0025000000001  C 12.4382461538463 10.0025000000001  14.3256384615385 10.098875  14.3256384615385 10.098875  C 14.3256384615385 10.098875  14.1472365384616 11.911875  14.1472365384616 11.911875  Z " fill-rule="evenodd" />
    </mask>
  </defs>
  <g transform="matrix(1 0 0 1 -1162 -391 )">
    <path d="M 1.06595721153849 14.5896250000001  C 1.06595721153849 14.5896250000001  0.597721634615368 14.4857499999999  0.597721634615368 14.4857499999999  C 0.597721634615368 14.4857499999999  0.471423076923088 13.3724999999999  0.471423076923088 13.3724999999999  C 0.471423076923088 13.3724999999999  0.0922495192307906 12.0335  0.0922495192307906 12.0335  C 0.0922495192307906 12.0335  0.352488461538542 11.5366250000001  0.352488461538542 11.5366250000001  C 0.352488461538542 11.5366250000001  0.947022596153715 11.44025  0.947022596153715 11.44025  C 0.947022596153715 11.44025  2.00993125000002 11.544  2.00993125000002 11.544  C 2.00993125000002 11.544  2.71603605769235 11.1954999999999  2.71603605769235 11.1954999999999  C 2.71603605769235 11.1954999999999  2.51540336538471 9.93587500000001  2.51540336538471 9.93587500000001  C 2.51540336538471 9.93587500000001  2.87957115384631 9.26200000000006  2.87957115384631 9.26200000000006  C 2.87957115384631 9.26200000000006  3.51134182692317 9.49900000000002  3.51134182692317 9.49900000000002  C 3.51134182692317 9.49900000000002  3.36267355769235 8.50712500000009  3.36267355769235 8.50712500000009  C 3.36267355769235 8.50712500000009  3.1620408653846 8.06337499999995  3.1620408653846 8.06337499999995  C 3.1620408653846 8.06337499999995  3.51884471153835 7.81187499999999  3.51884471153835 7.81187499999999  C 3.51884471153835 7.81187499999999  3.8978793269232 6.98387500000001  3.8978793269232 6.98387500000001  C 3.8978793269232 6.98387500000001  4.70805192307694 6.34849999999994  4.70805192307694 6.34849999999994  C 4.70805192307694 6.34849999999994  4.77502211538456 6.58487500000001  4.77502211538456 6.58487500000001  C 4.77502211538456 6.58487500000001  5.42165961538456 6.26724999999999  5.42165961538456 6.26724999999999  C 5.42165961538456 6.26724999999999  5.93449567307687 6.07524999999998  5.93449567307687 6.07524999999998  C 5.93449567307687 6.07524999999998  6.67033413461536 6.548  6.67033413461536 6.548  C 6.67033413461536 6.548  9.46460288461526 7.77487499999995  9.46460288461526 7.77487499999995  C 9.46460288461526 7.77487499999995  10.4085769230769 8.06337499999995  10.4085769230769 8.06337499999995  C 10.4085769230769 8.06337499999995  11.895120673077 9.09174999999993  11.895120673077 9.09174999999993  C 11.895120673077 9.09174999999993  12.9505264423077 10.6396250000001  12.9505264423077 10.6396250000001  C 12.9505264423077 10.6396250000001  14.6006052884616 13.780625  14.6006052884616 13.780625  C 14.6006052884616 13.780625  14.9722759615386 14.5005  14.9722759615386 14.5005  C 14.9722759615386 14.5005  15.1358110576924 15.1912500000001  15.1358110576924 15.1912500000001  C 15.1358110576924 15.1912500000001  15.172908653846 16.72225  15.172908653846 16.72225  C 15.172908653846 16.72225  14.6973091346155 17.2577500000001  14.6973091346155 17.2577500000001  C 14.6973091346155 17.2577500000001  14.8830750000001 17.7860000000001  14.8830750000001 17.7860000000001  C 14.8830750000001 17.7860000000001  14.5635076923078 17.964625  14.5635076923078 17.964625  C 14.5635076923078 17.964625  14.095133173077 17.4288750000001  14.095133173077 17.4288750000001  C 14.095133173077 17.4288750000001  11.3971514423076 17.3618749999999  11.3971514423076 17.3618749999999  C 11.3971514423076 17.3618749999999  10.4308076923078 17.555375  10.4308076923078 17.555375  C 10.4308076923078 17.555375  9.42000240384618 17.987  9.42000240384618 17.987  C 9.42000240384618 17.987  6.93043413461533 18.642125  6.93043413461533 18.642125  C 6.93043413461533 18.642125  6.15749807692305 19.372  6.15749807692305 19.372  C 6.15749807692305 19.372  5.10195336538459 19.40925  5.10195336538459 19.40925  C 5.10195336538459 19.40925  5.07221971153854 18.738875  5.07221971153854 18.738875  C 5.07221971153854 18.738875  4.58911730769228 18.2698750000001  4.58911730769228 18.2698750000001  C 4.58911730769228 18.2698750000001  4.40335144230778 17.8381250000001  4.40335144230778 17.8381250000001  C 4.40335144230778 17.8381250000001  3.8978793269232 18.0390000000001  3.8978793269232 18.0390000000001  C 3.8978793269232 18.0390000000001  3.27347259615385 17.934875  3.27347259615385 17.934875  C 3.27347259615385 17.934875  3.45187451923073 17.2502500000001  3.45187451923073 17.2502500000001  C 3.45187451923073 17.2502500000001  2.96877211538458 16.804  2.96877211538458 16.804  C 2.96877211538458 16.804  2.51540336538471 16.9751249999999  2.51540336538471 16.9751249999999  C 2.51540336538471 16.9751249999999  2.24780048076934 17.4288750000001  2.24780048076934 17.4288750000001  C 2.24780048076934 17.4288750000001  1.69036394230773 17.0941250000001  1.69036394230773 17.0941250000001  C 1.69036394230773 17.0941250000001  2.03230096153845 16.5883749999999  2.03230096153845 16.5883749999999  C 2.03230096153845 16.5883749999999  1.70523076923064 16.3356249999999  1.70523076923064 16.3356249999999  C 1.70523076923064 16.3356249999999  1.79443173076925 15.6295  1.79443173076925 15.6295  C 1.79443173076925 15.6295  1.66063028846145 14.53025  1.66063028846145 14.53025  C 1.66063028846145 14.53025  1.17752788461542 14.300125  1.17752788461542 14.300125  C 1.17752788461542 14.300125  1.06595721153849 14.5896250000001  1.06595721153849 14.5896250000001  Z M 11.8059197115384 3.73599999999999  C 11.8059197115384 3.73599999999999  14.9425423076923 5.8046250000001  14.9425423076923 5.8046250000001  C 14.9425423076923 5.8046250000001  15.1952783653846 7.59849999999994  15.1952783653846 7.59849999999994  C 15.1952783653846 7.59849999999994  15.0242403846154 8.01962500000002  15.0242403846154 8.01962500000002  C 15.0242403846154 8.01962500000002  13.9242341346154 8.52949999999998  13.9242341346154 8.52949999999998  C 13.9242341346154 8.52949999999998  13.0620971153845 8.39649999999995  13.0620971153845 8.39649999999995  C 13.0620971153845 8.39649999999995  11.4193822115385 7.62799999999993  11.4193822115385 7.62799999999993  C 11.4193822115385 7.62799999999993  10.7281442307692 7.47287500000004  10.7281442307692 7.47287500000004  C 10.7281442307692 7.47287500000004  8.39474711538458 7.044625  8.39474711538458 7.044625  C 8.39474711538458 7.044625  7.02713798076934 6.18825000000004  7.02713798076934 6.18825000000004  C 7.02713798076934 6.18825000000004  6.55890240384622 6.26212500000008  6.55890240384622 6.26212500000008  C 6.55890240384622 6.26212500000008  6.27643269230782 6.727125  6.27643269230782 6.727125  C 6.27643269230782 6.727125  5.28035528846158 5.81200000000001  5.28035528846158 5.81200000000001  C 5.28035528846158 5.81200000000001  3.54107548076922 2.57162500000004  3.54107548076922 2.57162500000004  C 3.54107548076922 2.57162500000004  3.22150817307693 2.49800000000005  3.22150817307693 2.49800000000005  C 3.22150817307693 2.49800000000005  4.20257980769225 1.40087499999993  4.20257980769225 1.40087499999993  C 4.20257980769225 1.40087499999993  4.99052163461545 0.981499999999983  4.99052163461545 0.981499999999983  C 4.99052163461545 0.981499999999983  5.68926250000015 0.915250000000015  5.68926250000015 0.915250000000015  C 5.68926250000015 0.915250000000015  6.43246490384627 1.423  6.43246490384627 1.423  C 6.43246490384627 1.423  6.99740432692306 2.35075000000006  6.99740432692306 2.35075000000006  C 6.99740432692306 2.35075000000006  7.80757692307691 2.58637499999998  7.80757692307691 2.58637499999998  C 7.80757692307691 2.58637499999998  10.4159408653846 3.30849999999998  10.4159408653846 3.30849999999998  C 10.4159408653846 3.30849999999998  10.9362798076924 3.3895  10.9362798076924 3.3895  C 10.9362798076924 3.3895  11.8059197115384 3.73599999999999  11.8059197115384 3.73599999999999  Z M 12.7423908653846 9.476  C 12.7423908653846 9.476  12.7796274038461 9.95699999999999  12.7796274038461 9.95699999999999  C 12.7796274038461 9.95699999999999  12.6531899038461 10.2307500000001  12.6531899038461 10.2307500000001  C 12.6531899038461 10.2307500000001  12.4004538461539 10.1716249999999  12.4004538461539 10.1716249999999  C 12.4004538461539 10.1716249999999  11.961951923077 9.60187500000006  11.961951923077 9.60187500000006  C 11.961951923077 9.60187500000006  8.69208365384611 7.17612500000007  8.69208365384611 7.17612500000007  C 8.69208365384611 7.17612500000007  7.94137836538471 6.50362500000006  7.94137836538471 6.50362500000006  C 7.94137836538471 6.50362500000006  8.07517980769228 6.33375000000012  8.07517980769228 6.33375000000012  C 8.07517980769228 6.33375000000012  8.6326163461539 6.48887500000001  8.6326163461539 6.48887500000001  C 8.6326163461539 6.48887500000001  8.85561874999996 6.90262500000006  8.85561874999996 6.90262500000006  C 8.85561874999996 6.90262500000006  12.1329899038462 7.59000000000003  12.1329899038462 7.59000000000003  C 12.1329899038462 7.59000000000003  12.7423908653846 9.476  12.7423908653846 9.476  Z M 11.4867692307693 8.72912499999995  C 11.4867692307693 8.72912499999995  11.4645384615384 8.32225000000005  11.4645384615384 8.32225000000005  C 11.4645384615384 8.32225000000005  11.3529677884616 8.01900000000001  11.3529677884616 8.01900000000001  C 11.3529677884616 8.01900000000001  11.9922413461538 8.06337499999995  11.9922413461538 8.06337499999995  C 11.9922413461538 8.06337499999995  13.2706495192309 8.60337500000003  13.2706495192309 8.60337500000003  C 13.2706495192309 8.60337500000003  15.7378480769231 8.79575  15.7378480769231 8.79575  C 15.7378480769231 8.79575  16.6520884615385 8.84012499999994  16.6520884615385 8.84012499999994  C 16.6520884615385 8.84012499999994  16.7264225961538 10.2900000000001  16.7264225961538 10.2900000000001  C 16.7264225961538 10.2900000000001  16.4217221153846 11.03775  16.4217221153846 11.03775  C 16.4217221153846 11.03775  15.4405115384616 10.65275  15.4405115384616 10.65275  C 15.4405115384616 10.65275  13.0402831730769 10.637875  13.0402831730769 10.637875  C 13.0402831730769 10.637875  11.9327740384615 10.4602500000001  11.9327740384615 10.4602500000001  C 11.9327740384615 10.4602500000001  11.4867692307693 8.72912499999995  11.4867692307693 8.72912499999995  Z M 10.8024783653847 8.12300000000005  C 10.8024783653847 8.12300000000005  10.7430110576925 8.29300000000012  10.7430110576925 8.29300000000012  C 10.7430110576925 8.29300000000012  8.78128461538449 6.54050000000007  8.78128461538449 6.54050000000007  C 8.78128461538449 6.54050000000007  10.8024783653847 8.12300000000005  10.8024783653847 8.12300000000005  Z M 13.3673533653846 12.43075  C 13.3673533653846 12.43075  13.1740846153846 10.3655  13.1740846153846 10.3655  C 13.1740846153846 10.3655  13.2632855769231 10.1728750000001  13.2632855769231 10.1728750000001  C 13.2632855769231 10.1728750000001  15.3513105769231 10.284  15.3513105769231 10.284  C 15.3513105769231 10.284  15.1952783653846 12.4085  15.1952783653846 12.4085  C 15.1952783653846 12.4085  13.3673533653846 12.43075  13.3673533653846 12.43075  Z M 14.1472365384616 11.911875  C 14.1472365384616 11.911875  12.4382461538463 10.0025000000001  12.4382461538463 10.0025000000001  C 12.4382461538463 10.0025000000001  14.3256384615385 10.098875  14.3256384615385 10.098875  C 14.3256384615385 10.098875  14.1472365384616 11.911875  14.1472365384616 11.911875  Z " fill-rule="nonzero" fill="#ffffff" stroke="none" fill-opacity="0" transform="matrix(1 0 0 1 1162 391 )" />
    <path d="M 1.06595721153849 14.5896250000001  C 1.06595721153849 14.5896250000001  0.597721634615368 14.4857499999999  0.597721634615368 14.4857499999999  C 0.597721634615368 14.4857499999999  0.471423076923088 13.3724999999999  0.471423076923088 13.3724999999999  C 0.471423076923088 13.3724999999999  0.0922495192307906 12.0335  0.0922495192307906 12.0335  C 0.0922495192307906 12.0335  0.352488461538542 11.5366250000001  0.352488461538542 11.5366250000001  C 0.352488461538542 11.5366250000001  0.947022596153715 11.44025  0.947022596153715 11.44025  C 0.947022596153715 11.44025  2.00993125000002 11.544  2.00993125000002 11.544  C 2.00993125000002 11.544  2.71603605769235 11.1954999999999  2.71603605769235 11.1954999999999  C 2.71603605769235 11.1954999999999  2.51540336538471 9.93587500000001  2.51540336538471 9.93587500000001  C 2.51540336538471 9.93587500000001  2.87957115384631 9.26200000000006  2.87957115384631 9.26200000000006  C 2.87957115384631 9.26200000000006  3.51134182692317 9.49900000000002  3.51134182692317 9.49900000000002  C 3.51134182692317 9.49900000000002  3.36267355769235 8.50712500000009  3.36267355769235 8.50712500000009  C 3.36267355769235 8.50712500000009  3.1620408653846 8.06337499999995  3.1620408653846 8.06337499999995  C 3.1620408653846 8.06337499999995  3.51884471153835 7.81187499999999  3.51884471153835 7.81187499999999  C 3.51884471153835 7.81187499999999  3.8978793269232 6.98387500000001  3.8978793269232 6.98387500000001  C 3.8978793269232 6.98387500000001  4.70805192307694 6.34849999999994  4.70805192307694 6.34849999999994  C 4.70805192307694 6.34849999999994  4.77502211538456 6.58487500000001  4.77502211538456 6.58487500000001  C 4.77502211538456 6.58487500000001  5.42165961538456 6.26724999999999  5.42165961538456 6.26724999999999  C 5.42165961538456 6.26724999999999  5.93449567307687 6.07524999999998  5.93449567307687 6.07524999999998  C 5.93449567307687 6.07524999999998  6.67033413461536 6.548  6.67033413461536 6.548  C 6.67033413461536 6.548  9.46460288461526 7.77487499999995  9.46460288461526 7.77487499999995  C 9.46460288461526 7.77487499999995  10.4085769230769 8.06337499999995  10.4085769230769 8.06337499999995  C 10.4085769230769 8.06337499999995  11.895120673077 9.09174999999993  11.895120673077 9.09174999999993  C 11.895120673077 9.09174999999993  12.9505264423077 10.6396250000001  12.9505264423077 10.6396250000001  C 12.9505264423077 10.6396250000001  14.6006052884616 13.780625  14.6006052884616 13.780625  C 14.6006052884616 13.780625  14.9722759615386 14.5005  14.9722759615386 14.5005  C 14.9722759615386 14.5005  15.1358110576924 15.1912500000001  15.1358110576924 15.1912500000001  C 15.1358110576924 15.1912500000001  15.172908653846 16.72225  15.172908653846 16.72225  C 15.172908653846 16.72225  14.6973091346155 17.2577500000001  14.6973091346155 17.2577500000001  C 14.6973091346155 17.2577500000001  14.8830750000001 17.7860000000001  14.8830750000001 17.7860000000001  C 14.8830750000001 17.7860000000001  14.5635076923078 17.964625  14.5635076923078 17.964625  C 14.5635076923078 17.964625  14.095133173077 17.4288750000001  14.095133173077 17.4288750000001  C 14.095133173077 17.4288750000001  11.3971514423076 17.3618749999999  11.3971514423076 17.3618749999999  C 11.3971514423076 17.3618749999999  10.4308076923078 17.555375  10.4308076923078 17.555375  C 10.4308076923078 17.555375  9.42000240384618 17.987  9.42000240384618 17.987  C 9.42000240384618 17.987  6.93043413461533 18.642125  6.93043413461533 18.642125  C 6.93043413461533 18.642125  6.15749807692305 19.372  6.15749807692305 19.372  C 6.15749807692305 19.372  5.10195336538459 19.40925  5.10195336538459 19.40925  C 5.10195336538459 19.40925  5.07221971153854 18.738875  5.07221971153854 18.738875  C 5.07221971153854 18.738875  4.58911730769228 18.2698750000001  4.58911730769228 18.2698750000001  C 4.58911730769228 18.2698750000001  4.40335144230778 17.8381250000001  4.40335144230778 17.8381250000001  C 4.40335144230778 17.8381250000001  3.8978793269232 18.0390000000001  3.8978793269232 18.0390000000001  C 3.8978793269232 18.0390000000001  3.27347259615385 17.934875  3.27347259615385 17.934875  C 3.27347259615385 17.934875  3.45187451923073 17.2502500000001  3.45187451923073 17.2502500000001  C 3.45187451923073 17.2502500000001  2.96877211538458 16.804  2.96877211538458 16.804  C 2.96877211538458 16.804  2.51540336538471 16.9751249999999  2.51540336538471 16.9751249999999  C 2.51540336538471 16.9751249999999  2.24780048076934 17.4288750000001  2.24780048076934 17.4288750000001  C 2.24780048076934 17.4288750000001  1.69036394230773 17.0941250000001  1.69036394230773 17.0941250000001  C 1.69036394230773 17.0941250000001  2.03230096153845 16.5883749999999  2.03230096153845 16.5883749999999  C 2.03230096153845 16.5883749999999  1.70523076923064 16.3356249999999  1.70523076923064 16.3356249999999  C 1.70523076923064 16.3356249999999  1.79443173076925 15.6295  1.79443173076925 15.6295  C 1.79443173076925 15.6295  1.66063028846145 14.53025  1.66063028846145 14.53025  C 1.66063028846145 14.53025  1.17752788461542 14.300125  1.17752788461542 14.300125  C 1.17752788461542 14.300125  1.06595721153849 14.5896250000001  1.06595721153849 14.5896250000001  Z " stroke-width="2" stroke="#0099ff" fill="none" transform="matrix(1 0 0 1 1162 391 )" mask="url(#clip124)" />
    <path d="M 11.8059197115384 3.73599999999999  C 11.8059197115384 3.73599999999999  14.9425423076923 5.8046250000001  14.9425423076923 5.8046250000001  C 14.9425423076923 5.8046250000001  15.1952783653846 7.59849999999994  15.1952783653846 7.59849999999994  C 15.1952783653846 7.59849999999994  15.0242403846154 8.01962500000002  15.0242403846154 8.01962500000002  C 15.0242403846154 8.01962500000002  13.9242341346154 8.52949999999998  13.9242341346154 8.52949999999998  C 13.9242341346154 8.52949999999998  13.0620971153845 8.39649999999995  13.0620971153845 8.39649999999995  C 13.0620971153845 8.39649999999995  11.4193822115385 7.62799999999993  11.4193822115385 7.62799999999993  C 11.4193822115385 7.62799999999993  10.7281442307692 7.47287500000004  10.7281442307692 7.47287500000004  C 10.7281442307692 7.47287500000004  8.39474711538458 7.044625  8.39474711538458 7.044625  C 8.39474711538458 7.044625  7.02713798076934 6.18825000000004  7.02713798076934 6.18825000000004  C 7.02713798076934 6.18825000000004  6.55890240384622 6.26212500000008  6.55890240384622 6.26212500000008  C 6.55890240384622 6.26212500000008  6.27643269230782 6.727125  6.27643269230782 6.727125  C 6.27643269230782 6.727125  5.28035528846158 5.81200000000001  5.28035528846158 5.81200000000001  C 5.28035528846158 5.81200000000001  3.54107548076922 2.57162500000004  3.54107548076922 2.57162500000004  C 3.54107548076922 2.57162500000004  3.22150817307693 2.49800000000005  3.22150817307693 2.49800000000005  C 3.22150817307693 2.49800000000005  4.20257980769225 1.40087499999993  4.20257980769225 1.40087499999993  C 4.20257980769225 1.40087499999993  4.99052163461545 0.981499999999983  4.99052163461545 0.981499999999983  C 4.99052163461545 0.981499999999983  5.68926250000015 0.915250000000015  5.68926250000015 0.915250000000015  C 5.68926250000015 0.915250000000015  6.43246490384627 1.423  6.43246490384627 1.423  C 6.43246490384627 1.423  6.99740432692306 2.35075000000006  6.99740432692306 2.35075000000006  C 6.99740432692306 2.35075000000006  7.80757692307691 2.58637499999998  7.80757692307691 2.58637499999998  C 7.80757692307691 2.58637499999998  10.4159408653846 3.30849999999998  10.4159408653846 3.30849999999998  C 10.4159408653846 3.30849999999998  10.9362798076924 3.3895  10.9362798076924 3.3895  C 10.9362798076924 3.3895  11.8059197115384 3.73599999999999  11.8059197115384 3.73599999999999  Z " stroke-width="2" stroke="#0099ff" fill="none" transform="matrix(1 0 0 1 1162 391 )" mask="url(#clip124)" />
    <path d="M 12.7423908653846 9.476  C 12.7423908653846 9.476  12.7796274038461 9.95699999999999  12.7796274038461 9.95699999999999  C 12.7796274038461 9.95699999999999  12.6531899038461 10.2307500000001  12.6531899038461 10.2307500000001  C 12.6531899038461 10.2307500000001  12.4004538461539 10.1716249999999  12.4004538461539 10.1716249999999  C 12.4004538461539 10.1716249999999  11.961951923077 9.60187500000006  11.961951923077 9.60187500000006  C 11.961951923077 9.60187500000006  8.69208365384611 7.17612500000007  8.69208365384611 7.17612500000007  C 8.69208365384611 7.17612500000007  7.94137836538471 6.50362500000006  7.94137836538471 6.50362500000006  C 7.94137836538471 6.50362500000006  8.07517980769228 6.33375000000012  8.07517980769228 6.33375000000012  C 8.07517980769228 6.33375000000012  8.6326163461539 6.48887500000001  8.6326163461539 6.48887500000001  C 8.6326163461539 6.48887500000001  8.85561874999996 6.90262500000006  8.85561874999996 6.90262500000006  C 8.85561874999996 6.90262500000006  12.1329899038462 7.59000000000003  12.1329899038462 7.59000000000003  C 12.1329899038462 7.59000000000003  12.7423908653846 9.476  12.7423908653846 9.476  Z " stroke-width="2" stroke="#0099ff" fill="none" transform="matrix(1 0 0 1 1162 391 )" mask="url(#clip124)" />
    <path d="M 11.4867692307693 8.72912499999995  C 11.4867692307693 8.72912499999995  11.4645384615384 8.32225000000005  11.4645384615384 8.32225000000005  C 11.4645384615384 8.32225000000005  11.3529677884616 8.01900000000001  11.3529677884616 8.01900000000001  C 11.3529677884616 8.01900000000001  11.9922413461538 8.06337499999995  11.9922413461538 8.06337499999995  C 11.9922413461538 8.06337499999995  13.2706495192309 8.60337500000003  13.2706495192309 8.60337500000003  C 13.2706495192309 8.60337500000003  15.7378480769231 8.79575  15.7378480769231 8.79575  C 15.7378480769231 8.79575  16.6520884615385 8.84012499999994  16.6520884615385 8.84012499999994  C 16.6520884615385 8.84012499999994  16.7264225961538 10.2900000000001  16.7264225961538 10.2900000000001  C 16.7264225961538 10.2900000000001  16.4217221153846 11.03775  16.4217221153846 11.03775  C 16.4217221153846 11.03775  15.4405115384616 10.65275  15.4405115384616 10.65275  C 15.4405115384616 10.65275  13.0402831730769 10.637875  13.0402831730769 10.637875  C 13.0402831730769 10.637875  11.9327740384615 10.4602500000001  11.9327740384615 10.4602500000001  C 11.9327740384615 10.4602500000001  11.4867692307693 8.72912499999995  11.4867692307693 8.72912499999995  Z " stroke-width="2" stroke="#0099ff" fill="none" transform="matrix(1 0 0 1 1162 391 )" mask="url(#clip124)" />
    <path d="M 10.8024783653847 8.12300000000005  C 10.8024783653847 8.12300000000005  10.7430110576925 8.29300000000012  10.7430110576925 8.29300000000012  C 10.7430110576925 8.29300000000012  8.78128461538449 6.54050000000007  8.78128461538449 6.54050000000007  C 8.78128461538449 6.54050000000007  10.8024783653847 8.12300000000005  10.8024783653847 8.12300000000005  Z " stroke-width="2" stroke="#0099ff" fill="none" transform="matrix(1 0 0 1 1162 391 )" mask="url(#clip124)" />
    <path d="M 13.3673533653846 12.43075  C 13.3673533653846 12.43075  13.1740846153846 10.3655  13.1740846153846 10.3655  C 13.1740846153846 10.3655  13.2632855769231 10.1728750000001  13.2632855769231 10.1728750000001  C 13.2632855769231 10.1728750000001  15.3513105769231 10.284  15.3513105769231 10.284  C 15.3513105769231 10.284  15.1952783653846 12.4085  15.1952783653846 12.4085  C 15.1952783653846 12.4085  13.3673533653846 12.43075  13.3673533653846 12.43075  Z " stroke-width="2" stroke="#0099ff" fill="none" transform="matrix(1 0 0 1 1162 391 )" mask="url(#clip124)" />
    <path d="M 14.1472365384616 11.911875  C 14.1472365384616 11.911875  12.4382461538463 10.0025000000001  12.4382461538463 10.0025000000001  C 12.4382461538463 10.0025000000001  14.3256384615385 10.098875  14.3256384615385 10.098875  C 14.3256384615385 10.098875  14.1472365384616 11.911875  14.1472365384616 11.911875  Z " stroke-width="2" stroke="#0099ff" fill="none" transform="matrix(1 0 0 1 1162 391 )" mask="url(#clip124)" />
  </g>
</svg>