<?xml version="1.0" encoding="utf-8"?>
<svg version="1.1" xmlns:xlink="http://www.w3.org/1999/xlink" width="3px" height="4px" xmlns="http://www.w3.org/2000/svg">
  <defs>
    <mask fill="white" id="clip58">
      <path d="M 2.71980000000008 3.30426666666665  C 2.71980000000008 3.30426666666665  0.577950000000101 3.6894666666667  0.577950000000101 3.6894666666667  C 0.577950000000101 3.6894666666667  0.577950000000101 3.15013333333332  0.577950000000101 3.15013333333332  C 0.577950000000101 3.15013333333332  0.321149999999989 1.32893333333334  0.321149999999989 1.32893333333334  C 0.321149999999989 1.32893333333334  0.369300000000067 0.781466666666688  0.369300000000067 0.781466666666688  C 0.369300000000067 0.781466666666688  0.634049999999888 0.738666666666632  0.634049999999888 0.738666666666632  C 0.634049999999888 0.738666666666632  2.35874999999999 1.01239999999996  2.35874999999999 1.01239999999996  C 2.35874999999999 1.01239999999996  2.71980000000008 3.30426666666665  2.71980000000008 3.30426666666665  Z M 0.858749999999986 0.909733333333293  C 0.858749999999986 0.909733333333293  2.49510000000009 0.909733333333293  2.49510000000009 0.909733333333293  C 2.49510000000009 0.909733333333293  0.858749999999986 2.34573333333333  0.858749999999986 2.34573333333333  C 0.858749999999986 2.34573333333333  0.858749999999986 0.909733333333293  0.858749999999986 0.909733333333293  Z " fill-rule="evenodd" />
    </mask>
  </defs>
  <g transform="matrix(1 0 0 1 -1072 -530 )">
    <path d="M 2.71980000000008 3.30426666666665  C 2.71980000000008 3.30426666666665  0.577950000000101 3.6894666666667  0.577950000000101 3.6894666666667  C 0.577950000000101 3.6894666666667  0.577950000000101 3.15013333333332  0.577950000000101 3.15013333333332  C 0.577950000000101 3.15013333333332  0.321149999999989 1.32893333333334  0.321149999999989 1.32893333333334  C 0.321149999999989 1.32893333333334  0.369300000000067 0.781466666666688  0.369300000000067 0.781466666666688  C 0.369300000000067 0.781466666666688  0.634049999999888 0.738666666666632  0.634049999999888 0.738666666666632  C 0.634049999999888 0.738666666666632  2.35874999999999 1.01239999999996  2.35874999999999 1.01239999999996  C 2.35874999999999 1.01239999999996  2.71980000000008 3.30426666666665  2.71980000000008 3.30426666666665  Z M 0.858749999999986 0.909733333333293  C 0.858749999999986 0.909733333333293  2.49510000000009 0.909733333333293  2.49510000000009 0.909733333333293  C 2.49510000000009 0.909733333333293  0.858749999999986 2.34573333333333  0.858749999999986 2.34573333333333  C 0.858749999999986 2.34573333333333  0.858749999999986 0.909733333333293  0.858749999999986 0.909733333333293  Z " fill-rule="nonzero" fill="#ffffff" stroke="none" fill-opacity="0" transform="matrix(1 0 0 1 1072 530 )" />
    <path d="M 2.71980000000008 3.30426666666665  C 2.71980000000008 3.30426666666665  0.577950000000101 3.6894666666667  0.577950000000101 3.6894666666667  C 0.577950000000101 3.6894666666667  0.577950000000101 3.15013333333332  0.577950000000101 3.15013333333332  C 0.577950000000101 3.15013333333332  0.321149999999989 1.32893333333334  0.321149999999989 1.32893333333334  C 0.321149999999989 1.32893333333334  0.369300000000067 0.781466666666688  0.369300000000067 0.781466666666688  C 0.369300000000067 0.781466666666688  0.634049999999888 0.738666666666632  0.634049999999888 0.738666666666632  C 0.634049999999888 0.738666666666632  2.35874999999999 1.01239999999996  2.35874999999999 1.01239999999996  C 2.35874999999999 1.01239999999996  2.71980000000008 3.30426666666665  2.71980000000008 3.30426666666665  Z " stroke-width="2" stroke="#0099ff" fill="none" transform="matrix(1 0 0 1 1072 530 )" mask="url(#clip58)" />
    <path d="M 0.858749999999986 0.909733333333293  C 0.858749999999986 0.909733333333293  2.49510000000009 0.909733333333293  2.49510000000009 0.909733333333293  C 2.49510000000009 0.909733333333293  0.858749999999986 2.34573333333333  0.858749999999986 2.34573333333333  C 0.858749999999986 2.34573333333333  0.858749999999986 0.909733333333293  0.858749999999986 0.909733333333293  Z " stroke-width="2" stroke="#0099ff" fill="none" transform="matrix(1 0 0 1 1072 530 )" mask="url(#clip58)" />
  </g>
</svg>