<?xml version="1.0" encoding="utf-8"?>
<svg version="1.1" xmlns:xlink="http://www.w3.org/1999/xlink" width="29px" height="25px" xmlns="http://www.w3.org/2000/svg">
  <defs>
    <mask fill="white" id="clip26">
      <path d="M 27.11065 7.51884920634916  C 27.11065 7.51884920634916  26.59097 7.23809523809518  26.59097 7.23809523809518  C 26.59097 7.23809523809518  25.598155 7.53187003968253  25.598155 7.53187003968253  C 25.598155 7.53187003968253  25.318885 7.83234126984121  25.318885 7.83234126984121  C 25.318885 7.83234126984121  25.51275 8.21775793650784  25.51275 8.21775793650784  C 25.51275 8.21775793650784  24.830235 8.38107638888891  24.830235 8.38107638888891  C 24.830235 8.38107638888891  25.52058 9.23102678571422  25.52058 9.23102678571422  C 25.52058 9.23102678571422  25.14822 9.59077380952385  25.14822 9.59077380952385  C 25.14822 9.59077380952385  25.0473 10.2845982142858  25.0473 10.2845982142858  C 25.0473 10.2845982142858  25.2645100000001 10.2780257936507  25.2645100000001 10.2780257936507  C 25.2645100000001 10.2780257936507  25.621355 10.9134424603175  25.621355 10.9134424603175  C 25.621355 10.9134424603175  25.91614 11.5885416666666  25.91614 11.5885416666666  C 25.91614 11.5885416666666  26.3737600000001 11.4246031746031  26.3737600000001 11.4246031746031  C 26.3737600000001 11.4246031746031  26.6220000000001 13.5238095238095  26.6220000000001 13.5238095238095  C 26.6220000000001 13.5238095238095  27.11065 13.5500992063492  27.11065 13.5500992063492  C 27.11065 13.5500992063492  27.0330750000001 14.1211557539683  27.0330750000001 14.1211557539683  C 27.0330750000001 14.1211557539683  26.823695 14.3443700396825  26.823695 14.3443700396825  C 26.823695 14.3443700396825  26.823695 14.3377976190476  26.823695 14.3377976190476  C 26.823695 14.3377976190476  26.823695 14.3443700396825  26.823695 14.3443700396825  C 26.823695 14.3443700396825  26.5988 14.8632192460318  26.5988 14.8632192460318  C 26.5988 14.8632192460318  26.0712899999999 14.8566468253968  26.0712899999999 14.8566468253968  C 26.0712899999999 14.8566468253968  25.652385 15.3035714285714  25.652385 15.3035714285714  C 25.652385 15.3035714285714  25.411975 15.1786954365079  25.411975 15.1786954365079  C 25.411975 15.1786954365079  25.0241000000001 15.4613095238095  25.0241000000001 15.4613095238095  C 25.0241000000001 15.4613095238095  24.845605 15.6454613095239  24.845605 15.6454613095239  C 24.845605 15.6454613095239  24.77586 15.8230406746032  24.77586 15.8230406746032  C 24.77586 15.8230406746032  24.2096349999999 15.717757936508  24.2096349999999 15.717757936508  C 24.2096349999999 15.717757936508  23.96908 15.9019097222223  23.96908 15.9019097222223  C 23.96908 15.9019097222223  23.5269750000001 15.7571924603176  23.5269750000001 15.7571924603176  C 23.5269750000001 15.7571924603176  22.852145 15.967757936508  22.852145 15.967757936508  C 22.852145 15.967757936508  22.5186449999999 16.3887648809524  22.5186449999999 16.3887648809524  C 22.5186449999999 16.3887648809524  21.51017 16.2309027777778  21.51017 16.2309027777778  C 21.51017 16.2309027777778  21.29296 16.0334821428571  21.29296 16.0334821428571  C 21.29296 16.0334821428571  20.5328700000001 16.2243303571428  20.5328700000001 16.2243303571428  C 20.5328700000001 16.2243303571428  20.07525 16.0861855158731  20.07525 16.0861855158731  C 20.07525 16.0861855158731  19.935615 16.415054563492  19.935615 16.415054563492  C 19.935615 16.415054563492  19.446965 16.3229166666666  19.446965 16.3229166666666  C 19.446965 16.3229166666666  19.1521799999999 17.2841021825398  19.1521799999999 17.2841021825398  C 19.1521799999999 17.2841021825398  19.4624800000001 17.5740327380953  19.4624800000001 17.5740327380953  C 19.4624800000001 17.5740327380953  19.48568 18.3847966269841  19.48568 18.3847966269841  C 19.48568 18.3847966269841  19.834695 18.4045138888888  19.834695 18.4045138888888  C 19.834695 18.4045138888888  20.5095249999999 19.0641121031746  20.5095249999999 19.0641121031746  C 20.5095249999999 19.0641121031746  21.0370349999999 19.2291666666667  21.0370349999999 19.2291666666667  C 21.0370349999999 19.2291666666667  21.1689849999999 19.0311259920635  21.1689849999999 19.0311259920635  C 21.1689849999999 19.0311259920635  21.5645450000001 20.0016121031746  21.5645450000001 20.0016121031746  C 21.5645450000001 20.0016121031746  20.9672899999999 20.2196180555555  20.9672899999999 20.2196180555555  C 20.9672899999999 20.2196180555555  21.15347 20.6821676587302  21.15347 20.6821676587302  C 21.15347 20.6821676587302  20.78111 20.7681051587302  20.78111 20.7681051587302  C 20.78111 20.7681051587302  20.8121400000001 21.3102678571429  20.8121400000001 21.3102678571429  C 20.8121400000001 21.3102678571429  21.013835 21.3035714285714  21.013835 21.3035714285714  C 21.013835 21.3035714285714  21.02152 21.4557291666666  21.02152 21.4557291666666  C 21.02152 21.4557291666666  20.3079749999999 21.5946180555555  20.3079749999999 21.5946180555555  C 20.3079749999999 21.5946180555555  19.834695 22.3425099206348  19.834695 22.3425099206348  C 19.834695 22.3425099206348  19.563255 22.6272321428572  19.563255 22.6272321428572  C 19.563255 22.6272321428572  19.035745 22.2828621031746  19.035745 22.2828621031746  C 19.035745 22.2828621031746  18.53941 22.3093998015873  18.53941 22.3093998015873  C 18.53941 22.3093998015873  18.756475 22.633804563492  18.756475 22.633804563492  C 18.756475 22.633804563492  18.725445 22.6736111111111  18.725445 22.6736111111111  C 18.725445 22.6736111111111  18.7177600000001 22.6736111111111  18.7177600000001 22.6736111111111  C 18.7177600000001 22.6736111111111  18.725445 22.6736111111111  18.725445 22.6736111111111  C 18.725445 22.6736111111111  18.7177600000001 22.6736111111111  18.7177600000001 22.6736111111111  C 18.7177600000001 22.6736111111111  17.9808700000001 22.4880952380952  17.9808700000001 22.4880952380952  C 17.9808700000001 22.4880952380952  17.42233 22.5410466269841  17.42233 22.5410466269841  C 17.42233 22.5410466269841  17.0654850000001 22.2630208333333  17.0654850000001 22.2630208333333  C 17.0654850000001 22.2630208333333  16.212305 22.6205357142857  16.212305 22.6205357142857  C 16.212305 22.6205357142857  16.01061 23.2697172619048  16.01061 23.2697172619048  C 16.01061 23.2697172619048  15.568505 23.2433035714286  15.568505 23.2433035714286  C 15.568505 23.2433035714286  15.6305650000002 23.4950396825398  15.6305650000002 23.4950396825398  C 15.6305650000002 23.4950396825398  13.66857 23.6210317460318  13.66857 23.6210317460318  C 13.66857 23.6210317460318  13.746145 23.8597470238095  13.746145 23.8597470238095  C 13.746145 23.8597470238095  13.2186349999999 23.6011904761905  13.2186349999999 23.6011904761905  C 13.2186349999999 23.6011904761905  13.3427550000001 24.250992063492  13.3427550000001 24.250992063492  C 13.3427550000001 24.250992063492  13.75383 24.2576884920635  13.75383 24.2576884920635  C 13.75383 24.2576884920635  13.8857800000001 24.6755952380953  13.8857800000001 24.6755952380953  C 13.8857800000001 24.6755952380953  13.62971 24.8282490079365  13.62971 24.8282490079365  C 13.62971 24.8282490079365  12.71447 24.6490575396825  12.71447 24.6490575396825  C 12.71447 24.6490575396825  12.4119999999999 24.6424851190476  12.4119999999999 24.6424851190476  C 12.4119999999999 24.6424851190476  12.024125 24.171378968254  12.024125 24.171378968254  C 12.024125 24.171378968254  11.4035249999999 23.999007936508  11.4035249999999 23.999007936508  C 11.4035249999999 23.999007936508  11.186315 23.0842013888889  11.186315 23.0842013888889  C 11.186315 23.0842013888889  10.65895 22.7198660714287  10.65895 22.7198660714287  C 10.65895 22.7198660714287  10.0693799999999 22.8060515873016  10.0693799999999 22.8060515873016  C 10.0693799999999 22.8060515873016  9.79793999999993 23.03125  9.79793999999993 23.03125  C 9.79793999999993 23.03125  9.40223499999991 22.9252232142858  9.40223499999991 22.9252232142858  C 9.40223499999991 22.9252232142858  8.61111500000004 22.9716021825396  8.61111500000004 22.9716021825396  C 8.61111500000004 22.9716021825396  8.48699500000009 22.7464037698413  8.48699500000009 22.7464037698413  C 8.48699500000009 22.7464037698413  8.09912000000008 22.8988095238095  8.09912000000008 22.8988095238095  C 8.09912000000008 22.8988095238095  7.88190999999995 22.6272321428572  7.88190999999995 22.6272321428572  C 7.88190999999995 22.6272321428572  7.61815500000011 23.1305803571428  7.61815500000011 23.1305803571428  C 7.61815500000011 23.1305803571428  7.02873 22.5610119047619  7.02873 22.5610119047619  C 7.02873 22.5610119047619  7.09079000000008 22.8126240079365  7.09079000000008 22.8126240079365  C 7.09079000000008 22.8126240079365  6.49338999999998 23.3360615079365  6.49338999999998 23.3360615079365  C 6.49338999999998 23.3360615079365  5.99705499999993 23.4089781746032  5.99705499999993 23.4089781746032  C 5.99705499999993 23.4089781746032  5.90396499999986 23.6741071428572  5.90396499999986 23.6741071428572  C 5.90396499999986 23.6741071428572  5.71778500000005 23.8597470238095  5.71778500000005 23.8597470238095  C 5.71778500000005 23.8597470238095  5.04295500000001 23.7801339285714  5.04295500000001 23.7801339285714  C 5.04295500000001 23.7801339285714  4.86445999999989 23.4353918650793  4.86445999999989 23.4353918650793  C 4.86445999999989 23.4353918650793  4.86445999999989 23.4288194444445  4.86445999999989 23.4288194444445  C 4.86445999999989 23.4288194444445  4.86445999999989 23.4353918650793  4.86445999999989 23.4353918650793  C 4.86445999999989 23.4353918650793  4.86445999999989 23.4288194444445  4.86445999999989 23.4288194444445  C 4.86445999999989 23.4288194444445  4.69379500000002 23.3691716269841  4.69379500000002 23.3691716269841  C 4.69379500000002 23.3691716269841  4.66276499999992 23.3758680555555  4.66276499999992 23.3758680555555  C 4.66276499999992 23.3758680555555  4.6472500000001 23.3758680555555  4.6472500000001 23.3758680555555  C 4.6472500000001 23.3758680555555  4.66276499999992 23.3758680555555  4.66276499999992 23.3758680555555  C 4.66276499999992 23.3758680555555  4.66276499999992 23.3691716269841  4.66276499999992 23.3691716269841  C 4.66276499999992 23.3691716269841  4.6472500000001 23.3758680555555  4.6472500000001 23.3758680555555  C 4.6472500000001 23.3758680555555  4.66276499999992 23.3691716269841  4.66276499999992 23.3691716269841  C 4.66276499999992 23.3691716269841  4.63956500000006 23.2697172619048  4.63956500000006 23.2697172619048  C 4.63956500000006 23.2697172619048  4.61621999999988 23.2300347222223  4.61621999999988 23.2300347222223  C 4.61621999999988 23.2300347222223  4.59302000000002 23.1372767857143  4.59302000000002 23.1372767857143  C 4.59302000000002 23.1372767857143  4.36812500000008 22.9981398809524  4.36812500000008 22.9981398809524  C 4.36812500000008 22.9981398809524  4.36029500000006 22.8855406746031  4.36029500000006 22.8855406746031  C 4.36029500000006 22.8855406746031  3.97241999999994 22.3490823412699  3.97241999999994 22.3490823412699  C 3.97241999999994 22.3490823412699  3.54582999999991 22.5742807539683  3.54582999999991 22.5742807539683  C 3.54582999999991 22.5742807539683  2.95626000000004 22.7132936507936  2.95626000000004 22.7132936507936  C 2.95626000000004 22.7132936507936  2.43657999999994 22.296130952381  2.43657999999994 22.296130952381  C 2.43657999999994 22.296130952381  2.08756500000004 22.6072668650794  2.08756500000004 22.6072668650794  C 2.08756500000004 22.6072668650794  2.14179499999989 21.991691468254  2.14179499999989 21.991691468254  C 2.14179499999989 21.991691468254  1.59108500000002 21.8394097222222  1.59108500000002 21.8394097222222  C 1.59108500000002 21.8394097222222  1.75406500000008 21.561507936508  1.75406500000008 21.561507936508  C 1.75406500000008 21.561507936508  1.69200499999999 20.5301339285714  1.69200499999999 20.5301339285714  C 1.69200499999999 20.5301339285714  1.10243500000013 20.3847966269841  1.10243500000013 20.3847966269841  C 1.10243500000013 20.3847966269841  1.14898000000005 19.9025297619047  1.14898000000005 19.9025297619047  C 1.14898000000005 19.9025297619047  1.65314499999999 19.7176339285713  1.65314499999999 19.7176339285713  C 1.65314499999999 19.7176339285713  1.93241500000011 19.922371031746  1.93241500000011 19.922371031746  C 1.93241500000011 19.922371031746  2.52198499999997 19.7704613095237  2.52198499999997 19.7704613095237  C 2.52198499999997 19.7704613095237  2.70802000000015 19.460193452381  2.70802000000015 19.460193452381  C 2.70802000000015 19.460193452381  2.04102 19.156498015873  2.04102 19.156498015873  C 2.04102 19.156498015873  2.18834000000004 18.6090029761905  2.18834000000004 18.6090029761905  C 2.18834000000004 18.6090029761905  2.05653500000005 18.3715277777777  2.05653500000005 18.3715277777777  C 2.05653500000005 18.3715277777777  2.1496249999999 18.2726934523809  2.1496249999999 18.2726934523809  C 2.1496249999999 18.2726934523809  1.62211499999989 17.7452876984127  1.62211499999989 17.7452876984127  C 1.62211499999989 17.7452876984127  0.931770000000029 17.5344742063492  0.931770000000029 17.5344742063492  C 0.931770000000029 17.5344742063492  0.962800000000016 17.047123015873  0.962800000000016 17.047123015873  C 0.962800000000016 17.047123015873  1.23423999999989 16.9285714285713  1.23423999999989 16.9285714285713  C 1.23423999999989 16.9285714285713  1.28861500000005 16.3953373015873  1.28861500000005 16.3953373015873  C 1.28861500000005 16.3953373015873  1.67649000000006 16.2440476190476  1.67649000000006 16.2440476190476  C 1.67649000000006 16.2440476190476  2.20385499999998 15.7309027777778  2.20385499999998 15.7309027777778  C 2.20385499999998 15.7309027777778  3.00280500000008 15.4415922619048  3.00280500000008 15.4415922619048  C 3.00280500000008 15.4415922619048  3.11923999999999 15.1063988095239  3.11923999999999 15.1063988095239  C 3.11923999999999 15.1063988095239  5.06615500000009 14.7318948412699  5.06615500000009 14.7318948412699  C 5.06615500000009 14.7318948412699  5.30671000000007 14.2917906746031  5.30671000000007 14.2917906746031  C 5.30671000000007 14.2917906746031  5.71778500000005 14.6201636904761  5.71778500000005 14.6201636904761  C 5.71778500000005 14.6201636904761  6.23746499999993 14.7121775793652  6.23746499999993 14.7121775793652  C 6.23746499999993 14.7121775793652  6.33838500000002 14.1145833333333  6.33838500000002 14.1145833333333  C 6.33838500000002 14.1145833333333  6.52441999999996 14.1538938492064  6.52441999999996 14.1538938492064  C 6.52441999999996 14.1538938492064  6.8812650000001 13.4582093253969  6.8812650000001 13.4582093253969  C 6.8812650000001 13.4582093253969  7.76562000000001 11.7917906746032  7.76562000000001 11.7917906746032  C 7.76562000000001 11.7917906746032  7.54840999999999 11.5360863095239  7.54840999999999 11.5360863095239  C 7.54840999999999 11.5360863095239  7.12182000000007 10.4941716269842  7.12182000000007 10.4941716269842  C 7.12182000000007 10.4941716269842  6.44684500000005 10.4221230158731  6.44684500000005 10.4221230158731  C 6.44684500000005 10.4221230158731  5.283365 9.21130952380952  5.283365 9.21130952380952  C 5.283365 9.21130952380952  5.39965499999994 8.49875992063494  5.39965499999994 8.49875992063494  C 5.39965499999994 8.49875992063494  4.83343000000002 8.35491071428578  4.83343000000002 8.35491071428578  C 4.83343000000002 8.35491071428578  5.07398499999988 7.82576884920638  5.07398499999988 7.82576884920638  C 5.07398499999988 7.82576884920638  5.44634499999984 7.56460813492072  5.44634499999984 7.56460813492072  C 5.44634499999984 7.56460813492072  5.88845000000003 7.55146329365084  5.88845000000003 7.55146329365084  C 5.88845000000003 7.55146329365084  5.98922499999992 7.1467013888888  5.98922499999992 7.1467013888888  C 5.98922499999992 7.1467013888888  6.71060000000011 7.03583829365084  6.71060000000011 7.03583829365084  C 6.71060000000011 7.03583829365084  6.99770000000012 6.71614583333337  6.99770000000012 6.71614583333337  C 6.99770000000012 6.71614583333337  7.80433499999992 6.93142361111109  7.80433499999992 6.93142361111109  C 7.80433499999992 6.93142361111109  7.936285 7.27070932539687  7.936285 7.27070932539687  C 7.936285 7.27070932539687  8.22324000000003 7.19890873015868  8.22324000000003 7.19890873015868  C 8.22324000000003 7.19890873015868  9.40223499999991 6.52690972222217  9.40223499999991 6.52690972222217  C 9.40223499999991 6.52690972222217  9.84448500000008 6.01178075396831  9.84448500000008 6.01178075396831  C 9.84448500000008 6.01178075396831  10.209015 6.07043650793651  10.209015 6.07043650793651  C 10.209015 6.07043650793651  10.3176199999999 5.59474206349205  10.3176199999999 5.59474206349205  C 10.3176199999999 5.59474206349205  10.736525 4.95634920634927  10.736525 4.95634920634927  C 10.736525 4.95634920634927  10.93039 4.89769345238096  10.93039 4.89769345238096  C 10.93039 4.89769345238096  11.2717200000001 4.21428571428578  11.2717200000001 4.21428571428578  C 11.2717200000001 4.21428571428578  11.597535 4.6308283730159  11.597535 4.6308283730159  C 11.597535 4.6308283730159  12.078355 4.74144345238096  12.078355 4.74144345238096  C 12.078355 4.74144345238096  12.148245 4.4941716269841  12.148245 4.4941716269841  C 12.148245 4.4941716269841  13.8702649999999 4.58519345238085  13.8702649999999 4.58519345238085  C 13.8702649999999 4.58519345238085  14.025415 4.46155753968253  14.025415 4.46155753968253  C 14.025415 4.46155753968253  13.676255 3.81746031746036  13.676255 3.81746031746036  C 13.676255 3.81746031746036  12.3654550000001 2.59548611111109  12.3654550000001 2.59548611111109  C 12.3654550000001 2.59548611111109  12.4352000000001 2.2383432539682  12.4352000000001 2.2383432539682  C 12.4352000000001 2.2383432539682  12.823075 2.03062996031736  12.823075 2.03062996031736  C 12.823075 2.03062996031736  13.17209 2.56956845238096  13.17209 2.56956845238096  C 13.17209 2.56956845238096  15.61505 2.66046626984132  15.61505 2.66046626984132  C 15.61505 2.66046626984132  13.79269 1.88777281746036  13.79269 1.88777281746036  C 13.79269 1.88777281746036  13.893465 1.49838789682542  13.893465 1.49838789682542  C 13.893465 1.49838789682542  16.150245 1.49193948412699  16.150245 1.49193948412699  C 16.150245 1.49193948412699  16.75533 1.32973710317458  16.75533 1.32973710317458  C 16.75533 1.32973710317458  17.14306 1.58928571428567  17.14306 1.58928571428567  C 17.14306 1.58928571428567  17.45336 0.921130952380963  17.45336 0.921130952380963  C 17.45336 0.921130952380963  17.3602700000001 0.4609375  17.3602700000001 0.4609375  C 17.3602700000001 0.4609375  17.7636600000001 0.370163690476147  17.7636600000001 0.370163690476147  C 17.7636600000001 0.370163690476147  18.2756549999999 0.584077380952408  18.2756549999999 0.584077380952408  C 18.2756549999999 0.584077380952408  18.40746 0.914682539682417  18.40746 0.914682539682417  C 18.40746 0.914682539682417  18.143705 1.64112103174602  18.143705 1.64112103174602  C 18.143705 1.64112103174602  18.7022449999999 2.26426091269843  18.7022449999999 2.26426091269843  C 18.7022449999999 2.26426091269843  18.5936400000001 2.5176091269841  18.5936400000001 2.5176091269841  C 18.5936400000001 2.5176091269841  19.1753799999999 2.80344742063494  19.1753799999999 2.80344742063494  C 19.1753799999999 2.80344742063494  19.8502099999999 3.40128968253964  19.8502099999999 3.40128968253964  C 19.8502099999999 3.40128968253964  20.2924600000001 3.53137400793651  20.2924600000001 3.53137400793651  C 20.2924600000001 3.53137400793651  21.2465599999999 4.4745783730159  21.2465599999999 4.4745783730159  C 21.2465599999999 4.4745783730159  21.2774449999999 4.88467261904759  21.2774449999999 4.88467261904759  C 21.2774449999999 4.88467261904759  21.75841 5.3927331349206  21.75841 5.3927331349206  C 21.75841 5.3927331349206  22.355665 5.62078373015879  22.355665 5.62078373015879  C 22.355665 5.62078373015879  23.6123799999999 5.42534722222229  23.6123799999999 5.42534722222229  C 23.6123799999999 5.42534722222229  23.6744399999999 5.52951388888891  23.6744399999999 5.52951388888891  C 23.6744399999999 5.52951388888891  24.8224050000001 5.60776289682531  24.8224050000001 5.60776289682531  C 24.8224050000001 5.60776289682531  25.7067599999999 6.04439484126988  25.7067599999999 6.04439484126988  C 25.7067599999999 6.04439484126988  26.22644 6.13566468253975  26.22644 6.13566468253975  C 26.22644 6.13566468253975  26.5133950000002 5.90749007936518  26.5133950000002 5.90749007936518  C 26.5133950000002 5.90749007936518  27.3512049999999 5.71850198412699  27.3512049999999 5.71850198412699  C 27.3512049999999 5.71850198412699  28.4215949999999 5.88789682539675  28.4215949999999 5.88789682539675  C 28.4215949999999 5.88789682539675  28.68535 6.10305059523807  28.68535 6.10305059523807  C 28.68535 6.10305059523807  28.514685 6.44221230158735  28.514685 6.44221230158735  C 28.514685 6.44221230158735  28.088095 6.25310019841265  28.088095 6.25310019841265  C 28.088095 6.25310019841265  27.39775 6.89223710317469  27.39775 6.89223710317469  C 27.39775 6.89223710317469  27.6148150000001 7.30989583333337  27.6148150000001 7.30989583333337  C 27.6148150000001 7.30989583333337  27.11065 7.51884920634916  27.11065 7.51884920634916  Z " fill-rule="evenodd" />
    </mask>
  </defs>
  <g transform="matrix(1 0 0 1 -1094 -259 )">
    <path d="M 27.11065 7.51884920634916  C 27.11065 7.51884920634916  26.59097 7.23809523809518  26.59097 7.23809523809518  C 26.59097 7.23809523809518  25.598155 7.53187003968253  25.598155 7.53187003968253  C 25.598155 7.53187003968253  25.318885 7.83234126984121  25.318885 7.83234126984121  C 25.318885 7.83234126984121  25.51275 8.21775793650784  25.51275 8.21775793650784  C 25.51275 8.21775793650784  24.830235 8.38107638888891  24.830235 8.38107638888891  C 24.830235 8.38107638888891  25.52058 9.23102678571422  25.52058 9.23102678571422  C 25.52058 9.23102678571422  25.14822 9.59077380952385  25.14822 9.59077380952385  C 25.14822 9.59077380952385  25.0473 10.2845982142858  25.0473 10.2845982142858  C 25.0473 10.2845982142858  25.2645100000001 10.2780257936507  25.2645100000001 10.2780257936507  C 25.2645100000001 10.2780257936507  25.621355 10.9134424603175  25.621355 10.9134424603175  C 25.621355 10.9134424603175  25.91614 11.5885416666666  25.91614 11.5885416666666  C 25.91614 11.5885416666666  26.3737600000001 11.4246031746031  26.3737600000001 11.4246031746031  C 26.3737600000001 11.4246031746031  26.6220000000001 13.5238095238095  26.6220000000001 13.5238095238095  C 26.6220000000001 13.5238095238095  27.11065 13.5500992063492  27.11065 13.5500992063492  C 27.11065 13.5500992063492  27.0330750000001 14.1211557539683  27.0330750000001 14.1211557539683  C 27.0330750000001 14.1211557539683  26.823695 14.3443700396825  26.823695 14.3443700396825  C 26.823695 14.3443700396825  26.823695 14.3377976190476  26.823695 14.3377976190476  C 26.823695 14.3377976190476  26.823695 14.3443700396825  26.823695 14.3443700396825  C 26.823695 14.3443700396825  26.5988 14.8632192460318  26.5988 14.8632192460318  C 26.5988 14.8632192460318  26.0712899999999 14.8566468253968  26.0712899999999 14.8566468253968  C 26.0712899999999 14.8566468253968  25.652385 15.3035714285714  25.652385 15.3035714285714  C 25.652385 15.3035714285714  25.411975 15.1786954365079  25.411975 15.1786954365079  C 25.411975 15.1786954365079  25.0241000000001 15.4613095238095  25.0241000000001 15.4613095238095  C 25.0241000000001 15.4613095238095  24.845605 15.6454613095239  24.845605 15.6454613095239  C 24.845605 15.6454613095239  24.77586 15.8230406746032  24.77586 15.8230406746032  C 24.77586 15.8230406746032  24.2096349999999 15.717757936508  24.2096349999999 15.717757936508  C 24.2096349999999 15.717757936508  23.96908 15.9019097222223  23.96908 15.9019097222223  C 23.96908 15.9019097222223  23.5269750000001 15.7571924603176  23.5269750000001 15.7571924603176  C 23.5269750000001 15.7571924603176  22.852145 15.967757936508  22.852145 15.967757936508  C 22.852145 15.967757936508  22.5186449999999 16.3887648809524  22.5186449999999 16.3887648809524  C 22.5186449999999 16.3887648809524  21.51017 16.2309027777778  21.51017 16.2309027777778  C 21.51017 16.2309027777778  21.29296 16.0334821428571  21.29296 16.0334821428571  C 21.29296 16.0334821428571  20.5328700000001 16.2243303571428  20.5328700000001 16.2243303571428  C 20.5328700000001 16.2243303571428  20.07525 16.0861855158731  20.07525 16.0861855158731  C 20.07525 16.0861855158731  19.935615 16.415054563492  19.935615 16.415054563492  C 19.935615 16.415054563492  19.446965 16.3229166666666  19.446965 16.3229166666666  C 19.446965 16.3229166666666  19.1521799999999 17.2841021825398  19.1521799999999 17.2841021825398  C 19.1521799999999 17.2841021825398  19.4624800000001 17.5740327380953  19.4624800000001 17.5740327380953  C 19.4624800000001 17.5740327380953  19.48568 18.3847966269841  19.48568 18.3847966269841  C 19.48568 18.3847966269841  19.834695 18.4045138888888  19.834695 18.4045138888888  C 19.834695 18.4045138888888  20.5095249999999 19.0641121031746  20.5095249999999 19.0641121031746  C 20.5095249999999 19.0641121031746  21.0370349999999 19.2291666666667  21.0370349999999 19.2291666666667  C 21.0370349999999 19.2291666666667  21.1689849999999 19.0311259920635  21.1689849999999 19.0311259920635  C 21.1689849999999 19.0311259920635  21.5645450000001 20.0016121031746  21.5645450000001 20.0016121031746  C 21.5645450000001 20.0016121031746  20.9672899999999 20.2196180555555  20.9672899999999 20.2196180555555  C 20.9672899999999 20.2196180555555  21.15347 20.6821676587302  21.15347 20.6821676587302  C 21.15347 20.6821676587302  20.78111 20.7681051587302  20.78111 20.7681051587302  C 20.78111 20.7681051587302  20.8121400000001 21.3102678571429  20.8121400000001 21.3102678571429  C 20.8121400000001 21.3102678571429  21.013835 21.3035714285714  21.013835 21.3035714285714  C 21.013835 21.3035714285714  21.02152 21.4557291666666  21.02152 21.4557291666666  C 21.02152 21.4557291666666  20.3079749999999 21.5946180555555  20.3079749999999 21.5946180555555  C 20.3079749999999 21.5946180555555  19.834695 22.3425099206348  19.834695 22.3425099206348  C 19.834695 22.3425099206348  19.563255 22.6272321428572  19.563255 22.6272321428572  C 19.563255 22.6272321428572  19.035745 22.2828621031746  19.035745 22.2828621031746  C 19.035745 22.2828621031746  18.53941 22.3093998015873  18.53941 22.3093998015873  C 18.53941 22.3093998015873  18.756475 22.633804563492  18.756475 22.633804563492  C 18.756475 22.633804563492  18.725445 22.6736111111111  18.725445 22.6736111111111  C 18.725445 22.6736111111111  18.7177600000001 22.6736111111111  18.7177600000001 22.6736111111111  C 18.7177600000001 22.6736111111111  18.725445 22.6736111111111  18.725445 22.6736111111111  C 18.725445 22.6736111111111  18.7177600000001 22.6736111111111  18.7177600000001 22.6736111111111  C 18.7177600000001 22.6736111111111  17.9808700000001 22.4880952380952  17.9808700000001 22.4880952380952  C 17.9808700000001 22.4880952380952  17.42233 22.5410466269841  17.42233 22.5410466269841  C 17.42233 22.5410466269841  17.0654850000001 22.2630208333333  17.0654850000001 22.2630208333333  C 17.0654850000001 22.2630208333333  16.212305 22.6205357142857  16.212305 22.6205357142857  C 16.212305 22.6205357142857  16.01061 23.2697172619048  16.01061 23.2697172619048  C 16.01061 23.2697172619048  15.568505 23.2433035714286  15.568505 23.2433035714286  C 15.568505 23.2433035714286  15.6305650000002 23.4950396825398  15.6305650000002 23.4950396825398  C 15.6305650000002 23.4950396825398  13.66857 23.6210317460318  13.66857 23.6210317460318  C 13.66857 23.6210317460318  13.746145 23.8597470238095  13.746145 23.8597470238095  C 13.746145 23.8597470238095  13.2186349999999 23.6011904761905  13.2186349999999 23.6011904761905  C 13.2186349999999 23.6011904761905  13.3427550000001 24.250992063492  13.3427550000001 24.250992063492  C 13.3427550000001 24.250992063492  13.75383 24.2576884920635  13.75383 24.2576884920635  C 13.75383 24.2576884920635  13.8857800000001 24.6755952380953  13.8857800000001 24.6755952380953  C 13.8857800000001 24.6755952380953  13.62971 24.8282490079365  13.62971 24.8282490079365  C 13.62971 24.8282490079365  12.71447 24.6490575396825  12.71447 24.6490575396825  C 12.71447 24.6490575396825  12.4119999999999 24.6424851190476  12.4119999999999 24.6424851190476  C 12.4119999999999 24.6424851190476  12.024125 24.171378968254  12.024125 24.171378968254  C 12.024125 24.171378968254  11.4035249999999 23.999007936508  11.4035249999999 23.999007936508  C 11.4035249999999 23.999007936508  11.186315 23.0842013888889  11.186315 23.0842013888889  C 11.186315 23.0842013888889  10.65895 22.7198660714287  10.65895 22.7198660714287  C 10.65895 22.7198660714287  10.0693799999999 22.8060515873016  10.0693799999999 22.8060515873016  C 10.0693799999999 22.8060515873016  9.79793999999993 23.03125  9.79793999999993 23.03125  C 9.79793999999993 23.03125  9.40223499999991 22.9252232142858  9.40223499999991 22.9252232142858  C 9.40223499999991 22.9252232142858  8.61111500000004 22.9716021825396  8.61111500000004 22.9716021825396  C 8.61111500000004 22.9716021825396  8.48699500000009 22.7464037698413  8.48699500000009 22.7464037698413  C 8.48699500000009 22.7464037698413  8.09912000000008 22.8988095238095  8.09912000000008 22.8988095238095  C 8.09912000000008 22.8988095238095  7.88190999999995 22.6272321428572  7.88190999999995 22.6272321428572  C 7.88190999999995 22.6272321428572  7.61815500000011 23.1305803571428  7.61815500000011 23.1305803571428  C 7.61815500000011 23.1305803571428  7.02873 22.5610119047619  7.02873 22.5610119047619  C 7.02873 22.5610119047619  7.09079000000008 22.8126240079365  7.09079000000008 22.8126240079365  C 7.09079000000008 22.8126240079365  6.49338999999998 23.3360615079365  6.49338999999998 23.3360615079365  C 6.49338999999998 23.3360615079365  5.99705499999993 23.4089781746032  5.99705499999993 23.4089781746032  C 5.99705499999993 23.4089781746032  5.90396499999986 23.6741071428572  5.90396499999986 23.6741071428572  C 5.90396499999986 23.6741071428572  5.71778500000005 23.8597470238095  5.71778500000005 23.8597470238095  C 5.71778500000005 23.8597470238095  5.04295500000001 23.7801339285714  5.04295500000001 23.7801339285714  C 5.04295500000001 23.7801339285714  4.86445999999989 23.4353918650793  4.86445999999989 23.4353918650793  C 4.86445999999989 23.4353918650793  4.86445999999989 23.4288194444445  4.86445999999989 23.4288194444445  C 4.86445999999989 23.4288194444445  4.86445999999989 23.4353918650793  4.86445999999989 23.4353918650793  C 4.86445999999989 23.4353918650793  4.86445999999989 23.4288194444445  4.86445999999989 23.4288194444445  C 4.86445999999989 23.4288194444445  4.69379500000002 23.3691716269841  4.69379500000002 23.3691716269841  C 4.69379500000002 23.3691716269841  4.66276499999992 23.3758680555555  4.66276499999992 23.3758680555555  C 4.66276499999992 23.3758680555555  4.6472500000001 23.3758680555555  4.6472500000001 23.3758680555555  C 4.6472500000001 23.3758680555555  4.66276499999992 23.3758680555555  4.66276499999992 23.3758680555555  C 4.66276499999992 23.3758680555555  4.66276499999992 23.3691716269841  4.66276499999992 23.3691716269841  C 4.66276499999992 23.3691716269841  4.6472500000001 23.3758680555555  4.6472500000001 23.3758680555555  C 4.6472500000001 23.3758680555555  4.66276499999992 23.3691716269841  4.66276499999992 23.3691716269841  C 4.66276499999992 23.3691716269841  4.63956500000006 23.2697172619048  4.63956500000006 23.2697172619048  C 4.63956500000006 23.2697172619048  4.61621999999988 23.2300347222223  4.61621999999988 23.2300347222223  C 4.61621999999988 23.2300347222223  4.59302000000002 23.1372767857143  4.59302000000002 23.1372767857143  C 4.59302000000002 23.1372767857143  4.36812500000008 22.9981398809524  4.36812500000008 22.9981398809524  C 4.36812500000008 22.9981398809524  4.36029500000006 22.8855406746031  4.36029500000006 22.8855406746031  C 4.36029500000006 22.8855406746031  3.97241999999994 22.3490823412699  3.97241999999994 22.3490823412699  C 3.97241999999994 22.3490823412699  3.54582999999991 22.5742807539683  3.54582999999991 22.5742807539683  C 3.54582999999991 22.5742807539683  2.95626000000004 22.7132936507936  2.95626000000004 22.7132936507936  C 2.95626000000004 22.7132936507936  2.43657999999994 22.296130952381  2.43657999999994 22.296130952381  C 2.43657999999994 22.296130952381  2.08756500000004 22.6072668650794  2.08756500000004 22.6072668650794  C 2.08756500000004 22.6072668650794  2.14179499999989 21.991691468254  2.14179499999989 21.991691468254  C 2.14179499999989 21.991691468254  1.59108500000002 21.8394097222222  1.59108500000002 21.8394097222222  C 1.59108500000002 21.8394097222222  1.75406500000008 21.561507936508  1.75406500000008 21.561507936508  C 1.75406500000008 21.561507936508  1.69200499999999 20.5301339285714  1.69200499999999 20.5301339285714  C 1.69200499999999 20.5301339285714  1.10243500000013 20.3847966269841  1.10243500000013 20.3847966269841  C 1.10243500000013 20.3847966269841  1.14898000000005 19.9025297619047  1.14898000000005 19.9025297619047  C 1.14898000000005 19.9025297619047  1.65314499999999 19.7176339285713  1.65314499999999 19.7176339285713  C 1.65314499999999 19.7176339285713  1.93241500000011 19.922371031746  1.93241500000011 19.922371031746  C 1.93241500000011 19.922371031746  2.52198499999997 19.7704613095237  2.52198499999997 19.7704613095237  C 2.52198499999997 19.7704613095237  2.70802000000015 19.460193452381  2.70802000000015 19.460193452381  C 2.70802000000015 19.460193452381  2.04102 19.156498015873  2.04102 19.156498015873  C 2.04102 19.156498015873  2.18834000000004 18.6090029761905  2.18834000000004 18.6090029761905  C 2.18834000000004 18.6090029761905  2.05653500000005 18.3715277777777  2.05653500000005 18.3715277777777  C 2.05653500000005 18.3715277777777  2.1496249999999 18.2726934523809  2.1496249999999 18.2726934523809  C 2.1496249999999 18.2726934523809  1.62211499999989 17.7452876984127  1.62211499999989 17.7452876984127  C 1.62211499999989 17.7452876984127  0.931770000000029 17.5344742063492  0.931770000000029 17.5344742063492  C 0.931770000000029 17.5344742063492  0.962800000000016 17.047123015873  0.962800000000016 17.047123015873  C 0.962800000000016 17.047123015873  1.23423999999989 16.9285714285713  1.23423999999989 16.9285714285713  C 1.23423999999989 16.9285714285713  1.28861500000005 16.3953373015873  1.28861500000005 16.3953373015873  C 1.28861500000005 16.3953373015873  1.67649000000006 16.2440476190476  1.67649000000006 16.2440476190476  C 1.67649000000006 16.2440476190476  2.20385499999998 15.7309027777778  2.20385499999998 15.7309027777778  C 2.20385499999998 15.7309027777778  3.00280500000008 15.4415922619048  3.00280500000008 15.4415922619048  C 3.00280500000008 15.4415922619048  3.11923999999999 15.1063988095239  3.11923999999999 15.1063988095239  C 3.11923999999999 15.1063988095239  5.06615500000009 14.7318948412699  5.06615500000009 14.7318948412699  C 5.06615500000009 14.7318948412699  5.30671000000007 14.2917906746031  5.30671000000007 14.2917906746031  C 5.30671000000007 14.2917906746031  5.71778500000005 14.6201636904761  5.71778500000005 14.6201636904761  C 5.71778500000005 14.6201636904761  6.23746499999993 14.7121775793652  6.23746499999993 14.7121775793652  C 6.23746499999993 14.7121775793652  6.33838500000002 14.1145833333333  6.33838500000002 14.1145833333333  C 6.33838500000002 14.1145833333333  6.52441999999996 14.1538938492064  6.52441999999996 14.1538938492064  C 6.52441999999996 14.1538938492064  6.8812650000001 13.4582093253969  6.8812650000001 13.4582093253969  C 6.8812650000001 13.4582093253969  7.76562000000001 11.7917906746032  7.76562000000001 11.7917906746032  C 7.76562000000001 11.7917906746032  7.54840999999999 11.5360863095239  7.54840999999999 11.5360863095239  C 7.54840999999999 11.5360863095239  7.12182000000007 10.4941716269842  7.12182000000007 10.4941716269842  C 7.12182000000007 10.4941716269842  6.44684500000005 10.4221230158731  6.44684500000005 10.4221230158731  C 6.44684500000005 10.4221230158731  5.283365 9.21130952380952  5.283365 9.21130952380952  C 5.283365 9.21130952380952  5.39965499999994 8.49875992063494  5.39965499999994 8.49875992063494  C 5.39965499999994 8.49875992063494  4.83343000000002 8.35491071428578  4.83343000000002 8.35491071428578  C 4.83343000000002 8.35491071428578  5.07398499999988 7.82576884920638  5.07398499999988 7.82576884920638  C 5.07398499999988 7.82576884920638  5.44634499999984 7.56460813492072  5.44634499999984 7.56460813492072  C 5.44634499999984 7.56460813492072  5.88845000000003 7.55146329365084  5.88845000000003 7.55146329365084  C 5.88845000000003 7.55146329365084  5.98922499999992 7.1467013888888  5.98922499999992 7.1467013888888  C 5.98922499999992 7.1467013888888  6.71060000000011 7.03583829365084  6.71060000000011 7.03583829365084  C 6.71060000000011 7.03583829365084  6.99770000000012 6.71614583333337  6.99770000000012 6.71614583333337  C 6.99770000000012 6.71614583333337  7.80433499999992 6.93142361111109  7.80433499999992 6.93142361111109  C 7.80433499999992 6.93142361111109  7.936285 7.27070932539687  7.936285 7.27070932539687  C 7.936285 7.27070932539687  8.22324000000003 7.19890873015868  8.22324000000003 7.19890873015868  C 8.22324000000003 7.19890873015868  9.40223499999991 6.52690972222217  9.40223499999991 6.52690972222217  C 9.40223499999991 6.52690972222217  9.84448500000008 6.01178075396831  9.84448500000008 6.01178075396831  C 9.84448500000008 6.01178075396831  10.209015 6.07043650793651  10.209015 6.07043650793651  C 10.209015 6.07043650793651  10.3176199999999 5.59474206349205  10.3176199999999 5.59474206349205  C 10.3176199999999 5.59474206349205  10.736525 4.95634920634927  10.736525 4.95634920634927  C 10.736525 4.95634920634927  10.93039 4.89769345238096  10.93039 4.89769345238096  C 10.93039 4.89769345238096  11.2717200000001 4.21428571428578  11.2717200000001 4.21428571428578  C 11.2717200000001 4.21428571428578  11.597535 4.6308283730159  11.597535 4.6308283730159  C 11.597535 4.6308283730159  12.078355 4.74144345238096  12.078355 4.74144345238096  C 12.078355 4.74144345238096  12.148245 4.4941716269841  12.148245 4.4941716269841  C 12.148245 4.4941716269841  13.8702649999999 4.58519345238085  13.8702649999999 4.58519345238085  C 13.8702649999999 4.58519345238085  14.025415 4.46155753968253  14.025415 4.46155753968253  C 14.025415 4.46155753968253  13.676255 3.81746031746036  13.676255 3.81746031746036  C 13.676255 3.81746031746036  12.3654550000001 2.59548611111109  12.3654550000001 2.59548611111109  C 12.3654550000001 2.59548611111109  12.4352000000001 2.2383432539682  12.4352000000001 2.2383432539682  C 12.4352000000001 2.2383432539682  12.823075 2.03062996031736  12.823075 2.03062996031736  C 12.823075 2.03062996031736  13.17209 2.56956845238096  13.17209 2.56956845238096  C 13.17209 2.56956845238096  15.61505 2.66046626984132  15.61505 2.66046626984132  C 15.61505 2.66046626984132  13.79269 1.88777281746036  13.79269 1.88777281746036  C 13.79269 1.88777281746036  13.893465 1.49838789682542  13.893465 1.49838789682542  C 13.893465 1.49838789682542  16.150245 1.49193948412699  16.150245 1.49193948412699  C 16.150245 1.49193948412699  16.75533 1.32973710317458  16.75533 1.32973710317458  C 16.75533 1.32973710317458  17.14306 1.58928571428567  17.14306 1.58928571428567  C 17.14306 1.58928571428567  17.45336 0.921130952380963  17.45336 0.921130952380963  C 17.45336 0.921130952380963  17.3602700000001 0.4609375  17.3602700000001 0.4609375  C 17.3602700000001 0.4609375  17.7636600000001 0.370163690476147  17.7636600000001 0.370163690476147  C 17.7636600000001 0.370163690476147  18.2756549999999 0.584077380952408  18.2756549999999 0.584077380952408  C 18.2756549999999 0.584077380952408  18.40746 0.914682539682417  18.40746 0.914682539682417  C 18.40746 0.914682539682417  18.143705 1.64112103174602  18.143705 1.64112103174602  C 18.143705 1.64112103174602  18.7022449999999 2.26426091269843  18.7022449999999 2.26426091269843  C 18.7022449999999 2.26426091269843  18.5936400000001 2.5176091269841  18.5936400000001 2.5176091269841  C 18.5936400000001 2.5176091269841  19.1753799999999 2.80344742063494  19.1753799999999 2.80344742063494  C 19.1753799999999 2.80344742063494  19.8502099999999 3.40128968253964  19.8502099999999 3.40128968253964  C 19.8502099999999 3.40128968253964  20.2924600000001 3.53137400793651  20.2924600000001 3.53137400793651  C 20.2924600000001 3.53137400793651  21.2465599999999 4.4745783730159  21.2465599999999 4.4745783730159  C 21.2465599999999 4.4745783730159  21.2774449999999 4.88467261904759  21.2774449999999 4.88467261904759  C 21.2774449999999 4.88467261904759  21.75841 5.3927331349206  21.75841 5.3927331349206  C 21.75841 5.3927331349206  22.355665 5.62078373015879  22.355665 5.62078373015879  C 22.355665 5.62078373015879  23.6123799999999 5.42534722222229  23.6123799999999 5.42534722222229  C 23.6123799999999 5.42534722222229  23.6744399999999 5.52951388888891  23.6744399999999 5.52951388888891  C 23.6744399999999 5.52951388888891  24.8224050000001 5.60776289682531  24.8224050000001 5.60776289682531  C 24.8224050000001 5.60776289682531  25.7067599999999 6.04439484126988  25.7067599999999 6.04439484126988  C 25.7067599999999 6.04439484126988  26.22644 6.13566468253975  26.22644 6.13566468253975  C 26.22644 6.13566468253975  26.5133950000002 5.90749007936518  26.5133950000002 5.90749007936518  C 26.5133950000002 5.90749007936518  27.3512049999999 5.71850198412699  27.3512049999999 5.71850198412699  C 27.3512049999999 5.71850198412699  28.4215949999999 5.88789682539675  28.4215949999999 5.88789682539675  C 28.4215949999999 5.88789682539675  28.68535 6.10305059523807  28.68535 6.10305059523807  C 28.68535 6.10305059523807  28.514685 6.44221230158735  28.514685 6.44221230158735  C 28.514685 6.44221230158735  28.088095 6.25310019841265  28.088095 6.25310019841265  C 28.088095 6.25310019841265  27.39775 6.89223710317469  27.39775 6.89223710317469  C 27.39775 6.89223710317469  27.6148150000001 7.30989583333337  27.6148150000001 7.30989583333337  C 27.6148150000001 7.30989583333337  27.11065 7.51884920634916  27.11065 7.51884920634916  Z " fill-rule="nonzero" fill="#ffffff" stroke="none" fill-opacity="0" transform="matrix(1 0 0 1 1094 259 )" />
    <path d="M 27.11065 7.51884920634916  C 27.11065 7.51884920634916  26.59097 7.23809523809518  26.59097 7.23809523809518  C 26.59097 7.23809523809518  25.598155 7.53187003968253  25.598155 7.53187003968253  C 25.598155 7.53187003968253  25.318885 7.83234126984121  25.318885 7.83234126984121  C 25.318885 7.83234126984121  25.51275 8.21775793650784  25.51275 8.21775793650784  C 25.51275 8.21775793650784  24.830235 8.38107638888891  24.830235 8.38107638888891  C 24.830235 8.38107638888891  25.52058 9.23102678571422  25.52058 9.23102678571422  C 25.52058 9.23102678571422  25.14822 9.59077380952385  25.14822 9.59077380952385  C 25.14822 9.59077380952385  25.0473 10.2845982142858  25.0473 10.2845982142858  C 25.0473 10.2845982142858  25.2645100000001 10.2780257936507  25.2645100000001 10.2780257936507  C 25.2645100000001 10.2780257936507  25.621355 10.9134424603175  25.621355 10.9134424603175  C 25.621355 10.9134424603175  25.91614 11.5885416666666  25.91614 11.5885416666666  C 25.91614 11.5885416666666  26.3737600000001 11.4246031746031  26.3737600000001 11.4246031746031  C 26.3737600000001 11.4246031746031  26.6220000000001 13.5238095238095  26.6220000000001 13.5238095238095  C 26.6220000000001 13.5238095238095  27.11065 13.5500992063492  27.11065 13.5500992063492  C 27.11065 13.5500992063492  27.0330750000001 14.1211557539683  27.0330750000001 14.1211557539683  C 27.0330750000001 14.1211557539683  26.823695 14.3443700396825  26.823695 14.3443700396825  C 26.823695 14.3443700396825  26.823695 14.3377976190476  26.823695 14.3377976190476  C 26.823695 14.3377976190476  26.823695 14.3443700396825  26.823695 14.3443700396825  C 26.823695 14.3443700396825  26.5988 14.8632192460318  26.5988 14.8632192460318  C 26.5988 14.8632192460318  26.0712899999999 14.8566468253968  26.0712899999999 14.8566468253968  C 26.0712899999999 14.8566468253968  25.652385 15.3035714285714  25.652385 15.3035714285714  C 25.652385 15.3035714285714  25.411975 15.1786954365079  25.411975 15.1786954365079  C 25.411975 15.1786954365079  25.0241000000001 15.4613095238095  25.0241000000001 15.4613095238095  C 25.0241000000001 15.4613095238095  24.845605 15.6454613095239  24.845605 15.6454613095239  C 24.845605 15.6454613095239  24.77586 15.8230406746032  24.77586 15.8230406746032  C 24.77586 15.8230406746032  24.2096349999999 15.717757936508  24.2096349999999 15.717757936508  C 24.2096349999999 15.717757936508  23.96908 15.9019097222223  23.96908 15.9019097222223  C 23.96908 15.9019097222223  23.5269750000001 15.7571924603176  23.5269750000001 15.7571924603176  C 23.5269750000001 15.7571924603176  22.852145 15.967757936508  22.852145 15.967757936508  C 22.852145 15.967757936508  22.5186449999999 16.3887648809524  22.5186449999999 16.3887648809524  C 22.5186449999999 16.3887648809524  21.51017 16.2309027777778  21.51017 16.2309027777778  C 21.51017 16.2309027777778  21.29296 16.0334821428571  21.29296 16.0334821428571  C 21.29296 16.0334821428571  20.5328700000001 16.2243303571428  20.5328700000001 16.2243303571428  C 20.5328700000001 16.2243303571428  20.07525 16.0861855158731  20.07525 16.0861855158731  C 20.07525 16.0861855158731  19.935615 16.415054563492  19.935615 16.415054563492  C 19.935615 16.415054563492  19.446965 16.3229166666666  19.446965 16.3229166666666  C 19.446965 16.3229166666666  19.1521799999999 17.2841021825398  19.1521799999999 17.2841021825398  C 19.1521799999999 17.2841021825398  19.4624800000001 17.5740327380953  19.4624800000001 17.5740327380953  C 19.4624800000001 17.5740327380953  19.48568 18.3847966269841  19.48568 18.3847966269841  C 19.48568 18.3847966269841  19.834695 18.4045138888888  19.834695 18.4045138888888  C 19.834695 18.4045138888888  20.5095249999999 19.0641121031746  20.5095249999999 19.0641121031746  C 20.5095249999999 19.0641121031746  21.0370349999999 19.2291666666667  21.0370349999999 19.2291666666667  C 21.0370349999999 19.2291666666667  21.1689849999999 19.0311259920635  21.1689849999999 19.0311259920635  C 21.1689849999999 19.0311259920635  21.5645450000001 20.0016121031746  21.5645450000001 20.0016121031746  C 21.5645450000001 20.0016121031746  20.9672899999999 20.2196180555555  20.9672899999999 20.2196180555555  C 20.9672899999999 20.2196180555555  21.15347 20.6821676587302  21.15347 20.6821676587302  C 21.15347 20.6821676587302  20.78111 20.7681051587302  20.78111 20.7681051587302  C 20.78111 20.7681051587302  20.8121400000001 21.3102678571429  20.8121400000001 21.3102678571429  C 20.8121400000001 21.3102678571429  21.013835 21.3035714285714  21.013835 21.3035714285714  C 21.013835 21.3035714285714  21.02152 21.4557291666666  21.02152 21.4557291666666  C 21.02152 21.4557291666666  20.3079749999999 21.5946180555555  20.3079749999999 21.5946180555555  C 20.3079749999999 21.5946180555555  19.834695 22.3425099206348  19.834695 22.3425099206348  C 19.834695 22.3425099206348  19.563255 22.6272321428572  19.563255 22.6272321428572  C 19.563255 22.6272321428572  19.035745 22.2828621031746  19.035745 22.2828621031746  C 19.035745 22.2828621031746  18.53941 22.3093998015873  18.53941 22.3093998015873  C 18.53941 22.3093998015873  18.756475 22.633804563492  18.756475 22.633804563492  C 18.756475 22.633804563492  18.725445 22.6736111111111  18.725445 22.6736111111111  C 18.725445 22.6736111111111  18.7177600000001 22.6736111111111  18.7177600000001 22.6736111111111  C 18.7177600000001 22.6736111111111  18.725445 22.6736111111111  18.725445 22.6736111111111  C 18.725445 22.6736111111111  18.7177600000001 22.6736111111111  18.7177600000001 22.6736111111111  C 18.7177600000001 22.6736111111111  17.9808700000001 22.4880952380952  17.9808700000001 22.4880952380952  C 17.9808700000001 22.4880952380952  17.42233 22.5410466269841  17.42233 22.5410466269841  C 17.42233 22.5410466269841  17.0654850000001 22.2630208333333  17.0654850000001 22.2630208333333  C 17.0654850000001 22.2630208333333  16.212305 22.6205357142857  16.212305 22.6205357142857  C 16.212305 22.6205357142857  16.01061 23.2697172619048  16.01061 23.2697172619048  C 16.01061 23.2697172619048  15.568505 23.2433035714286  15.568505 23.2433035714286  C 15.568505 23.2433035714286  15.6305650000002 23.4950396825398  15.6305650000002 23.4950396825398  C 15.6305650000002 23.4950396825398  13.66857 23.6210317460318  13.66857 23.6210317460318  C 13.66857 23.6210317460318  13.746145 23.8597470238095  13.746145 23.8597470238095  C 13.746145 23.8597470238095  13.2186349999999 23.6011904761905  13.2186349999999 23.6011904761905  C 13.2186349999999 23.6011904761905  13.3427550000001 24.250992063492  13.3427550000001 24.250992063492  C 13.3427550000001 24.250992063492  13.75383 24.2576884920635  13.75383 24.2576884920635  C 13.75383 24.2576884920635  13.8857800000001 24.6755952380953  13.8857800000001 24.6755952380953  C 13.8857800000001 24.6755952380953  13.62971 24.8282490079365  13.62971 24.8282490079365  C 13.62971 24.8282490079365  12.71447 24.6490575396825  12.71447 24.6490575396825  C 12.71447 24.6490575396825  12.4119999999999 24.6424851190476  12.4119999999999 24.6424851190476  C 12.4119999999999 24.6424851190476  12.024125 24.171378968254  12.024125 24.171378968254  C 12.024125 24.171378968254  11.4035249999999 23.999007936508  11.4035249999999 23.999007936508  C 11.4035249999999 23.999007936508  11.186315 23.0842013888889  11.186315 23.0842013888889  C 11.186315 23.0842013888889  10.65895 22.7198660714287  10.65895 22.7198660714287  C 10.65895 22.7198660714287  10.0693799999999 22.8060515873016  10.0693799999999 22.8060515873016  C 10.0693799999999 22.8060515873016  9.79793999999993 23.03125  9.79793999999993 23.03125  C 9.79793999999993 23.03125  9.40223499999991 22.9252232142858  9.40223499999991 22.9252232142858  C 9.40223499999991 22.9252232142858  8.61111500000004 22.9716021825396  8.61111500000004 22.9716021825396  C 8.61111500000004 22.9716021825396  8.48699500000009 22.7464037698413  8.48699500000009 22.7464037698413  C 8.48699500000009 22.7464037698413  8.09912000000008 22.8988095238095  8.09912000000008 22.8988095238095  C 8.09912000000008 22.8988095238095  7.88190999999995 22.6272321428572  7.88190999999995 22.6272321428572  C 7.88190999999995 22.6272321428572  7.61815500000011 23.1305803571428  7.61815500000011 23.1305803571428  C 7.61815500000011 23.1305803571428  7.02873 22.5610119047619  7.02873 22.5610119047619  C 7.02873 22.5610119047619  7.09079000000008 22.8126240079365  7.09079000000008 22.8126240079365  C 7.09079000000008 22.8126240079365  6.49338999999998 23.3360615079365  6.49338999999998 23.3360615079365  C 6.49338999999998 23.3360615079365  5.99705499999993 23.4089781746032  5.99705499999993 23.4089781746032  C 5.99705499999993 23.4089781746032  5.90396499999986 23.6741071428572  5.90396499999986 23.6741071428572  C 5.90396499999986 23.6741071428572  5.71778500000005 23.8597470238095  5.71778500000005 23.8597470238095  C 5.71778500000005 23.8597470238095  5.04295500000001 23.7801339285714  5.04295500000001 23.7801339285714  C 5.04295500000001 23.7801339285714  4.86445999999989 23.4353918650793  4.86445999999989 23.4353918650793  C 4.86445999999989 23.4353918650793  4.86445999999989 23.4288194444445  4.86445999999989 23.4288194444445  C 4.86445999999989 23.4288194444445  4.86445999999989 23.4353918650793  4.86445999999989 23.4353918650793  C 4.86445999999989 23.4353918650793  4.86445999999989 23.4288194444445  4.86445999999989 23.4288194444445  C 4.86445999999989 23.4288194444445  4.69379500000002 23.3691716269841  4.69379500000002 23.3691716269841  C 4.69379500000002 23.3691716269841  4.66276499999992 23.3758680555555  4.66276499999992 23.3758680555555  C 4.66276499999992 23.3758680555555  4.6472500000001 23.3758680555555  4.6472500000001 23.3758680555555  C 4.6472500000001 23.3758680555555  4.66276499999992 23.3758680555555  4.66276499999992 23.3758680555555  C 4.66276499999992 23.3758680555555  4.66276499999992 23.3691716269841  4.66276499999992 23.3691716269841  C 4.66276499999992 23.3691716269841  4.6472500000001 23.3758680555555  4.6472500000001 23.3758680555555  C 4.6472500000001 23.3758680555555  4.66276499999992 23.3691716269841  4.66276499999992 23.3691716269841  C 4.66276499999992 23.3691716269841  4.63956500000006 23.2697172619048  4.63956500000006 23.2697172619048  C 4.63956500000006 23.2697172619048  4.61621999999988 23.2300347222223  4.61621999999988 23.2300347222223  C 4.61621999999988 23.2300347222223  4.59302000000002 23.1372767857143  4.59302000000002 23.1372767857143  C 4.59302000000002 23.1372767857143  4.36812500000008 22.9981398809524  4.36812500000008 22.9981398809524  C 4.36812500000008 22.9981398809524  4.36029500000006 22.8855406746031  4.36029500000006 22.8855406746031  C 4.36029500000006 22.8855406746031  3.97241999999994 22.3490823412699  3.97241999999994 22.3490823412699  C 3.97241999999994 22.3490823412699  3.54582999999991 22.5742807539683  3.54582999999991 22.5742807539683  C 3.54582999999991 22.5742807539683  2.95626000000004 22.7132936507936  2.95626000000004 22.7132936507936  C 2.95626000000004 22.7132936507936  2.43657999999994 22.296130952381  2.43657999999994 22.296130952381  C 2.43657999999994 22.296130952381  2.08756500000004 22.6072668650794  2.08756500000004 22.6072668650794  C 2.08756500000004 22.6072668650794  2.14179499999989 21.991691468254  2.14179499999989 21.991691468254  C 2.14179499999989 21.991691468254  1.59108500000002 21.8394097222222  1.59108500000002 21.8394097222222  C 1.59108500000002 21.8394097222222  1.75406500000008 21.561507936508  1.75406500000008 21.561507936508  C 1.75406500000008 21.561507936508  1.69200499999999 20.5301339285714  1.69200499999999 20.5301339285714  C 1.69200499999999 20.5301339285714  1.10243500000013 20.3847966269841  1.10243500000013 20.3847966269841  C 1.10243500000013 20.3847966269841  1.14898000000005 19.9025297619047  1.14898000000005 19.9025297619047  C 1.14898000000005 19.9025297619047  1.65314499999999 19.7176339285713  1.65314499999999 19.7176339285713  C 1.65314499999999 19.7176339285713  1.93241500000011 19.922371031746  1.93241500000011 19.922371031746  C 1.93241500000011 19.922371031746  2.52198499999997 19.7704613095237  2.52198499999997 19.7704613095237  C 2.52198499999997 19.7704613095237  2.70802000000015 19.460193452381  2.70802000000015 19.460193452381  C 2.70802000000015 19.460193452381  2.04102 19.156498015873  2.04102 19.156498015873  C 2.04102 19.156498015873  2.18834000000004 18.6090029761905  2.18834000000004 18.6090029761905  C 2.18834000000004 18.6090029761905  2.05653500000005 18.3715277777777  2.05653500000005 18.3715277777777  C 2.05653500000005 18.3715277777777  2.1496249999999 18.2726934523809  2.1496249999999 18.2726934523809  C 2.1496249999999 18.2726934523809  1.62211499999989 17.7452876984127  1.62211499999989 17.7452876984127  C 1.62211499999989 17.7452876984127  0.931770000000029 17.5344742063492  0.931770000000029 17.5344742063492  C 0.931770000000029 17.5344742063492  0.962800000000016 17.047123015873  0.962800000000016 17.047123015873  C 0.962800000000016 17.047123015873  1.23423999999989 16.9285714285713  1.23423999999989 16.9285714285713  C 1.23423999999989 16.9285714285713  1.28861500000005 16.3953373015873  1.28861500000005 16.3953373015873  C 1.28861500000005 16.3953373015873  1.67649000000006 16.2440476190476  1.67649000000006 16.2440476190476  C 1.67649000000006 16.2440476190476  2.20385499999998 15.7309027777778  2.20385499999998 15.7309027777778  C 2.20385499999998 15.7309027777778  3.00280500000008 15.4415922619048  3.00280500000008 15.4415922619048  C 3.00280500000008 15.4415922619048  3.11923999999999 15.1063988095239  3.11923999999999 15.1063988095239  C 3.11923999999999 15.1063988095239  5.06615500000009 14.7318948412699  5.06615500000009 14.7318948412699  C 5.06615500000009 14.7318948412699  5.30671000000007 14.2917906746031  5.30671000000007 14.2917906746031  C 5.30671000000007 14.2917906746031  5.71778500000005 14.6201636904761  5.71778500000005 14.6201636904761  C 5.71778500000005 14.6201636904761  6.23746499999993 14.7121775793652  6.23746499999993 14.7121775793652  C 6.23746499999993 14.7121775793652  6.33838500000002 14.1145833333333  6.33838500000002 14.1145833333333  C 6.33838500000002 14.1145833333333  6.52441999999996 14.1538938492064  6.52441999999996 14.1538938492064  C 6.52441999999996 14.1538938492064  6.8812650000001 13.4582093253969  6.8812650000001 13.4582093253969  C 6.8812650000001 13.4582093253969  7.76562000000001 11.7917906746032  7.76562000000001 11.7917906746032  C 7.76562000000001 11.7917906746032  7.54840999999999 11.5360863095239  7.54840999999999 11.5360863095239  C 7.54840999999999 11.5360863095239  7.12182000000007 10.4941716269842  7.12182000000007 10.4941716269842  C 7.12182000000007 10.4941716269842  6.44684500000005 10.4221230158731  6.44684500000005 10.4221230158731  C 6.44684500000005 10.4221230158731  5.283365 9.21130952380952  5.283365 9.21130952380952  C 5.283365 9.21130952380952  5.39965499999994 8.49875992063494  5.39965499999994 8.49875992063494  C 5.39965499999994 8.49875992063494  4.83343000000002 8.35491071428578  4.83343000000002 8.35491071428578  C 4.83343000000002 8.35491071428578  5.07398499999988 7.82576884920638  5.07398499999988 7.82576884920638  C 5.07398499999988 7.82576884920638  5.44634499999984 7.56460813492072  5.44634499999984 7.56460813492072  C 5.44634499999984 7.56460813492072  5.88845000000003 7.55146329365084  5.88845000000003 7.55146329365084  C 5.88845000000003 7.55146329365084  5.98922499999992 7.1467013888888  5.98922499999992 7.1467013888888  C 5.98922499999992 7.1467013888888  6.71060000000011 7.03583829365084  6.71060000000011 7.03583829365084  C 6.71060000000011 7.03583829365084  6.99770000000012 6.71614583333337  6.99770000000012 6.71614583333337  C 6.99770000000012 6.71614583333337  7.80433499999992 6.93142361111109  7.80433499999992 6.93142361111109  C 7.80433499999992 6.93142361111109  7.936285 7.27070932539687  7.936285 7.27070932539687  C 7.936285 7.27070932539687  8.22324000000003 7.19890873015868  8.22324000000003 7.19890873015868  C 8.22324000000003 7.19890873015868  9.40223499999991 6.52690972222217  9.40223499999991 6.52690972222217  C 9.40223499999991 6.52690972222217  9.84448500000008 6.01178075396831  9.84448500000008 6.01178075396831  C 9.84448500000008 6.01178075396831  10.209015 6.07043650793651  10.209015 6.07043650793651  C 10.209015 6.07043650793651  10.3176199999999 5.59474206349205  10.3176199999999 5.59474206349205  C 10.3176199999999 5.59474206349205  10.736525 4.95634920634927  10.736525 4.95634920634927  C 10.736525 4.95634920634927  10.93039 4.89769345238096  10.93039 4.89769345238096  C 10.93039 4.89769345238096  11.2717200000001 4.21428571428578  11.2717200000001 4.21428571428578  C 11.2717200000001 4.21428571428578  11.597535 4.6308283730159  11.597535 4.6308283730159  C 11.597535 4.6308283730159  12.078355 4.74144345238096  12.078355 4.74144345238096  C 12.078355 4.74144345238096  12.148245 4.4941716269841  12.148245 4.4941716269841  C 12.148245 4.4941716269841  13.8702649999999 4.58519345238085  13.8702649999999 4.58519345238085  C 13.8702649999999 4.58519345238085  14.025415 4.46155753968253  14.025415 4.46155753968253  C 14.025415 4.46155753968253  13.676255 3.81746031746036  13.676255 3.81746031746036  C 13.676255 3.81746031746036  12.3654550000001 2.59548611111109  12.3654550000001 2.59548611111109  C 12.3654550000001 2.59548611111109  12.4352000000001 2.2383432539682  12.4352000000001 2.2383432539682  C 12.4352000000001 2.2383432539682  12.823075 2.03062996031736  12.823075 2.03062996031736  C 12.823075 2.03062996031736  13.17209 2.56956845238096  13.17209 2.56956845238096  C 13.17209 2.56956845238096  15.61505 2.66046626984132  15.61505 2.66046626984132  C 15.61505 2.66046626984132  13.79269 1.88777281746036  13.79269 1.88777281746036  C 13.79269 1.88777281746036  13.893465 1.49838789682542  13.893465 1.49838789682542  C 13.893465 1.49838789682542  16.150245 1.49193948412699  16.150245 1.49193948412699  C 16.150245 1.49193948412699  16.75533 1.32973710317458  16.75533 1.32973710317458  C 16.75533 1.32973710317458  17.14306 1.58928571428567  17.14306 1.58928571428567  C 17.14306 1.58928571428567  17.45336 0.921130952380963  17.45336 0.921130952380963  C 17.45336 0.921130952380963  17.3602700000001 0.4609375  17.3602700000001 0.4609375  C 17.3602700000001 0.4609375  17.7636600000001 0.370163690476147  17.7636600000001 0.370163690476147  C 17.7636600000001 0.370163690476147  18.2756549999999 0.584077380952408  18.2756549999999 0.584077380952408  C 18.2756549999999 0.584077380952408  18.40746 0.914682539682417  18.40746 0.914682539682417  C 18.40746 0.914682539682417  18.143705 1.64112103174602  18.143705 1.64112103174602  C 18.143705 1.64112103174602  18.7022449999999 2.26426091269843  18.7022449999999 2.26426091269843  C 18.7022449999999 2.26426091269843  18.5936400000001 2.5176091269841  18.5936400000001 2.5176091269841  C 18.5936400000001 2.5176091269841  19.1753799999999 2.80344742063494  19.1753799999999 2.80344742063494  C 19.1753799999999 2.80344742063494  19.8502099999999 3.40128968253964  19.8502099999999 3.40128968253964  C 19.8502099999999 3.40128968253964  20.2924600000001 3.53137400793651  20.2924600000001 3.53137400793651  C 20.2924600000001 3.53137400793651  21.2465599999999 4.4745783730159  21.2465599999999 4.4745783730159  C 21.2465599999999 4.4745783730159  21.2774449999999 4.88467261904759  21.2774449999999 4.88467261904759  C 21.2774449999999 4.88467261904759  21.75841 5.3927331349206  21.75841 5.3927331349206  C 21.75841 5.3927331349206  22.355665 5.62078373015879  22.355665 5.62078373015879  C 22.355665 5.62078373015879  23.6123799999999 5.42534722222229  23.6123799999999 5.42534722222229  C 23.6123799999999 5.42534722222229  23.6744399999999 5.52951388888891  23.6744399999999 5.52951388888891  C 23.6744399999999 5.52951388888891  24.8224050000001 5.60776289682531  24.8224050000001 5.60776289682531  C 24.8224050000001 5.60776289682531  25.7067599999999 6.04439484126988  25.7067599999999 6.04439484126988  C 25.7067599999999 6.04439484126988  26.22644 6.13566468253975  26.22644 6.13566468253975  C 26.22644 6.13566468253975  26.5133950000002 5.90749007936518  26.5133950000002 5.90749007936518  C 26.5133950000002 5.90749007936518  27.3512049999999 5.71850198412699  27.3512049999999 5.71850198412699  C 27.3512049999999 5.71850198412699  28.4215949999999 5.88789682539675  28.4215949999999 5.88789682539675  C 28.4215949999999 5.88789682539675  28.68535 6.10305059523807  28.68535 6.10305059523807  C 28.68535 6.10305059523807  28.514685 6.44221230158735  28.514685 6.44221230158735  C 28.514685 6.44221230158735  28.088095 6.25310019841265  28.088095 6.25310019841265  C 28.088095 6.25310019841265  27.39775 6.89223710317469  27.39775 6.89223710317469  C 27.39775 6.89223710317469  27.6148150000001 7.30989583333337  27.6148150000001 7.30989583333337  C 27.6148150000001 7.30989583333337  27.11065 7.51884920634916  27.11065 7.51884920634916  Z " stroke-width="2" stroke="#0099ff" fill="none" transform="matrix(1 0 0 1 1094 259 )" mask="url(#clip26)" />
  </g>
</svg>