<?xml version="1.0" encoding="utf-8"?>
<svg version="1.1" xmlns:xlink="http://www.w3.org/1999/xlink" width="65px" height="60px" xmlns="http://www.w3.org/2000/svg">
  <defs>
    <mask fill="white" id="clip260">
      <path d="M 13.8626658528078 51.7688571428571  C 13.8626658528078 51.7688571428571  12.9603787931635 51.306  12.9603787931635 51.306  C 12.9603787931635 51.306  11.1707045692361 50.0278775510204  11.1707045692361 50.0278775510204  C 11.1707045692361 50.0278775510204  10.8923857690967 49.6203673469388  10.8923857690967 49.6203673469388  C 10.8923857690967 49.6203673469388  9.99009870945235 47.3412244897959  9.99009870945235 47.3412244897959  C 9.99009870945235 47.3412244897959  9.36598988489709 44.8536734693878  9.36598988489709 44.8536734693878  C 9.36598988489709 44.8536734693878  9.17046389954658 43.376693877551  9.17046389954658 43.376693877551  C 9.17046389954658 43.376693877551  7.90720579002448 42.6972244897959  7.90720579002448 42.6972244897959  C 7.90720579002448 42.6972244897959  7.77184164632024 42.3457959183673  7.77184164632024 42.3457959183673  C 7.77184164632024 42.3457959183673  8.53876456226021 39.2488163265306  8.53876456226021 39.2488163265306  C 8.53876456226021 39.2488163265306  8.86220474363449 38.5474285714286  8.86220474363449 38.5474285714286  C 8.86220474363449 38.5474285714286  9.02764980816187 36.2270204081633  9.02764980816187 36.2270204081633  C 9.02764980816187 36.2270204081633  8.70420962678759 35.0522448979591  8.70420962678759 35.0522448979591  C 8.70420962678759 35.0522448979591  8.794452389257 32.2186530612245  8.794452389257 32.2186530612245  C 8.794452389257 32.2186530612245  9.68183955354027 30.7117959183673  9.68183955354027 30.7117959183673  C 9.68183955354027 30.7117959183673  10.5465957446809 30.246  10.5465957446809 30.246  C 10.5465957446809 30.246  10.9375071503314 29.0044897959184  10.9375071503314 29.0044897959184  C 10.9375071503314 29.0044897959184  11.4037614230904 28.197918367347  11.4037614230904 28.197918367347  C 11.4037614230904 28.197918367347  12.3286794558772 26.3070612244899  12.3286794558772 26.3070612244899  C 12.3286794558772 26.3070612244899  13.0580715033136 25.3933469387756  13.0580715033136 25.3933469387756  C 13.0580715033136 25.3933469387756  13.2912689222183 24.5419591836734  13.2912689222183 24.5419591836734  C 13.2912689222183 24.5419591836734  13.9003372863622 23.5595510204081  13.9003372863622 23.5595510204081  C 13.9003372863622 23.5595510204081  14.2161869550052 22.7322857142857  14.2161869550052 22.7322857142857  C 14.2161869550052 22.7322857142857  14.7350125566795 21.8512653061224  14.7350125566795 21.8512653061224  C 14.7350125566795 21.8512653061224  15.3892023020578 21.0324489795919  15.3892023020578 21.0324489795919  C 15.3892023020578 21.0324489795919  15.9531492849668 19.4654693877551  15.9531492849668 19.4654693877551  C 15.9531492849668 19.4654693877551  16.8479863969307 18.6477551020407  16.8479863969307 18.6477551020407  C 16.8479863969307 18.6477551020407  17.6000094175096 18.2235918367347  17.6000094175096 18.2235918367347  C 17.6000094175096 18.2235918367347  18.4346846878269 17.0982857142857  18.4346846878269 17.0982857142857  C 18.4346846878269 17.0982857142857  18.712862922916 15.7195102040818  18.712862922916 15.7195102040818  C 18.712862922916 15.7195102040818  19.2768099058248 14.6495510204082  19.2768099058248 14.6495510204082  C 19.2768099058248 14.6495510204082  19.870837809557 13.887918367347  19.870837809557 13.887918367347  C 19.870837809557 13.887918367347  21.4569738402512 13.226693877551  21.4569738402512 13.226693877551  C 21.4569738402512 13.226693877551  22.4045228461807 12.734693877551  22.4045228461807 12.734693877551  C 22.4045228461807 12.734693877551  22.7803937914197 12.6885306122449  22.7803937914197 12.6885306122449  C 22.7803937914197 12.6885306122449  23.7129023369375 11.9969387755102  23.7129023369375 11.9969387755102  C 23.7129023369375 11.9969387755102  25.0589532612488 11.8048163265306  25.0589532612488 11.8048163265306  C 25.0589532612488 11.8048163265306  25.6981025462155 11.5359183673469  25.6981025462155 11.5359183673469  C 25.6981025462155 11.5359183673469  26.2018876874782 10.4148979591836  26.2018876874782 10.4148979591836  C 26.2018876874782 10.4148979591836  26.5853491454482 9.96208163265305  26.5853491454482 9.96208163265305  C 26.5853491454482 9.96208163265305  27.6907527031741 9.44032653061231  27.6907527031741 9.44032653061231  C 27.6907527031741 9.44032653061231  28.2998210673178 9.41730612244908  28.2998210673178 9.41730612244908  C 28.2998210673178 9.41730612244908  28.7660753400768 9.62448979591829  28.7660753400768 9.62448979591829  C 28.7660753400768 9.62448979591829  29.1571273107778 10.3688571428571  29.1571273107778 10.3688571428571  C 29.1571273107778 10.3688571428571  29.7060338332752 10.5837551020408  29.7060338332752 10.5837551020408  C 29.7060338332752 10.5837551020408  29.7962765957446 11.0828571428572  29.7962765957446 11.0828571428572  C 29.7962765957446 11.0828571428572  30.2549403557726 11.505306122449  30.2549403557726 11.505306122449  C 30.2549403557726 11.505306122449  30.70615416812 11.5283265306123  30.70615416812 11.5283265306123  C 30.70615416812 11.5283265306123  31.4355462155563 11.8817142857142  31.4355462155563 11.8817142857142  C 31.4355462155563 11.8817142857142  32.3528737356121 11.8432653061225  32.3528737356121 11.8432653061225  C 32.3528737356121 11.8432653061225  32.7214352982212 13.3496326530612  32.7214352982212 13.3496326530612  C 32.7214352982212 13.3496326530612  33.1349776770144 13.3650612244899  33.1349776770144 13.3650612244899  C 33.1349776770144 13.3650612244899  33.5184391349843 13.7802857142857  33.5184391349843 13.7802857142857  C 33.5184391349843 13.7802857142857  32.5483997209626 14.6726938775511  32.5483997209626 14.6726938775511  C 32.5483997209626 14.6726938775511  31.4730770840599 16.1199183673469  31.4730770840599 16.1199183673469  C 31.4730770840599 16.1199183673469  31.4279557028252 17.5683673469389  31.4279557028252 17.5683673469389  C 31.4279557028252 17.5683673469389  31.6912340425533 18.462612244898  31.6912340425533 18.462612244898  C 31.6912340425533 18.462612244898  32.0522050924312 19.2186122448979  32.0522050924312 19.2186122448979  C 32.0522050924312 19.2186122448979  31.9694122776422 20.4688163265307  31.9694122776422 20.4688163265307  C 31.9694122776422 20.4688163265307  31.7513958841994 21.1869795918368  31.7513958841994 21.1869795918368  C 31.7513958841994 21.1869795918368  31.2476107429369 21.9749387755102  31.2476107429369 21.9749387755102  C 31.2476107429369 21.9749387755102  31.0370442971748 23.1729795918367  31.0370442971748 23.1729795918367  C 31.0370442971748 23.1729795918367  29.570669689571 25.5095510204083  29.570669689571 25.5095510204083  C 29.570669689571 25.5095510204083  29.4353055458668 26.0824897959184  29.4353055458668 26.0824897959184  C 29.4353055458668 26.0824897959184  29.0141726543426 26.5937142857143  29.0141726543426 26.5937142857143  C 29.0141726543426 26.5937142857143  28.9690512731079 27.0663673469387  28.9690512731079 27.0663673469387  C 28.9690512731079 27.0663673469387  29.2096986396931 27.8800408163265  29.2096986396931 27.8800408163265  C 29.2096986396931 27.8800408163265  28.743444366934 29.1053877551021  28.743444366934 29.1053877551021  C 28.743444366934 29.1053877551021  28.3299019881409 31.3717959183673  28.3299019881409 31.3717959183673  C 28.3299019881409 31.3717959183673  27.5403480990582 35.7445714285715  27.5403480990582 35.7445714285715  C 27.5403480990582 35.7445714285715  27.5253076386467 36.5305714285714  27.5253076386467 36.5305714285714  C 27.5253076386467 36.5305714285714  27.2320889431461 37.4336326530612  27.2320889431461 37.4336326530612  C 27.2320889431461 37.4336326530612  27.013931984653 38.8124081632652  27.013931984653 38.8124081632652  C 27.013931984653 38.8124081632652  26.532777816533 39.5294693877551  26.532777816533 39.5294693877551  C 26.532777816533 39.5294693877551  26.2243780955702 40.6056734693877  26.2243780955702 40.6056734693877  C 26.2243780955702 40.6056734693877  26.4124541332403 41.4404081632653  26.4124541332403 41.4404081632653  C 26.4124541332403 41.4404081632653  26.1567663062435 41.932163265306  26.1567663062435 41.932163265306  C 26.1567663062435 41.932163265306  25.683062085804 42.1896734693878  25.683062085804 42.1896734693878  C 25.683062085804 42.1896734693878  25.4875361004536 43.2438367346939  25.4875361004536 43.2438367346939  C 25.4875361004536 43.2438367346939  25.119115102895 44.1580408163265  25.119115102895 44.1580408163265  C 25.119115102895 44.1580408163265  24.5325371468434 45.1272244897959  24.5325371468434 45.1272244897959  C 24.5325371468434 45.1272244897959  24.058832926404 45.705918367347  24.058832926404 45.705918367347  C 24.058832926404 45.705918367347  23.7279427973492 46.6368979591837  23.7279427973492 46.6368979591837  C 23.7279427973492 46.6368979591837  23.2391981164981 47.3098775510204  23.2391981164981 47.3098775510204  C 23.2391981164981 47.3098775510204  22.1187540983606 48.069306122449  22.1187540983606 48.069306122449  C 22.1187540983606 48.069306122449  21.5622570631322 48.3355102040816  21.5622570631322 48.3355102040816  C 21.5622570631322 48.3355102040816  19.9309996512034 49.283387755102  19.9309996512034 49.283387755102  C 19.9309996512034 49.283387755102  19.5249072200908 50.0750204081633  19.5249072200908 50.0750204081633  C 19.5249072200908 50.0750204081633  18.712862922916 53.2757142857143  18.712862922916 53.2757142857143  C 18.712862922916 53.2757142857143  18.5700488315313 55.7740408163266  18.5700488315313 55.7740408163266  C 18.5700488315313 55.7740408163266  18.6827820020927 56.3401224489796  18.6827820020927 56.3401224489796  C 18.6827820020927 56.3401224489796  18.6226201604464 57.0951428571428  18.6226201604464 57.0951428571428  C 18.6226201604464 57.0951428571428  18.1188350191838 57.7874693877552  18.1188350191838 57.7874693877552  C 18.1188350191838 57.7874693877552  18.2014872689223 59.0233469387755  18.2014872689223 59.0233469387755  C 18.2014872689223 59.0233469387755  17.9758803627486 59.2201224489796  17.9758803627486 59.2201224489796  C 17.9758803627486 59.2201224489796  17.0886337635159 58.6453469387754  17.0886337635159 58.6453469387754  C 17.0886337635159 58.6453469387754  16.6149295430765 58.7635102040817  16.6149295430765 58.7635102040817  C 16.6149295430765 58.7635102040817  16.1110038367631 58.5982040816326  16.1110038367631 58.5982040816326  C 16.1110038367631 58.5982040816326  15.6974614579701 57.8032653061225  15.6974614579701 57.8032653061225  C 15.6974614579701 57.8032653061225  15.4944855249389 57.0951428571428  15.4944855249389 57.0951428571428  C 15.4944855249389 57.0951428571428  15.622259155912 56.6153877551021  15.622259155912 56.6153877551021  C 15.622259155912 56.6153877551021  15.5921782350888 55.3809795918368  15.5921782350888 55.3809795918368  C 15.5921782350888 55.3809795918368  15.3665713289153 54.1395918367348  15.3665713289153 54.1395918367348  C 15.3665713289153 54.1395918367348  14.5018151377747 52.4358367346939  14.5018151377747 52.4358367346939  C 14.5018151377747 52.4358367346939  13.8626658528078 51.7688571428571  13.8626658528078 51.7688571428571  Z M 64.920390303453 2.13991836734692  C 64.920390303453 2.13991836734692  63.0033641437042 2.20861224489784  63.0033641437042 2.20861224489784  C 63.0033641437042 2.20861224489784  64.7023739100105 0.449877551020336  64.7023739100105 0.449877551020336  C 64.7023739100105 0.449877551020336  64.920390303453 2.13991836734692  64.920390303453 2.13991836734692  Z M 49.9042476456226 4.92073469387753  C 49.9042476456226 4.92073469387753  49.603438437391 4.7295918367347  49.603438437391 4.7295918367347  C 49.603438437391 4.7295918367347  49.6110289501221 3.16873469387758  49.6110289501221 3.16873469387758  C 49.6110289501221 3.16873469387758  51.4226313219394 2.9011836734694  51.4226313219394 2.9011836734694  C 51.4226313219394 2.9011836734694  51.828723753052 3.09232653061224  51.828723753052 3.09232653061224  C 51.828723753052 3.09232653061224  51.7836023718172 4.77538775510209  51.7836023718172 4.77538775510209  C 51.7836023718172 4.77538775510209  49.9042476456226 4.92073469387753  49.9042476456226 4.92073469387753  Z M 5.17701081269627 35.6278775510204  C 5.17701081269627 35.6278775510204  4.62810429019885 35.5733877551021  4.62810429019885 35.5733877551021  C 4.62810429019885 35.5733877551021  2.77123997209628 36.2425714285714  2.77123997209628 36.2425714285714  C 2.77123997209628 36.2425714285714  2.40281897453781 36.2581224489796  2.40281897453781 36.2581224489796  C 2.40281897453781 36.2581224489796  2.1997024764562 35.8612653061225  2.1997024764562 35.8612653061225  C 2.1997024764562 35.8612653061225  2.252414370422 33.866693877551  2.252414370422 33.866693877551  C 2.252414370422 33.866693877551  2.68099720962675 33.9989387755102  2.68099720962675 33.9989387755102  C 2.68099720962675 33.9989387755102  2.78628043250785 33.5944897959184  2.78628043250785 33.5944897959184  C 2.78628043250785 33.5944897959184  5.01915626089988 33.6489795918368  5.01915626089988 33.6489795918368  C 5.01915626089988 33.6489795918368  5.17701081269627 35.6278775510204  5.17701081269627 35.6278775510204  Z M 54.2049759330309 2.04832653061226  C 54.2049759330309 2.04832653061226  52.310580746425 2.06351020408169  52.310580746425 2.06351020408169  C 52.310580746425 2.06351020408169  53.994409487269 0.472775510204087  53.994409487269 0.472775510204087  C 53.994409487269 0.472775510204087  54.2049759330309 2.04832653061226  54.2049759330309 2.04832653061226  Z M 2.92108231600969 35.2000408163265  C 2.92108231600969 35.2000408163265  2.92108231600969 33.291306122449  2.92108231600969 33.291306122449  C 2.92108231600969 33.291306122449  3.15427973491455 33.2990204081633  3.15427973491455 33.2990204081633  C 3.15427973491455 33.2990204081633  3.07907743285671 35.4489795918366  3.07907743285671 35.4489795918366  C 3.07907743285671 35.4489795918366  1.10188943146147 35.4879183673469  1.10188943146147 35.4879183673469  C 1.10188943146147 35.4879183673469  2.92108231600969 35.2000408163265  2.92108231600969 35.2000408163265  Z M 1.38006766655042 38.422775510204  C 1.38006766655042 38.422775510204  1.41014858737344 36.6764081632653  1.41014858737344 36.6764081632653  C 1.41014858737344 36.6764081632653  3.04899651203345 38.422775510204  3.04899651203345 38.422775510204  C 3.04899651203345 38.422775510204  1.38006766655042 38.422775510204  1.38006766655042 38.422775510204  Z M 4.16944053017085 34.5934285714286  C 4.16944053017085 34.5934285714286  2.13954063480992 32.7082040816326  2.13954063480992 32.7082040816326  C 2.13954063480992 32.7082040816326  3.89871224276237 32.5760816326531  3.89871224276237 32.5760816326531  C 3.89871224276237 32.5760816326531  4.25209277990928 32.7859591836734  4.25209277990928 32.7859591836734  C 4.25209277990928 32.7859591836734  4.16944053017085 34.5934285714286  4.16944053017085 34.5934285714286  Z M 34.4283167073595 6.36636734693877  C 34.4283167073595 6.36636734693877  32.7745688873385 6.16738775510203  32.7745688873385 6.16738775510203  C 32.7745688873385 6.16738775510203  34.4960690617371 4.73632653061225  34.4960690617371 4.73632653061225  C 34.4960690617371 4.73632653061225  34.4283167073595 6.36636734693877  34.4283167073595 6.36636734693877  Z M 25.5481196372515 48.4373877551021  C 25.5481196372515 48.4373877551021  25.4654673875131 46.7430612244898  25.4654673875131 46.7430612244898  C 25.4654673875131 46.7430612244898  27.4426553889083 46.7508979591837  27.4426553889083 46.7508979591837  C 27.4426553889083 46.7508979591837  27.4276149284966 48.6096734693878  27.4276149284966 48.6096734693878  C 27.4276149284966 48.6096734693878  25.5481196372515 48.4373877551021  25.5481196372515 48.4373877551021  Z M 25.9467621206836 55.6503673469388  C 25.9467621206836 55.6503673469388  25.9842929891872 55.1077959183674  25.9842929891872 55.1077959183674  C 25.9842929891872 55.1077959183674  28.1870878967561 55.1471020408163  28.1870878967561 55.1471020408163  C 28.1870878967561 55.1471020408163  28.179497384025 57.0400408163266  28.179497384025 57.0400408163266  C 28.179497384025 57.0400408163266  28.540468433903 57.2445306122449  28.540468433903 57.2445306122449  C 28.540468433903 57.2445306122449  28.4126948029299 57.6301224489796  28.4126948029299 57.6301224489796  C 28.4126948029299 57.6301224489796  26.2700617370073 57.2524897959183  26.2700617370073 57.2524897959183  C 26.2700617370073 57.2524897959183  25.9467621206836 55.6503673469388  25.9467621206836 55.6503673469388  Z M 34.7140854551795 8.41848979591828  C 34.7140854551795 8.41848979591828  33.1505803976281 6.71142857142866  33.1505803976281 6.71142857142866  C 33.1505803976281 6.71142857142866  34.8570401116151 6.77265306122456  34.8570401116151 6.77265306122456  C 34.8570401116151 6.77265306122456  34.7140854551795 8.41848979591828  34.7140854551795 8.41848979591828  Z M 0.658266131845039 40.746  C 0.658266131845039 40.746  0.477780606906094 39.0847346938775  0.477780606906094 39.0847346938775  C 0.477780606906094 39.0847346938775  2.27448308336238 39.0925714285714  2.27448308336238 39.0925714285714  C 2.27448308336238 39.0925714285714  0.658266131845039 40.746  0.658266131845039 40.746  Z M 13.7794513428671 51.486  C 13.7794513428671 51.486  11.8774656435298 52.9224489795919  11.8774656435298 52.9224489795919  C 11.8774656435298 52.9224489795919  13.6290467387514 51.2976734693877  13.6290467387514 51.2976734693877  C 13.6290467387514 51.2976734693877  13.7794513428671 51.486  13.7794513428671 51.486  Z " fill-rule="evenodd" />
    </mask>
  </defs>
  <g transform="matrix(1 0 0 1 -1145 -477 )">
    <path d="M 13.8626658528078 51.7688571428571  C 13.8626658528078 51.7688571428571  12.9603787931635 51.306  12.9603787931635 51.306  C 12.9603787931635 51.306  11.1707045692361 50.0278775510204  11.1707045692361 50.0278775510204  C 11.1707045692361 50.0278775510204  10.8923857690967 49.6203673469388  10.8923857690967 49.6203673469388  C 10.8923857690967 49.6203673469388  9.99009870945235 47.3412244897959  9.99009870945235 47.3412244897959  C 9.99009870945235 47.3412244897959  9.36598988489709 44.8536734693878  9.36598988489709 44.8536734693878  C 9.36598988489709 44.8536734693878  9.17046389954658 43.376693877551  9.17046389954658 43.376693877551  C 9.17046389954658 43.376693877551  7.90720579002448 42.6972244897959  7.90720579002448 42.6972244897959  C 7.90720579002448 42.6972244897959  7.77184164632024 42.3457959183673  7.77184164632024 42.3457959183673  C 7.77184164632024 42.3457959183673  8.53876456226021 39.2488163265306  8.53876456226021 39.2488163265306  C 8.53876456226021 39.2488163265306  8.86220474363449 38.5474285714286  8.86220474363449 38.5474285714286  C 8.86220474363449 38.5474285714286  9.02764980816187 36.2270204081633  9.02764980816187 36.2270204081633  C 9.02764980816187 36.2270204081633  8.70420962678759 35.0522448979591  8.70420962678759 35.0522448979591  C 8.70420962678759 35.0522448979591  8.794452389257 32.2186530612245  8.794452389257 32.2186530612245  C 8.794452389257 32.2186530612245  9.68183955354027 30.7117959183673  9.68183955354027 30.7117959183673  C 9.68183955354027 30.7117959183673  10.5465957446809 30.246  10.5465957446809 30.246  C 10.5465957446809 30.246  10.9375071503314 29.0044897959184  10.9375071503314 29.0044897959184  C 10.9375071503314 29.0044897959184  11.4037614230904 28.197918367347  11.4037614230904 28.197918367347  C 11.4037614230904 28.197918367347  12.3286794558772 26.3070612244899  12.3286794558772 26.3070612244899  C 12.3286794558772 26.3070612244899  13.0580715033136 25.3933469387756  13.0580715033136 25.3933469387756  C 13.0580715033136 25.3933469387756  13.2912689222183 24.5419591836734  13.2912689222183 24.5419591836734  C 13.2912689222183 24.5419591836734  13.9003372863622 23.5595510204081  13.9003372863622 23.5595510204081  C 13.9003372863622 23.5595510204081  14.2161869550052 22.7322857142857  14.2161869550052 22.7322857142857  C 14.2161869550052 22.7322857142857  14.7350125566795 21.8512653061224  14.7350125566795 21.8512653061224  C 14.7350125566795 21.8512653061224  15.3892023020578 21.0324489795919  15.3892023020578 21.0324489795919  C 15.3892023020578 21.0324489795919  15.9531492849668 19.4654693877551  15.9531492849668 19.4654693877551  C 15.9531492849668 19.4654693877551  16.8479863969307 18.6477551020407  16.8479863969307 18.6477551020407  C 16.8479863969307 18.6477551020407  17.6000094175096 18.2235918367347  17.6000094175096 18.2235918367347  C 17.6000094175096 18.2235918367347  18.4346846878269 17.0982857142857  18.4346846878269 17.0982857142857  C 18.4346846878269 17.0982857142857  18.712862922916 15.7195102040818  18.712862922916 15.7195102040818  C 18.712862922916 15.7195102040818  19.2768099058248 14.6495510204082  19.2768099058248 14.6495510204082  C 19.2768099058248 14.6495510204082  19.870837809557 13.887918367347  19.870837809557 13.887918367347  C 19.870837809557 13.887918367347  21.4569738402512 13.226693877551  21.4569738402512 13.226693877551  C 21.4569738402512 13.226693877551  22.4045228461807 12.734693877551  22.4045228461807 12.734693877551  C 22.4045228461807 12.734693877551  22.7803937914197 12.6885306122449  22.7803937914197 12.6885306122449  C 22.7803937914197 12.6885306122449  23.7129023369375 11.9969387755102  23.7129023369375 11.9969387755102  C 23.7129023369375 11.9969387755102  25.0589532612488 11.8048163265306  25.0589532612488 11.8048163265306  C 25.0589532612488 11.8048163265306  25.6981025462155 11.5359183673469  25.6981025462155 11.5359183673469  C 25.6981025462155 11.5359183673469  26.2018876874782 10.4148979591836  26.2018876874782 10.4148979591836  C 26.2018876874782 10.4148979591836  26.5853491454482 9.96208163265305  26.5853491454482 9.96208163265305  C 26.5853491454482 9.96208163265305  27.6907527031741 9.44032653061231  27.6907527031741 9.44032653061231  C 27.6907527031741 9.44032653061231  28.2998210673178 9.41730612244908  28.2998210673178 9.41730612244908  C 28.2998210673178 9.41730612244908  28.7660753400768 9.62448979591829  28.7660753400768 9.62448979591829  C 28.7660753400768 9.62448979591829  29.1571273107778 10.3688571428571  29.1571273107778 10.3688571428571  C 29.1571273107778 10.3688571428571  29.7060338332752 10.5837551020408  29.7060338332752 10.5837551020408  C 29.7060338332752 10.5837551020408  29.7962765957446 11.0828571428572  29.7962765957446 11.0828571428572  C 29.7962765957446 11.0828571428572  30.2549403557726 11.505306122449  30.2549403557726 11.505306122449  C 30.2549403557726 11.505306122449  30.70615416812 11.5283265306123  30.70615416812 11.5283265306123  C 30.70615416812 11.5283265306123  31.4355462155563 11.8817142857142  31.4355462155563 11.8817142857142  C 31.4355462155563 11.8817142857142  32.3528737356121 11.8432653061225  32.3528737356121 11.8432653061225  C 32.3528737356121 11.8432653061225  32.7214352982212 13.3496326530612  32.7214352982212 13.3496326530612  C 32.7214352982212 13.3496326530612  33.1349776770144 13.3650612244899  33.1349776770144 13.3650612244899  C 33.1349776770144 13.3650612244899  33.5184391349843 13.7802857142857  33.5184391349843 13.7802857142857  C 33.5184391349843 13.7802857142857  32.5483997209626 14.6726938775511  32.5483997209626 14.6726938775511  C 32.5483997209626 14.6726938775511  31.4730770840599 16.1199183673469  31.4730770840599 16.1199183673469  C 31.4730770840599 16.1199183673469  31.4279557028252 17.5683673469389  31.4279557028252 17.5683673469389  C 31.4279557028252 17.5683673469389  31.6912340425533 18.462612244898  31.6912340425533 18.462612244898  C 31.6912340425533 18.462612244898  32.0522050924312 19.2186122448979  32.0522050924312 19.2186122448979  C 32.0522050924312 19.2186122448979  31.9694122776422 20.4688163265307  31.9694122776422 20.4688163265307  C 31.9694122776422 20.4688163265307  31.7513958841994 21.1869795918368  31.7513958841994 21.1869795918368  C 31.7513958841994 21.1869795918368  31.2476107429369 21.9749387755102  31.2476107429369 21.9749387755102  C 31.2476107429369 21.9749387755102  31.0370442971748 23.1729795918367  31.0370442971748 23.1729795918367  C 31.0370442971748 23.1729795918367  29.570669689571 25.5095510204083  29.570669689571 25.5095510204083  C 29.570669689571 25.5095510204083  29.4353055458668 26.0824897959184  29.4353055458668 26.0824897959184  C 29.4353055458668 26.0824897959184  29.0141726543426 26.5937142857143  29.0141726543426 26.5937142857143  C 29.0141726543426 26.5937142857143  28.9690512731079 27.0663673469387  28.9690512731079 27.0663673469387  C 28.9690512731079 27.0663673469387  29.2096986396931 27.8800408163265  29.2096986396931 27.8800408163265  C 29.2096986396931 27.8800408163265  28.743444366934 29.1053877551021  28.743444366934 29.1053877551021  C 28.743444366934 29.1053877551021  28.3299019881409 31.3717959183673  28.3299019881409 31.3717959183673  C 28.3299019881409 31.3717959183673  27.5403480990582 35.7445714285715  27.5403480990582 35.7445714285715  C 27.5403480990582 35.7445714285715  27.5253076386467 36.5305714285714  27.5253076386467 36.5305714285714  C 27.5253076386467 36.5305714285714  27.2320889431461 37.4336326530612  27.2320889431461 37.4336326530612  C 27.2320889431461 37.4336326530612  27.013931984653 38.8124081632652  27.013931984653 38.8124081632652  C 27.013931984653 38.8124081632652  26.532777816533 39.5294693877551  26.532777816533 39.5294693877551  C 26.532777816533 39.5294693877551  26.2243780955702 40.6056734693877  26.2243780955702 40.6056734693877  C 26.2243780955702 40.6056734693877  26.4124541332403 41.4404081632653  26.4124541332403 41.4404081632653  C 26.4124541332403 41.4404081632653  26.1567663062435 41.932163265306  26.1567663062435 41.932163265306  C 26.1567663062435 41.932163265306  25.683062085804 42.1896734693878  25.683062085804 42.1896734693878  C 25.683062085804 42.1896734693878  25.4875361004536 43.2438367346939  25.4875361004536 43.2438367346939  C 25.4875361004536 43.2438367346939  25.119115102895 44.1580408163265  25.119115102895 44.1580408163265  C 25.119115102895 44.1580408163265  24.5325371468434 45.1272244897959  24.5325371468434 45.1272244897959  C 24.5325371468434 45.1272244897959  24.058832926404 45.705918367347  24.058832926404 45.705918367347  C 24.058832926404 45.705918367347  23.7279427973492 46.6368979591837  23.7279427973492 46.6368979591837  C 23.7279427973492 46.6368979591837  23.2391981164981 47.3098775510204  23.2391981164981 47.3098775510204  C 23.2391981164981 47.3098775510204  22.1187540983606 48.069306122449  22.1187540983606 48.069306122449  C 22.1187540983606 48.069306122449  21.5622570631322 48.3355102040816  21.5622570631322 48.3355102040816  C 21.5622570631322 48.3355102040816  19.9309996512034 49.283387755102  19.9309996512034 49.283387755102  C 19.9309996512034 49.283387755102  19.5249072200908 50.0750204081633  19.5249072200908 50.0750204081633  C 19.5249072200908 50.0750204081633  18.712862922916 53.2757142857143  18.712862922916 53.2757142857143  C 18.712862922916 53.2757142857143  18.5700488315313 55.7740408163266  18.5700488315313 55.7740408163266  C 18.5700488315313 55.7740408163266  18.6827820020927 56.3401224489796  18.6827820020927 56.3401224489796  C 18.6827820020927 56.3401224489796  18.6226201604464 57.0951428571428  18.6226201604464 57.0951428571428  C 18.6226201604464 57.0951428571428  18.1188350191838 57.7874693877552  18.1188350191838 57.7874693877552  C 18.1188350191838 57.7874693877552  18.2014872689223 59.0233469387755  18.2014872689223 59.0233469387755  C 18.2014872689223 59.0233469387755  17.9758803627486 59.2201224489796  17.9758803627486 59.2201224489796  C 17.9758803627486 59.2201224489796  17.0886337635159 58.6453469387754  17.0886337635159 58.6453469387754  C 17.0886337635159 58.6453469387754  16.6149295430765 58.7635102040817  16.6149295430765 58.7635102040817  C 16.6149295430765 58.7635102040817  16.1110038367631 58.5982040816326  16.1110038367631 58.5982040816326  C 16.1110038367631 58.5982040816326  15.6974614579701 57.8032653061225  15.6974614579701 57.8032653061225  C 15.6974614579701 57.8032653061225  15.4944855249389 57.0951428571428  15.4944855249389 57.0951428571428  C 15.4944855249389 57.0951428571428  15.622259155912 56.6153877551021  15.622259155912 56.6153877551021  C 15.622259155912 56.6153877551021  15.5921782350888 55.3809795918368  15.5921782350888 55.3809795918368  C 15.5921782350888 55.3809795918368  15.3665713289153 54.1395918367348  15.3665713289153 54.1395918367348  C 15.3665713289153 54.1395918367348  14.5018151377747 52.4358367346939  14.5018151377747 52.4358367346939  C 14.5018151377747 52.4358367346939  13.8626658528078 51.7688571428571  13.8626658528078 51.7688571428571  Z M 64.920390303453 2.13991836734692  C 64.920390303453 2.13991836734692  63.0033641437042 2.20861224489784  63.0033641437042 2.20861224489784  C 63.0033641437042 2.20861224489784  64.7023739100105 0.449877551020336  64.7023739100105 0.449877551020336  C 64.7023739100105 0.449877551020336  64.920390303453 2.13991836734692  64.920390303453 2.13991836734692  Z M 49.9042476456226 4.92073469387753  C 49.9042476456226 4.92073469387753  49.603438437391 4.7295918367347  49.603438437391 4.7295918367347  C 49.603438437391 4.7295918367347  49.6110289501221 3.16873469387758  49.6110289501221 3.16873469387758  C 49.6110289501221 3.16873469387758  51.4226313219394 2.9011836734694  51.4226313219394 2.9011836734694  C 51.4226313219394 2.9011836734694  51.828723753052 3.09232653061224  51.828723753052 3.09232653061224  C 51.828723753052 3.09232653061224  51.7836023718172 4.77538775510209  51.7836023718172 4.77538775510209  C 51.7836023718172 4.77538775510209  49.9042476456226 4.92073469387753  49.9042476456226 4.92073469387753  Z M 5.17701081269627 35.6278775510204  C 5.17701081269627 35.6278775510204  4.62810429019885 35.5733877551021  4.62810429019885 35.5733877551021  C 4.62810429019885 35.5733877551021  2.77123997209628 36.2425714285714  2.77123997209628 36.2425714285714  C 2.77123997209628 36.2425714285714  2.40281897453781 36.2581224489796  2.40281897453781 36.2581224489796  C 2.40281897453781 36.2581224489796  2.1997024764562 35.8612653061225  2.1997024764562 35.8612653061225  C 2.1997024764562 35.8612653061225  2.252414370422 33.866693877551  2.252414370422 33.866693877551  C 2.252414370422 33.866693877551  2.68099720962675 33.9989387755102  2.68099720962675 33.9989387755102  C 2.68099720962675 33.9989387755102  2.78628043250785 33.5944897959184  2.78628043250785 33.5944897959184  C 2.78628043250785 33.5944897959184  5.01915626089988 33.6489795918368  5.01915626089988 33.6489795918368  C 5.01915626089988 33.6489795918368  5.17701081269627 35.6278775510204  5.17701081269627 35.6278775510204  Z M 54.2049759330309 2.04832653061226  C 54.2049759330309 2.04832653061226  52.310580746425 2.06351020408169  52.310580746425 2.06351020408169  C 52.310580746425 2.06351020408169  53.994409487269 0.472775510204087  53.994409487269 0.472775510204087  C 53.994409487269 0.472775510204087  54.2049759330309 2.04832653061226  54.2049759330309 2.04832653061226  Z M 2.92108231600969 35.2000408163265  C 2.92108231600969 35.2000408163265  2.92108231600969 33.291306122449  2.92108231600969 33.291306122449  C 2.92108231600969 33.291306122449  3.15427973491455 33.2990204081633  3.15427973491455 33.2990204081633  C 3.15427973491455 33.2990204081633  3.07907743285671 35.4489795918366  3.07907743285671 35.4489795918366  C 3.07907743285671 35.4489795918366  1.10188943146147 35.4879183673469  1.10188943146147 35.4879183673469  C 1.10188943146147 35.4879183673469  2.92108231600969 35.2000408163265  2.92108231600969 35.2000408163265  Z M 1.38006766655042 38.422775510204  C 1.38006766655042 38.422775510204  1.41014858737344 36.6764081632653  1.41014858737344 36.6764081632653  C 1.41014858737344 36.6764081632653  3.04899651203345 38.422775510204  3.04899651203345 38.422775510204  C 3.04899651203345 38.422775510204  1.38006766655042 38.422775510204  1.38006766655042 38.422775510204  Z M 4.16944053017085 34.5934285714286  C 4.16944053017085 34.5934285714286  2.13954063480992 32.7082040816326  2.13954063480992 32.7082040816326  C 2.13954063480992 32.7082040816326  3.89871224276237 32.5760816326531  3.89871224276237 32.5760816326531  C 3.89871224276237 32.5760816326531  4.25209277990928 32.7859591836734  4.25209277990928 32.7859591836734  C 4.25209277990928 32.7859591836734  4.16944053017085 34.5934285714286  4.16944053017085 34.5934285714286  Z M 34.4283167073595 6.36636734693877  C 34.4283167073595 6.36636734693877  32.7745688873385 6.16738775510203  32.7745688873385 6.16738775510203  C 32.7745688873385 6.16738775510203  34.4960690617371 4.73632653061225  34.4960690617371 4.73632653061225  C 34.4960690617371 4.73632653061225  34.4283167073595 6.36636734693877  34.4283167073595 6.36636734693877  Z M 25.5481196372515 48.4373877551021  C 25.5481196372515 48.4373877551021  25.4654673875131 46.7430612244898  25.4654673875131 46.7430612244898  C 25.4654673875131 46.7430612244898  27.4426553889083 46.7508979591837  27.4426553889083 46.7508979591837  C 27.4426553889083 46.7508979591837  27.4276149284966 48.6096734693878  27.4276149284966 48.6096734693878  C 27.4276149284966 48.6096734693878  25.5481196372515 48.4373877551021  25.5481196372515 48.4373877551021  Z M 25.9467621206836 55.6503673469388  C 25.9467621206836 55.6503673469388  25.9842929891872 55.1077959183674  25.9842929891872 55.1077959183674  C 25.9842929891872 55.1077959183674  28.1870878967561 55.1471020408163  28.1870878967561 55.1471020408163  C 28.1870878967561 55.1471020408163  28.179497384025 57.0400408163266  28.179497384025 57.0400408163266  C 28.179497384025 57.0400408163266  28.540468433903 57.2445306122449  28.540468433903 57.2445306122449  C 28.540468433903 57.2445306122449  28.4126948029299 57.6301224489796  28.4126948029299 57.6301224489796  C 28.4126948029299 57.6301224489796  26.2700617370073 57.2524897959183  26.2700617370073 57.2524897959183  C 26.2700617370073 57.2524897959183  25.9467621206836 55.6503673469388  25.9467621206836 55.6503673469388  Z M 34.7140854551795 8.41848979591828  C 34.7140854551795 8.41848979591828  33.1505803976281 6.71142857142866  33.1505803976281 6.71142857142866  C 33.1505803976281 6.71142857142866  34.8570401116151 6.77265306122456  34.8570401116151 6.77265306122456  C 34.8570401116151 6.77265306122456  34.7140854551795 8.41848979591828  34.7140854551795 8.41848979591828  Z M 0.658266131845039 40.746  C 0.658266131845039 40.746  0.477780606906094 39.0847346938775  0.477780606906094 39.0847346938775  C 0.477780606906094 39.0847346938775  2.27448308336238 39.0925714285714  2.27448308336238 39.0925714285714  C 2.27448308336238 39.0925714285714  0.658266131845039 40.746  0.658266131845039 40.746  Z M 13.7794513428671 51.486  C 13.7794513428671 51.486  11.8774656435298 52.9224489795919  11.8774656435298 52.9224489795919  C 11.8774656435298 52.9224489795919  13.6290467387514 51.2976734693877  13.6290467387514 51.2976734693877  C 13.6290467387514 51.2976734693877  13.7794513428671 51.486  13.7794513428671 51.486  Z " fill-rule="nonzero" fill="#ffffff" stroke="none" fill-opacity="0" transform="matrix(1 0 0 1 1145 477 )" />
    <path d="M 13.8626658528078 51.7688571428571  C 13.8626658528078 51.7688571428571  12.9603787931635 51.306  12.9603787931635 51.306  C 12.9603787931635 51.306  11.1707045692361 50.0278775510204  11.1707045692361 50.0278775510204  C 11.1707045692361 50.0278775510204  10.8923857690967 49.6203673469388  10.8923857690967 49.6203673469388  C 10.8923857690967 49.6203673469388  9.99009870945235 47.3412244897959  9.99009870945235 47.3412244897959  C 9.99009870945235 47.3412244897959  9.36598988489709 44.8536734693878  9.36598988489709 44.8536734693878  C 9.36598988489709 44.8536734693878  9.17046389954658 43.376693877551  9.17046389954658 43.376693877551  C 9.17046389954658 43.376693877551  7.90720579002448 42.6972244897959  7.90720579002448 42.6972244897959  C 7.90720579002448 42.6972244897959  7.77184164632024 42.3457959183673  7.77184164632024 42.3457959183673  C 7.77184164632024 42.3457959183673  8.53876456226021 39.2488163265306  8.53876456226021 39.2488163265306  C 8.53876456226021 39.2488163265306  8.86220474363449 38.5474285714286  8.86220474363449 38.5474285714286  C 8.86220474363449 38.5474285714286  9.02764980816187 36.2270204081633  9.02764980816187 36.2270204081633  C 9.02764980816187 36.2270204081633  8.70420962678759 35.0522448979591  8.70420962678759 35.0522448979591  C 8.70420962678759 35.0522448979591  8.794452389257 32.2186530612245  8.794452389257 32.2186530612245  C 8.794452389257 32.2186530612245  9.68183955354027 30.7117959183673  9.68183955354027 30.7117959183673  C 9.68183955354027 30.7117959183673  10.5465957446809 30.246  10.5465957446809 30.246  C 10.5465957446809 30.246  10.9375071503314 29.0044897959184  10.9375071503314 29.0044897959184  C 10.9375071503314 29.0044897959184  11.4037614230904 28.197918367347  11.4037614230904 28.197918367347  C 11.4037614230904 28.197918367347  12.3286794558772 26.3070612244899  12.3286794558772 26.3070612244899  C 12.3286794558772 26.3070612244899  13.0580715033136 25.3933469387756  13.0580715033136 25.3933469387756  C 13.0580715033136 25.3933469387756  13.2912689222183 24.5419591836734  13.2912689222183 24.5419591836734  C 13.2912689222183 24.5419591836734  13.9003372863622 23.5595510204081  13.9003372863622 23.5595510204081  C 13.9003372863622 23.5595510204081  14.2161869550052 22.7322857142857  14.2161869550052 22.7322857142857  C 14.2161869550052 22.7322857142857  14.7350125566795 21.8512653061224  14.7350125566795 21.8512653061224  C 14.7350125566795 21.8512653061224  15.3892023020578 21.0324489795919  15.3892023020578 21.0324489795919  C 15.3892023020578 21.0324489795919  15.9531492849668 19.4654693877551  15.9531492849668 19.4654693877551  C 15.9531492849668 19.4654693877551  16.8479863969307 18.6477551020407  16.8479863969307 18.6477551020407  C 16.8479863969307 18.6477551020407  17.6000094175096 18.2235918367347  17.6000094175096 18.2235918367347  C 17.6000094175096 18.2235918367347  18.4346846878269 17.0982857142857  18.4346846878269 17.0982857142857  C 18.4346846878269 17.0982857142857  18.712862922916 15.7195102040818  18.712862922916 15.7195102040818  C 18.712862922916 15.7195102040818  19.2768099058248 14.6495510204082  19.2768099058248 14.6495510204082  C 19.2768099058248 14.6495510204082  19.870837809557 13.887918367347  19.870837809557 13.887918367347  C 19.870837809557 13.887918367347  21.4569738402512 13.226693877551  21.4569738402512 13.226693877551  C 21.4569738402512 13.226693877551  22.4045228461807 12.734693877551  22.4045228461807 12.734693877551  C 22.4045228461807 12.734693877551  22.7803937914197 12.6885306122449  22.7803937914197 12.6885306122449  C 22.7803937914197 12.6885306122449  23.7129023369375 11.9969387755102  23.7129023369375 11.9969387755102  C 23.7129023369375 11.9969387755102  25.0589532612488 11.8048163265306  25.0589532612488 11.8048163265306  C 25.0589532612488 11.8048163265306  25.6981025462155 11.5359183673469  25.6981025462155 11.5359183673469  C 25.6981025462155 11.5359183673469  26.2018876874782 10.4148979591836  26.2018876874782 10.4148979591836  C 26.2018876874782 10.4148979591836  26.5853491454482 9.96208163265305  26.5853491454482 9.96208163265305  C 26.5853491454482 9.96208163265305  27.6907527031741 9.44032653061231  27.6907527031741 9.44032653061231  C 27.6907527031741 9.44032653061231  28.2998210673178 9.41730612244908  28.2998210673178 9.41730612244908  C 28.2998210673178 9.41730612244908  28.7660753400768 9.62448979591829  28.7660753400768 9.62448979591829  C 28.7660753400768 9.62448979591829  29.1571273107778 10.3688571428571  29.1571273107778 10.3688571428571  C 29.1571273107778 10.3688571428571  29.7060338332752 10.5837551020408  29.7060338332752 10.5837551020408  C 29.7060338332752 10.5837551020408  29.7962765957446 11.0828571428572  29.7962765957446 11.0828571428572  C 29.7962765957446 11.0828571428572  30.2549403557726 11.505306122449  30.2549403557726 11.505306122449  C 30.2549403557726 11.505306122449  30.70615416812 11.5283265306123  30.70615416812 11.5283265306123  C 30.70615416812 11.5283265306123  31.4355462155563 11.8817142857142  31.4355462155563 11.8817142857142  C 31.4355462155563 11.8817142857142  32.3528737356121 11.8432653061225  32.3528737356121 11.8432653061225  C 32.3528737356121 11.8432653061225  32.7214352982212 13.3496326530612  32.7214352982212 13.3496326530612  C 32.7214352982212 13.3496326530612  33.1349776770144 13.3650612244899  33.1349776770144 13.3650612244899  C 33.1349776770144 13.3650612244899  33.5184391349843 13.7802857142857  33.5184391349843 13.7802857142857  C 33.5184391349843 13.7802857142857  32.5483997209626 14.6726938775511  32.5483997209626 14.6726938775511  C 32.5483997209626 14.6726938775511  31.4730770840599 16.1199183673469  31.4730770840599 16.1199183673469  C 31.4730770840599 16.1199183673469  31.4279557028252 17.5683673469389  31.4279557028252 17.5683673469389  C 31.4279557028252 17.5683673469389  31.6912340425533 18.462612244898  31.6912340425533 18.462612244898  C 31.6912340425533 18.462612244898  32.0522050924312 19.2186122448979  32.0522050924312 19.2186122448979  C 32.0522050924312 19.2186122448979  31.9694122776422 20.4688163265307  31.9694122776422 20.4688163265307  C 31.9694122776422 20.4688163265307  31.7513958841994 21.1869795918368  31.7513958841994 21.1869795918368  C 31.7513958841994 21.1869795918368  31.2476107429369 21.9749387755102  31.2476107429369 21.9749387755102  C 31.2476107429369 21.9749387755102  31.0370442971748 23.1729795918367  31.0370442971748 23.1729795918367  C 31.0370442971748 23.1729795918367  29.570669689571 25.5095510204083  29.570669689571 25.5095510204083  C 29.570669689571 25.5095510204083  29.4353055458668 26.0824897959184  29.4353055458668 26.0824897959184  C 29.4353055458668 26.0824897959184  29.0141726543426 26.5937142857143  29.0141726543426 26.5937142857143  C 29.0141726543426 26.5937142857143  28.9690512731079 27.0663673469387  28.9690512731079 27.0663673469387  C 28.9690512731079 27.0663673469387  29.2096986396931 27.8800408163265  29.2096986396931 27.8800408163265  C 29.2096986396931 27.8800408163265  28.743444366934 29.1053877551021  28.743444366934 29.1053877551021  C 28.743444366934 29.1053877551021  28.3299019881409 31.3717959183673  28.3299019881409 31.3717959183673  C 28.3299019881409 31.3717959183673  27.5403480990582 35.7445714285715  27.5403480990582 35.7445714285715  C 27.5403480990582 35.7445714285715  27.5253076386467 36.5305714285714  27.5253076386467 36.5305714285714  C 27.5253076386467 36.5305714285714  27.2320889431461 37.4336326530612  27.2320889431461 37.4336326530612  C 27.2320889431461 37.4336326530612  27.013931984653 38.8124081632652  27.013931984653 38.8124081632652  C 27.013931984653 38.8124081632652  26.532777816533 39.5294693877551  26.532777816533 39.5294693877551  C 26.532777816533 39.5294693877551  26.2243780955702 40.6056734693877  26.2243780955702 40.6056734693877  C 26.2243780955702 40.6056734693877  26.4124541332403 41.4404081632653  26.4124541332403 41.4404081632653  C 26.4124541332403 41.4404081632653  26.1567663062435 41.932163265306  26.1567663062435 41.932163265306  C 26.1567663062435 41.932163265306  25.683062085804 42.1896734693878  25.683062085804 42.1896734693878  C 25.683062085804 42.1896734693878  25.4875361004536 43.2438367346939  25.4875361004536 43.2438367346939  C 25.4875361004536 43.2438367346939  25.119115102895 44.1580408163265  25.119115102895 44.1580408163265  C 25.119115102895 44.1580408163265  24.5325371468434 45.1272244897959  24.5325371468434 45.1272244897959  C 24.5325371468434 45.1272244897959  24.058832926404 45.705918367347  24.058832926404 45.705918367347  C 24.058832926404 45.705918367347  23.7279427973492 46.6368979591837  23.7279427973492 46.6368979591837  C 23.7279427973492 46.6368979591837  23.2391981164981 47.3098775510204  23.2391981164981 47.3098775510204  C 23.2391981164981 47.3098775510204  22.1187540983606 48.069306122449  22.1187540983606 48.069306122449  C 22.1187540983606 48.069306122449  21.5622570631322 48.3355102040816  21.5622570631322 48.3355102040816  C 21.5622570631322 48.3355102040816  19.9309996512034 49.283387755102  19.9309996512034 49.283387755102  C 19.9309996512034 49.283387755102  19.5249072200908 50.0750204081633  19.5249072200908 50.0750204081633  C 19.5249072200908 50.0750204081633  18.712862922916 53.2757142857143  18.712862922916 53.2757142857143  C 18.712862922916 53.2757142857143  18.5700488315313 55.7740408163266  18.5700488315313 55.7740408163266  C 18.5700488315313 55.7740408163266  18.6827820020927 56.3401224489796  18.6827820020927 56.3401224489796  C 18.6827820020927 56.3401224489796  18.6226201604464 57.0951428571428  18.6226201604464 57.0951428571428  C 18.6226201604464 57.0951428571428  18.1188350191838 57.7874693877552  18.1188350191838 57.7874693877552  C 18.1188350191838 57.7874693877552  18.2014872689223 59.0233469387755  18.2014872689223 59.0233469387755  C 18.2014872689223 59.0233469387755  17.9758803627486 59.2201224489796  17.9758803627486 59.2201224489796  C 17.9758803627486 59.2201224489796  17.0886337635159 58.6453469387754  17.0886337635159 58.6453469387754  C 17.0886337635159 58.6453469387754  16.6149295430765 58.7635102040817  16.6149295430765 58.7635102040817  C 16.6149295430765 58.7635102040817  16.1110038367631 58.5982040816326  16.1110038367631 58.5982040816326  C 16.1110038367631 58.5982040816326  15.6974614579701 57.8032653061225  15.6974614579701 57.8032653061225  C 15.6974614579701 57.8032653061225  15.4944855249389 57.0951428571428  15.4944855249389 57.0951428571428  C 15.4944855249389 57.0951428571428  15.622259155912 56.6153877551021  15.622259155912 56.6153877551021  C 15.622259155912 56.6153877551021  15.5921782350888 55.3809795918368  15.5921782350888 55.3809795918368  C 15.5921782350888 55.3809795918368  15.3665713289153 54.1395918367348  15.3665713289153 54.1395918367348  C 15.3665713289153 54.1395918367348  14.5018151377747 52.4358367346939  14.5018151377747 52.4358367346939  C 14.5018151377747 52.4358367346939  13.8626658528078 51.7688571428571  13.8626658528078 51.7688571428571  Z " stroke-width="2" stroke="#0099ff" fill="none" transform="matrix(1 0 0 1 1145 477 )" mask="url(#clip260)" />
    <path d="M 64.920390303453 2.13991836734692  C 64.920390303453 2.13991836734692  63.0033641437042 2.20861224489784  63.0033641437042 2.20861224489784  C 63.0033641437042 2.20861224489784  64.7023739100105 0.449877551020336  64.7023739100105 0.449877551020336  C 64.7023739100105 0.449877551020336  64.920390303453 2.13991836734692  64.920390303453 2.13991836734692  Z " stroke-width="2" stroke="#0099ff" fill="none" transform="matrix(1 0 0 1 1145 477 )" mask="url(#clip260)" />
    <path d="M 49.9042476456226 4.92073469387753  C 49.9042476456226 4.92073469387753  49.603438437391 4.7295918367347  49.603438437391 4.7295918367347  C 49.603438437391 4.7295918367347  49.6110289501221 3.16873469387758  49.6110289501221 3.16873469387758  C 49.6110289501221 3.16873469387758  51.4226313219394 2.9011836734694  51.4226313219394 2.9011836734694  C 51.4226313219394 2.9011836734694  51.828723753052 3.09232653061224  51.828723753052 3.09232653061224  C 51.828723753052 3.09232653061224  51.7836023718172 4.77538775510209  51.7836023718172 4.77538775510209  C 51.7836023718172 4.77538775510209  49.9042476456226 4.92073469387753  49.9042476456226 4.92073469387753  Z " stroke-width="2" stroke="#0099ff" fill="none" transform="matrix(1 0 0 1 1145 477 )" mask="url(#clip260)" />
    <path d="M 5.17701081269627 35.6278775510204  C 5.17701081269627 35.6278775510204  4.62810429019885 35.5733877551021  4.62810429019885 35.5733877551021  C 4.62810429019885 35.5733877551021  2.77123997209628 36.2425714285714  2.77123997209628 36.2425714285714  C 2.77123997209628 36.2425714285714  2.40281897453781 36.2581224489796  2.40281897453781 36.2581224489796  C 2.40281897453781 36.2581224489796  2.1997024764562 35.8612653061225  2.1997024764562 35.8612653061225  C 2.1997024764562 35.8612653061225  2.252414370422 33.866693877551  2.252414370422 33.866693877551  C 2.252414370422 33.866693877551  2.68099720962675 33.9989387755102  2.68099720962675 33.9989387755102  C 2.68099720962675 33.9989387755102  2.78628043250785 33.5944897959184  2.78628043250785 33.5944897959184  C 2.78628043250785 33.5944897959184  5.01915626089988 33.6489795918368  5.01915626089988 33.6489795918368  C 5.01915626089988 33.6489795918368  5.17701081269627 35.6278775510204  5.17701081269627 35.6278775510204  Z " stroke-width="2" stroke="#0099ff" fill="none" transform="matrix(1 0 0 1 1145 477 )" mask="url(#clip260)" />
    <path d="M 54.2049759330309 2.04832653061226  C 54.2049759330309 2.04832653061226  52.310580746425 2.06351020408169  52.310580746425 2.06351020408169  C 52.310580746425 2.06351020408169  53.994409487269 0.472775510204087  53.994409487269 0.472775510204087  C 53.994409487269 0.472775510204087  54.2049759330309 2.04832653061226  54.2049759330309 2.04832653061226  Z " stroke-width="2" stroke="#0099ff" fill="none" transform="matrix(1 0 0 1 1145 477 )" mask="url(#clip260)" />
    <path d="M 2.92108231600969 35.2000408163265  C 2.92108231600969 35.2000408163265  2.92108231600969 33.291306122449  2.92108231600969 33.291306122449  C 2.92108231600969 33.291306122449  3.15427973491455 33.2990204081633  3.15427973491455 33.2990204081633  C 3.15427973491455 33.2990204081633  3.07907743285671 35.4489795918366  3.07907743285671 35.4489795918366  C 3.07907743285671 35.4489795918366  1.10188943146147 35.4879183673469  1.10188943146147 35.4879183673469  C 1.10188943146147 35.4879183673469  2.92108231600969 35.2000408163265  2.92108231600969 35.2000408163265  Z " stroke-width="2" stroke="#0099ff" fill="none" transform="matrix(1 0 0 1 1145 477 )" mask="url(#clip260)" />
    <path d="M 1.38006766655042 38.422775510204  C 1.38006766655042 38.422775510204  1.41014858737344 36.6764081632653  1.41014858737344 36.6764081632653  C 1.41014858737344 36.6764081632653  3.04899651203345 38.422775510204  3.04899651203345 38.422775510204  C 3.04899651203345 38.422775510204  1.38006766655042 38.422775510204  1.38006766655042 38.422775510204  Z " stroke-width="2" stroke="#0099ff" fill="none" transform="matrix(1 0 0 1 1145 477 )" mask="url(#clip260)" />
    <path d="M 4.16944053017085 34.5934285714286  C 4.16944053017085 34.5934285714286  2.13954063480992 32.7082040816326  2.13954063480992 32.7082040816326  C 2.13954063480992 32.7082040816326  3.89871224276237 32.5760816326531  3.89871224276237 32.5760816326531  C 3.89871224276237 32.5760816326531  4.25209277990928 32.7859591836734  4.25209277990928 32.7859591836734  C 4.25209277990928 32.7859591836734  4.16944053017085 34.5934285714286  4.16944053017085 34.5934285714286  Z " stroke-width="2" stroke="#0099ff" fill="none" transform="matrix(1 0 0 1 1145 477 )" mask="url(#clip260)" />
    <path d="M 34.4283167073595 6.36636734693877  C 34.4283167073595 6.36636734693877  32.7745688873385 6.16738775510203  32.7745688873385 6.16738775510203  C 32.7745688873385 6.16738775510203  34.4960690617371 4.73632653061225  34.4960690617371 4.73632653061225  C 34.4960690617371 4.73632653061225  34.4283167073595 6.36636734693877  34.4283167073595 6.36636734693877  Z " stroke-width="2" stroke="#0099ff" fill="none" transform="matrix(1 0 0 1 1145 477 )" mask="url(#clip260)" />
    <path d="M 25.5481196372515 48.4373877551021  C 25.5481196372515 48.4373877551021  25.4654673875131 46.7430612244898  25.4654673875131 46.7430612244898  C 25.4654673875131 46.7430612244898  27.4426553889083 46.7508979591837  27.4426553889083 46.7508979591837  C 27.4426553889083 46.7508979591837  27.4276149284966 48.6096734693878  27.4276149284966 48.6096734693878  C 27.4276149284966 48.6096734693878  25.5481196372515 48.4373877551021  25.5481196372515 48.4373877551021  Z " stroke-width="2" stroke="#0099ff" fill="none" transform="matrix(1 0 0 1 1145 477 )" mask="url(#clip260)" />
    <path d="M 25.9467621206836 55.6503673469388  C 25.9467621206836 55.6503673469388  25.9842929891872 55.1077959183674  25.9842929891872 55.1077959183674  C 25.9842929891872 55.1077959183674  28.1870878967561 55.1471020408163  28.1870878967561 55.1471020408163  C 28.1870878967561 55.1471020408163  28.179497384025 57.0400408163266  28.179497384025 57.0400408163266  C 28.179497384025 57.0400408163266  28.540468433903 57.2445306122449  28.540468433903 57.2445306122449  C 28.540468433903 57.2445306122449  28.4126948029299 57.6301224489796  28.4126948029299 57.6301224489796  C 28.4126948029299 57.6301224489796  26.2700617370073 57.2524897959183  26.2700617370073 57.2524897959183  C 26.2700617370073 57.2524897959183  25.9467621206836 55.6503673469388  25.9467621206836 55.6503673469388  Z " stroke-width="2" stroke="#0099ff" fill="none" transform="matrix(1 0 0 1 1145 477 )" mask="url(#clip260)" />
    <path d="M 34.7140854551795 8.41848979591828  C 34.7140854551795 8.41848979591828  33.1505803976281 6.71142857142866  33.1505803976281 6.71142857142866  C 33.1505803976281 6.71142857142866  34.8570401116151 6.77265306122456  34.8570401116151 6.77265306122456  C 34.8570401116151 6.77265306122456  34.7140854551795 8.41848979591828  34.7140854551795 8.41848979591828  Z " stroke-width="2" stroke="#0099ff" fill="none" transform="matrix(1 0 0 1 1145 477 )" mask="url(#clip260)" />
    <path d="M 0.658266131845039 40.746  C 0.658266131845039 40.746  0.477780606906094 39.0847346938775  0.477780606906094 39.0847346938775  C 0.477780606906094 39.0847346938775  2.27448308336238 39.0925714285714  2.27448308336238 39.0925714285714  C 2.27448308336238 39.0925714285714  0.658266131845039 40.746  0.658266131845039 40.746  Z " stroke-width="2" stroke="#0099ff" fill="none" transform="matrix(1 0 0 1 1145 477 )" mask="url(#clip260)" />
    <path d="M 13.7794513428671 51.486  C 13.7794513428671 51.486  11.8774656435298 52.9224489795919  11.8774656435298 52.9224489795919  C 11.8774656435298 52.9224489795919  13.6290467387514 51.2976734693877  13.6290467387514 51.2976734693877  C 13.6290467387514 51.2976734693877  13.7794513428671 51.486  13.7794513428671 51.486  Z " stroke-width="2" stroke="#0099ff" fill="none" transform="matrix(1 0 0 1 1145 477 )" mask="url(#clip260)" />
  </g>
</svg>