<?xml version="1.0" encoding="utf-8"?>
<svg version="1.1" xmlns:xlink="http://www.w3.org/1999/xlink" width="9px" height="7px" xmlns="http://www.w3.org/2000/svg">
  <defs>
    <mask fill="white" id="clip57">
      <path d="M 2.14928035714286 1.54408333333333  C 2.14928035714286 1.54408333333333  2.53620000000001 1.37223333333327  2.53620000000001 1.37223333333327  C 2.53620000000001 1.37223333333327  3.1706035714285 1.2602333333333  3.1706035714285 1.2602333333333  C 3.1706035714285 1.2602333333333  3.33318214285714 0.961450000000013  3.33318214285714 0.961450000000013  C 3.33318214285714 0.961450000000013  5.5533053571429 0.834516666666673  5.5533053571429 0.834516666666673  C 5.5533053571429 0.834516666666673  5.66945357142856 0.625450000000001  5.66945357142856 0.625450000000001  C 5.66945357142856 0.625450000000001  6.38124107142846 0.707583333333332  6.38124107142846 0.707583333333332  C 6.38124107142846 0.707583333333332  6.50505535714274 0.886783333333369  6.50505535714274 0.886783333333369  C 6.50505535714274 0.886783333333369  6.50505535714274 1.03623333333326  6.50505535714274 1.03623333333326  C 6.50505535714274 1.03623333333326  6.85335535714285 0.782249999999976  6.85335535714285 0.782249999999976  C 6.85335535714285 0.782249999999976  6.891975 0.864383333333308  6.891975 0.864383333333308  C 6.891975 0.864383333333308  6.89978571428571 0.864383333333308  6.89978571428571 0.864383333333308  C 6.89978571428571 0.864383333333308  7.21698749999996 1.1183666666667  7.21698749999996 1.1183666666667  C 7.21698749999996 1.1183666666667  7.47228214285713 1.46195  7.47228214285713 1.46195  C 7.47228214285713 1.46195  7.86701249999999 1.37981666666667  7.86701249999999 1.37981666666667  C 7.86701249999999 1.37981666666667  6.76049464285711 2.16428333333329  6.76049464285711 2.16428333333329  C 6.76049464285711 2.16428333333329  6.51286607142856 1.87284999999997  6.51286607142856 1.87284999999997  C 6.51286607142856 1.87284999999997  6.16471071428577 2.10443333333342  6.16471071428577 2.10443333333342  C 6.16471071428577 2.10443333333342  6.35028749999992 2.40345000000002  6.35028749999992 2.40345000000002  C 6.35028749999992 2.40345000000002  7.08550714285707 2.29133333333334  7.08550714285707 2.29133333333334  C 7.08550714285707 2.29133333333334  7.67348035714281 1.70846666666671  7.67348035714281 1.70846666666671  C 7.67348035714281 1.70846666666671  8.30802857142862 2.28386666666665  8.30802857142862 2.28386666666665  C 8.30802857142862 2.28386666666665  8.68713749999984 2.32119999999998  8.68713749999984 2.32119999999998  C 8.68713749999984 2.32119999999998  8.68713749999984 2.33613333333335  8.68713749999984 2.33613333333335  C 8.68713749999984 2.33613333333335  8.42403214285719 2.62009999999998  8.42403214285719 2.62009999999998  C 8.42403214285719 2.62009999999998  8.54018035714284 4.4597  8.54018035714284 4.4597  C 8.54018035714284 4.4597  8.06821071428578 4.75125000000003  8.06821071428578 4.75125000000003  C 8.06821071428578 4.75125000000003  7.65033749999998 2.98643333333337  7.65033749999998 2.98643333333337  C 7.65033749999998 2.98643333333337  7.65033749999998 2.97896666666668  7.65033749999998 2.97896666666668  C 7.65033749999998 2.97896666666668  7.64252678571438 2.97149999999999  7.64252678571438 2.97149999999999  C 7.64252678571438 2.97149999999999  7.63486071428576 2.97149999999999  7.63486071428576 2.97149999999999  C 7.63486071428576 2.97149999999999  7.13960357142855 2.95656666666662  7.13960357142855 2.95656666666662  C 7.13960357142855 2.95656666666662  7.07769642857147 4.90840000000003  7.07769642857147 4.90840000000003  C 7.07769642857147 4.90840000000003  7.54966607142853 5.29736666666668  7.54966607142853 5.29736666666668  C 7.54966607142853 5.29736666666668  7.54966607142853 5.30483333333336  7.54966607142853 5.30483333333336  C 7.54966607142853 5.30483333333336  7.51871249999999 5.77616666666665  7.51871249999999 5.77616666666665  C 7.51871249999999 5.77616666666665  7.1628910714287 5.78363333333334  7.1628910714287 5.78363333333334  C 7.1628910714287 5.78363333333334  6.87649821428568 5.36468333333335  6.87649821428568 5.36468333333335  C 6.87649821428568 5.36468333333335  6.70625357142853 5.63395000000003  6.70625357142853 5.63395000000003  C 6.70625357142853 5.63395000000003  6.92292857142854 6.63681666666662  6.92292857142854 6.63681666666662  C 6.92292857142854 6.63681666666662  6.13375714285712 6.55445000000009  6.13375714285712 6.55445000000009  C 6.13375714285712 6.55445000000009  6.10280357142847 6.21016666666662  6.10280357142847 6.21016666666662  C 6.10280357142847 6.21016666666662  5.65397678571424 6.28506666666669  5.65397678571424 6.28506666666669  C 5.65397678571424 6.28506666666669  3.6503839285715 5.67139999999995  3.6503839285715 5.67139999999995  C 3.6503839285715 5.67139999999995  5.4140142857143 5.2823166666667  5.4140142857143 5.2823166666667  C 5.4140142857143 5.2823166666667  3.65819464285721 5.01305000000002  3.65819464285721 5.01305000000002  C 3.65819464285721 5.01305000000002  3.01598035714289 4.93079999999998  3.01598035714289 4.93079999999998  C 3.01598035714289 4.93079999999998  2.57481964285716 5.2823166666667  2.57481964285716 5.2823166666667  C 2.57481964285716 5.2823166666667  2.51291249999997 5.79110000000003  2.51291249999997 5.79110000000003  C 2.51291249999997 5.79110000000003  2.19571071428561 6.1128666666666  2.19571071428561 6.1128666666666  C 2.19571071428561 6.1128666666666  2.4664821428571 6.24761666666666  2.4664821428571 6.24761666666666  C 2.4664821428571 6.24761666666666  2.09518392857149 6.56203333333337  2.09518392857149 6.56203333333337  C 2.09518392857149 6.56203333333337  1.90165178571431 6.24014999999997  1.90165178571431 6.24014999999997  C 1.90165178571431 6.24014999999997  1.32901071428569 6.57696666666664  1.32901071428569 6.57696666666664  C 1.32901071428569 6.57696666666664  0.872517857142839 6.43475000000001  0.872517857142839 6.43475000000001  C 0.872517857142839 6.43475000000001  0.245780357142962 6.76409999999998  0.245780357142962 6.76409999999998  C 0.245780357142962 6.76409999999998  0.168396428571327 6.24761666666666  0.168396428571327 6.24761666666666  C 0.168396428571327 6.24761666666666  0.748703571428564 5.67886666666664  0.748703571428564 5.67886666666664  C 0.748703571428564 5.67886666666664  0.857041071428625 5.17766666666671  0.857041071428625 5.17766666666671  C 0.857041071428625 5.17766666666671  1.75469464285709 5.00558333333333  1.75469464285709 5.00558333333333  C 1.75469464285709 5.00558333333333  1.57663928571424 5.31230000000005  1.57663928571424 5.31230000000005  C 1.57663928571424 5.31230000000005  2.4664821428571 4.64660000000003  2.4664821428571 4.64660000000003  C 2.4664821428571 4.64660000000003  1.88617499999998 4.39985000000001  1.88617499999998 4.39985000000001  C 1.88617499999998 4.39985000000001  1.59211607142868 4.48956666666663  1.59211607142868 4.48956666666663  C 1.59211607142868 4.48956666666663  1.53020892857137 4.54941666666662  1.53020892857137 4.54941666666662  C 1.53020892857137 4.54941666666662  1.13562321428572 4.37744999999995  1.13562321428572 4.37744999999995  C 1.13562321428572 4.37744999999995  1.112480357143 2.53049999999996  1.112480357143 2.53049999999996  C 1.112480357143 2.53049999999996  1.85522142857133 2.00736666666671  1.85522142857133 2.00736666666671  C 1.85522142857133 2.00736666666671  2.14928035714286 1.54408333333333  2.14928035714286 1.54408333333333  Z M 3.68914821428575 4.95366666666666  C 3.68914821428575 4.95366666666666  3.92896607142859 5.29048333333333  3.92896607142859 5.29048333333333  C 3.92896607142859 5.29048333333333  5.67711964285718 6.57696666666664  5.67711964285718 6.57696666666664  C 5.67711964285718 6.57696666666664  5.53016249999996 6.94376666666665  5.53016249999996 6.94376666666665  C 5.53016249999996 6.94376666666665  3.6503839285715 6.94376666666665  3.6503839285715 6.94376666666665  C 3.6503839285715 6.94376666666665  3.68914821428575 4.95366666666666  3.68914821428575 4.95366666666666  Z M 6.08009464285715 4.74378333333334  C 6.08009464285715 4.74378333333334  5.9794232142857 3.15093333333334  5.9794232142857 3.15093333333334  C 5.9794232142857 3.15093333333334  5.97175714285709 3.14346666666665  5.97175714285709 3.14346666666665  C 5.97175714285709 3.14346666666665  7.76634107142866 4.57181666666668  7.76634107142866 4.57181666666668  C 7.76634107142866 4.57181666666668  6.08009464285715 4.74378333333334  6.08009464285715 4.74378333333334  Z M 7.65033749999998 2.98643333333337  C 7.65033749999998 2.98643333333337  6.15747857142856 4.19801666666672  6.15747857142856 4.19801666666672  C 6.15747857142856 4.19801666666672  6.15747857142856 4.19055000000003  6.15747857142856 4.19055000000003  C 6.15747857142856 4.19055000000003  6.14966785714284 4.18296666666663  6.14966785714284 4.18296666666663  C 6.14966785714284 4.18296666666663  7.63486071428576 2.97149999999999  7.63486071428576 2.97149999999999  C 7.63486071428576 2.97149999999999  7.64252678571438 2.97149999999999  7.64252678571438 2.97149999999999  C 7.64252678571438 2.97149999999999  7.65033749999998 2.97896666666668  7.65033749999998 2.97896666666668  C 7.65033749999998 2.97896666666668  7.65033749999998 2.98643333333337  7.65033749999998 2.98643333333337  Z M 7.42585178571426 3.15093333333334  C 7.42585178571426 3.15093333333334  7.42585178571426 4.35493333333329  7.42585178571426 4.35493333333329  C 7.42585178571426 4.35493333333329  5.97175714285709 3.14346666666665  5.97175714285709 3.14346666666665  C 5.97175714285709 3.14346666666665  7.42585178571426 3.15093333333334  7.42585178571426 3.15093333333334  Z M 7.56514285714297 5.31230000000005  C 7.56514285714297 5.31230000000005  6.10323750000009 5.30483333333336  6.10323750000009 5.30483333333336  C 6.10323750000009 5.30483333333336  6.10323750000009 4.13069999999993  6.10323750000009 4.13069999999993  C 6.10323750000009 4.13069999999993  7.55747678571436 4.12311666666665  7.55747678571436 4.12311666666665  C 7.55747678571436 4.12311666666665  7.56514285714297 5.31230000000005  7.56514285714297 5.31230000000005  Z M 7.60390714285722 4.19801666666672  C 7.60390714285722 4.19801666666672  6.14966785714284 3.0163  6.14966785714284 3.0163  C 6.14966785714284 3.0163  7.60390714285722 4.19055000000003  7.60390714285722 4.19055000000003  C 7.60390714285722 4.19055000000003  7.60390714285722 4.19801666666672  7.60390714285722 4.19801666666672  Z M 8.26926428571437 3.80905000000007  C 8.26926428571437 3.80905000000007  6.8151696428572 4.98318333333327  6.8151696428572 4.98318333333327  C 6.8151696428572 4.98318333333327  6.8151696428572 3.80905000000007  6.8151696428572 3.80905000000007  C 6.8151696428572 3.80905000000007  8.26926428571437 3.80905000000007  8.26926428571437 3.80905000000007  Z M 7.65800357142848 5.32723333333331  C 7.65800357142848 5.32723333333331  6.20390892857154 5.32723333333331  6.20390892857154 5.32723333333331  C 6.20390892857154 5.32723333333331  6.20390892857154 4.15309999999999  6.20390892857154 4.15309999999999  C 6.20390892857154 4.15309999999999  7.65800357142848 5.32723333333331  7.65800357142848 5.32723333333331  Z " fill-rule="evenodd" />
    </mask>
  </defs>
  <g transform="matrix(1 0 0 1 -1075 -524 )">
    <path d="M 2.14928035714286 1.54408333333333  C 2.14928035714286 1.54408333333333  2.53620000000001 1.37223333333327  2.53620000000001 1.37223333333327  C 2.53620000000001 1.37223333333327  3.1706035714285 1.2602333333333  3.1706035714285 1.2602333333333  C 3.1706035714285 1.2602333333333  3.33318214285714 0.961450000000013  3.33318214285714 0.961450000000013  C 3.33318214285714 0.961450000000013  5.5533053571429 0.834516666666673  5.5533053571429 0.834516666666673  C 5.5533053571429 0.834516666666673  5.66945357142856 0.625450000000001  5.66945357142856 0.625450000000001  C 5.66945357142856 0.625450000000001  6.38124107142846 0.707583333333332  6.38124107142846 0.707583333333332  C 6.38124107142846 0.707583333333332  6.50505535714274 0.886783333333369  6.50505535714274 0.886783333333369  C 6.50505535714274 0.886783333333369  6.50505535714274 1.03623333333326  6.50505535714274 1.03623333333326  C 6.50505535714274 1.03623333333326  6.85335535714285 0.782249999999976  6.85335535714285 0.782249999999976  C 6.85335535714285 0.782249999999976  6.891975 0.864383333333308  6.891975 0.864383333333308  C 6.891975 0.864383333333308  6.89978571428571 0.864383333333308  6.89978571428571 0.864383333333308  C 6.89978571428571 0.864383333333308  7.21698749999996 1.1183666666667  7.21698749999996 1.1183666666667  C 7.21698749999996 1.1183666666667  7.47228214285713 1.46195  7.47228214285713 1.46195  C 7.47228214285713 1.46195  7.86701249999999 1.37981666666667  7.86701249999999 1.37981666666667  C 7.86701249999999 1.37981666666667  6.76049464285711 2.16428333333329  6.76049464285711 2.16428333333329  C 6.76049464285711 2.16428333333329  6.51286607142856 1.87284999999997  6.51286607142856 1.87284999999997  C 6.51286607142856 1.87284999999997  6.16471071428577 2.10443333333342  6.16471071428577 2.10443333333342  C 6.16471071428577 2.10443333333342  6.35028749999992 2.40345000000002  6.35028749999992 2.40345000000002  C 6.35028749999992 2.40345000000002  7.08550714285707 2.29133333333334  7.08550714285707 2.29133333333334  C 7.08550714285707 2.29133333333334  7.67348035714281 1.70846666666671  7.67348035714281 1.70846666666671  C 7.67348035714281 1.70846666666671  8.30802857142862 2.28386666666665  8.30802857142862 2.28386666666665  C 8.30802857142862 2.28386666666665  8.68713749999984 2.32119999999998  8.68713749999984 2.32119999999998  C 8.68713749999984 2.32119999999998  8.68713749999984 2.33613333333335  8.68713749999984 2.33613333333335  C 8.68713749999984 2.33613333333335  8.42403214285719 2.62009999999998  8.42403214285719 2.62009999999998  C 8.42403214285719 2.62009999999998  8.54018035714284 4.4597  8.54018035714284 4.4597  C 8.54018035714284 4.4597  8.06821071428578 4.75125000000003  8.06821071428578 4.75125000000003  C 8.06821071428578 4.75125000000003  7.65033749999998 2.98643333333337  7.65033749999998 2.98643333333337  C 7.65033749999998 2.98643333333337  7.65033749999998 2.97896666666668  7.65033749999998 2.97896666666668  C 7.65033749999998 2.97896666666668  7.64252678571438 2.97149999999999  7.64252678571438 2.97149999999999  C 7.64252678571438 2.97149999999999  7.63486071428576 2.97149999999999  7.63486071428576 2.97149999999999  C 7.63486071428576 2.97149999999999  7.13960357142855 2.95656666666662  7.13960357142855 2.95656666666662  C 7.13960357142855 2.95656666666662  7.07769642857147 4.90840000000003  7.07769642857147 4.90840000000003  C 7.07769642857147 4.90840000000003  7.54966607142853 5.29736666666668  7.54966607142853 5.29736666666668  C 7.54966607142853 5.29736666666668  7.54966607142853 5.30483333333336  7.54966607142853 5.30483333333336  C 7.54966607142853 5.30483333333336  7.51871249999999 5.77616666666665  7.51871249999999 5.77616666666665  C 7.51871249999999 5.77616666666665  7.1628910714287 5.78363333333334  7.1628910714287 5.78363333333334  C 7.1628910714287 5.78363333333334  6.87649821428568 5.36468333333335  6.87649821428568 5.36468333333335  C 6.87649821428568 5.36468333333335  6.70625357142853 5.63395000000003  6.70625357142853 5.63395000000003  C 6.70625357142853 5.63395000000003  6.92292857142854 6.63681666666662  6.92292857142854 6.63681666666662  C 6.92292857142854 6.63681666666662  6.13375714285712 6.55445000000009  6.13375714285712 6.55445000000009  C 6.13375714285712 6.55445000000009  6.10280357142847 6.21016666666662  6.10280357142847 6.21016666666662  C 6.10280357142847 6.21016666666662  5.65397678571424 6.28506666666669  5.65397678571424 6.28506666666669  C 5.65397678571424 6.28506666666669  3.6503839285715 5.67139999999995  3.6503839285715 5.67139999999995  C 3.6503839285715 5.67139999999995  5.4140142857143 5.2823166666667  5.4140142857143 5.2823166666667  C 5.4140142857143 5.2823166666667  3.65819464285721 5.01305000000002  3.65819464285721 5.01305000000002  C 3.65819464285721 5.01305000000002  3.01598035714289 4.93079999999998  3.01598035714289 4.93079999999998  C 3.01598035714289 4.93079999999998  2.57481964285716 5.2823166666667  2.57481964285716 5.2823166666667  C 2.57481964285716 5.2823166666667  2.51291249999997 5.79110000000003  2.51291249999997 5.79110000000003  C 2.51291249999997 5.79110000000003  2.19571071428561 6.1128666666666  2.19571071428561 6.1128666666666  C 2.19571071428561 6.1128666666666  2.4664821428571 6.24761666666666  2.4664821428571 6.24761666666666  C 2.4664821428571 6.24761666666666  2.09518392857149 6.56203333333337  2.09518392857149 6.56203333333337  C 2.09518392857149 6.56203333333337  1.90165178571431 6.24014999999997  1.90165178571431 6.24014999999997  C 1.90165178571431 6.24014999999997  1.32901071428569 6.57696666666664  1.32901071428569 6.57696666666664  C 1.32901071428569 6.57696666666664  0.872517857142839 6.43475000000001  0.872517857142839 6.43475000000001  C 0.872517857142839 6.43475000000001  0.245780357142962 6.76409999999998  0.245780357142962 6.76409999999998  C 0.245780357142962 6.76409999999998  0.168396428571327 6.24761666666666  0.168396428571327 6.24761666666666  C 0.168396428571327 6.24761666666666  0.748703571428564 5.67886666666664  0.748703571428564 5.67886666666664  C 0.748703571428564 5.67886666666664  0.857041071428625 5.17766666666671  0.857041071428625 5.17766666666671  C 0.857041071428625 5.17766666666671  1.75469464285709 5.00558333333333  1.75469464285709 5.00558333333333  C 1.75469464285709 5.00558333333333  1.57663928571424 5.31230000000005  1.57663928571424 5.31230000000005  C 1.57663928571424 5.31230000000005  2.4664821428571 4.64660000000003  2.4664821428571 4.64660000000003  C 2.4664821428571 4.64660000000003  1.88617499999998 4.39985000000001  1.88617499999998 4.39985000000001  C 1.88617499999998 4.39985000000001  1.59211607142868 4.48956666666663  1.59211607142868 4.48956666666663  C 1.59211607142868 4.48956666666663  1.53020892857137 4.54941666666662  1.53020892857137 4.54941666666662  C 1.53020892857137 4.54941666666662  1.13562321428572 4.37744999999995  1.13562321428572 4.37744999999995  C 1.13562321428572 4.37744999999995  1.112480357143 2.53049999999996  1.112480357143 2.53049999999996  C 1.112480357143 2.53049999999996  1.85522142857133 2.00736666666671  1.85522142857133 2.00736666666671  C 1.85522142857133 2.00736666666671  2.14928035714286 1.54408333333333  2.14928035714286 1.54408333333333  Z M 3.68914821428575 4.95366666666666  C 3.68914821428575 4.95366666666666  3.92896607142859 5.29048333333333  3.92896607142859 5.29048333333333  C 3.92896607142859 5.29048333333333  5.67711964285718 6.57696666666664  5.67711964285718 6.57696666666664  C 5.67711964285718 6.57696666666664  5.53016249999996 6.94376666666665  5.53016249999996 6.94376666666665  C 5.53016249999996 6.94376666666665  3.6503839285715 6.94376666666665  3.6503839285715 6.94376666666665  C 3.6503839285715 6.94376666666665  3.68914821428575 4.95366666666666  3.68914821428575 4.95366666666666  Z M 6.08009464285715 4.74378333333334  C 6.08009464285715 4.74378333333334  5.9794232142857 3.15093333333334  5.9794232142857 3.15093333333334  C 5.9794232142857 3.15093333333334  5.97175714285709 3.14346666666665  5.97175714285709 3.14346666666665  C 5.97175714285709 3.14346666666665  7.76634107142866 4.57181666666668  7.76634107142866 4.57181666666668  C 7.76634107142866 4.57181666666668  6.08009464285715 4.74378333333334  6.08009464285715 4.74378333333334  Z M 7.65033749999998 2.98643333333337  C 7.65033749999998 2.98643333333337  6.15747857142856 4.19801666666672  6.15747857142856 4.19801666666672  C 6.15747857142856 4.19801666666672  6.15747857142856 4.19055000000003  6.15747857142856 4.19055000000003  C 6.15747857142856 4.19055000000003  6.14966785714284 4.18296666666663  6.14966785714284 4.18296666666663  C 6.14966785714284 4.18296666666663  7.63486071428576 2.97149999999999  7.63486071428576 2.97149999999999  C 7.63486071428576 2.97149999999999  7.64252678571438 2.97149999999999  7.64252678571438 2.97149999999999  C 7.64252678571438 2.97149999999999  7.65033749999998 2.97896666666668  7.65033749999998 2.97896666666668  C 7.65033749999998 2.97896666666668  7.65033749999998 2.98643333333337  7.65033749999998 2.98643333333337  Z M 7.42585178571426 3.15093333333334  C 7.42585178571426 3.15093333333334  7.42585178571426 4.35493333333329  7.42585178571426 4.35493333333329  C 7.42585178571426 4.35493333333329  5.97175714285709 3.14346666666665  5.97175714285709 3.14346666666665  C 5.97175714285709 3.14346666666665  7.42585178571426 3.15093333333334  7.42585178571426 3.15093333333334  Z M 7.56514285714297 5.31230000000005  C 7.56514285714297 5.31230000000005  6.10323750000009 5.30483333333336  6.10323750000009 5.30483333333336  C 6.10323750000009 5.30483333333336  6.10323750000009 4.13069999999993  6.10323750000009 4.13069999999993  C 6.10323750000009 4.13069999999993  7.55747678571436 4.12311666666665  7.55747678571436 4.12311666666665  C 7.55747678571436 4.12311666666665  7.56514285714297 5.31230000000005  7.56514285714297 5.31230000000005  Z M 7.60390714285722 4.19801666666672  C 7.60390714285722 4.19801666666672  6.14966785714284 3.0163  6.14966785714284 3.0163  C 6.14966785714284 3.0163  7.60390714285722 4.19055000000003  7.60390714285722 4.19055000000003  C 7.60390714285722 4.19055000000003  7.60390714285722 4.19801666666672  7.60390714285722 4.19801666666672  Z M 8.26926428571437 3.80905000000007  C 8.26926428571437 3.80905000000007  6.8151696428572 4.98318333333327  6.8151696428572 4.98318333333327  C 6.8151696428572 4.98318333333327  6.8151696428572 3.80905000000007  6.8151696428572 3.80905000000007  C 6.8151696428572 3.80905000000007  8.26926428571437 3.80905000000007  8.26926428571437 3.80905000000007  Z M 7.65800357142848 5.32723333333331  C 7.65800357142848 5.32723333333331  6.20390892857154 5.32723333333331  6.20390892857154 5.32723333333331  C 6.20390892857154 5.32723333333331  6.20390892857154 4.15309999999999  6.20390892857154 4.15309999999999  C 6.20390892857154 4.15309999999999  7.65800357142848 5.32723333333331  7.65800357142848 5.32723333333331  Z " fill-rule="nonzero" fill="#ffffff" stroke="none" fill-opacity="0" transform="matrix(1 0 0 1 1075 524 )" />
    <path d="M 2.14928035714286 1.54408333333333  C 2.14928035714286 1.54408333333333  2.53620000000001 1.37223333333327  2.53620000000001 1.37223333333327  C 2.53620000000001 1.37223333333327  3.1706035714285 1.2602333333333  3.1706035714285 1.2602333333333  C 3.1706035714285 1.2602333333333  3.33318214285714 0.961450000000013  3.33318214285714 0.961450000000013  C 3.33318214285714 0.961450000000013  5.5533053571429 0.834516666666673  5.5533053571429 0.834516666666673  C 5.5533053571429 0.834516666666673  5.66945357142856 0.625450000000001  5.66945357142856 0.625450000000001  C 5.66945357142856 0.625450000000001  6.38124107142846 0.707583333333332  6.38124107142846 0.707583333333332  C 6.38124107142846 0.707583333333332  6.50505535714274 0.886783333333369  6.50505535714274 0.886783333333369  C 6.50505535714274 0.886783333333369  6.50505535714274 1.03623333333326  6.50505535714274 1.03623333333326  C 6.50505535714274 1.03623333333326  6.85335535714285 0.782249999999976  6.85335535714285 0.782249999999976  C 6.85335535714285 0.782249999999976  6.891975 0.864383333333308  6.891975 0.864383333333308  C 6.891975 0.864383333333308  6.89978571428571 0.864383333333308  6.89978571428571 0.864383333333308  C 6.89978571428571 0.864383333333308  7.21698749999996 1.1183666666667  7.21698749999996 1.1183666666667  C 7.21698749999996 1.1183666666667  7.47228214285713 1.46195  7.47228214285713 1.46195  C 7.47228214285713 1.46195  7.86701249999999 1.37981666666667  7.86701249999999 1.37981666666667  C 7.86701249999999 1.37981666666667  6.76049464285711 2.16428333333329  6.76049464285711 2.16428333333329  C 6.76049464285711 2.16428333333329  6.51286607142856 1.87284999999997  6.51286607142856 1.87284999999997  C 6.51286607142856 1.87284999999997  6.16471071428577 2.10443333333342  6.16471071428577 2.10443333333342  C 6.16471071428577 2.10443333333342  6.35028749999992 2.40345000000002  6.35028749999992 2.40345000000002  C 6.35028749999992 2.40345000000002  7.08550714285707 2.29133333333334  7.08550714285707 2.29133333333334  C 7.08550714285707 2.29133333333334  7.67348035714281 1.70846666666671  7.67348035714281 1.70846666666671  C 7.67348035714281 1.70846666666671  8.30802857142862 2.28386666666665  8.30802857142862 2.28386666666665  C 8.30802857142862 2.28386666666665  8.68713749999984 2.32119999999998  8.68713749999984 2.32119999999998  C 8.68713749999984 2.32119999999998  8.68713749999984 2.33613333333335  8.68713749999984 2.33613333333335  C 8.68713749999984 2.33613333333335  8.42403214285719 2.62009999999998  8.42403214285719 2.62009999999998  C 8.42403214285719 2.62009999999998  8.54018035714284 4.4597  8.54018035714284 4.4597  C 8.54018035714284 4.4597  8.06821071428578 4.75125000000003  8.06821071428578 4.75125000000003  C 8.06821071428578 4.75125000000003  7.65033749999998 2.98643333333337  7.65033749999998 2.98643333333337  C 7.65033749999998 2.98643333333337  7.65033749999998 2.97896666666668  7.65033749999998 2.97896666666668  C 7.65033749999998 2.97896666666668  7.64252678571438 2.97149999999999  7.64252678571438 2.97149999999999  C 7.64252678571438 2.97149999999999  7.63486071428576 2.97149999999999  7.63486071428576 2.97149999999999  C 7.63486071428576 2.97149999999999  7.13960357142855 2.95656666666662  7.13960357142855 2.95656666666662  C 7.13960357142855 2.95656666666662  7.07769642857147 4.90840000000003  7.07769642857147 4.90840000000003  C 7.07769642857147 4.90840000000003  7.54966607142853 5.29736666666668  7.54966607142853 5.29736666666668  C 7.54966607142853 5.29736666666668  7.54966607142853 5.30483333333336  7.54966607142853 5.30483333333336  C 7.54966607142853 5.30483333333336  7.51871249999999 5.77616666666665  7.51871249999999 5.77616666666665  C 7.51871249999999 5.77616666666665  7.1628910714287 5.78363333333334  7.1628910714287 5.78363333333334  C 7.1628910714287 5.78363333333334  6.87649821428568 5.36468333333335  6.87649821428568 5.36468333333335  C 6.87649821428568 5.36468333333335  6.70625357142853 5.63395000000003  6.70625357142853 5.63395000000003  C 6.70625357142853 5.63395000000003  6.92292857142854 6.63681666666662  6.92292857142854 6.63681666666662  C 6.92292857142854 6.63681666666662  6.13375714285712 6.55445000000009  6.13375714285712 6.55445000000009  C 6.13375714285712 6.55445000000009  6.10280357142847 6.21016666666662  6.10280357142847 6.21016666666662  C 6.10280357142847 6.21016666666662  5.65397678571424 6.28506666666669  5.65397678571424 6.28506666666669  C 5.65397678571424 6.28506666666669  3.6503839285715 5.67139999999995  3.6503839285715 5.67139999999995  C 3.6503839285715 5.67139999999995  5.4140142857143 5.2823166666667  5.4140142857143 5.2823166666667  C 5.4140142857143 5.2823166666667  3.65819464285721 5.01305000000002  3.65819464285721 5.01305000000002  C 3.65819464285721 5.01305000000002  3.01598035714289 4.93079999999998  3.01598035714289 4.93079999999998  C 3.01598035714289 4.93079999999998  2.57481964285716 5.2823166666667  2.57481964285716 5.2823166666667  C 2.57481964285716 5.2823166666667  2.51291249999997 5.79110000000003  2.51291249999997 5.79110000000003  C 2.51291249999997 5.79110000000003  2.19571071428561 6.1128666666666  2.19571071428561 6.1128666666666  C 2.19571071428561 6.1128666666666  2.4664821428571 6.24761666666666  2.4664821428571 6.24761666666666  C 2.4664821428571 6.24761666666666  2.09518392857149 6.56203333333337  2.09518392857149 6.56203333333337  C 2.09518392857149 6.56203333333337  1.90165178571431 6.24014999999997  1.90165178571431 6.24014999999997  C 1.90165178571431 6.24014999999997  1.32901071428569 6.57696666666664  1.32901071428569 6.57696666666664  C 1.32901071428569 6.57696666666664  0.872517857142839 6.43475000000001  0.872517857142839 6.43475000000001  C 0.872517857142839 6.43475000000001  0.245780357142962 6.76409999999998  0.245780357142962 6.76409999999998  C 0.245780357142962 6.76409999999998  0.168396428571327 6.24761666666666  0.168396428571327 6.24761666666666  C 0.168396428571327 6.24761666666666  0.748703571428564 5.67886666666664  0.748703571428564 5.67886666666664  C 0.748703571428564 5.67886666666664  0.857041071428625 5.17766666666671  0.857041071428625 5.17766666666671  C 0.857041071428625 5.17766666666671  1.75469464285709 5.00558333333333  1.75469464285709 5.00558333333333  C 1.75469464285709 5.00558333333333  1.57663928571424 5.31230000000005  1.57663928571424 5.31230000000005  C 1.57663928571424 5.31230000000005  2.4664821428571 4.64660000000003  2.4664821428571 4.64660000000003  C 2.4664821428571 4.64660000000003  1.88617499999998 4.39985000000001  1.88617499999998 4.39985000000001  C 1.88617499999998 4.39985000000001  1.59211607142868 4.48956666666663  1.59211607142868 4.48956666666663  C 1.59211607142868 4.48956666666663  1.53020892857137 4.54941666666662  1.53020892857137 4.54941666666662  C 1.53020892857137 4.54941666666662  1.13562321428572 4.37744999999995  1.13562321428572 4.37744999999995  C 1.13562321428572 4.37744999999995  1.112480357143 2.53049999999996  1.112480357143 2.53049999999996  C 1.112480357143 2.53049999999996  1.85522142857133 2.00736666666671  1.85522142857133 2.00736666666671  C 1.85522142857133 2.00736666666671  2.14928035714286 1.54408333333333  2.14928035714286 1.54408333333333  Z " stroke-width="2" stroke="#0099ff" fill="none" transform="matrix(1 0 0 1 1075 524 )" mask="url(#clip57)" />
    <path d="M 3.68914821428575 4.95366666666666  C 3.68914821428575 4.95366666666666  3.92896607142859 5.29048333333333  3.92896607142859 5.29048333333333  C 3.92896607142859 5.29048333333333  5.67711964285718 6.57696666666664  5.67711964285718 6.57696666666664  C 5.67711964285718 6.57696666666664  5.53016249999996 6.94376666666665  5.53016249999996 6.94376666666665  C 5.53016249999996 6.94376666666665  3.6503839285715 6.94376666666665  3.6503839285715 6.94376666666665  C 3.6503839285715 6.94376666666665  3.68914821428575 4.95366666666666  3.68914821428575 4.95366666666666  Z " stroke-width="2" stroke="#0099ff" fill="none" transform="matrix(1 0 0 1 1075 524 )" mask="url(#clip57)" />
    <path d="M 6.08009464285715 4.74378333333334  C 6.08009464285715 4.74378333333334  5.9794232142857 3.15093333333334  5.9794232142857 3.15093333333334  C 5.9794232142857 3.15093333333334  5.97175714285709 3.14346666666665  5.97175714285709 3.14346666666665  C 5.97175714285709 3.14346666666665  7.76634107142866 4.57181666666668  7.76634107142866 4.57181666666668  C 7.76634107142866 4.57181666666668  6.08009464285715 4.74378333333334  6.08009464285715 4.74378333333334  Z " stroke-width="2" stroke="#0099ff" fill="none" transform="matrix(1 0 0 1 1075 524 )" mask="url(#clip57)" />
    <path d="M 7.65033749999998 2.98643333333337  C 7.65033749999998 2.98643333333337  6.15747857142856 4.19801666666672  6.15747857142856 4.19801666666672  C 6.15747857142856 4.19801666666672  6.15747857142856 4.19055000000003  6.15747857142856 4.19055000000003  C 6.15747857142856 4.19055000000003  6.14966785714284 4.18296666666663  6.14966785714284 4.18296666666663  C 6.14966785714284 4.18296666666663  7.63486071428576 2.97149999999999  7.63486071428576 2.97149999999999  C 7.63486071428576 2.97149999999999  7.64252678571438 2.97149999999999  7.64252678571438 2.97149999999999  C 7.64252678571438 2.97149999999999  7.65033749999998 2.97896666666668  7.65033749999998 2.97896666666668  C 7.65033749999998 2.97896666666668  7.65033749999998 2.98643333333337  7.65033749999998 2.98643333333337  Z " stroke-width="2" stroke="#0099ff" fill="none" transform="matrix(1 0 0 1 1075 524 )" mask="url(#clip57)" />
    <path d="M 7.42585178571426 3.15093333333334  C 7.42585178571426 3.15093333333334  7.42585178571426 4.35493333333329  7.42585178571426 4.35493333333329  C 7.42585178571426 4.35493333333329  5.97175714285709 3.14346666666665  5.97175714285709 3.14346666666665  C 5.97175714285709 3.14346666666665  7.42585178571426 3.15093333333334  7.42585178571426 3.15093333333334  Z " stroke-width="2" stroke="#0099ff" fill="none" transform="matrix(1 0 0 1 1075 524 )" mask="url(#clip57)" />
    <path d="M 7.56514285714297 5.31230000000005  C 7.56514285714297 5.31230000000005  6.10323750000009 5.30483333333336  6.10323750000009 5.30483333333336  C 6.10323750000009 5.30483333333336  6.10323750000009 4.13069999999993  6.10323750000009 4.13069999999993  C 6.10323750000009 4.13069999999993  7.55747678571436 4.12311666666665  7.55747678571436 4.12311666666665  C 7.55747678571436 4.12311666666665  7.56514285714297 5.31230000000005  7.56514285714297 5.31230000000005  Z " stroke-width="2" stroke="#0099ff" fill="none" transform="matrix(1 0 0 1 1075 524 )" mask="url(#clip57)" />
    <path d="M 7.60390714285722 4.19801666666672  C 7.60390714285722 4.19801666666672  6.14966785714284 3.0163  6.14966785714284 3.0163  C 6.14966785714284 3.0163  7.60390714285722 4.19055000000003  7.60390714285722 4.19055000000003  C 7.60390714285722 4.19055000000003  7.60390714285722 4.19801666666672  7.60390714285722 4.19801666666672  Z " stroke-width="2" stroke="#0099ff" fill="none" transform="matrix(1 0 0 1 1075 524 )" mask="url(#clip57)" />
    <path d="M 8.26926428571437 3.80905000000007  C 8.26926428571437 3.80905000000007  6.8151696428572 4.98318333333327  6.8151696428572 4.98318333333327  C 6.8151696428572 4.98318333333327  6.8151696428572 3.80905000000007  6.8151696428572 3.80905000000007  C 6.8151696428572 3.80905000000007  8.26926428571437 3.80905000000007  8.26926428571437 3.80905000000007  Z " stroke-width="2" stroke="#0099ff" fill="none" transform="matrix(1 0 0 1 1075 524 )" mask="url(#clip57)" />
    <path d="M 7.65800357142848 5.32723333333331  C 7.65800357142848 5.32723333333331  6.20390892857154 5.32723333333331  6.20390892857154 5.32723333333331  C 6.20390892857154 5.32723333333331  6.20390892857154 4.15309999999999  6.20390892857154 4.15309999999999  C 6.20390892857154 4.15309999999999  7.65800357142848 5.32723333333331  7.65800357142848 5.32723333333331  Z " stroke-width="2" stroke="#0099ff" fill="none" transform="matrix(1 0 0 1 1075 524 )" mask="url(#clip57)" />
  </g>
</svg>