<?xml version="1.0" encoding="utf-8"?>
<svg version="1.1" xmlns:xlink="http://www.w3.org/1999/xlink" width="23px" height="23px" xmlns="http://www.w3.org/2000/svg">
  <defs>
    <filter x="1164px" y="741px" width="23px" height="23px" filterUnits="userSpaceOnUse" id="filter68">
      <feOffset dx="1" dy="1" in="SourceAlpha" result="shadowOffsetInner" />
      <feGaussianBlur stdDeviation="2.5" in="shadowOffsetInner" result="shadowGaussian" />
      <feComposite in2="shadowGaussian" operator="atop" in="SourceAlpha" result="shadowComposite" />
      <feColorMatrix type="matrix" values="0 0 0 0 0  0 0 0 0 0  0 0 0 0 0  0 0 0 0.698039215686274 0  " in="shadowComposite" />
    </filter>
    <g id="widget69">
      <path d="M 1174.5 745  C 1178.14 745  1181 747.86  1181 751.5  C 1181 755.14  1178.14 758  1174.5 758  C 1170.86 758  1168 755.14  1168 751.5  C 1168 747.86  1170.86 745  1174.5 745  Z " fill-rule="nonzero" fill="#d3d8dd" stroke="none" />
      <path d="M 1174.5 745.5  C 1177.86 745.5  1180.5 748.14  1180.5 751.5  C 1180.5 754.86  1177.86 757.5  1174.5 757.5  C 1171.14 757.5  1168.5 754.86  1168.5 751.5  C 1168.5 748.14  1171.14 745.5  1174.5 745.5  Z " stroke-width="1" stroke="#ffffff" fill="none" />
    </g>
  </defs>
  <g transform="matrix(1 0 0 1 -1164 -741 )">
    <use xlink:href="#widget69" filter="url(#filter68)" />
    <use xlink:href="#widget69" />
  </g>
</svg>