<?xml version="1.0" encoding="utf-8"?>
<svg version="1.1" xmlns:xlink="http://www.w3.org/1999/xlink" width="19px" height="19px" xmlns="http://www.w3.org/2000/svg">
  <g transform="matrix(1 0 0 1 -1307 -512 )">
    <path d="M 18.6221590909091 7.28693181818182  C 18.874053030303 7.53882575757575  19 7.84469696969696  19 8.20454545454544  L 19 10.7954545454545  C 19 11.155303030303  18.874053030303 11.4611742424243  18.6221590909091 11.7130681818182  C 18.3702651515151 11.9649621212121  18.0643939393939 12.0909090909091  17.7045454545454 12.0909090909091  L 12.0909090909091 12.0909090909091  L 12.0909090909091 17.7045454545455  C 12.0909090909091 18.0643939393939  11.9649621212121 18.3702651515151  11.7130681818182 18.6221590909091  C 11.4611742424242 18.874053030303  11.155303030303 19  10.7954545454546 19  L 8.20454545454542 19  C 7.84469696969701 19  7.53882575757579 18.874053030303  7.28693181818178 18.6221590909091  C 7.03503787878785 18.3702651515151  6.90909090909093 18.0643939393939  6.90909090909093 17.7045454545455  L 6.90909090909093 12.0909090909091  L 1.29545454545458 12.0909090909091  C 0.935606060606074 12.0909090909091  0.629734848484859 11.9649621212121  0.377840909090933 11.7130681818182  C 0.125946969697006 11.4611742424243  0 11.155303030303  0 10.7954545454545  L 0 8.20454545454544  C 0 7.84469696969696  0.125946969697006 7.53882575757575  0.377840909090933 7.28693181818182  C 0.629734848484859 7.03503787878787  0.935606060606074 6.90909090909091  1.29545454545458 6.90909090909091  L 6.90909090909093 6.90909090909091  L 6.90909090909093 3.54666666666621  L 6.90909090909093 1.29545454545456  C 6.90909090909093 0.935606060606052  7.03503787878785 0.629734848484837  7.28693181818178 0.377840909090911  C 7.53882575757579 0.125946969696963  7.84469696969701 0  8.20454545454542 0  L 10.7954545454546 0  C 11.155303030303 0  11.4611742424242 0.125946969696963  11.7130681818182 0.377840909090911  C 11.9649621212121 0.629734848484837  12.0909090909091 0.935606060606052  12.0909090909091 1.29545454545456  L 12.0909090909091 6.90909090909091  L 17.7045454545454 6.90909090909091  C 18.0643939393939 6.90909090909091  18.3702651515151 7.03503787878787  18.6221590909091 7.28693181818182  Z " fill-rule="nonzero" fill="#ffffff" stroke="none" transform="matrix(1 0 0 1 1307 512 )" />
  </g>
</svg>