<?xml version="1.0" encoding="utf-8"?>
<svg version="1.1" xmlns:xlink="http://www.w3.org/1999/xlink" width="23px" height="23px" xmlns="http://www.w3.org/2000/svg">
  <defs>
    <filter x="1164px" y="711px" width="23px" height="23px" filterUnits="userSpaceOnUse" id="filter493">
      <feOffset dx="1" dy="1" in="SourceAlpha" result="shadowOffsetInner" />
      <feGaussianBlur stdDeviation="2.5" in="shadowOffsetInner" result="shadowGaussian" />
      <feComposite in2="shadowGaussian" operator="atop" in="SourceAlpha" result="shadowComposite" />
      <feColorMatrix type="matrix" values="0 0 0 0 0  0 0 0 0 0  0 0 0 0 0  0 0 0 0.698039215686274 0  " in="shadowComposite" />
    </filter>
    <g id="widget494">
      <path d="M 1174.5 715  C 1178.14 715  1181 717.86  1181 721.5  C 1181 725.14  1178.14 728  1174.5 728  C 1170.86 728  1168 725.14  1168 721.5  C 1168 717.86  1170.86 715  1174.5 715  Z " fill-rule="nonzero" fill="#d35d4e" stroke="none" />
      <path d="M 1174.5 715.5  C 1177.86 715.5  1180.5 718.14  1180.5 721.5  C 1180.5 724.86  1177.86 727.5  1174.5 727.5  C 1171.14 727.5  1168.5 724.86  1168.5 721.5  C 1168.5 718.14  1171.14 715.5  1174.5 715.5  Z " stroke-width="1" stroke="#ffffff" fill="none" />
    </g>
  </defs>
  <g transform="matrix(1 0 0 1 -1164 -711 )">
    <use xlink:href="#widget494" filter="url(#filter493)" />
    <use xlink:href="#widget494" />
  </g>
</svg>