<?xml version="1.0" encoding="utf-8"?>
<svg version="1.1" xmlns:xlink="http://www.w3.org/1999/xlink" width="30px" height="9px" xmlns="http://www.w3.org/2000/svg">
  <defs>
    <mask fill="white" id="clip105">
      <path d="M 0.241935483871202 3.06818181818187  L 3.14516129032268 0.204545454545269  L 29.7580645161288 0.81818181818187  L 20.8064516129032 5.52272727272759  L 11.1290322580646 9  L 5.08064516129048 8.3863636363634  L 0.241935483871202 3.06818181818187  Z " fill-rule="evenodd" />
    </mask>
  </defs>
  <g transform="matrix(1 0 0 1 -1243 -450 )">
    <path d="M 0.241935483871202 3.06818181818187  L 3.14516129032268 0.204545454545269  L 29.7580645161288 0.81818181818187  L 20.8064516129032 5.52272727272759  L 11.1290322580646 9  L 5.08064516129048 8.3863636363634  L 0.241935483871202 3.06818181818187  Z " fill-rule="nonzero" fill="#3497dc" stroke="none" transform="matrix(1 0 0 1 1243 450 )" />
    <path d="M 0.241935483871202 3.06818181818187  L 3.14516129032268 0.204545454545269  L 29.7580645161288 0.81818181818187  L 20.8064516129032 5.52272727272759  L 11.1290322580646 9  L 5.08064516129048 8.3863636363634  L 0.241935483871202 3.06818181818187  Z " stroke-width="2" stroke="#0066ff" fill="none" transform="matrix(1 0 0 1 1243 450 )" mask="url(#clip105)" />
  </g>
</svg>