<?xml version="1.0" encoding="utf-8"?>
<svg version="1.1" xmlns:xlink="http://www.w3.org/1999/xlink" width="107px" height="112px" xmlns="http://www.w3.org/2000/svg">
  <g transform="matrix(1 0 0 1 -1591 -84 )">
    <path d="M 1591.5 195.5  C 1591.5 195.5  1591.5 91.3287378640777  1591.5 91.3287378640777  C 1591.5 91.3287378640777  1652.98390301608 91.3287378640777  1652.98390301608 91.3287378640777  C 1652.98390301608 91.3287378640777  1661.89522593056 84.6060501725601  1661.89522593056 84.6060501725601  C 1661.89522593056 84.6060501725601  1672.67330338648 91.3287378640777  1672.67330338648 91.3287378640777  C 1672.67330338648 91.3287378640777  1697.5 91.3287378640777  1697.5 91.3287378640777  C 1697.5 91.3287378640777  1697.5 195.5  1697.5 195.5  C 1697.5 195.5  1591.5 195.5  1591.5 195.5  Z " fill-rule="nonzero" fill="#ffffff" stroke="none" fill-opacity="0" />
    <path d="M 1591 196  C 1591 196  1591 90.8287378640777  1591 90.8287378640777  C 1591 90.8287378640777  1652.8164556962 90.8287378640777  1652.8164556962 90.8287378640777  C 1652.8164556962 90.8287378640777  1661.86835443038 84  1661.86835443038 84  C 1661.86835443038 84  1672.8164556962 90.8287378640777  1672.8164556962 90.8287378640777  C 1672.8164556962 90.8287378640777  1698 90.8287378640777  1698 90.8287378640777  C 1698 90.8287378640777  1698 196  1698 196  C 1698 196  1591 196  1591 196  Z M 1592 195  C 1592 195  1697 195  1697 195  C 1697 195  1697 91.8287378640777  1697 91.8287378640777  C 1697 91.8287378640777  1672.53015107676 91.8287378640777  1672.53015107676 91.8287378640777  C 1672.53015107676 91.8287378640777  1661.92209743074 85.2121003451201  1661.92209743074 85.2121003451201  C 1661.92209743074 85.2121003451201  1653.15135033596 91.8287378640777  1653.15135033596 91.8287378640777  C 1653.15135033596 91.8287378640777  1592 91.8287378640777  1592 91.8287378640777  C 1592 91.8287378640777  1592 195  1592 195  Z " fill-rule="nonzero" fill="#e4e4e4" stroke="none" />
  </g>
</svg>