<?xml version="1.0" encoding="utf-8"?>
<svg version="1.1" xmlns:xlink="http://www.w3.org/1999/xlink" width="97px" height="80px" xmlns="http://www.w3.org/2000/svg">
  <g transform="matrix(1 0 0 1 -1531 -42 )">
    <path d="M 1531.5 121.5  C 1531.5 121.5  1531.5 49.2557281553398  1531.5 49.2557281553398  C 1531.5 49.2557281553398  1588.25710802445 49.2557281553398  1588.25710802445 49.2557281553398  C 1588.25710802445 49.2557281553398  1598.15036889345 42.6034081466699  1598.15036889345 42.6034081466699  C 1598.15036889345 42.6034081466699  1607.95097330649 49.2557281553398  1607.95097330649 49.2557281553398  C 1607.95097330649 49.2557281553398  1627.5 49.2557281553398  1627.5 49.2557281553398  C 1627.5 49.2557281553398  1627.5 121.5  1627.5 121.5  C 1627.5 121.5  1531.5 121.5  1531.5 121.5  Z " fill-rule="nonzero" fill="#ffffff" stroke="none" fill-opacity="0" />
    <path d="M 1531 122  C 1531 122  1531 48.7557281553398  1531 48.7557281553398  C 1531 48.7557281553398  1588.10463740684 48.7557281553398  1588.10463740684 48.7557281553398  C 1588.10463740684 48.7557281553398  1598.15168579203 42  1598.15168579203 42  C 1598.15168579203 42  1608.10463740684 48.7557281553398  1608.10463740684 48.7557281553398  C 1608.10463740684 48.7557281553398  1628 48.7557281553398  1628 48.7557281553398  C 1628 48.7557281553398  1628 122  1628 122  C 1628 122  1531 122  1531 122  Z M 1532 121  C 1532 121  1627 121  1627 121  C 1627 121  1627 49.7557281553398  1627 49.7557281553398  C 1627 49.7557281553398  1607.79730920615 49.7557281553398  1607.79730920615 49.7557281553398  C 1607.79730920615 49.7557281553398  1598.14905199488 43.2068162933398  1598.14905199488 43.2068162933398  C 1598.14905199488 43.2068162933398  1588.40957864205 49.7557281553398  1588.40957864205 49.7557281553398  C 1588.40957864205 49.7557281553398  1532 49.7557281553398  1532 49.7557281553398  C 1532 49.7557281553398  1532 121  1532 121  Z " fill-rule="nonzero" fill="#e4e4e4" stroke="none" />
  </g>
</svg>