<?xml version="1.0" encoding="utf-8"?>
<svg version="1.1" xmlns:xlink="http://www.w3.org/1999/xlink" width="13px" height="13px" xmlns="http://www.w3.org/2000/svg">
  <g transform="matrix(1 0 0 1 -1615 -248 )">
    <path d="M 7.97265625 7.97265625  C 8.65755208333327 7.28776041666668  8.99999999999998 6.46354166666667  8.99999999999998 5.5  C 8.99999999999998 4.53645833333333  8.65755208333327 3.71223958333334  7.97265625 3.02734375  C 7.28776041666673 2.34244791666667  6.46354166666668 2  5.49999999999999 2  C 4.53645833333331 2  3.71223958333333 2.34244791666667  3.02734375000006 3.02734375  C 2.34244791666665 3.71223958333334  1.99999999999994 4.53645833333333  1.99999999999994 5.5  C 1.99999999999994 6.46354166666667  2.34244791666665 7.28776041666668  3.02734375000006 7.97265625  C 3.71223958333333 8.65755208333332  4.53645833333331 9.00000000000001  5.49999999999999 9.00000000000001  C 6.46354166666668 9.00000000000001  7.28776041666673 8.65755208333332  7.97265625 7.97265625  Z M 12.7109375 11.296875  C 12.9036458333333 11.4895833333333  13 11.7239583333333  13 12  C 13 12.2708333333333  12.9010416666667 12.5052083333333  12.703125 12.703125  C 12.5052083333333 12.9010416666667  12.2708333333334 13  12 13  C 11.71875 13  11.484375 12.9010416666667  11.296875 12.703125  L 8.61718750000001 10.03125  C 7.68489583333331 10.6770833333333  6.64583333333335 11  5.49999999999999 11  C 4.75520833333338 11  4.04296875000006 10.85546875  3.36328124999998 10.56640625  C 2.68359374999997 10.27734375  2.09765624999999 9.88671875000001  1.60546875000006 9.39453125  C 1.11328125000006 8.90234374999999  0.722656249999977 8.31640624999999  0.433593750000045 7.63671875  C 0.144531249999966 6.95703125  0 6.24479166666667  0 5.5  C 0 4.75520833333332  0.144531249999966 4.04296875  0.433593750000045 3.36328125000001  C 0.722656249999977 2.68359375  1.11328125000006 2.09765625  1.60546875000006 1.60546875  C 2.09765624999999 1.11328125  2.68359374999997 0.722656250000005  3.36328124999998 0.433593750000004  C 4.04296875000006 0.144531250000003  4.75520833333338 0  5.49999999999999 0  C 6.24479166666669 0  6.95703125 0.144531250000003  7.63671874999994 0.433593750000004  C 8.31640625000002 0.722656250000005  8.90234374999999 1.11328125  9.39453125 1.60546875  C 9.88671875000001 2.09765625  10.2773437499999 2.68359375  10.5664062499999 3.36328125000001  C 10.85546875 4.04296875  11.0000000000001 4.75520833333332  11.0000000000001 5.5  C 11.0000000000001 6.64583333333334  10.6770833333333 7.68489583333333  10.03125 8.61718750000001  L 12.7109375 11.296875  Z " fill-rule="nonzero" fill="#ffffff" stroke="none" transform="matrix(1 0 0 1 1615 248 )" />
  </g>
</svg>