<?xml version="1.0" standalone="no"?><!DOCTYPE svg PUBLIC "-//W3C//DTD SVG 1.1//EN" "http://www.w3.org/Graphics/SVG/1.1/DTD/svg11.dtd"><svg t="1690017188771" class="icon" viewBox="0 0 1024 1024" version="1.1" xmlns="http://www.w3.org/2000/svg" p-id="24430" xmlns:xlink="http://www.w3.org/1999/xlink" width="200" height="200"><path d="M622.484211 684.463158c0-59.284211-48.505263-110.484211-110.484211-110.484211s-110.484211 48.505263-110.484211 110.484211" fill="#10ABFF" opacity=".4" p-id="24431"></path><path d="M512 35.031579C247.915789 35.031579 35.031579 247.915789 35.031579 512S247.915789 988.968421 512 988.968421 988.968421 776.084211 988.968421 512 776.084211 35.031579 512 35.031579z m0 916.210526C269.473684 951.242105 72.757895 754.526316 72.757895 512S269.473684 72.757895 512 72.757895 951.242105 269.473684 951.242105 512 754.526316 951.242105 512 951.242105z" fill="#10ABFF" p-id="24432"></path><path d="M512 183.242105C331.452632 183.242105 183.242105 331.452632 183.242105 512c0 64.673684 18.863158 129.347368 56.589474 183.242105 2.694737 2.694737 2.694737 5.389474 5.389474 5.389474h2.694736c2.694737 0 5.389474 2.694737 8.084211 2.694737H776.084211s2.694737 0 2.694736-2.694737c0 0 2.694737 0 2.694737-2.694737l2.694737-2.694737c37.726316-53.894737 56.589474-118.568421 56.589474-183.242105 0-180.547368-148.210526-328.757895-328.757895-328.757895z m0 37.726316c161.684211 0 291.031579 129.347368 291.031579 291.031579 0 53.894737-16.168421 107.789474-45.810526 153.6h-118.568421c-8.084211-61.978947-61.978947-110.484211-126.652632-110.484211-26.947368 0-51.2 8.084211-70.063158 21.557895l-129.347368-94.315789c-8.084211-5.389474-21.557895-5.389474-26.947369 5.389473-5.389474 8.084211-5.389474 21.557895 5.389474 26.947369l123.957895 91.621052c-13.473684 18.863158-24.252632 37.726316-26.947369 61.978948H266.778947C237.136842 619.789474 220.968421 565.894737 220.968421 512 220.968421 350.315789 350.315789 220.968421 512 220.968421z m0 374.568421c43.115789 0 80.842105 29.642105 88.926316 72.757895h-177.852632c8.084211-43.115789 45.810526-72.757895 88.926316-72.757895z" fill="#10ABFF" p-id="24433"></path><path d="M363.789474 401.515789c32.336842-51.2 88.926316-80.842105 150.905263-80.842105 83.536842 0 156.294737 56.589474 175.157895 137.431579 2.694737 8.084211 10.778947 13.473684 18.863157 13.473684h5.389474c10.778947-2.694737 16.168421-13.473684 13.473684-21.557894-24.252632-99.705263-110.484211-167.073684-212.88421-167.073685-72.757895 0-140.126316 35.031579-180.547369 97.010527-5.389474 8.084211-2.694737 21.557895 5.389474 26.947368 8.084211 8.084211 18.863158 5.389474 24.252632-5.389474z" fill="#10ABFF" p-id="24434"></path></svg>