<?xml version="1.0" standalone="no"?><!DOCTYPE svg PUBLIC "-//W3C//DTD SVG 1.1//EN" "http://www.w3.org/Graphics/SVG/1.1/DTD/svg11.dtd"><svg t="1690017415476" class="icon" viewBox="0 0 1070 1024" version="1.1" xmlns="http://www.w3.org/2000/svg" p-id="31527" xmlns:xlink="http://www.w3.org/1999/xlink" width="208.984375" height="200"><path d="M577.163636 671.930182a195.490909 195.490909 0 1 1 390.981819 0 195.490909 195.490909 0 0 1-390.981819 0z m135.866182-81.175273v66.885818c0.558545 18.152727-1.070545 36.258909-4.747636 53.992728-4.608 13.963636-12.846545 26.391273-23.924364 36.072727 9.634909 7.726545 18.245818 15.034182 26.251637 22.202182 7.866182-7.912727 14.522182-16.942545 19.828363-26.763637 5.492364-11.031273 8.750545-23.04 9.541818-35.374545h90.996364v14.708363a13.824 13.824 0 0 1-15.732364 14.801455c-4.654545 0-9.728-0.232727-15.080727-0.558545-6.283636-0.279273-12.846545-0.651636-20.014545-0.651637 3.304727 10.146909 5.957818 20.48 7.866181 31.045818h44.683637a27.229091 27.229091 0 0 0 20.759273-10.007272 41.890909 41.890909 0 0 0 7.400727-26.996364v-139.217455a11.962182 11.962182 0 0 0-11.962182-11.962181h-123.904a12.148364 12.148364 0 0 0-12.008727 11.822545z m-64.837818 276.247273H130.327273V199.819636h177.384727V139.636364h51.2v60.183272h86.760727V139.636364h51.246546v60.183272h86.760727V139.636364h51.246545v60.183272h165.701819v239.336728a232.727273 232.727273 0 0 0-152.389819 427.752727v0.093091zM223.418182 718.010182h163.979636v-40.727273H223.418182v40.727273z m0-98.443637h244.270545v-40.727272H223.418182v40.727272z m84.992-215.970909L223.418182 491.659636l31.976727 29.323637 53.015273-55.854546 14.848 14.801455 23.412363 22.481454 134.842182-135.540363 102.632728 102.912 29.696-28.578909-132.189091-132.189091-135.400728 132.189091-37.841454-37.701819z m522.333091 277.224728h-89.320728v-23.877819h89.367273v23.831273h-0.046545z m-0.232728-50.641455h-89.088v-23.877818h89.367273l-0.279273 23.877818z" fill="#3B8DFF" p-id="31528"></path></svg>