<?xml version="1.0" encoding="utf-8"?>
<svg version="1.1" xmlns:xlink="http://www.w3.org/1999/xlink" width="19px" height="19px" xmlns="http://www.w3.org/2000/svg">
  <g transform="matrix(1 0 0 1 -110 -27 )">
    <path d="M 18.5732421875 11.2008463541667  C 18.6515842013889 11.2791883680556  18.6907552083333 11.3719618055556  18.6907552083333 11.4791666666667  C 18.6907552083333 11.5203993055556  18.6866319444444 11.5492621527778  18.6783854166667 11.5657552083333  C 18.1506076388889 13.7758246527778  17.0455729166667 15.5673828125  15.36328125 16.9404296875  C 13.6809895833333 18.3134765625  11.7100694444444 19  9.45052083333333 19  C 8.24652777777778 19  7.08170572916667 18.7732204861111  5.9560546875 18.3196614583333  C 4.83040364583333 17.8661024305556  3.82638888888889 17.21875  2.94401041666667 16.3776041666667  L 1.34830729166667 17.9733072916667  C 1.19162326388889 18.1299913194444  1.00607638888889 18.2083333333333  0.791666666666667 18.2083333333333  C 0.577256944444445 18.2083333333333  0.391710069444444 18.1299913194444  0.235026041666667 17.9733072916667  C 0.0783420138888889 17.8166232638889  0 17.6310763888889  0 17.4166666666667  L 0 11.875  C 0 11.6605902777778  0.0783420138888889 11.4750434027778  0.235026041666667 11.318359375  C 0.391710069444444 11.1616753472222  0.577256944444445 11.0833333333333  0.791666666666667 11.0833333333333  L 6.33333333333333 11.0833333333333  C 6.54774305555556 11.0833333333333  6.73328993055556 11.1616753472222  6.88997395833333 11.318359375  C 7.04665798611111 11.4750434027778  7.125 11.6605902777778  7.125 11.875  C 7.125 12.0894097222222  7.04665798611111 12.2749565972222  6.88997395833333 12.431640625  L 5.1953125 14.1263020833333  C 5.78081597222222 14.6705729166667  6.44466145833333 15.0911458333333  7.18684895833333 15.3880208333333  C 7.92903645833333 15.6848958333333  8.70008680555556 15.8333333333333  9.5 15.8333333333333  C 10.6050347222222 15.8333333333333  11.6358506944444 15.5653211805556  12.5924479166667 15.029296875  C 13.5490451388889 14.4932725694444  14.3159722222222 13.7552083333333  14.8932291666667 12.8151041666667  C 14.9839409722222 12.6749131944444  15.2024739583333 12.1924913194444  15.548828125 11.3678385416667  C 15.6148003472222 11.1781684027778  15.7384982638889 11.0833333333333  15.919921875 11.0833333333333  L 18.294921875 11.0833333333333  C 18.4021267361111 11.0833333333333  18.4949001736111 11.1225043402778  18.5732421875 11.2008463541667  Z M 18.7649739583333 1.02669270833333  C 18.9216579861111 1.18337673611111  19 1.36892361111111  19 1.58333333333333  L 19 7.125  C 19 7.33940972222222  18.9216579861111 7.52495659722222  18.7649739583333 7.681640625  C 18.6082899305556 7.83832465277778  18.4227430555556 7.91666666666667  18.2083333333333 7.91666666666667  L 12.6666666666667 7.91666666666667  C 12.4522569444444 7.91666666666667  12.2667100694444 7.83832465277778  12.1100260416667 7.681640625  C 11.9533420138889 7.52495659722222  11.875 7.33940972222222  11.875 7.125  C 11.875 6.91059027777778  11.9533420138889 6.72504340277778  12.1100260416667 6.568359375  L 13.8170572916667 4.861328125  C 12.5965711805556 3.73155381944444  11.1575520833333 3.16666666666667  9.5 3.16666666666667  C 8.39496527777778 3.16666666666667  7.36414930555556 3.43467881944444  6.40755208333333 3.970703125  C 5.45095486111111 4.50672743055555  4.68402777777778 5.24479166666667  4.10677083333333 6.18489583333333  C 4.01605902777778 6.32508680555555  3.79752604166667 6.80750868055555  3.451171875 7.63216145833333  C 3.38519965277778 7.82183159722222  3.26150173611111 7.91666666666667  3.080078125 7.91666666666667  L 0.618489583333333 7.91666666666667  C 0.511284722222222 7.91666666666667  0.418511284722222 7.87749565972222  0.340169270833333 7.79915364583333  C 0.261827256944444 7.72081163194444  0.22265625 7.62803819444444  0.22265625 7.52083333333333  L 0.22265625 7.43424479166667  C 0.758680555555556 5.22417534722222  1.87196180555556 3.4326171875  3.5625 2.0595703125  C 5.25303819444444 0.6865234375  7.23220486111111 0  9.5 0  C 10.7039930555556 0  11.875 0.228841145833334  13.0130208333333 0.6865234375  C 14.1510416666667 1.14420572916667  15.1612413194444 1.78949652777778  16.0436197916667 2.62239583333333  L 17.6516927083333 1.02669270833333  C 17.8083767361111 0.870008680555554  17.9939236111111 0.791666666666666  18.2083333333333 0.791666666666666  C 18.4227430555556 0.791666666666666  18.6082899305556 0.870008680555554  18.7649739583333 1.02669270833333  Z " fill-rule="nonzero" fill="#c9c9c9" stroke="none" transform="matrix(1 0 0 1 110 27 )" />
  </g>
</svg>