<?xml version="1.0" standalone="no"?><!DOCTYPE svg PUBLIC "-//W3C//DTD SVG 1.1//EN" "http://www.w3.org/Graphics/SVG/1.1/DTD/svg11.dtd"><svg t="1690017338433" class="icon" viewBox="0 0 1024 1024" version="1.1" xmlns="http://www.w3.org/2000/svg" p-id="28360" xmlns:xlink="http://www.w3.org/1999/xlink" width="200" height="200"><path d="M512 547.031579m-169.768421 0a169.768421 169.768421 0 1 0 339.536842 0 169.768421 169.768421 0 1 0-339.536842 0Z" fill="#10ABFF" opacity=".4" p-id="28361"></path><path d="M573.978947 544.336842v-2.694737s0-2.694737-2.694736-2.694737c0 0 0-2.694737-2.694737-2.694736l-2.694737-2.694737-2.694737-2.694737h-2.694737-53.894737l37.726316-59.284211c5.389474-8.084211 2.694737-21.557895-5.389474-26.947368-8.084211-5.389474-21.557895-2.694737-26.947368 5.389474L455.410526 538.947368v16.168421s0 2.694737 2.694737 2.694737c0 0 0 2.694737 2.694737 2.694737l2.694737 2.694737 2.694737 2.694737h64.673684l-35.031579 59.28421c-5.389474 8.084211-2.694737 21.557895 8.08421 26.947369 2.694737 2.694737 5.389474 2.694737 8.084211 2.694737 5.389474 0 13.473684-2.694737 16.168421-10.778948l51.2-88.926316v-2.694736-2.694737c-5.389474-2.694737-5.389474-2.694737-5.389474-5.389474z" fill="#10ABFF" p-id="28362"></path><path d="M970.105263 503.915789h-35.031579v-24.252631c0-24.252632-18.863158-43.115789-43.115789-43.11579h-18.863158V266.778947c0-26.947368-21.557895-45.810526-48.505263-45.810526h-61.978948v-21.557895c0-24.252632-18.863158-43.115789-43.115789-43.115789h-24.252632V123.957895c0-10.778947-8.084211-18.863158-18.863158-18.863158s-18.863158 8.084211-18.863158 18.863158v35.031579h-24.252631c-24.252632 0-43.115789 18.863158-43.11579 43.115789v18.863158h-161.68421v-21.557895c0-24.252632-18.863158-43.115789-43.11579-43.115789h-24.252631V123.957895c0-10.778947-8.084211-18.863158-18.863158-18.863158s-18.863158 8.084211-18.863158 18.863158v35.031579h-24.252632c-24.252632 0-43.115789 18.863158-43.115789 43.115789v18.863158H199.410526c-26.947368 0-48.505263 21.557895-48.505263 45.810526v172.463158h-21.557895c-24.252632 0-43.115789 18.863158-43.115789 43.11579v24.252631H53.894737c-10.778947 0-18.863158 8.084211-18.863158 18.863158s8.084211 18.863158 18.863158 18.863158h35.031579v21.557895c0 24.252632 18.863158 43.115789 43.115789 43.115789h18.863158v202.105263c0 26.947368 21.557895 45.810526 48.505263 45.810527h64.673685l8.08421 45.810526v5.389474l2.694737 2.694737s0 2.694737 2.694737 2.694736l2.694737 2.694737h2.694736c2.694737 0 5.389474 2.694737 8.084211 2.694737h110.48421c2.694737 0 5.389474 0 8.084211-2.694737h2.694737l2.694737-2.694737s0-2.694737 2.694737-2.694736l2.694736-2.694737v-2.694737-2.694737l8.084211-45.810526h167.073684l8.084211 45.810526v5.389474l2.694736 2.694737s0 2.694737 2.694737 2.694736l2.694737 2.694737h2.694737c2.694737 0 5.389474 2.694737 8.084211 2.694737h110.48421c2.694737 0 5.389474 0 8.084211-2.694737h2.694736l2.694737-2.694737s0-2.694737 2.694737-2.694736l2.694737-2.694737v-2.694737-2.694737l8.08421-45.810526h64.673685c26.947368 0 48.505263-21.557895 48.505263-45.810527v-202.105263h18.863158c24.252632 0 43.115789-18.863158 43.115789-43.115789v-24.252632H970.105263c10.778947 0 18.863158-8.084211 18.863158-18.863158s-8.084211-18.863158-18.863158-18.863158z m-134.736842 307.2c0 5.389474-5.389474 8.084211-10.778947 8.084211h-80.842106-2.694736-2.694737s-2.694737 0-2.694737 2.694737c0 0-2.694737 0-2.694737 2.694737l-2.694737 2.694737s0 2.694737-2.694737 2.694736c0 0 0 2.694737-2.694736 2.694737v2.694737l-8.084211 45.810526h-78.147368l-8.084211-45.810526v-2.694737s0-2.694737-2.694737-2.694737c0 0 0-2.694737-2.694737-2.694736l-2.694736-2.694737s-2.694737 0-2.694737-2.694737c0 0-2.694737 0-2.694737-2.694737h-2.694737-202.105263-2.694737-2.694737c-2.694737 0-2.694737 0-2.694737 2.694737 0 0-2.694737 0-2.694737 2.694737l-2.694736 2.694737s0 2.694737-2.694737 2.694736c0 0 0 2.694737-2.694737 2.694737v2.694737l-8.084211 45.810526h-78.147368l-8.084211-45.810526v-2.694737s0-2.694737-2.694736-2.694737c0 0 0-2.694737-2.694737-2.694736l-2.694737-2.694737s-2.694737 0-2.694737-2.694737c0 0-2.694737 0-2.694737-2.694737h-2.694737-83.536842c-5.389474 0-10.778947-2.694737-10.778947-8.084211v-220.968421c0-10.778947-8.084211-18.863158-18.863158-18.863157H129.347368c-2.694737 0-5.389474-2.694737-5.389473-5.389474v-86.231579c0-2.694737 2.694737-5.389474 5.389473-5.389474h37.726316c10.778947 0 18.863158-8.084211 18.863158-18.863158v-188.631579c0-5.389474 5.389474-8.084211 10.778947-8.08421h80.842106c10.778947 0 18.863158-8.084211 18.863158-18.863158V199.410526c0-2.694737 2.694737-5.389474 5.389473-5.389473h86.231579c2.694737 0 5.389474 2.694737 5.389474 5.389473v37.726316c0 10.778947 8.084211 18.863158 18.863158 18.863158h199.410526c10.778947 0 18.863158-8.084211 18.863158-18.863158V199.410526c0-2.694737 2.694737-5.389474 5.389474-5.389473h86.231579c2.694737 0 5.389474 2.694737 5.389473 5.389473v37.726316c0 10.778947 8.084211 18.863158 18.863158 18.863158h80.842106c5.389474 0 10.778947 2.694737 10.778947 8.084211v191.326315c0 10.778947 8.084211 18.863158 18.863158 18.863158h37.726316c2.694737 0 5.389474 2.694737 5.389473 5.389474V565.894737c0 2.694737-2.694737 5.389474-5.389473 5.389474h-37.726316c-10.778947 0-18.863158 8.084211-18.863158 18.863157v220.968421z" fill="#10ABFF" p-id="28363"></path><path d="M512 358.4c-102.4 0-188.631579 83.536842-188.631579 188.631579s83.536842 188.631579 188.631579 188.631579 188.631579-83.536842 188.631579-188.631579-86.231579-188.631579-188.631579-188.631579z m0 336.842105c-83.536842 0-150.905263-67.368421-150.905263-150.905263 0-83.536842 67.368421-150.905263 150.905263-150.905263 83.536842 0 150.905263 67.368421 150.905263 150.905263 0 83.536842-67.368421 150.905263-150.905263 150.905263z" fill="#10ABFF" p-id="28364"></path></svg>