<svg t="1614927173771" class="icon" viewBox="0 0 1024 1024" version="1.1" xmlns="http://www.w3.org/2000/svg" p-id="3304" width="20" height="20"><path d="M571.92175102 519.61429787l235.71570396-235.71570397c16.22200012-16.22200012 16.22200012-42.70688725 0-58.59788132l-1.32424822-1.32424821c-7.94545841-7.94545841-18.20834542-12.24930954-29.4644823-12.24930953s-21.5190239 4.30379705-29.46448231 12.24930953L512 460.02393913 276.28429603 223.97684288c-7.94545841-7.94545841-18.20834542-12.24930954-29.46448231-12.24930954-11.25613689 0-21.5190239 4.30379705-29.4644823 12.24930954l-1.32424821 1.32424821c-7.94545841 7.94545841-12.58039284 18.20834542-12.58039284 29.46448231s4.30379705 21.5190239 12.24930954 29.46448231l235.71570396 235.71570396-235.71570396 235.71570397c-16.22200012 16.22200012-16.22200012 42.70688725 0 58.59788132l1.32424821 1.32424822c7.94545841 7.94545841 18.20834542 12.24930954 29.4644823 12.24930953 11.25613689 0 21.5190239-4.30379705 29.46448232-12.24930953l235.71570396-235.71570397 235.71570397 235.71570397c7.94545841 7.94545841 18.20834542 12.24930954 29.4644823 12.24930953s21.5190239-4.30379705 29.46448231-12.24930953l1.32424821-1.32424822c7.94545841-7.94545841 12.24930954-18.20834542 12.24930954-29.46448232 0-11.25613689-4.30379705-21.5190239-12.24930954-29.4644823l-235.71570396-235.71570396Z" p-id="3305" fill="#ffffff"></path></svg>