<?xml version="1.0" standalone="no"?><!DOCTYPE svg PUBLIC "-//W3C//DTD SVG 1.1//EN" "http://www.w3.org/Graphics/SVG/1.1/DTD/svg11.dtd"><svg t="1690013754444" class="icon" viewBox="0 0 1170 1024" version="1.1" xmlns="http://www.w3.org/2000/svg" p-id="2633" xmlns:xlink="http://www.w3.org/1999/xlink" width="228.515625" height="200"><path d="M630.593829 702.171429v204.8h219.428571V1024H301.646019v-117.028571h219.428571v-204.8h109.665524z m-427.934477-190.171429L164.771352 682.666667H55.739733A56.32 56.32 0 0 1 0.004876 625.664a58.904381 58.904381 0 0 1 2.145524-15.701333l27.599238-98.108953h172.909714z m345.721905 0V682.666667H221.091352l37.839238-170.666667h289.450667z m379.660191 0l37.839238 170.666667H603.189638v-170.666667h324.85181z m212.016762 0l27.599238 98.157714a57.10019 57.10019 0 0 1-38.229334 70.363429 54.320762 54.320762 0 0 1-15.311238 2.194286h-91.91619l-37.888-170.666667h155.745524zM240.49859 341.333333l-25.258666 113.810286H45.743543L77.731352 341.333333h162.767238z m307.882667 0v113.810286H271.511162L296.769829 341.333333h251.611428z m341.820953 0l25.258666 113.810286h-312.07619V341.333333h287.012571z m201.874285 0l31.98781 113.810286h-152.380953L946.473448 341.333333h145.798095zM278.337829 170.666667l-25.209905 113.761523H93.725257L125.713067 170.666667h152.624762z m270.043428 0v113.761523h-238.933333L334.657829 170.666667h213.77219z m303.981714 0L877.719162 284.233143h-274.529524V170.666667h249.173333z m191.73181 0l31.987809 113.761523h-142.238476L908.585448 170.666667h135.509333zM316.177067 0l-25.209905 113.761524H141.706971L162.13821 41.20381A55.832381 55.832381 0 0 1 215.776305 0h100.547047z m232.20419 0v113.761524H347.2384L372.497067 0h175.88419z m266.142476 0l25.209905 113.761524H603.189638V0h211.139048z m139.702857 0a55.783619 55.783619 0 0 1 53.638096 41.155048l20.382476 72.606476h-132.096L870.74621 0h83.48038z" fill="#FFFFFF" p-id="2634"></path></svg>