<?xml version="1.0" standalone="no"?><!DOCTYPE svg PUBLIC "-//W3C//DTD SVG 1.1//EN" "http://www.w3.org/Graphics/SVG/1.1/DTD/svg11.dtd"><svg t="1694576657790" class="icon" viewBox="0 0 1024 1024" version="1.1" xmlns="http://www.w3.org/2000/svg" p-id="10901" xmlns:xlink="http://www.w3.org/1999/xlink" width="200" height="200"><path d="M399.872 863.488h126.464a32 32 0 1 1 0 64H64a32 32 0 1 1 0-64h72.704V543.296A427.328 427.328 0 0 1 334.08 182.848v79.488a361.152 361.152 0 0 0-131.584 279.168v321.92h197.376zM659.456 384H864a128 128 0 0 1 128 128v192a128 128 0 0 1-128 128H659.456a128 128 0 0 1-128-128V512a128 128 0 0 1 128-128z m1.792 64a64 64 0 0 0-64 64v192a64 64 0 0 0 64 64h200.96a64 64 0 0 0 64-64V512a64 64 0 0 0-64-64h-200.96z m33.792 64h67.584a32 32 0 0 1 0 64H695.04a32 32 0 1 1 0-64z m0 128h133.376a32 32 0 0 1 0 64H695.04a32 32 0 1 1 0-64z m-197.376 320h199.168a32 32 0 1 1 0 64H497.664a32 32 0 1 1 0-64z m33.792-778.88V32a32 32 0 0 1 32-32h1.536a32 32 0 0 1 32 32v84.864A427.52 427.52 0 0 1 929.152 320H850.56a361.28 361.28 0 0 0-319.104-138.88z" fill="#FFFFFF" p-id="10902"></path></svg>