<?xml version="1.0" standalone="no"?><!DOCTYPE svg PUBLIC "-//W3C//DTD SVG 1.1//EN" "http://www.w3.org/Graphics/SVG/1.1/DTD/svg11.dtd"><svg t="1692776365528" class="icon" viewBox="0 0 1024 1024" version="1.1" xmlns="http://www.w3.org/2000/svg" p-id="14160" xmlns:xlink="http://www.w3.org/1999/xlink" width="200" height="200"><path d="M201.67962646 225.09863281c40.41595459-2.59552002 80.98022461-2.66967773 121.32202149 0.37078857 3.33709717 13.34838867 6.45172119 26.91925049 6.15509033 40.86090089-0.22247315 152.61657715-0.74157715 305.22573852 0.14831544 457.84231567-23.65631104 27.14172364-61.03179932 17.58279419-92.62298585 18.91763305-16.31469727 2.06900024-28.92150879-9.42544555-40.86090087-18.5394287 0.51910401-152.69073487 0.22247315-305.45562744 0.14831542-458.22052002-0.29663086-13.94165039 2.29888916-27.73498536 5.71014404-41.23168946zM624.52691651 326.02728271c27.51992797-9.71466065 58.13964844-6.45172119 86.69778442-3.93035888 59.40032959 18.61358643 103.73181153 81.9442749 93.27557373 144.83001709-7.92004395 42.4923706-37.82043458 81.20269776-77.04244995 99.66055298-25.21362305 13.57086182-55.02502442 10.53039551-82.47079468 8.31307983-44.19058227-11.20523071-81.72180176-45.39193726-96.47918701-88.69262696-21.86169434-63.62731934 16.69290161-133.55804443 76.01907349-160.18066406m57.39807128 30.70129395c5.04272461 8.15734864 10.16702271 16.31469727 15.28390503 24.4720459-34.86154175-2.15057373-71.49545288 16.16638184-86.02294922 48.57330322-4.53103638 23.87878418-3.86361695 50.9463501 16.38143921 67.62442016-9.34387208 1.11236573-18.61358643 2.30630493-27.95745849 3.41867066 8.22409057 29.06982422 40.78674317 41.97326661 68.29183959 43.82720947 61.93652344 6.07351685 117.91076661-58.66616821 103.5315857-119.17144775-12.45108032-38.19122315-46.41531372-73.34197998-89.50836182-68.74420166zM380.77050781 335.14868164c23.9529419-10.82702637 53.09692383-3.04046631 79.05212403-5.26519776 19.72595215-3.04046631 40.78674317 12.01354981 39.82269287 32.92602539 0.22247315 113.90625-0.07415771 227.8125 0.07415771 341.71875001 1.56472778 12.08770752-4.30114747 22.54394531-11.79107666 31.44287109-24.17541504 4.37530518-48.9440918 2.0022583-73.34197998 2.66967773-16.01806641-0.67483521-36.11480713 3.11462403-45.9777832-13.1333313-3.18878174-11.71691895-2.15057373-23.94552612-2.44720459-35.89233398 0.66741943-108.9376831 0.07415771-217.87536622 0.29663086-326.74630737-2.15057373-11.85040283 4.74609375-21.56506347 14.31243896-27.72015381zM536.65002442 547.23974609c23.88619995 7.4899292 37.00469971 30.62713623 58.35470581 42.26989747 22.76641846 14.0158081 50.05645752 17.27133179 74.15771484 28.39498901-7.32678222 36.19638062-1.09753418 73.11950684-4.87957764 109.5383606-2.89956665 2.52136231-8.67645263 7.57150268-11.57601928 10.08544921-32.18444825 1.47573852-64.52462768 1.92810059-96.70907593-0.29663086-11.48703003-0.29663086-18.8286438-15.12817383-18.90280152-25.36193847-0.58584594-54.87670898 0.74157715-109.75341797-0.44494629-164.63012696zM737.99563599 566.52075195c13.78591919-3.92294312 33.66018677-16.68548584 43.59732055 0.37820435 27.00082398 34.40917969 49.618927 72.14804077 74.31344604 108.19610596 11.12365723 20.83831787-13.49670411 41.00180054-33.44512938 33.44512939-26.71160888-28.03161622-44.72451782-62.81900024-67.12014771-94.18029785-10.82702637-13.80816651-13.42254638-31.30197143-17.3454895-47.83914185zM150.8815918 781.42980957c17.42706299-8.23150635 36.41143799-14.23828125 55.84075927-13.42996215 202.89550781 0.88989258 405.72427368 0 608.61236573-0.07415773 19.28100586-0.66741943 37.96133423 4.89440918 56.80480956 8.23150635 1.11236573 17.64953614 1.6388855 35.29907227 1.77978516 53.01535034-187.62643432 2.60293579-375.3196106 0.37820435-562.93862915 1.11236573-54.06097412-0.51910401-108.12194825 1.26068115-162.18292236-1.4831543 0.08157349-15.78076172-1.17910766-31.79882813 2.08383179-47.37194824z" fill="#ffffff" p-id="14161"></path></svg>