<?xml version="1.0" standalone="no"?><!DOCTYPE svg PUBLIC "-//W3C//DTD SVG 1.1//EN" "http://www.w3.org/Graphics/SVG/1.1/DTD/svg11.dtd"><svg t="1691927156191" class="icon" viewBox="0 0 1024 1024" version="1.1" xmlns="http://www.w3.org/2000/svg" p-id="7111" xmlns:xlink="http://www.w3.org/1999/xlink" width="200" height="200"><path d="M512 853.333333H170.666667c-37.546667 0-68.266667-30.72-68.266667-68.266666V204.8c0-37.546667 30.72-68.266667 68.266667-68.266667h512c37.546667 0 68.266667 30.72 68.266666 68.266667v324.266667c-88.746667-20.48-180.906667 37.546667-197.973333 129.706666-3.413333 10.24-3.413333 23.893333-3.413333 34.133334v102.4H546.133333c-20.48 0-34.133333 13.653333-34.133333 34.133333v23.893333z m-290.133333-238.933333c-17.066667 0-30.72 13.653333-27.306667 30.72 0 17.066667 13.653333 27.306667 27.306667 27.306667h136.533333c17.066667 0 30.72-13.653333 27.306667-30.72 0-17.066667-13.653333-27.306667-27.306667-27.306667h-136.533333z m0-177.493333c-17.066667 0-30.72 13.653333-27.306667 30.72 0 17.066667 13.653333 27.306667 27.306667 27.306666H443.733333c17.066667 0 30.72-13.653333 30.72-27.306666s-13.653333-30.72-27.306666-30.72H221.866667z m0-177.493334c-17.066667 0-30.72 10.24-30.72 27.306667s13.653333 30.72 30.72 30.72H580.266667c17.066667 0 30.72-13.653333 30.72-30.72s-13.653333-27.306667-30.72-27.306667H221.866667z" fill="#FFFFFF" p-id="7112"></path><path d="M860.16 819.2v-126.293333c-3.413333-71.68-58.026667-126.293333-129.706667-129.706667-75.093333-3.413333-139.946667 54.613333-143.36 129.706667V819.2c-13.653333 0-27.306667 13.653333-27.306666 27.306667 0 17.066667 10.24 30.72 27.306666 30.72h279.893334c17.066667 0 27.306667-13.653333 27.306666-30.72-3.413333-13.653333-17.066667-27.306667-34.133333-27.306667z m-160.426667-10.24l6.826667-75.093333h-34.133333c0-3.413333 58.026667-92.16 58.026666-95.573334v58.026667l34.133334 3.413333-64.853334 109.226667z" fill="#FFFFFF" p-id="7113"></path></svg>