<?xml version="1.0" standalone="no"?><!DOCTYPE svg PUBLIC "-//W3C//DTD SVG 1.1//EN" "http://www.w3.org/Graphics/SVG/1.1/DTD/svg11.dtd"><svg t="1690273101799" class="icon" viewBox="0 0 1070 1024" version="1.1" xmlns="http://www.w3.org/2000/svg" p-id="9193" xmlns:xlink="http://www.w3.org/1999/xlink" width="208.984375" height="200"><path d="M927.930182 318.836364l0.046545 201.588363a208.384 208.384 0 0 0-187.578182 371.572364H297.890909a186.181818 186.181818 0 0 1-186.181818-186.181818V318.836364h816.221091z m-54.318546 256.558545l39.051637 23.645091a78.661818 78.661818 0 0 0 5.632 50.315636c8.983273 12.148364 21.364364 21.457455 35.607272 26.856728l5.492364 2.653091 2.373818 2.513454c0.279273 1.861818 0.605091 3.723636 1.070546 5.585455v1.303272c1.070545 4.887273 1.815273 9.774545 2.187636 14.754909a115.153455 115.153455 0 0 1-2.187636 15.080728v3.723636a69.306182 69.306182 0 0 0-40.448 31.185455c-7.68 15.266909-10.007273 32.581818-6.656 49.291636v1.675636l-40.029091 24.296728a83.781818 83.781818 0 0 0-46.917818-21.131637c-16.756364 1.815273-32.581818 8.378182-45.568 18.990546l-2.373819 1.675636-42.309818-23.831273c3.258182-16.942545 1.256727-34.490182-5.818182-50.269091a79.778909 79.778909 0 0 0-35.93309-26.856727h-1.024l-4.282182-2.187636-2.048-2.187637a112.034909 112.034909 0 0 0-2.606546-16.756363v-4.887273a77.451636 77.451636 0 0 1 2.094546-21.131636c11.636364-5.026909 37.794909-18.106182 44.311272-33.512728 7.400727-15.732364 9.355636-33.373091 5.678546-50.315636l41.053091-20.107636c12.8 11.170909 28.858182 18.245818 45.893818 20.107636 16.756364-1.629091 32.628364-8.192 45.521455-18.804364l2.234181-1.675636z m-47.709091 69.585455a52.130909 52.130909 0 1 0 0 104.354909 52.130909 52.130909 0 0 0 0-104.354909z m-471.04 3.863272H215.924364a34.722909 34.722909 0 0 0-4.747637 69.12l4.747637 0.325819h138.938181a34.722909 34.722909 0 0 0 0-69.445819z m123.29891-173.707636H203.729455a34.722909 34.722909 0 0 0-4.654546 69.166545l4.654546 0.325819h274.432a34.722909 34.722909 0 1 0 0-69.492364zM741.748364 93.090909a186.228364 186.228364 0 0 1 183.854545 156.346182H114.036364A186.228364 186.228364 0 0 1 297.890909 93.090909h443.857455z" fill="#3B8DFF" p-id="9194"></path></svg>