<?xml version="1.0" standalone="no"?><!DOCTYPE svg PUBLIC "-//W3C//DTD SVG 1.1//EN" "http://www.w3.org/Graphics/SVG/1.1/DTD/svg11.dtd"><svg t="1690273193368" class="icon" viewBox="0 0 1066 1024" version="1.1" xmlns="http://www.w3.org/2000/svg" p-id="10335" xmlns:xlink="http://www.w3.org/1999/xlink" width="208.203125" height="200"><path d="M810.624 1024h-768a42.666667 42.666667 0 0 1-42.666667-42.666667 42.666667 42.666667 0 0 1 42.666667-42.666666h128V85.333333a85.333333 85.333333 0 0 1 85.333333-85.333333h554.666667a85.333333 85.333333 0 0 1 85.333333 85.333333v853.333334h128a42.666667 42.666667 0 0 1 42.666667 42.666666 42.666667 42.666667 0 0 1-42.666667 42.666667z m-42.666667-85.333333a42.666667 42.666667 0 0 0 42.666667-42.666667V128a42.666667 42.666667 0 0 0-42.666667-42.666667h-469.333333a42.666667 42.666667 0 0 0-42.666667 42.666667v768a42.666667 42.666667 0 0 0 42.666667 42.666667z m-262.144-207.317334H396.117333L615.509333 512l-54.869333 164.48h109.696l-219.392 219.562667zM341.290667 469.333333V170.666667h384v298.666666z m85.333333-85.333333h213.333333V256h-213.333333z" fill="#56A0FD" p-id="10336"></path></svg>