<svg width="500" height="300" viewBox="0 0 500 300" fill="none" xmlns="http://www.w3.org/2000/svg">
<path d="M162.592 115.992V122.184H154.624V115.992H162.592ZM161.2 96.312C162.544 98.472 163.888 101.4 164.464 103.368H155.488C156.736 100.872 157.792 98.28 158.656 95.88L155.104 94.92C153.424 100.488 149.968 107.496 145.936 111.912C146.608 112.536 147.616 113.832 148.144 114.6C149.2 113.448 150.256 112.104 151.216 110.712V138.888H154.624V135.384H175.648V132.024H166V125.448H173.824V122.184H166V115.992H173.824V112.728H166V106.632H175.072V103.368H164.704L167.728 102.024C167.104 100.104 165.664 97.224 164.272 95.064L161.2 96.312ZM162.592 112.728H154.624V106.632H162.592V112.728ZM162.592 125.448V132.024H154.624V125.448H162.592ZM131.632 127.512L133.072 131.112C137.392 129.24 143.008 126.696 148.24 124.296L147.472 121.08L141.616 123.528V109.656H147.376V106.248H141.616V95.256H138.16V106.248H132.016V109.656H138.16V124.968C135.664 125.976 133.456 126.84 131.632 127.512ZM189.904 100.44C193.312 100.968 196.624 101.544 199.744 102.216C195.472 103.176 190.768 103.8 186.352 104.136C186.832 104.712 187.36 105.672 187.6 106.392C193.216 105.864 199.216 104.904 204.448 103.32C208.288 104.28 211.648 105.336 214.192 106.392L216.256 104.472C214.048 103.608 211.312 102.792 208.288 101.976C211.504 100.68 214.24 99.048 216.208 96.984L214.384 95.784L213.856 95.88H188.128V98.328H210.592C208.816 99.384 206.704 100.248 204.352 101.016C200.272 100.056 195.808 99.24 191.488 98.664L189.904 100.44ZM182.032 116.904V123.384H185.392V119.352H218.608V123.384H222.112V116.904H219.712L221.968 115.08C220.336 114.168 218.272 113.256 215.968 112.392C218.368 111.048 220.384 109.368 221.776 107.352L219.856 106.296L219.28 106.392H203.056V108.696H216.976C215.872 109.656 214.432 110.52 212.896 111.288C210.448 110.424 207.856 109.656 205.36 109.032L203.584 110.808C205.648 111.336 207.664 111.96 209.632 112.632C207.088 113.496 204.352 114.168 201.712 114.552C202.288 115.08 203.008 116.04 203.344 116.712C206.608 116.04 209.968 115.128 212.992 113.832C215.584 114.84 217.888 115.896 219.568 116.904H182.8C186.064 116.232 189.376 115.272 192.352 113.88C194.656 114.888 196.672 115.896 198.208 116.856L200.512 115.032C199.072 114.168 197.2 113.256 195.136 112.392C197.392 111 199.312 109.32 200.608 107.256L198.736 106.296L198.208 106.392H182.896V108.696H196C194.992 109.656 193.696 110.52 192.256 111.24C190.096 110.424 187.792 109.656 185.536 109.032L183.808 110.76C185.632 111.336 187.456 111.96 189.232 112.632C186.64 113.592 183.808 114.312 181.024 114.744C181.552 115.272 182.224 116.28 182.512 116.904H182.032ZM192.208 128.328H211.504V130.632H192.208V128.328ZM192.208 126.168V123.912H211.504V126.168H192.208ZM192.208 132.744H211.504V135.144H192.208V132.744ZM188.8 121.56V135.144H180.736V137.784H223.36V135.144H215.056V121.56H188.8ZM240.4 126.264C238.096 129.192 233.776 132.696 230.608 134.52C231.376 135.096 232.432 136.296 233.008 137.064C236.272 134.952 240.736 130.968 243.28 127.56L240.4 126.264ZM256.192 128.04C259.552 130.776 263.44 134.712 265.264 137.256L268 135.192C266.128 132.6 262.096 128.808 258.784 126.168L256.192 128.04ZM258.016 102.216C255.952 104.712 253.264 106.872 250.096 108.696C247.072 106.92 244.48 104.856 242.512 102.408L242.704 102.216H258.016ZM244.144 94.584C241.648 98.952 236.704 103.944 229.552 107.4C230.368 107.928 231.52 109.176 232.144 110.04C235.168 108.408 237.808 106.584 240.112 104.616C241.984 106.824 244.192 108.792 246.688 110.472C240.928 113.208 234.208 114.936 227.68 115.848C228.352 116.664 229.072 118.152 229.36 119.064C236.512 117.912 243.856 115.848 250.096 112.536C255.808 115.608 262.672 117.672 270.112 118.728C270.592 117.768 271.504 116.28 272.272 115.512C265.36 114.648 258.928 113.016 253.552 110.52C257.728 107.832 261.232 104.472 263.536 100.392L261.136 98.904L260.464 99.096H245.44C246.448 97.848 247.312 96.6 248.08 95.352L244.144 94.584ZM248.128 116.136V121.224H233.056V124.44H248.128V134.856C248.128 135.384 247.936 135.528 247.408 135.528C246.88 135.576 244.96 135.576 243.136 135.48C243.616 136.392 244.096 137.736 244.24 138.648C247.024 138.648 248.896 138.648 250.144 138.12C251.44 137.592 251.776 136.68 251.776 134.856V124.44H266.896V121.224H251.776V116.136H248.128ZM314.608 95.448C311.632 99.336 306.16 103.416 301.552 105.72C302.464 106.392 303.52 107.448 304.144 108.264C309.04 105.576 314.416 101.256 317.968 96.84L314.608 95.448ZM316 108.696C312.784 112.872 306.976 117.192 302.032 119.688C302.944 120.408 304 121.512 304.624 122.232C309.76 119.4 315.568 114.744 319.264 110.04L316 108.696ZM317.104 121.656C313.504 127.656 306.688 132.984 299.536 135.912C300.496 136.68 301.552 137.928 302.128 138.792C309.52 135.384 316.384 129.672 320.464 123L317.104 121.656ZM293.392 101.016V113.448H285.664V101.016H293.392ZM275.968 113.448V116.808H282.208C282.016 123.96 280.96 131.016 275.776 136.728C276.64 137.208 277.888 138.36 278.464 139.128C284.224 132.84 285.424 124.872 285.616 116.808H293.392V138.792H296.944V116.808H302.128V113.448H296.944V101.016H301.504V97.656H276.784V101.016H282.256V113.448H275.968ZM340 121.608C343.84 122.424 348.736 124.104 351.424 125.448L352.912 123C350.224 121.752 345.376 120.168 341.536 119.4L340 121.608ZM335.2 127.704C341.824 128.52 350.128 130.44 354.736 132.072L356.32 129.384C351.664 127.848 343.36 125.976 336.88 125.256L335.2 127.704ZM326.032 96.792V138.84H329.488V136.824H362.416V138.84H366.016V96.792H326.032ZM329.488 133.608V100.056H362.416V133.608H329.488ZM341.872 101.016C339.472 104.952 335.344 108.696 331.216 111.144C331.984 111.624 333.232 112.728 333.76 113.304C335.2 112.344 336.688 111.192 338.176 109.896C339.616 111.432 341.392 112.872 343.312 114.168C339.232 116.088 334.624 117.528 330.352 118.392C330.976 119.064 331.744 120.456 332.08 121.32C336.784 120.216 341.824 118.44 346.384 115.992C350.368 118.152 354.928 119.784 359.488 120.792C359.92 119.928 360.832 118.68 361.504 118.056C357.28 117.288 353.056 115.992 349.312 114.264C352.912 111.912 355.936 109.176 357.952 105.912L355.888 104.712L355.36 104.856H342.928C343.648 103.944 344.32 103.032 344.896 102.072L341.872 101.016ZM340.144 107.976L340.48 107.64H352.912C351.184 109.512 348.88 111.192 346.288 112.68C343.84 111.288 341.728 109.704 340.144 107.976Z" fill="#999999"/>
<path d="M184.178 178H185.34L186.376 174.78H190.212L191.234 178H192.466L188.952 167.752H187.678L184.178 178ZM186.684 173.856L187.216 172.19C187.594 171.028 187.93 169.922 188.266 168.718H188.322C188.672 169.922 188.994 171.028 189.386 172.19L189.918 173.856H186.684ZM192.686 178H193.89L194.968 176.166C195.234 175.704 195.486 175.242 195.752 174.808H195.822C196.116 175.242 196.41 175.704 196.662 176.166L197.824 178H199.07L196.564 174.164L198.874 170.44H197.684L196.704 172.162C196.466 172.582 196.242 172.988 196.004 173.422H195.948C195.682 172.988 195.416 172.582 195.178 172.162L194.128 170.44H192.882L195.192 174.052L192.686 178ZM200.6 178H201.748V172.456C202.532 171.658 203.106 171.238 203.904 171.238C204.954 171.238 205.402 171.882 205.402 173.338V178H206.55V173.198C206.55 171.266 205.822 170.244 204.24 170.244C203.204 170.244 202.42 170.818 201.706 171.532L201.748 169.95V166.856H200.6V178ZM211.22 178.182C212.27 178.182 213.026 177.622 213.74 176.796H213.782L213.88 178H214.818V170.44H213.684V175.858C212.928 176.782 212.354 177.188 211.556 177.188C210.506 177.188 210.058 176.558 210.058 175.102V170.44H208.91V175.242C208.91 177.174 209.638 178.182 211.22 178.182ZM220.692 178.182C222.428 178.182 223.982 176.684 223.982 174.094C223.982 171.77 222.946 170.244 220.972 170.244C220.104 170.244 219.25 170.734 218.536 171.336L218.592 169.95V166.856H217.444V178H218.354L218.466 177.216H218.522C219.18 177.818 219.992 178.182 220.692 178.182ZM220.524 177.216C220.006 177.216 219.278 177.006 218.592 176.39V172.288C219.348 171.588 220.048 171.21 220.706 171.21C222.218 171.21 222.806 172.386 222.806 174.122C222.806 176.026 221.84 177.216 220.524 177.216ZM233.235 178.182C234.607 178.182 235.713 177.692 236.371 177.006V172.75H233.053V173.716H235.293V176.53C234.873 176.922 234.117 177.16 233.347 177.16C231.121 177.16 229.861 175.494 229.861 172.848C229.861 170.216 231.219 168.592 233.347 168.592C234.397 168.592 235.083 169.026 235.601 169.572L236.245 168.816C235.657 168.214 234.733 167.57 233.319 167.57C230.617 167.57 228.671 169.586 228.671 172.876C228.671 176.18 230.561 178.182 233.235 178.182ZM238.045 178H244.401V177.02H241.391C240.859 177.02 240.243 177.062 239.711 177.104C242.175 174.514 243.897 172.652 243.897 170.748C243.897 168.998 242.777 167.864 240.957 167.864C239.683 167.864 238.801 168.452 237.975 169.348L238.661 170.006C239.235 169.32 239.977 168.788 240.831 168.788C242.147 168.788 242.777 169.628 242.777 170.79C242.777 172.442 241.097 174.262 238.045 177.328V178ZM246.527 178H247.689V173.842H249.425C251.693 173.842 253.177 172.848 253.177 170.72C253.177 168.522 251.679 167.752 249.369 167.752H246.527V178ZM247.689 172.904V168.704H249.201C251.077 168.704 252.015 169.18 252.015 170.72C252.015 172.246 251.133 172.904 249.257 172.904H247.689ZM256.424 178.182C256.746 178.182 256.928 178.14 257.11 178.084L256.942 177.202C256.788 177.23 256.732 177.23 256.676 177.23C256.48 177.23 256.326 177.076 256.326 176.698V166.856H255.178V176.614C255.178 177.622 255.556 178.182 256.424 178.182ZM261.986 178.182C263.834 178.182 265.458 176.726 265.458 174.234C265.458 171.7 263.834 170.244 261.986 170.244C260.138 170.244 258.514 171.7 258.514 174.234C258.514 176.726 260.138 178.182 261.986 178.182ZM261.986 177.23C260.628 177.23 259.69 176.026 259.69 174.234C259.69 172.428 260.628 171.21 261.986 171.21C263.358 171.21 264.296 172.428 264.296 174.234C264.296 176.026 263.358 177.23 261.986 177.23ZM269.574 178.182C269.994 178.182 270.498 178.042 270.932 177.902L270.694 177.034C270.442 177.146 270.092 177.244 269.812 177.244C268.902 177.244 268.622 176.684 268.622 175.76V171.364H270.708V170.44H268.622V168.298H267.67L267.53 170.44L266.34 170.51V171.364H267.488V175.718C267.488 177.202 267.992 178.182 269.574 178.182ZM277.565 178H278.895L282.171 167.752H280.995L279.301 173.408C278.923 174.626 278.671 175.592 278.279 176.81H278.223C277.831 175.592 277.565 174.626 277.201 173.408L275.493 167.752H274.275L277.565 178ZM282.834 178H289.19V177.02H286.18C285.648 177.02 285.032 177.062 284.5 177.104C286.964 174.514 288.686 172.652 288.686 170.748C288.686 168.998 287.566 167.864 285.746 167.864C284.472 167.864 283.59 168.452 282.764 169.348L283.45 170.006C284.024 169.32 284.766 168.788 285.62 168.788C286.936 168.788 287.566 169.628 287.566 170.79C287.566 172.442 285.886 174.262 282.834 177.328V178ZM291.778 178.182C292.24 178.182 292.632 177.818 292.632 177.286C292.632 176.726 292.24 176.362 291.778 176.362C291.302 176.362 290.91 176.726 290.91 177.286C290.91 177.818 291.302 178.182 291.778 178.182ZM297.273 178.182C298.967 178.182 300.591 176.978 300.591 174.822C300.591 172.666 299.205 171.7 297.511 171.7C296.867 171.7 296.391 171.868 295.915 172.134L296.195 169.026H300.087V168.046H295.187L294.865 172.806L295.495 173.198C296.083 172.806 296.531 172.582 297.231 172.582C298.561 172.582 299.429 173.436 299.429 174.864C299.429 176.306 298.421 177.23 297.175 177.23C295.957 177.23 295.201 176.67 294.613 176.068L294.039 176.824C294.725 177.51 295.677 178.182 297.273 178.182ZM303.221 178.182C303.683 178.182 304.075 177.818 304.075 177.286C304.075 176.726 303.683 176.362 303.221 176.362C302.745 176.362 302.353 176.726 302.353 177.286C302.353 177.818 302.745 178.182 303.221 178.182ZM308.941 178.182C310.901 178.182 312.077 176.32 312.077 172.988C312.077 169.67 310.901 167.864 308.941 167.864C306.967 167.864 305.805 169.656 305.805 172.988C305.805 176.32 306.967 178.182 308.941 178.182ZM308.941 177.258C307.723 177.258 306.897 175.928 306.897 172.988C306.897 170.034 307.723 168.788 308.941 168.788C310.145 168.788 310.971 170.034 310.971 172.988C310.971 175.928 310.145 177.258 308.941 177.258ZM189.447 199H190.609V194.842H192.345C194.613 194.842 196.097 193.848 196.097 191.72C196.097 189.522 194.599 188.752 192.289 188.752H189.447V199ZM190.609 193.904V189.704H192.121C193.997 189.704 194.935 190.18 194.935 191.72C194.935 193.246 194.053 193.904 192.177 193.904H190.609ZM200.613 199.182C202.461 199.182 204.085 197.726 204.085 195.234C204.085 192.7 202.461 191.244 200.613 191.244C198.765 191.244 197.141 192.7 197.141 195.234C197.141 197.726 198.765 199.182 200.613 199.182ZM200.613 198.23C199.255 198.23 198.317 197.026 198.317 195.234C198.317 193.428 199.255 192.21 200.613 192.21C201.985 192.21 202.923 193.428 202.923 195.234C202.923 197.026 201.985 198.23 200.613 198.23ZM207.287 199H208.603L209.723 194.8C209.933 194.072 210.101 193.372 210.255 192.602H210.325C210.521 193.372 210.661 194.058 210.857 194.786L212.005 199H213.405L215.477 191.44H214.371L213.223 195.934C213.041 196.648 212.901 197.32 212.733 198.02H212.677C212.495 197.32 212.327 196.648 212.145 195.934L210.913 191.44H209.765L208.533 195.934C208.351 196.648 208.183 197.32 208.015 198.02H207.945C207.805 197.32 207.651 196.648 207.497 195.934L206.307 191.44H205.145L207.287 199ZM220.14 199.182C221.176 199.182 221.946 198.832 222.59 198.426L222.184 197.642C221.61 198.034 221.022 198.258 220.266 198.258C218.754 198.258 217.746 197.152 217.676 195.472H222.842C222.884 195.276 222.898 195.038 222.898 194.786C222.898 192.602 221.806 191.244 219.916 191.244C218.18 191.244 216.542 192.77 216.542 195.234C216.542 197.712 218.138 199.182 220.14 199.182ZM217.662 194.632C217.816 193.078 218.81 192.168 219.93 192.168C221.162 192.168 221.89 193.022 221.89 194.632H217.662ZM224.799 199H225.947V194.072C226.465 192.756 227.249 192.28 227.879 192.28C228.187 192.28 228.355 192.322 228.607 192.406L228.831 191.412C228.579 191.286 228.355 191.244 228.033 191.244C227.179 191.244 226.409 191.874 225.891 192.826H225.849L225.737 191.44H224.799V199ZM233.333 199H236.525C238.821 199 240.389 198.006 240.389 196.004C240.389 194.604 239.535 193.778 238.275 193.54V193.484C239.255 193.162 239.801 192.28 239.801 191.258C239.801 189.466 238.387 188.752 236.315 188.752H233.333V199ZM234.495 193.148V189.676H236.133C237.799 189.676 238.653 190.138 238.653 191.398C238.653 192.476 237.911 193.148 236.077 193.148H234.495ZM234.495 198.076V194.044H236.343C238.219 194.044 239.255 194.646 239.255 195.976C239.255 197.418 238.163 198.076 236.343 198.076H234.495ZM242.177 202.304C243.647 202.304 244.431 201.142 244.935 199.714L247.819 191.44H246.699L245.285 195.766C245.075 196.438 244.851 197.208 244.641 197.894H244.571C244.305 197.194 244.053 196.424 243.815 195.766L242.205 191.44H241.015L244.067 199.042L243.899 199.63C243.563 200.61 243.003 201.352 242.135 201.352C241.925 201.352 241.701 201.282 241.547 201.226L241.323 202.15C241.547 202.248 241.841 202.304 242.177 202.304ZM251.184 199H252.346L253.382 195.78H257.218L258.24 199H259.472L255.958 188.752H254.684L251.184 199ZM253.69 194.856L254.222 193.19C254.6 192.028 254.936 190.922 255.272 189.718H255.328C255.678 190.922 256 192.028 256.392 193.19L256.924 194.856H253.69ZM259.691 199H260.895L261.973 197.166C262.239 196.704 262.491 196.242 262.757 195.808H262.827C263.121 196.242 263.415 196.704 263.667 197.166L264.829 199H266.075L263.569 195.164L265.879 191.44H264.689L263.709 193.162C263.471 193.582 263.247 193.988 263.009 194.422H262.953C262.687 193.988 262.421 193.582 262.183 193.162L261.133 191.44H259.887L262.197 195.052L259.691 199ZM267.606 199H268.754V193.456C269.538 192.658 270.112 192.238 270.91 192.238C271.96 192.238 272.408 192.882 272.408 194.338V199H273.556V194.198C273.556 192.266 272.828 191.244 271.246 191.244C270.21 191.244 269.426 191.818 268.712 192.532L268.754 190.95V187.856H267.606V199ZM278.226 199.182C279.276 199.182 280.032 198.622 280.746 197.796H280.788L280.886 199H281.824V191.44H280.69V196.858C279.934 197.782 279.36 198.188 278.562 198.188C277.512 198.188 277.064 197.558 277.064 196.102V191.44H275.916V196.242C275.916 198.174 276.644 199.182 278.226 199.182ZM287.698 199.182C289.434 199.182 290.988 197.684 290.988 195.094C290.988 192.77 289.952 191.244 287.978 191.244C287.11 191.244 286.256 191.734 285.542 192.336L285.598 190.95V187.856H284.45V199H285.36L285.472 198.216H285.528C286.186 198.818 286.998 199.182 287.698 199.182ZM287.53 198.216C287.012 198.216 286.284 198.006 285.598 197.39V193.288C286.354 192.588 287.054 192.21 287.712 192.21C289.224 192.21 289.812 193.386 289.812 195.122C289.812 197.026 288.846 198.216 287.53 198.216ZM293.473 199.182C293.935 199.182 294.327 198.818 294.327 198.286C294.327 197.726 293.935 197.362 293.473 197.362C292.997 197.362 292.605 197.726 292.605 198.286C292.605 198.818 292.997 199.182 293.473 199.182ZM296.659 199H297.807V191.44H296.659V199ZM297.247 189.816C297.695 189.816 298.031 189.508 298.031 189.018C298.031 188.556 297.695 188.248 297.247 188.248C296.771 188.248 296.463 188.556 296.463 189.018C296.463 189.508 296.771 189.816 297.247 189.816ZM300.419 199H301.567V193.456C302.281 192.644 302.953 192.238 303.555 192.238C304.563 192.238 305.025 192.882 305.025 194.338V199H306.159V193.456C306.901 192.644 307.531 192.238 308.147 192.238C309.155 192.238 309.631 192.882 309.631 194.338V199H310.751V194.198C310.751 192.266 310.009 191.244 308.469 191.244C307.559 191.244 306.761 191.846 305.949 192.714C305.655 191.818 305.039 191.244 303.877 191.244C302.981 191.244 302.169 191.818 301.511 192.56H301.469L301.357 191.44H300.419V199Z" fill="#999999"/>
</svg>
