<?xml version="1.0" standalone="no"?><!DOCTYPE svg PUBLIC "-//W3C//DTD SVG 1.1//EN" "http://www.w3.org/Graphics/SVG/1.1/DTD/svg11.dtd"><svg t="1693471845460" class="icon" viewBox="0 0 1024 1024" version="1.1" xmlns="http://www.w3.org/2000/svg" p-id="13261" xmlns:xlink="http://www.w3.org/1999/xlink" width="200" height="200"><path d="M112 583.7V439.9c2-1.2 5.1-1.7 6-3.6 7.1-14.6 19-17.8 32.2-18 16-0.3 31.9 0.1 47.9-0.3 3.1-0.1 7.3-1.6 8.9-4.1 3.7-5.9 5.9-12.9 9.2-19.2 3.4-6.3 1.3-9.9-3.4-13.8-12.9-10.9-25.5-22.1-37.9-33.6-7.4-6.8-7.5-23.4-0.5-30.5 8.9-9.1 17.7-18.3 27.2-26.6 25.2-22.1 51-43.4 76.1-65.7 18.7-16.7 40.8-15.5 57.2 0.4 17.5 16.9 34.6 40.4 62.4 20.9 0.6-0.4 1.7 0 2-0.5 2.4-3.6 6.5-7.1 6.8-10.9 0.8-13.1 0.5-26.3 0.3-39.4-0.1-13.1 5.3-21.5 15.9-26.6 2.9-1.4 5.2-4.2 7.7-6.4h164.2c1.4 1.4 2.6 3.3 4.2 4 15.2 6.6 23.4 17.7 21.7 37.1-0.9 10.7-0.5 21.6 0 32.3 0.2 3.3 2.1 8.2 4.4 9.3 8.4 3.9 17.3 6.8 26.1 9.3 2.5 0.7 6.3-0.4 8.5-2.3 10.2-8.4 20.3-17 29.9-26.3 12.8-12.4 27.3-17.7 43-10.6 9.4 4.2 17.5 12.3 25.7 19.3 29.9 25.9 59.7 51.9 89.3 78.2 11.1 9.9 10 30.6-1.4 40.3-13.4 11.4-26.5 23.3-39.2 34.4 2.8 6.7 6 12.4 7.7 18.6 2.6 9.4 7.3 13.1 16.3 12.8 16.7-0.7 33.4-0.5 50.1 0 16 0.5 31.3 15.3 31.4 30.5 0.3 41.9 0.6 83.9-0.4 125.8-0.2 7.4-4.8 17.5-10.3 21.4-8.2 5.8-18.7 9-28.4 10.1-14.8 1.6-29.8 0.2-44.8 0.4-13.6 0.2-13.3 14.4-16.9 23.7-1.3 3.2 2.5 10.7 5.8 14 8.9 8.9 18.7 16.6 28.3 24.7 13.9 11.8 14 33.7 0.3 45.7-31 27.2-62 54.4-92.8 81.8-22 19.5-41.4 21.4-61.9 5-10.3-8.2-20.4-16.9-29.9-26.3-4.7-4.7-8.4-5.3-14.2-3.1-25.7 9.4-25.8 9.2-25.8 39.8v8.4c-0.1 26.3-12.7 41.1-36.3 41.3-48 0.3-96 1.2-143.9-0.4-23.6-0.8-36.9-13.4-34.7-38.6 0.4-4.7 0.1-9.6 0-14.4-0.4-31.3 3.7-24.4-21.5-34.3-9.7-3.8-17.1-4.6-24.8 4.3-5.3 6.2-12.3 10.4-18.1 16.1-11.9 11.6-25 21.7-41.1 16.8-11-3.4-21.4-11.1-30.8-18.9-29.8-24.9-59.1-50.4-88.3-76.2-18.1-16-16.4-34.6 1.5-49.6 5.9-4.9 11.7-10.1 17.5-15.1 5.3-4.5 13.7-8.1 15-13.8 1.4-5.7-4.9-13.4-6.5-20.6-2.1-9.4-7.1-11.2-14.8-11-15.6 0.4-31.3 0.4-46.9-0.2-11.6-0.4-22.5-3.3-29-16.2-1.1-2.6-4.1-3.9-6.2-5.8z m70.9-38.4c16.3 0 32.1-0.1 48 0 15.1 0.1 27.3 7.4 33.2 22.8 7.6 19.8 14.4 39.5 27.2 56.3 6.9 9.1 6.8 28.7-4.8 37.1-9.4 6.8-18 15.1-26.8 22.9-3.9 3.4-7.4 7.6-1.8 12.5 14.4 12.6 28.8 25.1 43.6 37 2.4 1.9 7.8 2.4 10.1 0.7 7.4-5.3 14.4-11.4 20.8-18.1 16.1-16.9 33.7-18.8 53.9-10.3 19.1 8 38.6 15.2 58.3 21.2 21.4 6.5 30.1 17.5 30.1 42.5v28.3h76.5c0-12.4 0.6-23.6-0.2-34.7-0.9-13 3.5-22.7 13.2-28.7 5.7-3.6 12.5-5.1 18.8-7.4 19.4-7.3 39-14.1 58.2-22 16.6-6.9 31.8-5.8 45.9 6.7 8.6 7.5 17.1 15.2 26.1 21.9 2.5 1.9 8 2.4 10.2 0.6 16.2-13.6 31.9-27.9 48.7-42.9-5.7-4.9-10.6-9.1-15.5-13.3-5.3-4.6-10.8-8.8-15.7-13.9-12.6-13.4-16.9-21.8-8.2-37.3 8.7-15.5 17.3-31.4 23.3-48.4 7.5-20.9 20.6-34.5 40.7-33.5 14.4 0.7 28.9 0.1 43.6 0.1v-66.8c-16.6 0-32.2 0.2-47.9-0.1-12.8-0.2-23.2-6-29.7-18.9-11.3-22.8-22.6-45.5-33.3-68.7-1.9-4.1-2.3-11-0.4-14.9 3-6.4 7.9-11.9 12.8-16.7 9.4-9.2 19.5-17.6 30-27-14.2-12.7-27.9-24.1-40.8-36.7-9.9-9.7-18-9.6-26.7 1.2-2.3 2.9-5.5 4.8-8.3 7.2-11.7 10.3-23.3 21.7-39.7 18.6-7.9-1.5-15.3-5.5-23-8.1-19.9-6.9-39.9-13.4-59.8-20.4-15.2-5.4-24.2-16.1-22.8-33.5 0.9-11.4 0.2-22.9 0.2-35h-76.5c0 10.2-0.7 19.4 0.1 28.5 2.3 26.6-12.4 36.2-28.2 41.8-21.9 7.7-43.7 15.5-65.4 23.6-15 5.6-29 5.3-42-6.4-7.9-7.2-17.1-12.8-24.1-20.9-6.7-7.6-11.8-5-17.5-0.2-12.8 11-25.5 22.3-38.3 33.3-5.8 5-5.3 9.5 0.2 14.2 9.2 7.9 18.4 15.7 27.5 23.9 9.9 8.9 10.6 27.1 3.5 38.5-8.6 14-17.3 28.4-23.2 43.9-9.4 24.8-17.9 32.8-41.9 32.8h-42.7c0.5 22.7 0.5 43.7 0.5 66.7z" fill="#3FA9F5" p-id="13262"></path><path d="M284.1 526.2c18 0.2 36 0.6 54 0.2 2.9-0.1 6.1-3.6 8.4-6.2 3-3.3 5.3-7.2 7.7-10.9 3-4.6 17.1-6.9 20.1-2.5 2.7 4 3.7 9.1 5.3 13.8 1 3.2 1.8 6.4 3.5 9.8 6.9-13.7 10.3-28.5 14.3-44.3 5 0.3 10.4-0.2 15.2 1.2 2.4 0.7 4.8 4.9 5.3 7.9 1.9 11.6 2.9 23.3 4.3 35 0.2 1.6 0.7 3.2 2.6 5.2 0.7-1.7 1.9-3.3 2.1-5 3-30 6.2-60 8.5-90 1.3-16.5 3.7-16.9 20.9-13.8 3.1 23.3 6.3 46.5 9.4 69.7 0.5 0.1 1.1 0.2 1.6 0.4 1-2.3 2.6-4.5 2.9-6.9 1.5-10.5 2.3-21 3.8-31.4 4.2-29.5 8.6-59 13.1-88.5 1.4-9.1 3.3-18.2 4.9-27.4h18.1c1.1 15.6 2.1 30.8 3.4 46 1.9 22.1 4 44.2 6 66.3 2.3 24.7 4.5 49.5 7 74.2 1.2 12.3 3 24.5 5.7 37 1-3 2.5-5.9 2.8-9 1.7-15.3 3-30.6 4.8-45.8 1.7-14.4 3.7-28.9 5.8-43.2 0.5-3.2 2-6.2 3.1-9.4h16.8c3.9 20.3 7.9 41 12.3 63.2 1.9-2.1 3.5-3.1 4-4.5 2.6-8.4 5.2-16.8 7.2-25.3 1-4.2 2.5-5.9 7-5.9 13.1 0.1 13.5 0.2 16.8 16.9 1.2 5.9 2 11.8 3.2 17.7 0.2 1.2 1.1 2.3 2.6 5.3 1.8-4.4 3.4-7.2 4.2-10.2 2.2-8.3 8.8-6.3 14.5-6.5 5.4-0.2 7.6 3.1 8.7 7.6 3.4 13.7 6.5 27.4 10 41 1.3 5.3 3 10.5 4.8 15.6 0.4 1.1 1.8 1.7 3.3 3.2 0.9-2.9 1.6-4.8 2-6.8 3-13 5.9-26.1 9.2-39 0.5-1.8 3.4-4.1 5.2-4.2 25.7-0.3 51.4-0.2 77.6-0.2v13.9c-2.3 0.1-4.9 0.3-7.4 0.3h-46.1c-13.1 0-13.4 0-16.5 12.8-3.3 13.4-6 27-9.3 40.5-2 8-4.6 15.9-7 24.3h-17.7c-6.8-25.2-13.5-50.3-20.3-75.5h-2.5c-1.2 3.4-2.9 6.7-3.6 10.2-1.2 6.2-4.6 8.4-10.7 7.7-3.8-0.5-7.6-0.4-11.5-0.6-1.8-10.3-3.5-20.1-5.6-32.1-2.1 2.7-3.5 3.8-3.9 5.2-2.7 9.4-5.5 18.7-7.7 28.2-1.1 4.9-3.3 7.1-8.3 6.5-2.4-0.3-4.8-0.2-7.2-0.1-4.5 0.2-6.3-2-6.9-6.3-1.1-9.3-2.5-18.5-4.1-27.8-0.4-2.2-1.7-4.2-2.6-6.3-0.7 0.1-1.4 0.3-2 0.4-2 13.3-4.2 26.6-5.9 40-3.2 25.4-5.9 50.8-9.1 76.1-0.7 5.8-2.7 11.4-4 17.1-0.2 0.1-0.4 0.2-0.7 0.2-17.1 0.4-17 0.4-18.2-16.8-0.9-13.4-1.8-26.8-2.9-40.2-2.3-26.9-4.7-53.9-7.2-80.8-1.9-20.4-3.7-40.9-5.9-61.3-1.1-10.4-3-20.6-4.8-32.8-1.9 8.4-4 15.1-5 22-3.6 25.8-6.8 51.7-10.4 77.5-2 13.9-4.6 27.7-7.1 42.8-4.4 0-9.7 0.3-14.8-0.2-1.3-0.1-3.1-2.6-3.4-4.2-2.2-14.9-4.1-29.8-6.3-44.6-0.4-2.6-1.6-5.1-4.1-7.3-3.7 35.4-7.5 70.8-11.2 106.7H418c-4.3-28.5-8.6-57.5-13.2-88-1.7 2.1-3 3.1-3.4 4.4-2.4 7.7-4.6 15.5-6.7 23.3-1 3.9-2.4 6-7.2 5.9-12.8-0.2-13.8-0.7-17-13.6-2-8-4.2-16-6.8-25.9-3.4 3.2-6.1 4.5-6.8 6.5-2 5.8-6.2 6.3-11.3 6.2-20.4-0.3-40.8-0.3-61.3-0.4-0.2-4.6-0.2-9.4-0.2-14.2z" fill="#3FA9F5" p-id="13263"></path></svg>