<?xml version="1.0" standalone="no"?><!DOCTYPE svg PUBLIC "-//W3C//DTD SVG 1.1//EN" "http://www.w3.org/Graphics/SVG/1.1/DTD/svg11.dtd"><svg t="1693472136984" class="icon" viewBox="0 0 1024 1024" version="1.1" xmlns="http://www.w3.org/2000/svg" p-id="18230" xmlns:xlink="http://www.w3.org/1999/xlink" width="200" height="200"><path d="M896 341.333333a21.333333 21.333333 0 0 1 3.84 42.325334L896 384H128a21.333333 21.333333 0 0 1-3.84-42.325333L128 341.333333h768z" fill="#0084FF" p-id="18231"></path><path d="M128 384h810.666667v213.333333H128z" fill="#299FFF" p-id="18232"></path><path d="M896 597.333333a21.333333 21.333333 0 0 1 3.84 42.325334L896 640H128a21.333333 21.333333 0 0 1-3.84-42.325333L128 597.333333h768z" fill="#0084FF" p-id="18233"></path><path d="M917.333333 170.666667h-810.666666a21.333333 21.333333 0 0 0-21.333334 21.333333v640a21.333333 21.333333 0 0 0 21.333334 21.333333h810.666666a21.333333 21.333333 0 0 0 21.333334-21.333333v-640a21.333333 21.333333 0 0 0-21.333334-21.333333zM896 213.333333v597.333334H128V213.333333h768z" fill="#0084FF" p-id="18234"></path><path d="M614.229333 379.562667a21.333333 21.333333 0 0 1 27.221334-2.432l2.986666 2.432 192 192a21.333333 21.333333 0 0 1-27.221333 32.64l-2.986667-2.432-192-192a21.333333 21.333333 0 0 1 0-30.208z" fill="#FFFFFF" p-id="18235"></path><path d="M836.437333 379.562667a21.333333 21.333333 0 0 0-27.221333-2.432l-2.986667 2.432-192 192a21.333333 21.333333 0 0 0 27.221334 32.64l2.986666-2.432 192-192a21.333333 21.333333 0 0 0 0-30.208z" fill="#FFFFFF" p-id="18236"></path></svg>