<?xml version="1.0" standalone="no"?><!DOCTYPE svg PUBLIC "-//W3C//DTD SVG 1.1//EN" "http://www.w3.org/Graphics/SVG/1.1/DTD/svg11.dtd"><svg t="1693472000063" class="icon" viewBox="0 0 1024 1024" version="1.1" xmlns="http://www.w3.org/2000/svg" p-id="14289" xmlns:xlink="http://www.w3.org/1999/xlink" width="200" height="200"><path d="M292.010667 820.266667l405.333333-400.256 44.032 43.093333-405.376 401.621333-43.989333-44.373333v-0.085333z m117.888-380.288c15.872 0 31.573333 4.181333 47.232 12.672 15.36 8.277333 28.16 20.736 36.778666 36.010666 8.832 14.677333 13.482667 31.445333 13.568 48.597334a101.632 101.632 0 0 1-48.725333 84.693333c-14.805333 8.533333-31.744 12.885333-48.853333 12.373333a97.109333 97.109333 0 0 1-97.877334-96.64 93.610667 93.610667 0 0 1 13.482667-49.066666c8.789333-15.189333 21.632-27.562667 37.12-35.754667 14.506667-7.978667 30.72-12.373333 47.274667-12.885333z m-7.509334 45.568a41.813333 41.813333 0 0 0-19.797333 5.290666 36.821333 36.821333 0 0 0-15.36 15.616 47.104 47.104 0 0 0-5.888 21.248 34.858667 34.858667 0 0 0 5.845333 20.224c11.093333 19.413333 35.84 26.154667 55.210667 15.061334a42.538667 42.538667 0 0 0 15.061333-14.848 39.253333 39.253333 0 0 0 5.717334-20.906667 48.384 48.384 0 0 0-5.888-20.906667 36.821333 36.821333 0 0 0-15.402667-15.488 41.045333 41.045333 0 0 0-19.498667-5.290666z m226.602667 174.250666c15.530667 0 31.146667 4.181333 46.762667 12.544 15.488 8.32 28.330667 20.821333 37.12 36.096 8.832 14.592 13.568 31.36 13.653333 48.469334a98.56 98.56 0 0 1-49.024 83.925333c-14.805333 8.533333-31.573333 12.970667-48.64 12.885333l-48.512-12.885333a95.914667 95.914667 0 0 1-49.28-83.456c-0.085333-17.28 4.608-34.176 13.568-48.938667 8.746667-15.232 21.589333-27.733333 37.034667-36.096 14.506667-8.106667 30.762667-12.373333 47.36-12.544z m1.749333 55.466667a48.384 48.384 0 0 0-19.882666 5.461333 35.498667 35.498667 0 0 0-15.402667 15.36 46.506667 46.506667 0 0 0-5.717333 21.162667 36.650667 36.650667 0 0 0 5.717333 20.394667 40.533333 40.533333 0 0 0 35.285333 20.650666 35.541333 35.541333 0 0 0 20.266667-5.034666c12.373333-7.850667 20.010667-21.333333 20.352-36.010667a41.173333 41.173333 0 0 0-5.290667-20.906667 40.234667 40.234667 0 0 0-35.2-21.12h-0.128z" fill="#13C2C2" p-id="14290"></path><path d="M224.298667 744.405333L172.970667 795.733333C28.672 622.848 37.717333 365.354667 199.978667 203.093333 371.797333 31.232 650.410667 31.232 822.186667 203.050667c162.304 162.304 171.306667 419.84 27.008 592.682666l-51.328-51.328a367.701333 367.701333 0 1 0-573.610667 0z" fill="#1890FF" p-id="14291"></path></svg>