<?xml version="1.0" standalone="no"?><!DOCTYPE svg PUBLIC "-//W3C//DTD SVG 1.1//EN" "http://www.w3.org/Graphics/SVG/1.1/DTD/svg11.dtd"><svg t="1693471761305" class="icon" viewBox="0 0 1024 1024" version="1.1" xmlns="http://www.w3.org/2000/svg" p-id="12179" xmlns:xlink="http://www.w3.org/1999/xlink" width="200" height="200"><path d="M512 269.824a233.984 233.984 0 1 0 233.984 233.984A234.496 234.496 0 0 0 512 269.824z m0 391.68a157.184 157.184 0 1 1 153.6-157.696 157.696 157.696 0 0 1-153.6 157.696zM512 224.256a38.4 38.4 0 0 0 38.4-38.4v-102.4a38.4 38.4 0 1 0-76.8 0v102.4a38.4 38.4 0 0 0 38.4 38.4zM259.072 307.2a38.4 38.4 0 0 0 54.272-56.832L241.152 178.176a38.4 38.4 0 0 0-54.272 54.272zM230.4 502.272a38.4 38.4 0 0 0-38.4-38.4h-102.4a38.4 38.4 0 0 0 0 76.8h102.4a38.4 38.4 0 0 0 38.4-38.4zM256 700.928L184.832 773.12a38.4 38.4 0 1 0 54.272 54.272l72.192-72.192A38.4 38.4 0 1 0 256 700.928zM508.928 783.872a38.4 38.4 0 0 0-38.4 38.4v102.4a38.4 38.4 0 0 0 76.8 0v-102.4a38.4 38.4 0 0 0-38.4-38.4zM761.344 702.976a38.4 38.4 0 1 0-54.272 54.272l72.192 72.192a38.4 38.4 0 0 0 54.272-54.272zM930.816 467.456h-102.4a38.4 38.4 0 0 0 0 76.8h102.4a38.4 38.4 0 0 0 0-76.8zM736.768 318.464a38.4 38.4 0 0 0 27.136-11.264l72.192-72.192a38.4 38.4 0 0 0-54.272-54.272l-72.192 72.192a38.4 38.4 0 0 0 27.136 65.536z" fill="#1F88D9" p-id="12180"></path></svg>