<?xml version="1.0" standalone="no"?><!DOCTYPE svg PUBLIC "-//W3C//DTD SVG 1.1//EN" "http://www.w3.org/Graphics/SVG/1.1/DTD/svg11.dtd"><svg t="1690016885925" class="icon" viewBox="0 0 1024 1024" version="1.1" xmlns="http://www.w3.org/2000/svg" p-id="14811" xmlns:xlink="http://www.w3.org/1999/xlink" width="200" height="200"><path d="M42.666667 768h170.666666v170.666667H42.666667zM298.666667 640h170.666666v298.666667H298.666667zM554.666667 512h170.666666v426.666667h-170.666666zM810.666667 341.333333h170.666666v597.333334h-170.666666z" fill="#FFFFFF" p-id="14812"></path><path d="M915.84 69.162667a32 32 0 0 1 45.226667 45.098666l-3.413334 3.328-347.776 300.629334a32 32 0 0 1-38.357333 2.645333l-3.754667-2.858667L447.573333 311.893333 95.061333 614.4a32 32 0 0 1-41.770666-0.085333l-3.328-3.328a32 32 0 0 1 0.085333-41.813334l3.328-3.328 373.717333-320.64a32 32 0 0 1 38.229334-2.56l3.754666 2.858667 120.064 105.984 326.698667-282.325333z" fill="#FFFFFF" p-id="14813"></path><path d="M938.666667 53.333333a32 32 0 0 1 31.701333 27.648L970.666667 85.333333v149.333334a32 32 0 0 1-63.701334 4.352L906.666667 234.666667V117.333333H789.333333a32 32 0 0 1-31.701333-27.648L757.333333 85.333333a32 32 0 0 1 27.648-31.701333l4.352-0.298667H938.666667z" fill="#FFFFFF" p-id="14814"></path></svg>