<?xml version="1.0" standalone="no"?><!DOCTYPE svg PUBLIC "-//W3C//DTD SVG 1.1//EN" "http://www.w3.org/Graphics/SVG/1.1/DTD/svg11.dtd"><svg t="1690361520456" class="icon" viewBox="0 0 1024 1024" version="1.1" xmlns="http://www.w3.org/2000/svg" p-id="10559" xmlns:xlink="http://www.w3.org/1999/xlink" width="200" height="200"><path d="M580 888h296a20 20 0 0 1 20 20 20 20 0 0 1-20 20h-296a20 20 0 0 1-20-20 20 20 0 0 1 20-20zM493.2 877.28l15.52-58a20 20 0 0 1 24.48-14.08 20 20 0 0 1 14.16 24.48L531.84 888a20 20 0 0 1-24.56 14.16 20 20 0 0 1-14.08-24.88zM341.2 877.28l15.52-58a20 20 0 0 1 24.48-14.08 20 20 0 0 1 14.16 24.48L379.84 888a20 20 0 0 1-24.56 14.16 20 20 0 0 1-14.08-24.88zM417.2 877.28l15.52-58a20 20 0 0 1 24.48-14.08 20 20 0 0 1 14.16 24.48L456 888a20 20 0 0 1-24.56 14.16 20 20 0 0 1-14.24-24.88z" fill="#75C1FB" p-id="10560"></path><path d="M569.2 877.28l15.52-58a20 20 0 0 1 24.48-14.08 20 20 0 0 1 14.16 24.48L608 888a20 20 0 0 1-24.56 14.16 20 20 0 0 1-14.24-24.88z" fill="#75C1FB" p-id="10561"></path><path d="M684.32 849.52L655.36 760H324.72l-39.36 92.24a25.84 25.84 0 0 0-1.92 9.44 24 24 0 0 0 24 24h397.28a104 104 0 0 1-20.4-36.16zM298.32 720h386.08l38 117.2a64 64 0 0 0 20.88 30.32l37.12 29.68a16 16 0 0 1-10 28.48H307.44a64 64 0 0 1-64-64 63.36 63.36 0 0 1 5.2-25.12z" fill="#0080FF" p-id="10562"></path><path d="M228 720h512a20 20 0 0 1 20 20 20 20 0 0 1-20 20h-512a20 20 0 0 1-20-20 20 20 0 0 1 20-20z" fill="#0080FF" p-id="10563"></path><path d="M376 720h216v-16a40 40 0 0 0-40-40H416a40 40 0 0 0-40 40z m40-96h136a80 80 0 0 1 80 80v56H336v-56a80 80 0 0 1 80-80z" fill="#0080FF" p-id="10564"></path><path d="M526.64 624l84.32-460.48a24.4 24.4 0 0 0 0-4.16A23.36 23.36 0 0 0 588 136h-9.28a40 40 0 0 0-39.36 32.8L456 624z m52.08-528h9.28a63.44 63.44 0 0 1 63.36 63.36 60 60 0 0 1-1.04 11.36L560 664H408l92-502.4a80 80 0 0 1 78.72-65.6z" fill="#0080FF" p-id="10565"></path><path d="M250.48 397.04l8 20.56a32 32 0 0 0 17.76 17.76l20.56 8a8 8 0 0 1 4.48 10.4 8 8 0 0 1-4.48 4.48l-20.56 8a32 32 0 0 0-17.76 17.76l-8 20.56a8 8 0 0 1-14.88 0l-8-20.56a32 32 0 0 0-17.76-17.76l-20.56-8a8 8 0 0 1-4.48-10.4 8 8 0 0 1 4.48-4.48l20.56-8a32 32 0 0 0 17.76-17.76l8-20.56a8 8 0 0 1 10.4-4.48 8 8 0 0 1 4.48 4.48zM837.6 597.04l9.12 22.8a32 32 0 0 0 17.84 17.76l22.8 9.12a8 8 0 0 1 4.4 10.4 8 8 0 0 1-4.4 4.48l-22.8 9.12a32 32 0 0 0-17.84 17.84l-9.12 22.8a8 8 0 0 1-10.4 4.4 8 8 0 0 1-4.48-4.4l-9.12-22.8a32 32 0 0 0-17.76-17.84l-22.8-9.12a8 8 0 0 1-4.48-10.4 8 8 0 0 1 4.48-4.48l22.8-9.12a32 32 0 0 0 17.76-17.76l9.12-22.8a8 8 0 0 1 10.4-4.48 8 8 0 0 1 4.48 4.48z" fill="#75C1FB" p-id="10566"></path></svg>