<?xml version="1.0" encoding="utf-8"?>
<svg version="1.1" xmlns:xlink="http://www.w3.org/1999/xlink" width="36px" height="31px" xmlns="http://www.w3.org/2000/svg">
  <g transform="matrix(1 0 0 1 -175 -479 )">
    <path d="M 16.0414772727273 21.2573889023437  L 19.397727286044 21.2573889023438  L 19.397727286044 27.4573889023438  L 26.1093750133168 27.4573889023438  L 26.1093750133168 31  L 9.33068180486506 31  L 9.33068180486506 27.4573889023437  L 16.0414772727273 27.4573889023437  L 16.0414772727273 21.2573889023437  Z M 6.30170455877131 15.4991389023438  L 5.14261362304687 20.6666666666667  L 1.80596589577415 20.6666666666667  C 0.86398783754754 20.6666667676057  0.100836836978821 19.8956016085126  0.100836836978821 18.9444445319286  C 0.100836836978821 18.7836541709544  0.123122786717552 18.6236559781915  0.167045441228693 18.4691110976563  L 1.01079544122869 15.5  L 6.30170455877131 15.5  Z M 8.02414771395597 15.4991389023437  L 16.8809658957742 15.4991389023438  L 16.8809658957742 20.6666666666667  L 6.86590907759233 20.6666666666667  L 8.02414771395597 15.4991389023437  Z M 18.5590909224077 15.4991389023437  L 28.5000000133168 15.4991389023438  L 29.6582386496804 20.6666666666667  L 18.5590909224077 20.6666666666667  L 18.5590909224077 15.4991389023437  Z M 30.2215909090909 15.4991389023437  L 34.9883522594105 15.4991389023438  L 35.8321022594105 18.4699722356771  C 35.8758635121921 18.6242517007379  35.8980663561138 18.7839542413227  35.8980663561138 18.9444445090521  C 35.8980663561138 19.8953990901773  35.1352281117986 20.6663803468875  34.1940341042259 20.6666666666667  L 31.3806818048651 20.6666666666667  L 30.2215909090909 15.4991389023437  Z M 2.47926137695313 10.3324722356771  L 7.45994319513494 10.3324722356771  L 6.68778410422585 13.7769166666667  L 1.50000001331676 13.7769166666667  L 2.47926137695313 10.3324722356771  Z M 9.1823863503196 10.3324722356771  L 16.8809658957741 10.3324722356771  L 16.8809658957741 13.7769166666667  L 8.409375 13.7769166666667  L 9.1823863503196 10.3324722356771  Z M 27.3417613769531 10.3324722356771  L 28.1139204678622 13.7769166666667  L 18.5590909224077 13.7769166666667  L 18.5590909224077 10.3324722356771  L 27.3409090775923 10.3324722356771  Z M 29.0633522727273 10.3324722356771  L 33.5198863636364 10.3324722356771  L 34.4982954678622 13.7769166666667  L 29.8355113636364 13.7769166666667  L 29.0633522727273 10.3324722356771  Z M 8.61818183149858 5.16580556901042  L 7.84602274058949 8.61025  L 2.96846590909091 8.61025  L 3.94687501331676 5.16580556901042  L 8.61732953213778 5.16580556901042  Z M 10.3406249866832 5.16580556901042  L 16.8809658957742 5.16580556901042  L 16.8809658957742 8.61025  L 9.56846589577415 8.61025  L 10.3406249866832 5.16580556901042  Z M 18.5590909224077 5.16580556901042  L 26.1835227405895 5.16580556901042  L 26.9556818314986 8.61025  L 18.5590909224077 8.61025  L 18.5590909224077 5.16580556901042  Z M 27.9051136363636 5.16580556901042  L 32.0514204678622 5.16580556901042  L 33.0298295321378 8.61025  L 28.6772727272727 8.61025  L 27.9051136363636 5.16580556901042  Z M 9.77642046786222 0  L 9.00426137695313 3.44358333333333  L 4.43693180486506 3.44358333333333  L 5.06164774058949 1.24775  C 5.27103528170206 0.509557208867679  5.93883563805296 0.000615231949701662  6.69886363636364 0  L 9.77556816850142 0  Z M 11.4988636230469 0  L 16.8809658957741 0  L 16.8809658957741 3.44358333333333  L 10.7267045321378 3.44358333333333  L 11.4988636230469 0  Z M 18.5590909224077 0  L 25.0252841042259 0  L 25.7974431951349 3.44358333333333  L 18.5590909224077 3.44358333333333  L 18.5590909224077 0  Z M 26.746875 0  L 29.3002841042259 0  C 30.0603900615071 0.000121083128954803  30.7285630236796 0.508730843194272  30.9383522594105 1.24688890234375  L 31.5622158957741 3.44444443098958  L 27.5190340909091 3.44444443098958  L 26.746875 0  Z " fill-rule="nonzero" fill="#2893e1" stroke="none" transform="matrix(1 0 0 1 175 479 )" />
  </g>
</svg>