<?xml version="1.0" standalone="no"?><!DOCTYPE svg PUBLIC "-//W3C//DTD SVG 1.1//EN" "http://www.w3.org/Graphics/SVG/1.1/DTD/svg11.dtd"><svg t="1690443044820" class="icon" viewBox="0 0 1024 1024" version="1.1" xmlns="http://www.w3.org/2000/svg" p-id="9483" xmlns:xlink="http://www.w3.org/1999/xlink" width="200" height="200"><path d="M327.111111 910.222222a184.888889 71.111111 0 1 0 369.777778 0 184.888889 71.111111 0 1 0-369.777778 0Z" fill="#83B79B" p-id="9484"></path><path d="M483.555556 611.555556h56.888888a14.222222 14.222222 0 0 1 14.222223 14.222222v256a28.444444 28.444444 0 0 1-28.444445 28.444444h-28.444444a28.444444 28.444444 0 0 1-28.444445-28.444444V625.777778a14.222222 14.222222 0 0 1 14.222223-14.222222z" fill="#472C1E" p-id="9485"></path><path d="M227.555556 654.222222h540.444444L497.777778 28.444444z" fill="#3BAC17" p-id="9486"></path><path d="M455.111111 142.222222m-56.888889 0a56.888889 56.888889 0 1 0 113.777778 0 56.888889 56.888889 0 1 0-113.777778 0Z" fill="#02843F" p-id="9487"></path><path d="M384 312.888889m-56.888889 0a56.888889 56.888889 0 1 0 113.777778 0 56.888889 56.888889 0 1 0-113.777778 0Z" fill="#02843F" p-id="9488"></path><path d="M625.777778 341.333333m-56.888889 0a56.888889 56.888889 0 1 0 113.777778 0 56.888889 56.888889 0 1 0-113.777778 0Z" fill="#02843F" p-id="9489"></path><path d="M497.777778 512m-56.888889 0a56.888889 56.888889 0 1 0 113.777778 0 56.888889 56.888889 0 1 0-113.777778 0Z" fill="#02843F" p-id="9490"></path><path d="M298.666667 568.888889m-56.888889 0a56.888889 56.888889 0 1 0 113.777778 0 56.888889 56.888889 0 1 0-113.777778 0Z" fill="#02843F" p-id="9491"></path><path d="M725.333333 512m-56.888889 0a56.888889 56.888889 0 1 0 113.777778 0 56.888889 56.888889 0 1 0-113.777778 0Z" fill="#02843F" p-id="9492"></path></svg>