<?xml version="1.0" standalone="no"?><!DOCTYPE svg PUBLIC "-//W3C//DTD SVG 1.1//EN" "http://www.w3.org/Graphics/SVG/1.1/DTD/svg11.dtd"><svg t="1690442982436" class="icon" viewBox="0 0 1373 1024" version="1.1" xmlns="http://www.w3.org/2000/svg" p-id="6478" xmlns:xlink="http://www.w3.org/1999/xlink" width="268.1640625" height="200"><path d="M1104.977273 287.97115c118.273815 1.011998 135.116789-7.142989 199.983688 62.947902 114.169822-43.653932 60.709905-232.764636-66.518896-202.543684 12.099981-85.813866-143.645776-249.28661-279.135564-62.467902 3.836994 1.705997 153.87976 64.813899 145.669772 202.062684zM468.566268 519.934788a148.815767 148.815767 0 0 0-124.456806 53.886915 223.86265 223.86265 0 0 0-1.439997 246.516615 151.693763 151.693763 0 0 0 126.856801 53.299917 146.363771 146.363771 0 0 0 94.394853-31.446951 150.147765 150.147765 0 0 0 53.300917-93.489854h-54.366915a105.375835 105.375835 0 0 1-34.324947 58.151909 112.837824 112.837824 0 0 1-142.099778-17.162973 151.586763 151.586763 0 0 1-24.304962-92.529855 148.229768 148.229768 0 0 1 24.783961-91.570857 92.902855 92.902855 0 0 1 80.590875-36.724943 101.271842 101.271842 0 0 1 58.630908 15.244976 79.311876 79.311876 0 0 1 31.97995 49.142924h54.366915a125.682804 125.682804 0 0 0-44.82593-82.029872 152.546762 152.546762 0 0 0-99.191845-31.499951z m352.371449 0a155.904756 155.904756 0 0 1 123.017808 50.529921 208.192675 208.192675 0 0 1 0 253.231604 175.572726 175.572726 0 0 1-246.035615-0.479999 208.619674 208.619674 0 0 1 0-252.272606 153.39976 153.39976 0 0 1 123.017807-51.00892z m0 49.143923a99.938844 99.938844 0 0 0-82.029872 35.764944 167.737738 167.737738 0 0 0 0 184.526712 114.009822 114.009822 0 0 0 163.579745 1.438997 142.099778 142.099778 0 0 0 28.089956-93.435854 145.777772 145.777772 0 0 0-28.089956-94.395852 99.885844 99.885844 0 0 0-81.549873-33.845947z" fill="#54A5FF" p-id="6479"></path><path d="M1137.384223 367.548026l9.646985 4.050993a353.703447 353.703447 0 0 1 225.941647 348.586456 316.393506 316.393506 0 0 1-227.539645 301.575528l-6.982989 1.759998-955.202507-0.799999-8.900986-3.037995A298.483534 298.483534 0 0 1 1.332998 763.839407c-11.939981-136.716786 59.802907-260.374593 212.029669-331.903482l10.179984-4.796992 24.145962-1.225998C313.56851 200.131287 474.323259 69.490491 661.834966 69.810491a381.259404 381.259404 0 0 1 370.599421 294.16654l105.002836 3.570995zM947.42052 472.390862l-6.982989-50.155922A283.453557 283.453557 0 0 0 660.342968 166.39134c-150.414765 0-280.788561 113.583823-329.025486 325.667491l-10.126984 44.452931-90.611858 4.636992C123.657807 595.08867 78.991877 675.413545 86.666865 766.024403a208.565674 208.565674 0 0 0 92.796855 162.567746l965.91549 0.799999a215.441663 215.441663 0 0 0 141.779779-204.355681 251.099608 251.099608 0 0 0-153.82576-245.982616l-186.019709-6.34299z" fill="#54A5FF" p-id="6480"></path><path d="M1099.753282 662.247565a63.9609 63.9609 0 0 0-49.889922 20.893968 73.821885 73.821885 0 0 0-18.760971 51.754919h31.393951a58.629908 58.629908 0 0 1 9.647985-34.058947 30.807952 30.807952 0 0 1 26.649958-12.098981 36.084944 36.084944 0 0 1 24.944961 7.514988 30.913952 30.913952 0 0 1 8.314987 23.345964 45.358929 45.358929 0 0 1-12.57998 30.274952 176.691724 176.691724 0 0 1-26.276959 21.319967 260.054594 260.054594 0 0 0-43.972931 35.125945 73.821885 73.821885 0 0 0-19.027971 50.901921h133.198792v-27.609957H1068.99833a95.94085 95.94085 0 0 1 35.657944-33.792947 246.515615 246.515615 0 0 0 39.655938-30.859952 66.252896 66.252896 0 0 0 18.761971-45.306929 53.299917 53.299917 0 0 0-17.695973-41.573935 66.412896 66.412896 0 0 0-45.625928-15.829976z" fill="#54A5FF" p-id="6481"></path></svg>