<?xml version="1.0" standalone="no"?><!DOCTYPE svg PUBLIC "-//W3C//DTD SVG 1.1//EN" "http://www.w3.org/Graphics/SVG/1.1/DTD/svg11.dtd"><svg t="1694483755617" class="icon" viewBox="0 0 1024 1024" version="1.1" xmlns="http://www.w3.org/2000/svg" p-id="10777" xmlns:xlink="http://www.w3.org/1999/xlink" width="200" height="200"><path d="M569.846498 637.957196a35.397993 35.397993 0 0 1-40.358528-8.476254c-6.802675-7.657525-10.197993-18.92709-10.197993-33.832776 0-15.29097 3.371237-26.416053 10.197993-33.965217a36.758528 36.758528 0 0 1 52.808027 0c6.501672 7.139799 9.752508 18.192642 9.752508 33.158528s-3.407358 26.440133-10.210034 34.434782l-0.156521 0.204683c-3.323077 3.61204-7.344482 6.501672-11.847492 8.476254z" fill="#34B77C" p-id="10778"></path><path d="M652.947501 701.360539a76.527089 76.527089 0 0 0 36.98729-147.335115 51.014046 51.014046 0 0 1-32.496321-44.837457 71.422073 71.422073 0 0 0-113.056854-53.975919 51.014046 51.014046 0 0 1-59.586622 0 70.820066 70.820066 0 0 0-41.622741-13.424749 71.723076 71.723076 0 0 0-71.12107 65.353845 51.026086 51.026086 0 0 1-36.782608 44.789297 76.539129 76.539129 0 0 0 21.166555 150.044145c3.178595-0.01204 6.34515-0.216722 9.487625-0.602007a51.014046 51.014046 0 0 1 46.631438 19.384616 122.436119 122.436119 0 0 0 193.870231 0 51.002006 51.002006 0 0 1 46.523077-19.384616z m13.316387-48.870902c-3.672241 2.287625-6.164548 4.081605-7.392642 5.105017-1.191973 0.842809-2.263545 1.902341-3.563879 3.166555l-0.385284 0.385284-0.433445 0.421405h28.462876v14.905685h-54.746488c0.662207-5.502341 2.648829-10.751839 5.779264-15.31505a75.455517 75.455517 0 0 1 17.939799-16.832107c3.792642-2.564548 7.22408-5.610702 10.210034-9.07826a10.210033 10.210033 0 0 0 2.251505-5.863545 6.790635 6.790635 0 0 0-2.251505-5.105017 8.416053 8.416053 0 0 0-11.269566 0c-1.80602 2.203344-2.853512 4.912375-3.010033 7.753846l-18.264883-1.480936c0.457525-4.141806 1.80602-8.15117 3.925084-11.739131a18.0602 18.0602 0 0 1 8.11505-6.622073c4.611371-1.721739 9.511706-2.504348 14.43612-2.299666a40.454849 40.454849 0 0 1 15.002007 2.191305c3.431438 1.324415 6.381271 3.684281 8.464214 6.742474 2.046823 3.010033 3.106354 6.561873 3.058194 10.197994-0.02408 4.093645-1.252174 8.06689-3.515719 11.474247-3.503679 4.743813-7.838127 8.813378-12.810703 11.991973z m-219.214712-18.517726a39.178595 39.178595 0 0 0 11.426086-21.118394l25.501003 8.163211a57.443478 57.443478 0 0 1-19.938461 32.086956 56.119063 56.119063 0 0 1-34.904347 10.197993 56.528427 56.528427 0 0 1-43.055518-17.903679c-11.257525-11.907692-16.880267-28.210033-16.880267-48.919063 0-21.913043 5.658863-38.913712 16.976588-51.026086a58.069564 58.069564 0 0 1 44.548494-18.156521 54.589966 54.589966 0 0 1 39.226756 14.279598c6.597993 6.694314 11.233445 15.050167 13.424749 24.188628l-26.271572 6.26087a27.198662 27.198662 0 0 0-27.704347-22.033445 29.895652 29.895652 0 0 0-23.719064 10.462877c-6.068227 7.043478-9.090301 18.385284-9.0903 34.025417 0 16.783946 2.961873 28.679598 8.933779 35.711036a29.221404 29.221404 0 0 0 23.309698 10.559198c6.718395 0.132441 13.220067-2.287625 18.216723-6.778596z m79.994647-101.426085a72.349163 72.349163 0 0 1 28.366555-5.105017 61.826086 61.826086 0 0 1 46.474916 17.915719c11.630769 12.208695 17.446154 28.920401 17.446154 50.147157s-5.767224 37.84214-17.289632 49.846153a61.525083 61.525083 0 0 1-46.282274 17.951839 61.789966 61.789966 0 0 1-46.631438-17.903679c-11.570568-11.931772-17.337792-28.318394-17.337792-49.280267a84.341136 84.341136 0 0 1 6.020067-33.724414 62.512374 62.512374 0 0 1 12.244816-18.01204c4.791973-5.056856 10.571237-9.090301 16.976588-11.835451z" fill="#34B77C" p-id="10779"></path><path d="M150.464564 874.124417a511.705679 511.705679 0 1 1 723.660191-723.660192 511.705679 511.705679 0 0 1-723.660191 723.660192z m344.588624-621.981263a20.408026 20.408026 0 1 0 28.872241-28.8602 20.408026 20.408026 0 0 0-28.860201 28.8602z m-16.169899 87.604012a30.60602 30.60602 0 1 0 61.212039 0 30.60602 30.60602 0 0 0-61.212039 0zM251.625767 453.502349a30.61806 30.61806 0 1 0 56.576588-23.4301 30.61806 30.61806 0 0 0-56.576588 23.4301z m96.561871-103.990635a25.488963 25.488963 0 0 0 47.125083 0 25.525083 25.525083 0 0 0-33.327089-33.327089 25.501003 25.501003 0 0 0-13.810034 33.327089z m275.478258 5.105017a25.488963 25.488963 0 0 0 49.087624-9.752508 25.488963 25.488963 0 0 0-43.549163-18.060201 25.525083 25.525083 0 0 0-5.538461 27.812709z m106.073577-10.643478a20.408026 20.408026 0 1 0 28.8602-28.84816 20.408026 20.408026 0 0 0-28.8602 28.84816z m-474.465546 5.105017a20.408026 20.408026 0 1 0 28.872241-28.860201 20.408026 20.408026 0 0 0-28.872241 28.860201z m131.779263-96.056186a15.31505 15.31505 0 1 0 30.64214 0 15.31505 15.31505 0 0 0-30.64214 0z m204.068224 15.303009a15.30301 15.30301 0 1 0 30.60602 0 15.30301 15.30301 0 0 0-30.60602 0z m122.448159 168.357189a30.6301 30.6301 0 0 0 30.60602 30.61806 30.60602 30.60602 0 1 0-30.61806-30.61806z m-25.633444 8.283612a122.448159 122.448159 0 0 0-173.341804-31.183946 122.436119 122.436119 0 0 0-193.412706 89.21739 127.541135 127.541135 0 0 0 35.253511 250.001334c5.309699 0 10.607358-0.349164 15.868896-1.023411a173.474245 173.474245 0 0 0 274.370565 0 127.541135 127.541135 0 0 0 61.777926-245.594646 122.448159 122.448159 0 0 0-20.516388-61.404681z" fill="#34B77C" p-id="10780"></path></svg>