<?xml version="1.0" standalone="no"?><!DOCTYPE svg PUBLIC "-//W3C//DTD SVG 1.1//EN" "http://www.w3.org/Graphics/SVG/1.1/DTD/svg11.dtd"><svg t="1694483641441" class="icon" viewBox="0 0 1024 1024" version="1.1" xmlns="http://www.w3.org/2000/svg" p-id="6276" xmlns:xlink="http://www.w3.org/1999/xlink" width="200" height="200"><path d="M512 12.8C236.7488 12.8 12.8 236.7488 12.8 512s223.9488 499.2 499.2 499.2a496.384 496.384 0 0 0 448.3072-279.296 38.4 38.4 0 0 0-68.9664-33.8944A420.0448 420.0448 0 0 1 512 934.4c-232.9088 0-422.4-189.4912-422.4-422.4S279.0912 89.6 512 89.6s422.4 189.4912 422.4 422.4a38.4 38.4 0 0 0 76.8 0c0-275.2512-223.9488-499.2-499.2-499.2z" fill="#438CFF" p-id="6277"></path><path d="M766.976 503.3984m-51.2 0a51.2 51.2 0 1 0 102.4 0 51.2 51.2 0 1 0-102.4 0Z" fill="#438CFF" p-id="6278"></path><path d="M511.9488 145.0496a38.4 38.4 0 0 0-38.4 38.4v328.4992c0 21.1968 17.2032 38.4 38.4 38.4h117.4016a38.4 38.4 0 0 0 0-76.8h-79.0016V183.4496a38.4 38.4 0 0 0-38.4-38.4z" fill="#438CFF" p-id="6279"></path></svg>