<?xml version="1.0" standalone="no"?><!DOCTYPE svg PUBLIC "-//W3C//DTD SVG 1.1//EN" "http://www.w3.org/Graphics/SVG/1.1/DTD/svg11.dtd"><svg t="1692782119743" class="icon" viewBox="0 0 1024 1024" version="1.1" xmlns="http://www.w3.org/2000/svg" p-id="4041" xmlns:xlink="http://www.w3.org/1999/xlink" width="200" height="200"><path d="M583.68 266.24c-17.408 0-30.72-13.312-30.72-30.72v-40.96c0-17.408 13.312-30.72 30.72-30.72s30.72 13.312 30.72 30.72v40.96c0 17.408-13.312 30.72-30.72 30.72zM416.768 334.848c-12.288 12.288-31.744 12.288-43.008 0l-28.672-28.672c-12.288-12.288-12.288-31.744 0-43.008 12.288-12.288 31.744-12.288 43.008 0l28.672 28.672c12.288 12.288 12.288 31.744 0 43.008zM921.6 501.76c0 17.408-13.312 30.72-30.72 30.72h-40.96c-17.408 0-30.72-13.312-30.72-30.72s13.312-30.72 30.72-30.72h40.96c17.408 0 30.72 13.312 30.72 30.72zM822.272 263.168c12.288 12.288 12.288 31.744 0 43.008l-28.672 28.672c-12.288 12.288-31.744 12.288-43.008 0-12.288-12.288-12.288-31.744 0-43.008l28.672-28.672c12.288-12.288 31.744-12.288 43.008 0zM456.704 460.8c18.432-57.344 74.752-97.28 140.288-91.136 59.392 5.12 109.568 52.224 118.784 111.616 7.168 44.032-8.192 84.992-34.816 113.664h75.776c17.408-33.792 27.648-72.704 21.504-116.736C765.952 389.12 694.272 317.44 605.184 308.224c-102.4-10.24-190.464 58.368-210.944 152.576h62.464z" fill="#59C1F7" p-id="4042"></path><path d="M348.16 481.28c72.704 0 139.264 43.008 168.96 109.568l20.48 46.08c5.12 11.264 19.456 15.36 29.696 8.192l40.96-28.672c21.504-15.36 47.104-22.528 72.704-22.528 4.096 0 8.192 0 12.288 1.024 59.392 5.12 108.544 53.248 115.712 111.616 4.096 36.864-6.144 71.68-30.72 99.328-23.552 26.624-57.344 43.008-93.184 44.032H348.16c-52.224 0-102.4-22.528-137.216-61.44-35.84-39.936-51.2-91.136-46.08-144.384 9.216-83.968 76.8-152.576 161.792-161.792 7.168-1.024 14.336-1.024 21.504-1.024m0-61.44c-9.216 0-19.456 1.024-28.672 2.048-112.64 12.288-202.752 103.424-216.064 216.064C88.064 785.408 202.752 911.36 348.16 911.36h337.92c109.568-3.072 195.584-98.304 183.296-211.968-10.24-88.064-82.944-158.72-171.008-165.888-6.144-1.024-11.264-1.024-17.408-1.024-39.936 0-77.824 12.288-107.52 33.792C534.528 480.256 448.512 419.84 348.16 419.84z" fill="#59C1F7" p-id="4043"></path></svg>