<?xml version="1.0" standalone="no"?><!DOCTYPE svg PUBLIC "-//W3C//DTD SVG 1.1//EN" "http://www.w3.org/Graphics/SVG/1.1/DTD/svg11.dtd"><svg t="1694425821873" class="icon" viewBox="0 0 1024 1024" version="1.1" xmlns="http://www.w3.org/2000/svg" p-id="4024" xmlns:xlink="http://www.w3.org/1999/xlink" width="200" height="200"><path d="M406.887 47.47h210.226v248.654H406.887z" fill="#5478EB" p-id="4025"></path><path d="M617.113 334.552H406.887c-20.344 0-38.428-18.084-38.428-38.428V47.47c0-20.344 18.084-38.428 38.428-38.428h210.226c20.344 0 38.428 18.084 38.428 38.428v248.654c0 20.344-18.084 38.428-38.428 38.428z m-171.797-76.857h133.368V83.638H445.316v174.057z m-38.429 472.442h210.226V978.79H406.887z" fill="#5478EB" p-id="4026"></path><path d="M617.113 1017.219H406.887c-20.344 0-38.428-18.084-38.428-38.429V730.137c0-20.345 18.084-38.428 38.428-38.428h210.226c20.344 0 38.428 18.083 38.428 38.428V978.79c0 20.345-18.084 38.429-38.428 38.429z m-171.797-76.857h133.368V766.305H445.316v174.057zM56.829 369.59L161.94 187.53l215.334 124.327-105.113 182.06z" fill="#5478EB" p-id="4027"></path><path d="M273.519 533.475c-6.782 0-13.563-2.26-18.084-4.521L38.428 404.627c-18.084-11.302-24.865-33.907-13.563-51.991l103.983-180.84c9.042-20.343 33.907-27.125 51.99-15.822L397.846 280.3c9.042 4.521 15.824 13.563 18.084 22.605s2.26 20.344-4.52 29.386l-103.983 180.84c-9.042 13.562-22.605 20.344-33.907 20.344zM108.503 357.157l149.192 85.898L325.51 327.77l-149.192-85.898-67.815 115.285zM647.403 711.76L752.516 529.7l215.356 124.326-105.112 182.06z" fill="#5478EB" p-id="4028"></path><path d="M863.506 874.808c-6.782 0-13.563-2.26-18.084-4.521L628.415 745.96c-9.042-4.52-15.823-13.563-18.084-22.605-2.26-9.042-2.26-20.344 4.521-29.386L718.834 513.13c11.303-18.084 33.908-24.865 51.992-13.563l217.006 124.327c18.084 11.302 24.866 33.907 13.563 51.991l-103.982 180.84c-4.521 9.041-13.563 15.822-22.605 18.083h-11.302zM700.75 698.49l149.192 85.899 67.814-115.285-149.192-85.899-67.814 115.285zM160.947 835.702L55.834 653.642l215.334-124.327 105.112 182.06z" fill="#5478EB" p-id="4029"></path><path d="M160.494 874.808c-13.562 0-24.865-6.782-33.907-18.084L22.605 675.885c-9.042-20.344-2.26-42.949 15.823-54.251l217.007-124.327c18.084-11.303 40.689-4.521 51.991 13.563l103.982 180.839c4.521 9.042 6.782 18.083 4.521 29.386-2.26 9.042-9.042 18.084-18.084 22.605L180.84 870.287c-6.782 2.26-13.563 4.52-20.345 4.52z m-51.99-205.704l67.814 115.285L325.51 698.49l-67.815-115.285-149.192 85.899zM752.403 495.43L647.29 313.372l215.334-124.327 105.113 182.06z" fill="#5478EB" p-id="4030"></path><path d="M752.742 533.475c-13.563 0-24.866-6.782-33.908-18.084L614.852 334.55c-4.52-9.041-6.781-18.083-4.52-29.385 2.26-9.042 9.041-18.084 18.083-22.605l217.007-124.327c9.042-4.521 18.084-6.781 29.386-4.521 9.042 2.26 18.084 9.042 22.605 18.084l103.982 180.839c11.303 18.084 4.521 40.689-13.563 51.99L770.826 528.955c-4.521 2.26-11.303 4.52-18.084 4.52zM700.75 327.77l67.814 115.285 149.192-85.898-67.814-115.285L700.75 327.77z" fill="#5478EB" p-id="4031"></path><path d="M513.13 128.848c-212.485 0-386.543 171.797-386.543 386.543S298.384 901.934 513.13 901.934 899.673 730.137 899.673 515.39 725.616 128.848 513.13 128.848z m0 556.08c-94.94 0-169.536-76.857-169.536-169.537S420.45 345.854 513.13 345.854s169.537 76.857 169.537 169.537S605.81 684.927 513.13 684.927z" fill="#5478EB" p-id="4032"></path></svg>