<?xml version="1.0" standalone="no"?><!DOCTYPE svg PUBLIC "-//W3C//DTD SVG 1.1//EN" "http://www.w3.org/Graphics/SVG/1.1/DTD/svg11.dtd"><svg t="1694483683079" class="icon" viewBox="0 0 1024 1024" version="1.1" xmlns="http://www.w3.org/2000/svg" p-id="9671" xmlns:xlink="http://www.w3.org/1999/xlink" width="200" height="200"><path d="M737.5872 851.2l3.2768-0.1536A32 32 0 0 0 769.5872 819.2l0.0256-349.8752h63.104c29.44 0 43.264-36.4544 21.1968-55.9872L533.1968 129.6384a32 32 0 0 0-42.3936 0L170.0864 413.3376l-2.2272 2.1504c-18.8416 19.9168-4.992 53.8112 23.424 53.8112l63.1552 0.0256L254.4128 819.2c0 17.664 14.336 32 32 32h451.1744z m-419.1744-64V437.3248l-0.1536-3.2768a32 32 0 0 0-31.8208-28.7232l-10.7008 0.0256L512 196.352l236.288 208.9984-10.6752-0.0256-3.2768 0.1536a32 32 0 0 0-28.7232 31.8464V787.2H318.4128z" fill="#FB553C" p-id="9672"></path><path d="M396.3904 478.6688m32 0l167.2192 0q32 0 32 32l0 0q0 32-32 32l-167.2192 0q-32 0-32-32l0 0q0-32 32-32Z" fill="#FB553C" p-id="9673"></path><path d="M396.3904 568.8832m32 0l167.2192 0q32 0 32 32l0 0q0 32-32 32l-167.2192 0q-32 0-32-32l0 0q0-32 32-32Z" fill="#FB553C" p-id="9674"></path><path d="M544 485.2736m0 32l0 167.2192q0 32-32 32l0 0q-32 0-32-32l0-167.2192q0-32 32-32l0 0q32 0 32 32Z" fill="#FB553C" p-id="9675"></path><path d="M436.700541 360.597707m22.627417 22.627417l72.226715 72.226715q22.627417 22.627417 0 45.254834l0 0q-22.627417 22.627417-45.254834 0l-72.226715-72.226715q-22.627417-22.627417 0-45.254834l0 0q22.627417-22.627417 45.254834 0Z" fill="#FB553C" p-id="9676"></path><path d="M629.617792 405.486642m-22.627417 22.627417l-72.226716 72.226716q-22.627417 22.627417-45.254834 0l0 0q-22.627417-22.627417 0-45.254834l72.226716-72.226716q22.627417-22.627417 45.254834 0l0 0q22.627417 22.627417 0 45.254834Z" fill="#FB553C" p-id="9677"></path></svg>