<?xml version="1.0" encoding="utf-8"?>
<svg version="1.1" xmlns:xlink="http://www.w3.org/1999/xlink" width="21px" height="22px" xmlns="http://www.w3.org/2000/svg">
  <defs>
    <mask fill="white" id="clip73">
      <path d="M 8.8330078125 0.329861111111086  C 8.94433593749997 0.549768518518533  9 0.81018518518519  9 1.11111111111109  C 9 1.41203703703701  8.94433593749997 1.67245370370367  8.8330078125 1.89236111111109  L 4.8955078125 9.67013888888891  C 4.78417968750003 9.89004629629633  4.65234375000003 10  4.5 10  C 4.34765624999997 10  4.21582031249997 9.89004629629633  4.1044921875 9.67013888888891  L 0.1669921875 1.89236111111109  C 0.0556640625000262 1.67245370370367  0 1.41203703703701  0 1.11111111111109  C 0 0.81018518518519  0.0556640625000262 0.549768518518533  0.1669921875 0.329861111111086  C 0.278320312499974 0.109953703703667  0.410156249999974 0  0.5625 0  L 8.4375 0  C 8.58984375000003 0  8.72167968750003 0.109953703703667  8.8330078125 0.329861111111086  Z " fill-rule="evenodd" />
    </mask>
    <filter x="251px" y="22px" width="21px" height="22px" filterUnits="userSpaceOnUse" id="filter74">
      <feOffset dx="1" dy="1" in="SourceAlpha" result="shadowOffsetInner" />
      <feGaussianBlur stdDeviation="3" in="shadowOffsetInner" result="shadowGaussian" />
      <feComposite in2="shadowGaussian" operator="atop" in="SourceAlpha" result="shadowComposite" />
      <feColorMatrix type="matrix" values="0 0 0 0 0  0 0 0 0 0  0 0 0 0 0  0 0 0 0.349019607843137 0  " in="shadowComposite" />
    </filter>
    <g id="widget75">
      <path d="M 8.8330078125 0.329861111111086  C 8.94433593749997 0.549768518518533  9 0.81018518518519  9 1.11111111111109  C 9 1.41203703703701  8.94433593749997 1.67245370370367  8.8330078125 1.89236111111109  L 4.8955078125 9.67013888888891  C 4.78417968750003 9.89004629629633  4.65234375000003 10  4.5 10  C 4.34765624999997 10  4.21582031249997 9.89004629629633  4.1044921875 9.67013888888891  L 0.1669921875 1.89236111111109  C 0.0556640625000262 1.67245370370367  0 1.41203703703701  0 1.11111111111109  C 0 0.81018518518519  0.0556640625000262 0.549768518518533  0.1669921875 0.329861111111086  C 0.278320312499974 0.109953703703667  0.410156249999974 0  0.5625 0  L 8.4375 0  C 8.58984375000003 0  8.72167968750003 0.109953703703667  8.8330078125 0.329861111111086  Z " fill-rule="nonzero" fill="#666666" stroke="none" transform="matrix(1 0 0 1 256 27 )" />
      <path d="M 8.8330078125 0.329861111111086  C 8.94433593749997 0.549768518518533  9 0.81018518518519  9 1.11111111111109  C 9 1.41203703703701  8.94433593749997 1.67245370370367  8.8330078125 1.89236111111109  L 4.8955078125 9.67013888888891  C 4.78417968750003 9.89004629629633  4.65234375000003 10  4.5 10  C 4.34765624999997 10  4.21582031249997 9.89004629629633  4.1044921875 9.67013888888891  L 0.1669921875 1.89236111111109  C 0.0556640625000262 1.67245370370367  0 1.41203703703701  0 1.11111111111109  C 0 0.81018518518519  0.0556640625000262 0.549768518518533  0.1669921875 0.329861111111086  C 0.278320312499974 0.109953703703667  0.410156249999974 0  0.5625 0  L 8.4375 0  C 8.58984375000003 0  8.72167968750003 0.109953703703667  8.8330078125 0.329861111111086  Z " stroke-width="2" stroke="#e4e4e4" fill="none" transform="matrix(1 0 0 1 256 27 )" mask="url(#clip73)" />
    </g>
  </defs>
  <g transform="matrix(1 0 0 1 -251 -22 )">
    <use xlink:href="#widget75" filter="url(#filter74)" />
    <use xlink:href="#widget75" />
  </g>
</svg>