<?xml version="1.0" encoding="utf-8"?>
<svg version="1.1" xmlns:xlink="http://www.w3.org/1999/xlink" width="65px" height="25px" xmlns="http://www.w3.org/2000/svg">
  <g transform="matrix(1 0 0 1 -84 -473 )">
    <path d="M 85 478  A 4 4 0 0 1 89 474 L 144 474  A 4 4 0 0 1 148 478 L 148 493  A 4 4 0 0 1 144 497 L 89 497  A 4 4 0 0 1 85 493 L 85 478  Z " fill-rule="nonzero" fill="#f0f7ff" stroke="none" />
    <path d="M 84.5 478  A 4.5 4.5 0 0 1 89 473.5 L 144 473.5  A 4.5 4.5 0 0 1 148.5 478 L 148.5 493  A 4.5 4.5 0 0 1 144 497.5 L 89 497.5  A 4.5 4.5 0 0 1 84.5 493 L 84.5 478  Z " stroke-width="1" stroke="#7abbff" fill="none" stroke-opacity="0.996078431372549" />
  </g>
</svg>