<?xml version="1.0" encoding="utf-8"?>
<svg version="1.1" xmlns:xlink="http://www.w3.org/1999/xlink" width="30px" height="30px" xmlns="http://www.w3.org/2000/svg">
  <g transform="matrix(1 0 0 1 -264 -273 )">
    <path d="M 264.5 278  A 4.5 4.5 0 0 1 269 273.5 L 289 273.5  A 4.5 4.5 0 0 1 293.5 278 L 293.5 298  A 4.5 4.5 0 0 1 289 302.5 L 269 302.5  A 4.5 4.5 0 0 1 264.5 298 L 264.5 278  Z " fill-rule="nonzero" fill="#f0f7ff" stroke="none" />
    <path d="M 264.5 278  A 4.5 4.5 0 0 1 269 273.5 L 289 273.5  A 4.5 4.5 0 0 1 293.5 278 L 293.5 298  A 4.5 4.5 0 0 1 289 302.5 L 269 302.5  A 4.5 4.5 0 0 1 264.5 298 L 264.5 278  Z " stroke-width="1" stroke="#409eff" fill="none" />
  </g>
</svg>