<svg t="1631588785204" class="icon" viewBox="0 0 1024 1024" version="1.1" xmlns="http://www.w3.org/2000/svg" p-id="5929" width="18" height="18"><path d="M171.51009451 395.06116494h112.83974826v69.19457679H171.51009451zM362.48712647 395.06116494h112.83974827v69.19457679h-112.83974827zM734.75394901 395.06116494h112.83974827v69.19457679h-112.83974827zM171.51009451 541.75782002h112.83974826v69.19457678H171.51009451zM362.48712647 541.75782002h112.83974827v69.19457678h-112.83974827zM734.75394901 541.75782002h112.83974827v69.19457678h-112.83974827zM547.92859193 541.75782002h112.83974826v69.19457678h-112.83974826zM171.51009451 687.768064h112.83974826v69.19457678H171.51009451zM734.75394901 687.768064h112.83974827v69.19457678h-112.83974827zM547.92859193 687.768064h112.83974826v69.19457678h-112.83974826zM600.50539975 371.99584483c-31.84611214 0-57.6626085 25.81649635-57.66260964 57.6626085s25.81649635 57.6626085 57.66260964 57.6626085 57.6626085-25.81649635 57.6626085-57.6626085c-0.00138354-31.84611214-25.81649635-57.6626085-57.6626085-57.6626085z m35.76944412 44.88652232l-33.60780629 33.60780629a13.59950165 13.59950165 0 0 1-3.60780459 2.59756373 6.4046501 6.4046501 0 0 1-0.74868622 0.92720697c-2.71934691 2.71934691-7.26404665 2.58372494-10.14946019-0.30168747l-24.85884359-24.85884358c-2.88679822-2.88679822-3.02103552-7.43011328-0.30168861-10.14946134s7.26404665-2.58372494 10.14946133 0.3016886l20.65319709 20.65319709 32.62385835-32.62385835c3.90118969-3.90118969 9.26930603-4.86022713 11.98865294-2.14088021s1.76030947 8.08607858-2.14088022 11.98726827zM418.90700061 664.70274389c-31.84611214 0-57.6626085 25.81649635-57.6626085 57.6626085s25.81649635 57.6626085 57.6626085 57.6626085 57.6626085-25.81649635 57.66260849-57.6626085c-0.00138354-31.84611214-25.81649635-57.6626085-57.66260849-57.6626085z m35.76944412 44.88652118l-33.6078063 33.60780629a13.59950165 13.59950165 0 0 1-3.60780458 2.59756487 6.4046501 6.4046501 0 0 1-0.74868508 0.92720697c-2.71934691 2.71934691-7.26404665 2.58372494-10.14946134-0.30168861l-24.85884359-24.85884358c-2.88679822-2.88679822-3.02103552-7.43011328-0.30168747-10.1494602s7.26404665-2.58372494 10.1494602 0.3016886l20.65319708 20.65319709 32.62385949-32.62385949c3.90118969-3.90118969 9.26930603-4.86022713 11.9886518-2.14088021 2.71934691 2.71796338 1.76169415 8.08607858-2.14088021 11.98726827z" fill="#cdcdcd" p-id="5930"></path><path d="M870.52893184 193.0130011h-75.36396515v55.51480946c0 22.07722155-17.89648555 39.97370709-39.9737071 39.97370709-22.07722155 0-39.97370709-17.89648555-39.97370709-39.97370709v-55.51480946h-86.12095431v55.51480946c0 22.07722155-17.89648555 39.97370709-39.9737071 39.97370709s-39.97370709-17.89648555-39.97370709-39.97370709v-55.51480946H471.17519986v55.51480946c0 22.07722155-17.89648555 39.97370709-39.97370709 39.97370709s-39.97370709-17.89648555-39.9737071-39.97370709v-55.51480946h-86.11956964v55.51480946c0 22.07722155-17.89648555 39.97370709-39.97370709 39.97370709S225.16080185 270.60503211 225.16080185 248.52781056v-55.51480946H153.54164679c-25.99778645 0-47.07445419 21.07528419-47.07445418 47.07445419V782.53003662c0 25.99778645 21.07528419 47.07445419 47.07445418 47.07445419h716.98866859c25.99778645 0 47.07445419-21.07528419 47.07445419-47.07445419V240.08745529c-0.00138354-25.99916999-21.07666773-47.07445419-47.07583773-47.07445419z m26.31608093 569.32190663c0 24.66786645-19.99723293 44.66509938-44.66509938 44.66509938H171.89066411c-24.66786645 0-44.66509938-19.99723293-44.66509824-44.66509938V341.08939491h769.6194469v421.24551282z" fill="#cdcdcd" p-id="5931"></path><path d="M278.81427627 249.75255438c0 7.64323271-6.19568242 13.83891513-13.83891513 13.83891513s-13.83891513-6.19568242-13.83891513-13.83891513v-88.56905841c0-7.64323271 6.19568242-13.83891513 13.83891513-13.83891514s13.83891513 6.19568242 13.83891513 13.83891514v88.56905841zM444.88126009 249.75255438c0 7.64323271-6.19568242 13.83891513-13.83891513 13.83891513s-13.83891513-6.19568242-13.83891513-13.83891513v-88.56905841c0-7.64323271 6.19568242-13.83891513 13.83891513-13.83891514s13.83891513 6.19568242 13.83891513 13.83891514v88.56905841zM605.41267854 249.75255438c0 7.64323271-6.19568242 13.83891513-13.83891513 13.83891513s-13.83891513-6.19568242-13.83891512-13.83891513v-88.56905841c0-7.64323271 6.19568242-13.83891513 13.83891512-13.83891514s13.83891513 6.19568242 13.83891513 13.83891514v88.56905841zM771.47966237 249.75255438c0 7.64323271-6.19568242 13.83891513-13.83891514 13.83891513s-13.83891513-6.19568242-13.83891512-13.83891513v-88.56905841c0-7.64323271 6.19568242-13.83891513 13.83891512-13.83891514s13.83891513 6.19568242 13.83891514 13.83891514v88.56905841z" fill="#cdcdcd" p-id="5932"></path></svg>