<?xml version="1.0" encoding="utf-8"?>
<svg version="1.1" xmlns:xlink="http://www.w3.org/1999/xlink" width="50px" height="25px" xmlns="http://www.w3.org/2000/svg">
  <g transform="matrix(1 0 0 1 -183 -339 )">
    <path d="M 183.5 342  A 2.5 2.5 0 0 1 186 339.5 L 230 339.5  A 2.5 2.5 0 0 1 232.5 342 L 232.5 361  A 2.5 2.5 0 0 1 230 363.5 L 186 363.5  A 2.5 2.5 0 0 1 183.5 361 L 183.5 342  Z " fill-rule="nonzero" fill="#ffffff" stroke="none" />
    <path d="M 183.5 342  A 2.5 2.5 0 0 1 186 339.5 L 230 339.5  A 2.5 2.5 0 0 1 232.5 342 L 232.5 361  A 2.5 2.5 0 0 1 230 363.5 L 186 363.5  A 2.5 2.5 0 0 1 183.5 361 L 183.5 342  Z " stroke-width="1" stroke="#e4e4e4" fill="none" />
  </g>
</svg>