<?xml version="1.0" encoding="utf-8"?>
<svg version="1.1" xmlns:xlink="http://www.w3.org/1999/xlink" width="176px" height="150px" xmlns="http://www.w3.org/2000/svg">
  <g transform="matrix(1 0 0 1 -33 -924 )">
    <path d="M 79 102  L 94 102  L 94 132  L 127 132  L 127 150  L 46 150  L 46 132  L 79 132  L 79 102  Z M 30.8083333984375 75  L 30.8083333984375 74.9958333984375  L 25.1416666015625 100  L 8.8291666015625 100  C 8.82821556452211 100.00000032561  8.82726452743009 100.000000488415  8.82631349033396 100.000000488415  C 4.2239405391213 100.000000488415  0.492980091896456 96.2690400411898  0.492980091896456 91.6666670899772  C 0.492980091896456 90.8886492142954  0.601933623952476 90.1144644106039  0.816666601562503 89.3666666015625  L 4.9416666015625 75  L 30.8083333984375 75  Z M 39.2291666015625 75  L 83 75  L 83 100  L 33.5666666015625 100  L 39.2291666015625 75  Z M 90 75  L 139.333333398438 75  L 144.995833398437 100  L 90 100  L 90 75  Z M 147.75 75  L 171.054166601563 75  L 175.179166601563 89.3708333984375  C 175.39311050405 90.1173469390544  175.501657741001 90.8901011676904  175.501657741001 91.6666669792842  C 175.501657741001 96.2680601137612  171.772226324349 99.9986145817139  167.170833398437 100  L 153.416666601562 100  L 147.75 75  Z M 12.1208333984375 50  L 36.4708333984375 50  L 32.6958333984375 67  L 7.3333333984375 67  L 12.1208333984375 50  Z M 44.8916666015625 50  L 83 50  L 83 67  L 41.1125 67  L 44.8916666015625 50  Z M 133.666666601562 50  L 133.670833398437 49.9958333984375  L 137.445833398437 67  L 90 67  L 90 50  L 133.666666601562 50  Z M 142.0875 50  L 163.875 50  L 168.658333398438 67  L 145.8625 67  L 142.0875 50  Z M 42.1291666015625 25  L 42.1333333984375 24.9958333984375  L 38.3583333984375 42  L 14.5125 42  L 19.2958333984375 25  L 42.1291666015625 25  Z M 50.5541666015625 25  L 83 25  L 83 42  L 46.7791666015625 42  L 50.5541666015625 25  Z M 90 25  L 108.666666666664 25  L 128.008333398438 25  L 131.783333398437 42  L 90 42  L 90 25  Z M 136.425 25  L 156.695833398438 25  L 161.479166601562 42  L 140.2 42  L 136.425 25  Z M 47.7916666015625 0  L 47.7958333984375 0  L 44.0208333984375 17  L 21.6916666015625 17  L 24.7458333984375 6.03750000000002  C 25.7695058216545 2.46559939774681  29.0343075638145 0.00297692878882572  32.75 0  L 47.7916666015625 0  Z M 56.2166666015625 0  L 83 0  L 83 17  L 52.4416666015625 17  L 56.2166666015625 0  Z M 90 0  L 122.345833398437 0  L 126.120833398437 17  L 90 17  L 90 0  Z M 130.7625 0  L 143.245833398437 0  C 146.961906967368 0.000585886107842271  150.228530337989 2.46160085416579  151.254166601563 6.03333339843755  L 154.304166601563 17  L 134.5375 17  L 130.7625 0  Z " fill-rule="nonzero" fill="#000000" stroke="none" transform="matrix(1 0 0 1 33 924 )" />
  </g>
</svg>