<?xml version="1.0" encoding="utf-8"?>
<svg version="1.1" xmlns:xlink="http://www.w3.org/1999/xlink" width="22px" height="20px" xmlns="http://www.w3.org/2000/svg">
  <g transform="matrix(1 0 0 1 -1238 -461 )">
    <path d="M 12.600341796875 0.898720703125003  C 12.23375 0.533095703125002  11.64125 0.533095703125002  11.274716796875 0.89962890625  C 10.908125 1.266220703125  10.908125 1.858662109375  11.274716796875 2.22525390625  L 18.111904296875 9  L 1.625029296875 9  C 1.1075 9.06244140625  0.687499999999999 9.48244140625  0.687499999999999 9.999970703125  C 0.687499999999999 10.5175  1.1075 10.9375  1.625029296875 11  L 18.111904296875 11  L 11.274716796875 17.7746875  C 10.908125 18.141279296875  10.908125 18.733720703125  11.274716796875 19.1003125  C 11.64130859375 19.466904296875  12.23375 19.466904296875  12.600341796875 19.1003125  L 21.03693359375 10.662783203125  C 21.12412109375 10.5765625  21.19255859375 10.4725  21.24037109375 10.3571875  C 21.28818359375 10.24375  21.312529296875 10.121875  21.312529296875 9.999970703125  C 21.312529296875 9.878125  21.288125 9.75619140625  21.24037109375 9.641845703125  C 21.19255859375 9.526533203125  21.12412109375 9.4234375  21.03693359375 9.33625  L 12.600341796875 0.898720703125003  Z " fill-rule="nonzero" fill="#999999" stroke="none" transform="matrix(1 0 0 1 1238 461 )" />
  </g>
</svg>