<?xml version="1.0" encoding="utf-8"?>
<svg version="1.1" xmlns:xlink="http://www.w3.org/1999/xlink" width="300px" height="44px" xmlns="http://www.w3.org/2000/svg">
  <g transform="matrix(1 0 0 1 -31 -174 )">
    <path d="M 31.5 178  A 3.5 3.5 0 0 1 35 174.5 L 327 174.5  A 3.5 3.5 0 0 1 330.5 178 L 330.5 214  A 3.5 3.5 0 0 1 327 217.5 L 35 217.5  A 3.5 3.5 0 0 1 31.5 214 L 31.5 178  Z " fill-rule="nonzero" fill="#666ee8" stroke="none" fill-opacity="0.0196078431372549" />
    <path d="M 31.5 178  A 3.5 3.5 0 0 1 35 174.5 L 327 174.5  A 3.5 3.5 0 0 1 330.5 178 L 330.5 214  A 3.5 3.5 0 0 1 327 217.5 L 35 217.5  A 3.5 3.5 0 0 1 31.5 214 L 31.5 178  Z " stroke-width="1" stroke="#666ee8" fill="none" />
  </g>
</svg>