<?xml version="1.0" encoding="utf-8"?>
<svg version="1.1" xmlns:xlink="http://www.w3.org/1999/xlink" width="12px" height="12px" xmlns="http://www.w3.org/2000/svg">
  <g transform="matrix(1 0 0 1 0 -2 )">
    <path d="M 12 1.33333333333333  C 12 0.596666666666667  11.4033333333333 0  10.6666666666667 0  L 1.33333333333333 0  C 0.596666666666667 0  0 0.596666666666667  0 1.33333333333333  L 0 10.6666666666667  C 0 11.4033333333333  0.596666666666667 12  1.33333333333333 12  L 10.6666666666667 12  C 11.4033333333333 12  12 11.4033333333333  12 10.6666666666667  L 12 1.33333333333333  Z M 10.6666666666667 3.33333333333333  L 4.66666666666667 9.33333333333333  L 1.33333333333333 6  L 2.27666666666667 5.05666666666667  L 4.66666666666667 7.44666666666667  L 9.72333333333333 2.39  L 10.6666666666667 3.33333333333333  Z " fill-rule="nonzero" fill="#666ee8" stroke="none" transform="matrix(1 0 0 1 0 2 )" />
  </g>
</svg>