<?xml version="1.0" encoding="utf-8"?>
<svg version="1.1" xmlns:xlink="http://www.w3.org/1999/xlink" width="12px" height="12px" xmlns="http://www.w3.org/2000/svg">
  <defs>
    <mask fill="white" id="clip434">
      <path d="M 1.33333333333333 1.33333333333333  L 10.6666666666667 1.33333333333333  L 10.6666666666667 10.6666666666667  L 1.33333333333333 10.6666666666667  L 1.33333333333333 1.33333333333333  Z M 12 1.33333333333333  C 12 0.596666666666667  11.4033333333333 0  10.6666666666667 0  L 1.33333333333333 0  C 0.596666666666667 0  0 0.596666666666667  0 1.33333333333333  L 0 10.6666666666667  C 0 11.4033333333333  0.596666666666667 12  1.33333333333333 12  L 10.6666666666667 12  C 11.4033333333333 12  12 11.4033333333333  12 10.6666666666667  L 12 1.33333333333333  Z " fill-rule="evenodd" />
    </mask>
  </defs>
  <g transform="matrix(1 0 0 1 0 -2 )">
    <path d="M 1.33333333333333 1.33333333333333  L 10.6666666666667 1.33333333333333  L 10.6666666666667 10.6666666666667  L 1.33333333333333 10.6666666666667  L 1.33333333333333 1.33333333333333  Z M 12 1.33333333333333  C 12 0.596666666666667  11.4033333333333 0  10.6666666666667 0  L 1.33333333333333 0  C 0.596666666666667 0  0 0.596666666666667  0 1.33333333333333  L 0 10.6666666666667  C 0 11.4033333333333  0.596666666666667 12  1.33333333333333 12  L 10.6666666666667 12  C 11.4033333333333 12  12 11.4033333333333  12 10.6666666666667  L 12 1.33333333333333  Z " fill-rule="nonzero" fill="#f2f2f2" stroke="none" transform="matrix(1 0 0 1 0 2 )" />
    <path d="M 1.33333333333333 1.33333333333333  L 10.6666666666667 1.33333333333333  L 10.6666666666667 10.6666666666667  L 1.33333333333333 10.6666666666667  L 1.33333333333333 1.33333333333333  Z " stroke-width="2" stroke="#666ee8" fill="none" transform="matrix(1 0 0 1 0 2 )" mask="url(#clip434)" />
    <path d="M 12 1.33333333333333  C 12 0.596666666666667  11.4033333333333 0  10.6666666666667 0  L 1.33333333333333 0  C 0.596666666666667 0  0 0.596666666666667  0 1.33333333333333  L 0 10.6666666666667  C 0 11.4033333333333  0.596666666666667 12  1.33333333333333 12  L 10.6666666666667 12  C 11.4033333333333 12  12 11.4033333333333  12 10.6666666666667  L 12 1.33333333333333  Z " stroke-width="2" stroke="#666ee8" fill="none" transform="matrix(1 0 0 1 0 2 )" mask="url(#clip434)" />
  </g>
</svg>