<?xml version="1.0" encoding="utf-8"?>
<svg version="1.1" xmlns:xlink="http://www.w3.org/1999/xlink" width="131px" height="107px" xmlns="http://www.w3.org/2000/svg">
  <g transform="matrix(1 0 0 1 -532 -227 )">
    <path d="M 128.93052340625 106.978170333984  L 128.932706398437 107  L 2.04762505175781 107  C 0.917749178674581 106.975768864079  0.00240146990527245 106.06042115531  0 104.930545282227  C 0.00360077866876522 103.801522012788  0.918598583751458 102.887499695409  2.04762505175781 102  L 128.932706398437 102  C 130.061729667876 102.888704001325  130.975751985255 103.803701806408  130.978148458008 104.932728274414  C 130.974547679339 106.061751543853  130.059549874256 106.975773861231  128.93052340625 106.978170333984  Z M 30.7798649023438 5.16230658203125  L 30.7798649023438 5.16448957421875  C 29.6520168134422 5.15187380258399  28.7443497890956 4.23399710435169  28.7443497890956 3.10607845953163  C 28.7443497890956 2.39426377297947  29.1120870989565 1.73296038090254  29.7167589648438 1.35739136914063  C 29.9808982050781 1.19366874609375  30.2275737636719 1.04959266894531  30.4938959960937 0.885870045898432  C 31.4725419301323 0.322199290417874  32.7225535915101 0.651252208482141  33.2968282851563 1.6237136015625  C 33.4814452051772 1.93765916161694  33.5787928678862 2.29524482567601  33.5787928678862 2.6594497430452  C 33.5787928678862 3.38778311856571  33.1910966666165 4.06105194006346  32.5611677216797 4.42664601855469  L 31.8626176416016 4.83486120800781  C 31.5413857679759 5.04732887000715  31.165002665369 5.16115440130405  30.7798649023438 5.16230658203125  Z M 18.2539880097656 29.1902479052734  C 18.2539880097656 30.3363066503906  17.3349580214844 31.2968131064453  16.2085458222656 31.2968131064453  C 15.0821337509766 31.2968131064453  14.1631037626953 30.4389062597656  14.1631037626953 29.3103111962891  L 14.1631037626953 29.2098947070312  C 14.1631037626953 20.1855003115234  17.7650028769531 11.7723372041016  24.3139103574219 5.53122842382813  C 24.6939062785292 5.1669952984892  25.1999239065876 4.96364596596165  25.7262913349609 4.96364596596165  C 26.8535523245263 4.96364596596165  27.767377911968 5.87747155340338  27.767377911968 7.00473254296875  C 27.767377911968 7.56105629627677  27.5402943462293 8.09327450745274  27.1386723125 8.47823666210937  C 21.4061953388672 13.9422084111328  18.2539878818359 21.2900825888672  18.2539880097656 29.1902479052734  Z M 77.6045530039063 30.9911975263672  L 77.6045530039062 30.9890145341797  C 77.6001809333474 30.9890427210423  77.5958087832866 30.9890568145835  77.5914366218679 30.9890568145835  C 76.4711902573346 30.9890568145835  75.5617125764773 30.0834552952477  75.5569279521484 28.9632191484375  C 75.5569279521484 28.6990799082031  75.5569279521484 28.4109280097656  75.5372811503906 28.1446056494141  C 75.4966502785591 27.0164094363253  76.3740662049379 26.0668504615169  77.5019533945312 26.0183937744141  C 77.5392286443962 26.0163220535863  77.5765542268297 26.0152855942505  77.6138870043809 26.0152855942505  C 78.7086806125333 26.0152855942505  79.6035991850545 26.8885992422179  79.6303483896484 27.9830660185547  C 79.6521780556641 28.2886817265625  79.6521780556641 28.6161271005859  79.6521780556641 28.9217426806641  C 79.6522900505251 28.9304758347807  79.6523460496822 28.9392096172208  79.6523460496822 28.9479434894246  C 79.6523460496822 30.0764043122937  78.7375478051684 30.9912025568075  77.6090869822994 30.9912025568075  C 77.6075756547733 30.9912025568075  77.6060643277116 30.991200879993  77.6045530039063 30.9911975263672  Z M 77.257460828125 23.9292922548828  C 77.0522617373047 23.9511219208984  76.8863561220703 23.9707687226563  76.7444631650391 23.9707687226563  C 75.80382035486 23.9685873125451  74.9851145570754 23.327117798642  74.7579612548828 22.4143116679687  C 72.8972194089088 14.8450160469237  68.0361877711394 8.35891192696152  61.2934075722656 4.44847568457033  C 60.6629383487209 4.08302471978576  60.2748244433498 3.40945269558455  60.2748244433498 2.68072376827409  C 60.2748244433498 2.31587811932856  60.3725147184764 1.95768708967794  60.5577470087891 1.64336027539063  C 60.9230976051721 1.01251315241527  61.5968816372159 0.62410696140304  62.3258872276223 0.62410696140304  C 62.6897206167272 0.62410696140304  63.046955201167 0.721256235121121  63.3606792978516 0.905516719726567  C 71.0550561199158 5.39560425009822  76.6060210668812 12.8071266990946  78.7506117490234 21.4538053398438  C 79.0173054533555 22.5490189275989  78.3506225379019 23.6543089626426  77.257460828125 23.9292922548828  Z M 46.9098240646274 37.3960292208774  C 46.9090963461302 37.3960292208774  46.908368627651 37.3960291238141  46.9076409091797 37.3960289296875  C 46.9069131907175 37.3960291238141  46.9061854722201 37.3960292208774  46.905457753732 37.3960292208774  C 42.3855862251315 37.3960292208774  38.7215063953335 33.7319493910794  38.7215063953335 29.2120778624789  C 38.7215063953335 29.2113501439817  38.7215064923968 29.2106224255025  38.7215066865234 29.2098947070312  C 38.7215064923741 29.2091669459271  38.7215063952994 29.2084391847838  38.7215063952994 29.2077114236538  C 38.7215063952994 24.6878398950534  42.3855862250974 21.0237600652554  46.9054577536979 21.0237600652554  C 46.9061854722018 21.0237600652554  46.9069131907016 21.0237601623187  46.9076409091797 21.0237603564453  C 46.9083686276578 21.0237601623187  46.9090963461575 21.0237600652554  46.9098240646615 21.0237600652554  C 51.429695593262 21.0237600652554  55.09377542306 24.6878398950534  55.09377542306 29.2077114236538  C 55.09377542306 29.2084391847929  55.0937753259853 29.2091669459181  55.0937751318359 29.2098947070312  C 55.0937753259625 29.2106224254935  55.0937754230258 29.2113501439908  55.0937754230258 29.2120778624789  C 55.0937754230258 33.7319493910794  51.4296955932279 37.3960292208774  46.9098240646274 37.3960292208774  Z M 46.9076409091797 25.1168274677734  C 44.6495912255567 25.1228249686759  42.8205712281782 26.9518450232208  42.8145737978516 29.2098947070312  C 42.8205712984349 31.4679443408821  44.6495912753288 33.2969643177761  46.9076409091797 33.3029618183594  C 49.168179490127 33.3029618183594  51.0007080844727 31.4704332240137  51.0007080844727 29.2098946430664  C 51.0007080844727 26.9493560621191  49.168179490127 25.1168274677734  46.9076409091797 25.1168274677734  Z " fill-rule="nonzero" fill="#1296db" stroke="none" transform="matrix(1 0 0 1 532 227 )" />
  </g>
</svg>