<?xml version="1.0" encoding="utf-8"?>
<svg version="1.1" xmlns:xlink="http://www.w3.org/1999/xlink" width="14px" height="51px" xmlns="http://www.w3.org/2000/svg">
  <g transform="matrix(1 0 0 1 -572 -203 )">
    <path d="M 11.0814779638672 50.6711015508476  L 10.9788783544922 50.6711015508476  C 9.88405570770102 50.6619785861559  8.98663677103845 49.7999967188693  8.93343629492187 48.7064294296063  L 7.00805752636718 4.09309192155026  L 6.84433477539061 4.09309192155026  L 4.9014923251953 48.7086124216573  C 4.83931874726015 49.8309680738073  3.89683319130756 50.700954660273  2.77309733007812 50.6732845428985  C 1.64344341894314 50.6248410825499  0.76533132916876 49.6725773830602  0.808425085937493 48.5427068168011  L 2.83422047167969 1.96469718750377  C 2.87313863286965 0.864687325179811  3.77897763801817 -0.00538212089487606  4.87966253125 2.50662625328033E-05  L 8.97272977050781 2.50662625328033E-05  C 10.0794951679688 2.50662625328033E-05  10.9810613466797 0.860114851327098  11.0203548222656 1.96469718750377  L 13.0461500800781 48.544889808852  C 13.0473723901093 48.5737063913932  13.0479837510888 48.6025456455339  13.0479837510888 48.6313881397218  C 13.0479837510888 49.7296242949974  12.178980982777 50.6309776560446  11.0814779638672 50.6711015508476  Z " fill-rule="nonzero" fill="#1296db" stroke="none" transform="matrix(1 0 0 1 572 203 )" />
  </g>
</svg>