<?xml version="1.0" encoding="utf-8"?>
<svg version="1.1" xmlns:xlink="http://www.w3.org/1999/xlink" width="49px" height="34px" xmlns="http://www.w3.org/2000/svg">
  <g transform="matrix(1 0 0 1 -578 -252 )">
    <path d="M 44.4971687460938 33.6166719794922  L 44.4971687460937 33.6188549716797  C 44.1697233720703 33.6188549716797  43.8641076640625 33.5359021640625  43.5563089638672 33.3940090791016  L 2.07334645605467 11.7826146494141  C 1.39814156229766 11.4330564101349  0.974191174809107 10.7361790369535  0.974191174809107 9.9758550197073  C 0.974191174809107 9.6421151156954  1.05629198900843 9.31349978008082  1.21325661718749 9.01897570800782  C 1.56429646689975 8.34448909891641  2.26149096884801 7.92137899406053  3.02186006470189 7.92137899406053  C 3.35482278700001 7.92137899406053  3.68271904406117 8.00292320457746  3.97689555859374 8.15888586914063  L 43.7200317148437 28.870896984375  L 43.8226311962891 28.7071743613281  L 5.77784505175781 4.47621693945313  C 4.82755596550551 3.86779287348377  4.5450552847913 2.60725540884459  5.14478396972656 1.65145485644532  C 5.75745838987303 0.708721043001319  7.01074813773639 0.427627426719177  7.96736306054687 1.01839377441406  L 47.649376203125 26.2687978017578  C 48.5728597596094 26.8539951030408  48.8712432166783 28.0629294180314  48.3260966171875 29.0106070771484  L 46.2784715654297 32.5732127158203  C 45.9215255694001 33.2219018362383  45.2375560398737 33.6225604631189  44.4971687460938 33.6166719794922  Z " fill-rule="nonzero" fill="#1296db" stroke="none" transform="matrix(1 0 0 1 578 252 )" />
  </g>
</svg>