<?xml version="1.0" encoding="utf-8"?>
<svg version="1.1" xmlns:xlink="http://www.w3.org/1999/xlink" width="48px" height="33px" xmlns="http://www.w3.org/2000/svg">
  <g transform="matrix(1 0 0 1 -532 -253 )">
    <path d="M 5.03392689355469 32.5162553623047  C 4.73897153566573 32.6763604282633  4.40902278113711 32.7610972801789  4.0734204375 32.7629309208984  C 3.33243986522824 32.7688647013467  2.64812955171607 32.3671678241165  2.29211761816406 31.7172886650391  L 0.266322232421875 28.1153895507812  C -0.268211805025776 27.1731564593462  0.0293078345539518 25.9773194516729  0.943042646484375 25.3954100693359  L 39.6208898730469 0.345839148437499  C 39.9511431920183 0.129958617664393  40.3371459953335 0.0149892143359551  40.731698473793 0.0149892143359551  C 41.4265959387195 0.0149892143359551  42.0732164904261 0.370406724757189  42.4456519560547 0.957070436523438  C 42.6611246519763 1.28711474879007  42.7758624039852 1.67274568767669  42.7758624039852 2.0669001380477  C 42.7758624039852 2.76244704021293  42.4197850491507 3.40957779873068  41.8322376757812 3.78183251953125  L 4.76760466113281 27.7901271689453  L 4.87020414257813 27.9756795859375  L 44.0610491601563 7.20254520117187  C 44.3552256746888 7.0465825366087  44.68312193175 6.96503832609177  45.0160846540481 6.96503832609177  C 45.776453749902 6.96503832609177  46.4736482518502 7.38814843094764  46.8246881015625 8.06263504003906  C 46.9800650426979 8.35638047790081  47.061288846539 8.68365177734503  47.061288846539 9.0159594301326  C 47.061288846539 9.77596135027778  46.6385832705606 10.4728828916901  45.9645982626953 10.8240909892578  L 5.03392689355469 32.5162553623047  Z " fill-rule="nonzero" fill="#1296db" stroke="none" transform="matrix(1 0 0 1 532 253 )" />
  </g>
</svg>