<?xml version="1.0" encoding="utf-8"?>
<svg version="1.1" xmlns:xlink="http://www.w3.org/1999/xlink" width="30px" height="73px" xmlns="http://www.w3.org/2000/svg">
  <g transform="matrix(1 0 0 1 -564 -261 )">
    <path d="M 27.3483820019531 72.9781703339844  L 27.3505649941406 73  L 2.79216219824219 73  C 2.20784778893434 72.9771986153779  1.6505873183804 72.7318140367319  1.2553519453125 72.3014499199219  C 0.868567488473268 71.8657254853851  0.683144474711675 71.2872690737416  0.744537146484383 70.7078823818359  L 8.35873342871094 2.16701724902343  C 8.48442078076604 1.04996647926518  9.48965189830532 0.244805679613975  10.6071917148438 0.366067755859362  C 11.727019773877 0.490598082425763  12.5341178799264 1.49898216596276  12.4103242001953 2.61889189843748  L 5.08209682421875 68  L 25.0780941777344 68  L 17.7105733261719 2.59706223242186  C 17.7018789429607 2.52075825227017  17.6975212453439 2.44402239941695  17.6975212453439 2.36722468013825  C 17.6975212453439 1.32966905098638  18.4798652041649 0.459076787495576  19.5115228193359 0.348603946289046  C 19.5886131218818 0.339727488579769  19.6661489496774 0.335278308340378  19.743748603337 0.335278308340378  C 20.7805701470649 0.335278308340378  21.6507941893638 1.11654775552145  21.7621639697266 2.1473705751953  L 29.3763603798828 70.7056993896484  C 29.4387058896909 71.2868897882395  29.2523590147358 71.8673404250108  28.8633625888672 72.3036327841797  C 28.4785979728554 72.7355087517949  27.9267862561339 72.9812001663028  27.3483820019531 72.9781703339844  Z " fill-rule="nonzero" fill="#1296db" stroke="none" transform="matrix(1 0 0 1 564 261 )" />
  </g>
</svg>