<?xml version="1.0" encoding="utf-8"?>
<svg version="1.1" xmlns:xlink="http://www.w3.org/1999/xlink" width="86px" height="107px" xmlns="http://www.w3.org/2000/svg">
  <g transform="matrix(1 0 0 1 -577 -207 )">
    <path d="M 2.06918066796874 106.512834649414  L 2.07136353222655 106.512834649414  C 1.80334168738127 106.510128324999  1.53849609180939 106.4544884655  1.29204363671874 106.349111898437  C 1.04361006061926 106.245377968252  0.814739665997102 106.099934541792  0.615323222656237 105.919067042969  C 0.0299356301449123 105.332848292526  -0.139518542786405 104.449265895384  0.187461231445312 103.688072566406  C 0.286307664584541 103.437120902216  0.432283289904134 103.207413037204  0.617506086914048 103.011352152344  C 1.43789715659553 102.253841969081  2.70264704359977 102.253841969081  3.52303811328124 103.011352152344  C 3.70640753808593 103.218734235352  3.85048348730469 103.421750333984  3.95308296875 103.688072566406  C 4.06768325047248 103.93074921936  4.1237595508659 104.196924624741  4.11680571972656 104.465209597656  C 4.116884989063 104.472525519557  4.11692462460362 104.479841817212  4.11692462460362 104.487158168549  C 4.11692462460362 105.605974066372  3.20994513668443 106.512953554291  2.09112923886143 106.512953554291  C 2.08381288752508 106.512953554291  2.0764965898689 106.51291391875  2.06918066796874 106.512834649414  Z M 2.06918066796874 98.3267002988281  L 2.07136353222656 98.3267002988281  C 1.5266205121994 98.3323127700621  1.00257457697957 98.1182880033107  0.617506086914055 97.7329326923828  C 0.43667276099513 97.5334901982278  0.291233258767733 97.304625978794  0.187461231445305 97.0562122783203  C 0.0732720316359732 96.8141723553819  0.0172079224791304 96.5488023467643  0.0237384804687437 96.2812582392578  C 0.0237384804687437 95.7486137744141  0.248584245117179 95.2159693095703  0.617506086914048 94.8274007939453  C 1.43789715659553 94.0698906106826  2.70264704359977 94.0698906106826  3.52303811328124 94.8274007939453  C 3.89718405545329 95.2198246322656  4.10926453921941 95.7391099334204  4.11680571972656 96.2812582392578  C 4.1237595508659 96.5495432121733  4.06768325047248 96.8157186175539  3.95308296875 97.0583952705078  C 3.84931094142757 97.3068089709815  3.70387143920016 97.5356731904153  3.52303811328124 97.7351156845703  C 3.13760838883722 98.119670790672  2.61360732448636 98.3328904350905  2.06918066796874 98.3267002988281  Z M 2.06918066796875 90.1405660761719  L 2.07136353222656 90.1405660761719  C 2.0639070841215 90.1406484203137  2.05645023818448 90.140689593326  2.04899333541583 90.140689593326  C 0.930177437592832 90.140689593326  0.0231979496736372 89.2337101054068  0.0231979496736372 88.1148942075838  C 0.0231979496736372 87.8401477235886  0.0790854160238581 87.5682724329728  0.187461231445312 87.3158039931641  C 0.290060840820317 87.0713114267578  0.434136790039055 86.8464656621094  0.617506086914062 86.6390835791015  C 1.39464311816407 85.8837762138672  2.76554775585937 85.8837762138672  3.52303811328125 86.6390835791015  C 3.89718405545329 87.0315074174219  4.10926453921942 87.5507927185766  4.11680571972657 88.092941024414  C 4.116884989063 88.1002569463141  4.11692462460363 88.1075732439705  4.11692462460363 88.1148895953067  C 4.11692462460363 89.2337054931297  3.20994513668445 90.1406849810489  2.09112923886145 90.1406849810489  C 2.0838128875251 90.1406849810489  2.07649658986891 90.1406453455083  2.06918066796875 90.1405660761719  Z M 75.7443891835938 34.8852511855469  L 75.7465721757813 35  L 51.1881692519531 35  C 44.4081953419448 34.8804367727457  38.9128045021558 29.3860226707517  38.9067849257813 22.6060497236328  C 38.9116009055642 15.8252242994539  44.4073438277742 10.3294813772438  51.1881692519531 10.3246653974609  C 51.1917816558812 4.67541876267075  55.7704990273192 0.0967013912327204  61.4197456621094 0.0930889873046841  C 64.7553225439453 0.0930889873046841  67.8660535332031 1.7521455234375  69.7499558339844 4.41100199121093  C 70.3749566718951 4.26114450242645  71.0154348612284 4.18543320622295  71.6581504393295 4.18543320622295  C 76.17802196793 4.18543320622295  79.842101797728 7.84951303602092  79.842101797728 12.3693845646214  C 79.842101797728 13.3046520126613  79.6817858378821 14.2329993389484  79.3681179638672 15.1140995966797  C 83.3431960055089 16.6057452682383  85.9768513355434 20.4057585645358  85.9781484580078 24.6514917832031  C 85.9757392293696 30.3024427485817  81.3953401489423 34.8828418862675  75.7443891835938 34.8852511855469  Z M 51.1859862597656 14.4199155009766  L 51.1881692519531 14.4199155009766  C 51.1874415334909 14.41991530685  51.1867138149935 14.4199152097867  51.1859860965054 14.4199152097867  C 46.6661145679049 14.4199152097867  43.002034738107 18.0839950395846  43.002034738107 22.6038665681851  C 43.002034738107 22.6045942866641  43.0020348351703 22.6053220051797  43.0020350292969 22.6060497236328  C 43.0020348351703 22.6067774421132  43.002034738107 22.6075051605742  43.002034738107 22.6082328790805  C 43.002034738107 27.128104407681  46.6661145679049 30.7921842374789  51.1859860965054 30.7921842374789  C 51.1867138150026 30.7921842374789  51.1874415334818 30.7921841404157  51.1881692519531 31  L 75.7465721757812 31  C 79.1336450347833 30.7825855606966  81.8766872669505 28.0385678408995  81.8850813466797 24.6514917832031  C 81.8792775499349 21.387891342236  79.3122791922084 18.70368727962  76.0521877558594 18.5522760878906  C 75.2601339787589 18.5181491337094  74.5622754080504 18.0212669562631  74.2708849365234 17.2839709316406  C 73.9799711438169 16.5521151387731  74.1316236845081 15.7184498295085  74.661636444336 15.1359292626953  C 75.3558206679688 14.3566092392578  75.7443891835938 13.3742731171875  75.7443891835938 12.3722904492187  C 75.7443891835938 9.48640522460937  72.6358411865235 7.2772404140625  69.7892493095703 8.74856166894531  C 69.2916087701919 9.0131926501256  68.7061493097536 9.05828881678375  68.1738521054688 8.87299081640624  C 67.6438672756394 8.69305059431485  67.2132841524901 8.29966860824264  66.9863168925781 7.78805521289062  C 65.9953910411475 5.60166589971514  63.8201972379605 4.19418752413016  61.4197456621094 4.18615609863281  C 58.0318202617264 4.19455547486512  55.2874528752558 6.93892286133572  55.2790534990234 10.3268482617187  C 55.2790534990234 10.857309734375  55.3816531083985 11.4314306669922  55.5868520712891 12.1059682167969  C 55.7988814063928 12.8109156452797  55.619191240224 13.575430747029  55.1153307480469 14.1121168007812  C 54.6131795426374 14.6458608516907  53.8608283867011 14.8648786404793  53.1506585039062 14.6840547412109  C 52.5089528374261 14.5164059361478  51.849184290314 14.4277037298208  51.1859862597656 14.4199155009766  Z M 61 77.8613646142578  C 61.1728516257979 78.9912404873411  60.2575039170285 79.9065881961103  59.1276280439453 79.9089896660156  C 57.9977521708621 79.9065881961103  57.0824044620928 78.9912404873411  57 77.8613646142578  L 57 53.3029618183594  C 57.0824044620928 52.1730859452761  57.9977521708621 51.2577382365068  59.1276280439453 51.2553367666016  C 60.2575039170285 51.2577382365068  61.1728516257979 52.1730859452761  61 53.3029618183594  L 61 77.8613646142578  Z M 83.93052340625 98.3267002988281  L 83.9327063984375 98.3267002988281  C 83.5733613931 98.3287061276983  83.2197126388702 98.2369079376155  82.9067109443359 98.0603780664062  L 61.6445914267578 85.7811767324219  C 60.6680561474378 85.2112374663869  60.3305831520846 83.962490008391  60.8871011972656 82.9782443154297  C 61.4571131781328 82.0004163022925  62.7074754096029 81.6627698105586  63.6922164785156 82.2207539580078  L 84.9543359960937 94.4999554199219  C 85.936672118164 95.0718933603516  86.2641174921875 96.3205517148437  85.7118262255859 97.3028878369141  C 85.3391219774305 97.9333658404628  84.6629092926127 98.3220223710121  83.93052340625 98.3267002988281  Z M 35.3267154775391 98.0603780664063  C 35.0143573226586 98.2365405462386  34.6615089168809 98.3283262771502  34.302903015625 98.3267002988281  C 34.3022533511685 98.3267009165409  34.3016036864536 98.3267012253974  34.3009540217034 98.3267012253974  C 33.168876298952 98.3267012253974  32.2511459777581 97.4089709042035  32.2511459777581 96.2768931814521  C 32.2511459777581 95.5433134950414  32.6431648083924 94.8656571637829  33.2790904257812 94.4999554199219  L 54.5433928076172 82.2207539580078  C 54.8547705491985 82.0412083725306  55.2078857294021 81.9466955919184  55.5673196109667 81.9466955919184  C 56.3023843990214 81.9466955919184  56.9811756322998 82.3402897575856  57.3463252246094 82.9782443154297  C 57.5262196560605 83.289845677253  57.6209259712965 83.6433092586063  57.6209259712965 84.0031111696035  C 57.6209259712965 84.7375001258913  57.2280490763939 85.4157750799064  56.591017859375 85.7811767324219  L 35.3267154775391 98.0603780664063  Z " fill-rule="nonzero" fill="#1296db" stroke="none" transform="matrix(1 0 0 1 577 207 )" />
  </g>
</svg>