<?xml version="1.0" encoding="utf-8"?>
<svg version="1.1" xmlns:xlink="http://www.w3.org/1999/xlink" width="14px" height="14px" xmlns="http://www.w3.org/2000/svg">
  <g transform="matrix(1 0 0 1 -629 -282 )">
    <path d="M 13.2683202070313 6.95443172558593  C 13.259920901082 10.3423571759285  10.515553494113 13.0867246400713  7.12762804394531 13.0951240166016  C 3.73970259377769 13.0867246400713  0.99533518680866 10.3423571759285  0.986935880859377 6.95443172558593  C 0.995335257091696 3.56650632520291  3.7397026435623 0.822138938732294  7.12762804394531 0.81373956249999  C 10.5155534443283 0.822138938732309  13.2599208307989 3.56650632520291  13.2683202070313 6.95443172558593  Z M 7.12762804394531 4.90680667382813  L 7.12762804394531 4.90898966601563  C 5.99860157593898 4.91138613876862  5.08360377085627 5.82540845614747  5.0800029921875 6.95443172558593  C 5.08240446209278 8.08430759866917  5.99775217086207 8.99965530743847  7.12762804394531 9.00205677734374  C 8.25750391702854 8.99965530743847  9.17285162579786 8.08430759866917  9.17525309570313 6.95443172558593  C 9.17285162579786 5.82455585250267  8.25750391702854 4.90920814373339  7.12762804394531 4.90680667382813  Z " fill-rule="nonzero" fill="#1296db" stroke="none" transform="matrix(1 0 0 1 629 282 )" />
  </g>
</svg>