<?xml version="1.0" encoding="utf-8"?>
<svg version="1.1" xmlns:xlink="http://www.w3.org/1999/xlink" width="13px" height="44px" xmlns="http://www.w3.org/2000/svg">
  <g transform="matrix(1 0 0 1 -630 -290 )">
    <path d="M 11.7138460761719 43.3429262597656  C 11.3206431077243 43.7451537954798  10.783168804201 43.9738161239687  10.2206951552734 43.9781703339844  L 2.03456093261718 43.9781703339844  C 1.47647005436211 43.982522099136  0.942067381669617 43.7529268774814  0.561056685546873 43.3451092519531  C 0.172242195293492 42.9401667824092  -0.028214964954401 42.3902960982375  0.0087655468749972 41.8301286650391  L 1.97343779101564 2.35113174902342  C 2.04031886034437 1.22633940175018  2.99564025798701 0.362278376320774  4.12147945996092 0.408289170898428  C 5.24957406511753 0.468261529801921  6.11753726286904 1.42789730247812  6.06432191015625 2.55633083984374  L 4.1826024736328 39.8851032226563  L 8.07265348632812 39.8851032226563  L 6.20839785937498 2.55633083984372  C 6.15520762002024 1.42708931887553  7.02446097901107 0.467105828435862  8.15342342968749 0.408289170898413  C 9.28185701437103 0.355073819693331  10.2414928074025 1.22303709300814  10.3014650986328 2.35113174902341  L 12.2661372148438 41.830128665039  C 12.2831409409984 42.3866076873766  12.0853820750809 42.928295061567  11.7138460761719 43.3429262597656  Z " fill-rule="nonzero" fill="#1296db" stroke="none" transform="matrix(1 0 0 1 630 290 )" />
  </g>
</svg>