<?xml version="1.0" encoding="utf-8"?>
<svg version="1.1" xmlns:xlink="http://www.w3.org/1999/xlink" width="141px" height="143px" xmlns="http://www.w3.org/2000/svg">
  <g transform="matrix(1 0 0 1 -291 -370 )">
    <path d="M 99.8257231845703 143  L 41.1808273046875 143  C 39.4231189248047 142.001979120117  38.6932231845703 140.51984375  38.9092126748047 138.494010370117  C 39.0246554296875 137.376822870117  38.9092126748047 136.259635370117  38.9352804296875 135.142447870117  C 38.9352183632668 135.130034756943  38.935187329911 135.117621507994  38.935187329911 135.105208239652  C 38.935187329911 130.99183747235  42.2697331827262 127.657291619535  46.3831039500282 127.657291619535  C 47.5860355449219 127.623775995117  48.7888741796875 127.657291620117  50.1630148046875 127.657291620117  C 50.1071554296875 124.540338495117  49.9730929296875 121.501588495117  52.5165564248047 119.185286504883  C 55.0600199199219 116.868984514648  58.1583532998047 117.4834375  61.1933794345703 117.323307245117  L 61.1933794345703 109  L 9.4862179296875 109  C 8.51002077438812 109.894227668422  7.53260352836439 109.828067849169  6.5703585546875 109.659400995117  C 2.70861380957031 108.825234375  0.381139804687501 105.451328125  1.0514523046875 101.541171875  C 2.79054079980469 91.4157291201172  4.58921267480469 81.3014583798828  6.3804366796875 71.1834634951172  C 7.53486380957031 64.68515625  8.7377023046875 58.194296875  9.88468142480469 51.692265625  C 10.5922335546875 47.6852865048828  13.1319730449219 45.4732552548828  17.1799157998047 45.4434634951172  C 19.2765042949219 45.4434634951172  21.3693689248047 45.4173957402344  23.4622335546875 45.4434634951172  C 25.0449157998047 45.46953125  25.8790825595703 46.22921875  25.8641866796875 47.5437759951172  C 25.8492907998047 48.8583332402344  24.9890564248047 49.5882291201172  23.4100981845703 49.614296875  C 21.3172335546875 49.6440884951172  19.2206450595703 49.614296875  17.1277804296875 49.614296875  C 15.2658013095703 49.636640625  14.4018429296875 50.3590884951172  14.0666866796875 52.1912759951172  C 13.4931970498047 55.2933332402344  12.9494991796875 58.4028384951172  12.3611138095703 62  L 39.7880669345703 62  C 40.3354888095703 57.702734375  40.8829106845703 53.7627865048828  41.4638481845703 49.6068490048828  L 34.7234835546875 49.6068490048828  C 34.1206494306905 49.6288572950616  33.5172597034431 49.5826348779797  32.9248116796875 49.4690625  C 31.9625283522543 49.2808480178597  31.3110986155544 48.3786178810822  31.4352282998047 47.4059896298828  C 31.4237862678813 46.4258158711785  32.1587999544811 45.5973135814856  33.1333532998047 45.491875  C 33.6419887824549 45.4265049354568  34.1552256552234 45.4040819659676  34.6676241796875 46  L 52.6319991796875 46  C 48.5989523046875 34.25296875  50.8035356845703 25.0101041201172  61.3199939248047 19.0182552548828  C 68.5593689248047 14.892109375  75.9625980449219 15.8454427548828  82.6619991796875 20.8392708798828  C 86.4120251748047 23.6322396298828  88.7320513095703 27.449296875  89.8045513095703 32.0111458798828  C 90.8770513095703 36.5729948847656  90.2141866796875 40.9486458798828  88.1883532998047 46  L 123.38720755957 46  C 127.94533255957 45.4173958798828  130.34728568457 47.469296875  131.147936679687 51.9343228701172  C 133.784499179687 66.6240972067057  136.427268261393 81.3113888733724  139.076243924805 95.9961978701172  C 139.411400174805 97.8581769902344  139.716764804688 99.7573957402344  139.97744193457 101.645442754883  C 140.610514804687 106.248255254883  137.44142630957 109.767395879883  132.50345755957 109.838150995117  C 126.735046054688 109.905182245117  120.959186679687 109.856770740234  115.190775174805 109.856770879883  L 105.694681424805 109.856770879883  C 103.985384549805 109.856770879883  103.087910544922 109.14921875  103.061842929687 107.845833379883  C 103.035775314453 106.542448009766  103.977936679687 105.682213634766  105.72447318457 105.678489629883  C 114.242407181315 105.663593796549  122.76034117806 105.663593796549  131.278275174805 105.678489629883  C 131.929556877405 105.694046773991  132.581184745556 105.67041903153  133.22962943457 105.607734375  C 134.998509689453 105.391744745117  135.985358554688 104.222421875  135.836400174805 102.44609375  C 135.717233554687 101.157604120117  135.445384549805 99.8802865048828  135.233118924805 98  L 5.79205130957031 98  C 5.57978568457031 99.8728386347656  5.30048880957031 101.187395879883  5.1850460546875 102.513125  C 5.03608767480469 104.222421875  6.0117648046875 105.373125  7.7098898046875 105.5965625  C 8.40366325633596 105.670437070716  9.10160238032237 105.697807247992  9.7990304296875 105  L 94.0051763095703 105  C 94.5620875492402 105.658514854551  95.1197135919178 105.679674756972  95.6735095498047 105.741796875  C 96.7519031599796 105.821191847423  97.5744512666103 106.739155488525  97.5354888095703 107.819765625  C 97.5764523046875 108.914609375  96.6901503144531 109.748775995117  95.4761398046875 109.849322870117  C 95.1037439248047 109.879114490234  94.7313481845703 109.849322870117  94.3589523046875 109  L 79.8168950595703 109  L 79.8168950595703 117.349375  L 83.0902544345703 117.349375  C 87.9053325595703 117.349375  90.8398116796875 120.27640625  90.8621554296875 125.076588495117  L 90.8621554296875 127.642395879883  L 94.2137179296875 127.642395879883  C 98.9394210546875 127.690807384766  102.034030429688 130.82265625  102.078717929688 135.55953125  C 102.03462229079 136.536121805104  102.040837098883 137.514335060082  102.097337674805 138.490286504883  C 102.313327304688 140.508671875  101.602051169922 142.005703125  99.8257231845703 143  Z M 58.8845251748047 45.4509115048828  C 62.7462699199219 45.4062240048828  66.6042907998047 45.4322917597656  70.4660356845703 45.4322916201172  C 74.2756450595703 45.4322916201172  78.0927023046875 45.3838801152344  81.9023116796875 45.4620833798828  C 83.0194991796875 45.4881511347656  83.5892648046875 45.06734375  84.0771032998047 44.1586978701172  C 85.4015256117447 41.8097629779011  86.0973881893099 39.1588027157101  86.0973881893099 36.4622142064572  C 86.0973881893099 29.3172326780484  81.2642839520466 23.0769469918742  74.3464001748047 21.2898697451172  C 73.1043436526582 20.978958891879  71.8288092780929 20.8217388150593  70.5484304424088 20.8217388150593  C 61.9103517770865 20.8217388150593  54.9078054424088 27.8242851497371  54.9078054424088 36.4623638150593  C 54.9078054424088 39.2733212133956  55.6653485845111 42.0323284735652  57.1007491796875 44.4491666201172  C 57.4338626359889 45.1170852376567  58.140827561033 45.5141073409422  58.8845251748047 45.4509115048828  Z M 43.1582491796875 134.781224004883  C 43.0725981845703 136.065989629883  43.1396294345703 137.361927129883  43.1396294345703 138  L 97.8818169345703 138  L 97.8818169345703 136.270807245117  C 97.8818169345703 132.919244745117  96.8279366796875 131.839296875  93.4875460546875 131  L 47.4668689248047 131  C 47.0022888486751 131.823739624873  46.5371934842659 131.836175345764  46.0741085546875 131.876536504883  C 44.5269820397584 132.01087331193  43.2985240403703 133.234624575688  43.1582491796875 134.781224004883  Z M 8.57384818457031 82.8692447451172  C 7.86257218945312 86.570859375  7.19970755957031 90.3097134951172  6.55173880957031 94.0485677548828  C 6.70587384384578 94.1274269709972  6.86997762365284 94.185051173202  7.0395773046875 94  L 34.5186657998047 94  C 34.9072872795988 94.1302613598385  35.2240757925556 93.8499175760899  35.3602804296875 93.475078125  C 35.9300460546875 89.7511197451172  36.4365044345703 86.04578125  36.9504106845703 82.370234375  C 36.8051763095703 82.29203125  36.7642128144531 82.2510677548828  36.7232491796875 82.2510677548828  C 27.6144470963542 82.226241334961  18.5056450130208 82.2113455016276  9.3968429296875 82.2063802548828  C 9.02874664761071 82.2754213990779  8.71973221125579 82.5243108337247  8.57384818457031 82.8692447451172  Z M 105.717025174805 94  L 134.499499179687 94  C 133.829186679687 90.481015625  133.12908255957 86.9767707402344  132.589108554687 83.4464583798828  C 132.417806424805 82.3292708798828  131.985827304687 82.124453125  130.980358554688 82.1281771298828  C 122.47111380957 82.1616927548828  113.961868924805 82.1281771298828  105.452624179688 82.1505208798828  C 105.013197049805 82.1505208798828  104.570046054688 82.1952083798828  104.044967929688 82.2212759951172  C 104.614733554688 86.3176301152344  105.162155429688 90.2389582402344  105.717025174805 94  Z M 69 94  L 69 82  L 41.2031710546875 82  C 40.6520251748047 86.1835676152344  40.1083273046875 90.1160676152344  39.5534575595703 94  L 69 94  Z M 72 82  L 72 94  L 101.464264804687 94  C 100.901947049805 90.078828125  100.347077304687 86.1761198847656  99.8145513095703 82  L 72 82  Z M 11.5902544345703 66  C 10.8827023046875 69.9098697451172  10.1788741796875 73.8311978701172  9.4527023046875 77  L 37.5611398046875 77  C 38.1122856845703 73.8833333798828  38.6559835546875 69.9731771298828  39.2071294345703 66  L 11.5902544345703 66  Z M 103.452858554687 77.856796875  L 103.452858554687 77  L 131.579915799805 77  C 130.853743924805 73.8386458798828  130.146191794922 69.9173177548828  129.44236380957 66  L 101.806868924805 66  C 102.361738669922 69.9843488652344  102.905436679687 73.8945051152344  103.452858554687 77.856796875  Z M 99.5538741796875 50  L 101.218483554687 62  L 128.64916068457 62  C 128.105462814453 58.618828125  127.595280429688 55.6843488652344  127.047858554687 52.7722134951172  C 126.56002005957 50.1654426152344  125.897155429687 49.6403644902344  123.323900174805 50  L 99.5538741796875 50  Z M 69 77  L 69 66  L 43.4375460546875 66  C 42.8864001748047 69.9880728701172  42.3464263095703 73.89078125  41.7990044345703 77  L 69 77  Z M 72 66  L 72 77  L 99.2149939248047 77  C 98.6564001748047 73.8088541201172  98.1164261699219 69.91359375  97.5690044345703 66  L 72 66  Z M 45.6830929296875 50  C 45.1319470498047 53.7553384951172  44.5919731845703 57.658046875  44.0668950595703 62  L 69 62  L 69 50  L 45.6830929296875 50  Z M 72 62  L 96.9880669345703 62  C 96.4257491796875 57.6059113652344  95.8708794345703 53.6696875  95.3346294345703 50  L 72 50  L 72 62  Z M 54.4046032998047 127  L 86.6727023046875 127  L 86.6727023046875 125.110104120117  C 86.6503585546875 122.626223865234  85.5815825595703 121.553723865234  83.0828064248047 121  L 57.8083013095703 121  C 55.8532231845703 121.546275995117  54.6429366796875 122.358098865234  54.4343950595703 123.974296875  C 54.2817128144531 125.14734375  54.4046034394531 126.35390625  54.4046032998047 127  Z M 65.5019991796875 109.964765625  L 65.5019991796875 117.252552129883  L 75.4598638095703 117.252552129883  L 75.4598638095703 109.964765625  L 65.5019991796875 109.964765625  Z M 69.6691085546875 0  L 71.3448898046875 0  C 72.4099419345703 0.800650995117188  72.6631710546875 1.89177087988281  72.6222075595703 3.16908849511719  C 72.5551763095703 5.16885412011719  72.6222075595703 7.16861974511719  72.5924157998047 9.16466150488281  C 72.5700720498047 10.758515625  71.6986657998047 11.741640625  70.4362439248047 11.6932291201172  C 69.1738220498047 11.6448176152344  68.4402023046875 10.7101041201172  68.4215825595703 9.16466150488281  C 68.3917909394531 7.12020837988281  68.4588221894531 5.06830738476563  68.3955148046875 3.03130212988281  C 68.3545513095703 1.79122400488281  68.6561919345703 0.763411504882812  69.6691085546875 0  Z M 53.3321032998047 18.3479427548828  C 53.1682491796875 18.9326042597656  52.2596032998047 19.3124480097656  51.6339782998047 19.84125  C 50.8891866796875 19.3645833798828  50.2747335546875 19.0964583798828  49.8315825595703 18.679375  C 48.1930409394531 17.1078646298828  46.5954628144531 15.495390625  45.0090564248047 13.8717447451172  C 43.9589001748047 12.7992447451172  43.8918689248047 11.5554426152344  44.7781710546875 10.6803125  C 45.6644731845703 9.80518238476563  46.8598638095703 9.84614587988282  47.9584314248047 10.9223697451172  C 49.6491085546875 12.5720832402344  51.3844730449219 14.18828125  52.9261919345703 15.97578125  C 53.3879628144531 16.51203125  53.5294731845703 17.6329427548828  53.3321032998047 18.3479427548828  Z M 95.5990304296875 10.3414322451172  C 96.2023116796875 10.4866666201172  96.5747075595703 11.37296875  97.1072335546875 11.97625  C 96.6975981845703 12.7210416201172  96.5114001748047 13.328046875  96.1203845498047 13.7376822451172  C 94.481842883138 15.4556683251953  92.807302968099 17.1376562034505  91.0967648046875 18.7836458798828  C 90.0689523046875 19.7816667597656  88.8623898046875 19.7928386347656  87.9984314248047 18.9214322451172  C 87.1344730449219 18.0500258554688  87.1791605449219 16.8397394902344  88.1734575595703 15.819375  C 89.8268950595703 14.1138021298828  91.4505409394531 12.3709896298828  93.2343169345703 10.814375  C 93.9217798734903 10.333083507468  94.779337134617 10.1615720349854  95.5990304296875 10.3414322451172  Z " fill-rule="nonzero" fill="#1296db" stroke="none" transform="matrix(1 0 0 1 291 370 )" />
  </g>
</svg>