<?xml version="1.0" encoding="utf-8"?>
<svg version="1.1" xmlns:xlink="http://www.w3.org/1999/xlink" width="73px" height="5px" xmlns="http://www.w3.org/2000/svg">
  <g transform="matrix(1 0 0 1 -325 -404 )">
    <path d="M 63.2710876748047 0.360963495117183  C 64.5819210546875 0.308828124999998  65.8853064248047 0.34979162011718  67.1886919345703 0.349791620117188  C 68.3989784394531 0.349791620117188  69.6092648046875 0.312551990234375  70.8195513095703 0.349791620117188  C 70.8418956489201 0.349044729884078  70.8642509074457 0.348671206580654  70.8866077262264 0.348671206580654  C 71.9912378598816 0.348671206580654  72.8882645090961 1.24121709619766  72.8937960546875 2.34583337988281  C 72.89793655926 2.39799074441137  72.9000092491559 2.45029166228373  72.9000092491559 2.5026131153664  C 72.9000092491559 3.58177371806891  72.0362947581567 4.46242782470488  70.9573376748047 4.48338537011718  C 68.3505667949219 4.554140625  65.7437960546875 4.55786449023438  63.1370251748047 4.48338537011718  C 62.0890712748799 4.44599668381847  61.2588378932951 3.58561416820503  61.2588378932951 2.53699350741739  C 61.2588378932951 2.45315059487574  61.2642518775535 2.36939517258065  61.2750460546875 2.28625  C 61.3830407998047 1.09085937499999  62.0831450595703 0.424270879882805  63.2710876748047 0.360963495117183  Z M 2.22796267480469 0.342343749999998  C 3.48293654003907 0.301380254882808  4.73791054492188 0.34606775488281  5.99288454980469 0.34606775488281  C 7.2031710546875 0.34606775488281  8.41345741992187 0.316276134765623  9.62374392480469 0.34606775488281  C 10.8340304296875 0.375859374999997  11.6793689248047 1.16161462988281  11.7352282998047 2.30114587988281  C 11.7403139639579 2.35940643903265  11.7428604135399 2.41786081237334  11.7428604135399 2.47634291846  C 11.7428604135399 3.58900974367793  10.840865733875 4.49100442334282  9.72819890865704 4.49100442334282  C 9.71944801043427 4.49100442334282  9.71069720508186 4.490947407646  9.70194704980469 4.49083337988282  C 7.19199913313803 4.55289938313803  4.6808099280599 4.55289938313803  2.16837943457032 4.49083337988282  C 2.15453323947296 4.49112055500044  2.14068443888493 4.49126415413759  2.12683526604961 4.49126415413759  C 1.02033849702119 4.49126415413759  0.123345636166803 3.59427129328319  0.123345636166803 2.48777452425478  C 0.123345636166803 2.42795769594158  0.126024501081361 2.36817087554547  0.131374179687498 2.30859375  C 0.179785684570312 1.1690625  0.97298880957031 0.383307245117187  2.22796267480469 0.342343749999998  Z " fill-rule="nonzero" fill="#1296db" stroke="none" transform="matrix(1 0 0 1 325 404 )" />
  </g>
</svg>