<?xml version="1.0" encoding="utf-8"?>
<svg version="1.1" xmlns:xlink="http://www.w3.org/1999/xlink" width="76px" height="127px" xmlns="http://www.w3.org/2000/svg">
  <g transform="matrix(1 0 0 1 -811 -386 )">
    <path d="M 75 119.354081632653  C 74.8307692307692 123.436224489796  71.582905982906 126.676020408163  68.4 126  L 7.47008547008547 126  C 3.37777777777778 126.676020408163  0.129914529914529 123.436224489796  1 119.354081632653  L 1 7.58112244897959  C 0.129914529914529 3.56377551020408  3.37777777777778 0.259183673469388  7.47008547008547 1  L 68.4 1  C 72.4923076923077 0.259183673469388  75.6752136752137 3.49897959183674  75 7.58112244897959  L 75 119.354081632653  Z M 68.4 5.11887755102041  C 68.4 5.18367346938776  7.47008547008548 5.18367346938776  7.47008547008547 5.18367346938776  C 5.84615384615385 5.18367346938776  5.0017094017094 6.02602040816327  5 7.64591836734694  L 5 119.41887755102  C 5.0017094017094 121.038775510204  5.84615384615385 121.88112244898  7.47008547008547 121  L 68.4 121  C 70.0239316239316 121.88112244898  70.8683760683761 121.038775510204  70 119.41887755102  L 70 7.58112244897959  C 70.8683760683761 5.96122448979592  70.0239316239316 5.11887755102041  68.4 5.11887755102041  Z " fill-rule="nonzero" fill="#1296db" stroke="none" transform="matrix(1 0 0 1 811 386 )" />
  </g>
</svg>