<?xml version="1.0" encoding="utf-8"?>
<svg version="1.1" xmlns:xlink="http://www.w3.org/1999/xlink" width="80px" height="86px" xmlns="http://www.w3.org/2000/svg">
  <g transform="matrix(1 0 0 1 -832 -405 )">
    <path d="M 0.520325203252035 61  L 23.2845528455285 27.8045112781955  L 16.780487804878 51  L 29.7886178861789 51  L 7.80487804878049 86  L 14.3089430894309 61  L 0.520325203252035 61  Z M 79 74.7488721804511  C 79.479674796748 77.9172932330827  76.2276422764228 81.1503759398496  72.130081300813 81.1503759398496  L 69.6585365853659 81.1503759398496  C 65.5609756097561 81.1503759398496  62.3089430894309 77.9172932330827  62 73.8436090225564  L 62 31.8135338345865  C 62.3089430894309 30.196992481203  61.4634146341464 29.3563909774436  59.8373983739837 29.3563909774436  L 52.4878048780488 29.3563909774436  C 50.8617886178862 29.3563909774436  50.0162601626016 28.5804511278195  50.0162601626016 26.8992481203007  C 50.0162601626016 25.2827067669173  50.8617886178862 24.4421052631579  52.4878048780488 24.4421052631579  L 59.8373983739837 24.4421052631579  C 63.9349593495935 24.4421052631579  67.1219512195122 27.6751879699248  67 31.7488721804511  L 67 73.7789473684211  C 67.1219512195122 75.3954887218045  67.9674796747967 76.2360902255639  69.5934959349594 76.2360902255639  L 72.0650406504065 76.2360902255639  C 73.6910569105691 76.2360902255639  74.5365853658537 75.3954887218045  74 73.7789473684211  L 74 14.0962406015038  L 64.7804878048781 4.39699248120301  C 63.9349593495935 3.62105263157895  63.9349593495935 1.93984962406015  64.7804878048781 1.16390977443609  C 65.6260162601626 0.387969924812031  67.2520325203252 0.323308270676692  68.0325203252033 1.16390977443609  L 79 12.4796992481203  L 79 74.7488721804511  Z " fill-rule="nonzero" fill="#1296db" stroke="none" transform="matrix(1 0 0 1 832 405 )" />
  </g>
</svg>