<?xml version="1.0" encoding="utf-8"?>
<svg version="1.1" xmlns:xlink="http://www.w3.org/1999/xlink" width="19px" height="28px" xmlns="http://www.w3.org/2000/svg">
  <defs>
    <mask fill="white" id="clip82">
      <path d="M 15.6570253968252 13.2656363636363  C 15.6570253968252 13.2656363636363  14.6455091269841 14.6474363636363  14.6455091269841 14.6474363636363  C 14.6455091269841 14.6474363636363  13.8255234126983 13.2725090909091  13.8255234126983 13.2725090909091  C 13.8255234126983 13.2725090909091  13.4958960317459 14.8519636363636  13.4958960317459 14.8519636363636  C 13.4958960317459 14.8519636363636  13.4423190476191 13.2042909090908  13.4423190476191 13.2042909090908  C 13.4423190476191 13.2042909090908  12.7602869047619 13.2792545454545  12.7602869047619 13.2792545454545  C 12.7602869047619 13.2792545454545  12.5992694444443 13.0952181818182  12.5992694444443 13.0952181818182  C 12.5992694444443 13.0952181818182  12.2238007936509 13.3133636363636  12.2238007936509 13.3133636363636  C 12.2238007936509 13.3133636363636  11.6030813492063 15.2882545454545  11.6030813492063 15.2882545454545  C 11.6030813492063 15.2882545454545  11.794611904762 15.568  11.794611904762 15.568  C 11.794611904762 15.568  12.5226285714284 15.4041999999999  12.5226285714284 15.4041999999999  C 12.5226285714284 15.4041999999999  13.4499115079366 15.7931454545454  13.4499115079366 15.7931454545454  C 13.4499115079366 15.7931454545454  13.4652396825396 15.2746363636363  13.4652396825396 15.2746363636363  C 13.4652396825396 15.2746363636363  14.3849301587302 15.3223636363637  14.3849301587302 15.3223636363637  C 14.3849301587302 15.3223636363637  14.8830242063491 14.9950181818182  14.8830242063491 14.9950181818182  C 14.8830242063491 14.9950181818182  15.1358674603174 15.0496181818182  15.1358674603174 15.0496181818182  C 15.1358674603174 15.0496181818182  15.2049158730159 15.3223636363637  15.2049158730159 15.3223636363637  C 15.2049158730159 15.3223636363637  15.7030099206348 15.1860545454546  15.7030099206348 15.1860545454546  C 15.7030099206348 15.1860545454546  15.7489944444444 15.7111818181819  15.7489944444444 15.7111818181819  C 15.7489944444444 15.7111818181819  15.756586904762 15.7111818181819  15.756586904762 15.7111818181819  C 15.756586904762 15.7111818181819  15.7489944444444 15.7111818181819  15.7489944444444 15.7111818181819  C 15.7489944444444 15.7111818181819  15.756586904762 15.7111818181819  15.756586904762 15.7111818181819  C 15.756586904762 15.7111818181819  16.1781833333334 15.6565818181818  16.1781833333334 15.6565818181818  C 16.1781833333334 15.6565818181818  16.5613876984127 15.8613636363637  16.5613876984127 15.8613636363637  C 16.5613876984127 15.8613636363637  17.1361226190476 15.9090909090909  17.1361226190476 15.9090909090909  C 17.1361226190476 15.9090909090909  17.2280916666667 15.9500727272728  17.2280916666667 15.9500727272728  C 17.2280916666667 15.9500727272728  17.3047325396826 16.1207454545454  17.3047325396826 16.1207454545454  C 17.3047325396826 16.1207454545454  17.3429813492063 16.1479818181818  17.3429813492063 16.1479818181818  C 17.3429813492063 16.1479818181818  17.8641392857143 16.2845454545454  17.8641392857143 16.2845454545454  C 17.8641392857143 16.2845454545454  18.0174210317462 16.6463818181818  18.0174210317462 16.6463818181818  C 18.0174210317462 16.6463818181818  18.3698257936508 16.7762  18.3698257936508 16.7762  C 18.3698257936508 16.7762  18.3698257936508 17.1450363636363  18.3698257936508 17.1450363636363  C 18.3698257936508 17.1450363636363  17.9943571428572 17.3294545454545  17.9943571428572 17.3294545454545  C 17.9943571428572 17.3294545454545  17.9714365079366 17.3089636363636  17.9714365079366 17.3089636363636  C 17.9714365079366 17.3089636363636  17.2816686507937 17.514  17.2816686507937 17.514  C 17.2816686507937 17.514  17.1207944444445 18.0062909090909  17.1207944444445 18.0062909090909  C 17.1207944444445 18.0062909090909  15.9635888888889 18.7449818181817  15.9635888888889 18.7449818181817  C 15.9635888888889 18.7449818181817  15.5421357142857 19.7103454545455  15.5421357142857 19.7103454545455  C 15.5421357142857 19.7103454545455  15.7643226190477 21.1770363636364  15.7643226190477 21.1770363636364  C 15.7643226190477 21.1770363636364  16.293073015873 21.3074909090908  16.293073015873 21.3074909090908  C 16.293073015873 21.3074909090908  16.017165873016 21.7259636363635  16.017165873016 21.7259636363635  C 16.017165873016 21.7259636363635  15.664761111111 22.6802545454545  15.664761111111 22.6802545454545  C 15.664761111111 22.6802545454545  14.8063833333332 22.4810727272728  14.8063833333332 22.4810727272728  C 14.8063833333332 22.4810727272728  14.4768992063491 22.7970909090909  14.4768992063491 22.7970909090909  C 14.4768992063491 22.7970909090909  13.1586761904762 23.0718727272728  13.1586761904762 23.0718727272728  C 13.1586761904762 23.0718727272728  13.166411904762 23.6629272727273  13.166411904762 23.6629272727273  C 13.166411904762 23.6629272727273  13.4729753968254 23.9104727272727  13.4729753968254 23.9104727272727  C 13.4729753968254 23.9104727272727  14.3389456349207 24.1787636363636  14.3389456349207 24.1787636363636  C 14.3389456349207 24.1787636363636  14.3389456349207 24.9700181818182  14.3389456349207 24.9700181818182  C 14.3389456349207 24.9700181818182  14.1932563492063 25.2661818181818  14.1932563492063 25.2661818181818  C 14.1932563492063 25.2661818181818  13.2890373015873 25.5553454545454  13.2890373015873 25.5553454545454  C 13.2890373015873 25.5553454545454  13.0744428571429 26.0513272727273  13.0744428571429 26.0513272727273  C 13.0744428571429 26.0513272727273  12.0629265873017 26.2443999999999  12.0629265873017 26.2443999999999  C 12.0629265873017 26.2443999999999  11.0819234126984 26.2030363636364  11.0819234126984 26.2030363636364  C 11.0819234126984 26.2030363636364  10.4994527777778 26.4236  10.4994527777778 26.4236  C 10.4994527777778 26.4236  8.27758373015865 26.9682  8.27758373015865 26.9682  C 8.27758373015865 26.9682  6.83687857142866 27.0924181818182  6.83687857142866 27.0924181818182  C 6.83687857142866 27.0924181818182  6.65294047619034 26.7268909090909  6.65294047619034 26.7268909090909  C 6.65294047619034 26.7268909090909  6.90592698412695 26.327  6.90592698412695 26.327  C 6.90592698412695 26.327  6.33878452380952 25.858509090909  6.33878452380952 25.858509090909  C 6.33878452380952 25.858509090909  5.97090833333334 26.1754181818181  5.97090833333334 26.1754181818181  C 5.97090833333334 26.1754181818181  5.56478333333325 26.1822909090909  5.56478333333325 26.1822909090909  C 5.56478333333325 26.1822909090909  5.05136111111119 26.6717818181819  5.05136111111119 26.6717818181819  C 5.05136111111119 26.6717818181819  4.56845198412702 26.327  4.56845198412702 26.327  C 4.56845198412702 26.327  4.37692142857134 25.8653818181817  4.37692142857134 25.8653818181817  C 4.37692142857134 25.8653818181817  4.53779563492071 25.2591818181818  4.53779563492071 25.2591818181818  C 4.53779563492071 25.2591818181818  4.17006269841272 25.1422181818182  4.17006269841272 25.1422181818182  C 4.17006269841272 25.1422181818182  3.08176230158733 25.1284727272727  3.08176230158733 25.1284727272727  C 3.08176230158733 25.1284727272727  3.05110595238102 25.1284727272727  3.05110595238102 25.1284727272727  C 3.05110595238102 25.1284727272727  3.07416984126985 25.1284727272727  3.07416984126985 25.1284727272727  C 3.07416984126985 25.1284727272727  3.08176230158733 25.1284727272727  3.08176230158733 25.1284727272727  C 3.08176230158733 25.1284727272727  3.07416984126985 25.1284727272727  3.07416984126985 25.1284727272727  C 3.07416984126985 25.1284727272727  3.05110595238102 25.1284727272727  3.05110595238102 25.1284727272727  C 3.05110595238102 25.1284727272727  2.16221507936507 25.2591818181818  2.16221507936507 25.2591818181818  C 2.16221507936507 25.2591818181818  1.9322924603174 24.3644545454546  1.9322924603174 24.3644545454546  C 1.9322924603174 24.3644545454546  1.12763492063493 24.3163454545455  1.12763492063493 24.3163454545455  C 1.12763492063493 24.3163454545455  0.529836111111194 24.1718909090908  0.529836111111194 24.1718909090908  C 0.529836111111194 24.1718909090908  0.42253888888888 23.7249090909091  0.42253888888888 23.7249090909091  C 0.42253888888888 23.7249090909091  0.591148809523816 23.037509090909  0.591148809523816 23.037509090909  C 0.591148809523816 23.037509090909  0.246336507936576 22.721490909091  0.246336507936576 22.721490909091  C 0.246336507936576 22.721490909091  0.231008333333307 22.069090909091  0.231008333333307 22.069090909091  C 0.231008333333307 22.069090909091  0.0548059523808888 21.5544  0.0548059523808888 21.5544  C 0.0548059523808888 21.5544  0.307649206349197 20.9165090909091  0.307649206349197 20.9165090909091  C 0.307649206349197 20.9165090909091  0.637133333333395 20.5051636363636  0.637133333333395 20.5051636363636  C 0.637133333333395 20.5051636363636  0.629540873015799 20.0390909090909  0.629540873015799 20.0390909090909  C 0.629540873015799 20.0390909090909  0.989681349206307 19.7993090909091  0.989681349206307 19.7993090909091  C 0.989681349206307 19.7993090909091  1.35755753968249 19.7993090909091  1.35755753968249 19.7993090909091  C 1.35755753968249 19.7993090909091  2.09316666666666 19.7445818181818  2.09316666666666 19.7445818181818  C 2.09316666666666 19.7445818181818  2.59899642857147 18.9161636363635  2.59899642857147 18.9161636363635  C 2.59899642857147 18.9161636363635  2.59140396825387 18.9092909090909  2.59140396825387 18.9092909090909  C 2.59140396825387 18.9092909090909  2.59899642857147 18.9161636363635  2.59899642857147 18.9161636363635  C 2.59899642857147 18.9161636363635  2.56074761904756 18.3276545454546  2.56074761904756 18.3276545454546  C 2.56074761904756 18.3276545454546  2.07024603174602 18.2866727272727  2.07024603174602 18.2866727272727  C 2.07024603174602 18.2866727272727  1.89390039682542 17.3705636363637  1.89390039682542 17.3705636363637  C 1.89390039682542 17.3705636363637  2.21579206349202 17.2201272727273  2.21579206349202 17.2201272727273  C 2.21579206349202 17.2201272727273  2.10090238095233 16.2571818181818  2.10090238095233 16.2571818181818  C 2.10090238095233 16.2571818181818  2.31549682539685 15.568  2.31549682539685 15.568  C 2.31549682539685 15.568  2.07783849206351 15.281509090909  2.07783849206351 15.281509090909  C 2.07783849206351 15.281509090909  1.56441626984133 15.5542545454546  1.56441626984133 15.5542545454546  C 1.56441626984133 15.5542545454546  1.42646269841282 15.0427454545454  1.42646269841282 15.0427454545454  C 1.42646269841282 15.0427454545454  1.70236984126984 14.9746545454545  1.70236984126984 14.9746545454545  C 1.70236984126984 14.9746545454545  1.69477738095236 13.1838  1.69477738095236 13.1838  C 1.69477738095236 13.1838  2.14688690476191 12.8704545454545  2.14688690476191 12.8704545454545  C 2.14688690476191 12.8704545454545  1.6028083333332 12.8568363636364  1.6028083333332 12.8568363636364  C 1.6028083333332 12.8568363636364  1.01260198412695 12.4140545454545  1.01260198412695 12.4140545454545  C 1.01260198412695 12.4140545454545  1.45711904761913 12.1690545454545  1.45711904761913 12.1690545454545  C 1.45711904761913 12.1690545454545  1.44179087301586 11.4884000000001  1.44179087301586 11.4884000000001  C 1.44179087301586 11.4884000000001  1.04325833333326 11.1074727272728  1.04325833333326 11.1074727272728  C 1.04325833333326 11.1074727272728  1.30383730158746 10.7811454545454  1.30383730158746 10.7811454545454  C 1.30383730158746 10.7811454545454  1.3498218253967 10.2034545454545  1.3498218253967 10.2034545454545  C 1.3498218253967 10.2034545454545  1.81740277777772 9.43587272727268  1.81740277777772 9.43587272727268  C 1.81740277777772 9.43587272727268  2.52235555555569 9.29332727272731  2.52235555555569 9.29332727272731  C 2.52235555555569 9.29332727272731  2.5147630952381 9.13716363636365  2.5147630952381 9.13716363636365  C 2.5147630952381 9.13716363636365  2.84424722222229 8.86569090909086  2.84424722222229 8.86569090909086  C 2.84424722222229 8.86569090909086  2.99752896825396 9.02859999999998  2.99752896825396 9.02859999999998  C 2.99752896825396 9.02859999999998  3.05110595238102 9.24585454545456  3.05110595238102 9.24585454545456  C 3.05110595238102 9.24585454545456  3.24277976190479 9.79579999999999  3.24277976190479 9.79579999999999  C 3.24277976190479 9.79579999999999  3.48029484126982 9.86376363636373  3.48029484126982 9.86376363636373  C 3.48029484126982 9.86376363636373  3.8864198412698 9.63963636363633  3.8864198412698 9.63963636363633  C 3.8864198412698 9.63963636363633  5.04362539682541 10.0607818181818  5.04362539682541 10.0607818181818  C 5.04362539682541 10.0607818181818  5.587703968254 10.0878909090909  5.587703968254 10.0878909090909  C 5.587703968254 10.0878909090909  5.90200317460324 9.76869090909099  5.90200317460324 9.76869090909099  C 5.90200317460324 9.76869090909099  5.74098571428578 8.68254545454545  5.74098571428578 8.68254545454545  C 5.74098571428578 8.68254545454545  5.70273690476199 8.24167272727277  5.70273690476199 8.24167272727277  C 5.70273690476199 8.24167272727277  6.24681547619048 8.01780000000008  6.24681547619048 8.01780000000008  C 6.24681547619048 8.01780000000008  5.64901666666674 7.53658181818184  5.64901666666674 7.53658181818184  C 5.64901666666674 7.53658181818184  5.63368849206347 7.23163636363643  5.63368849206347 7.23163636363643  C 5.63368849206347 7.23163636363643  6.07820555555554 7.00139999999999  6.07820555555554 7.00139999999999  C 6.07820555555554 7.00139999999999  6.82155039682539 6.98103636363635  6.82155039682539 6.98103636363635  C 6.82155039682539 6.98103636363635  6.76797341269844 6.58827272727274  6.76797341269844 6.58827272727274  C 6.76797341269844 6.58827272727274  6.52272261904761 6.71007272727275  6.52272261904761 6.71007272727275  C 6.52272261904761 6.71007272727275  5.71032936507936 6.35803636363642  5.71032936507936 6.35803636363642  C 5.71032936507936 6.35803636363642  5.56478333333325 5.35003636363638  5.56478333333325 5.35003636363638  C 5.56478333333325 5.35003636363638  6.15484642857155 4.64698181818187  6.15484642857155 4.64698181818187  C 6.15484642857155 4.64698181818187  6.07820555555554 3.55956363636358  6.07820555555554 3.55956363636358  C 6.07820555555554 3.55956363636358  6.30039246031743 3.33009090909093  6.30039246031743 3.33009090909093  C 6.30039246031743 3.33009090909093  6.47673809523815 3.14109090909085  6.47673809523815 3.14109090909085  C 6.47673809523815 3.14109090909085  6.85994246031737 2.85103636363647  6.85994246031737 2.85103636363647  C 6.85994246031737 2.85103636363647  7.09745753968252 2.97919999999999  7.09745753968252 2.97919999999999  C 7.09745753968252 2.97919999999999  7.51131825396817 2.52050909090917  7.51131825396817 2.52050909090917  C 7.51131825396817 2.52050909090917  8.03247619047636 2.52725454545464  8.03247619047636 2.52725454545464  C 8.03247619047636 2.52725454545464  8.25466309523813 1.99474545454552  8.25466309523813 1.99474545454552  C 8.25466309523813 1.99474545454552  8.25466309523813 1.98800000000006  8.25466309523813 1.98800000000006  C 8.25466309523813 1.98800000000006  8.25466309523813 1.99474545454552  8.25466309523813 1.99474545454552  C 8.25466309523813 1.99474545454552  8.46152182539686 1.76565454545448  8.46152182539686 1.76565454545448  C 8.46152182539686 1.76565454545448  9.97070238095239 1.17956363636358  9.97070238095239 1.17956363636358  C 9.97070238095239 1.17956363636358  10.292594047619 0.869781818181764  10.292594047619 0.869781818181764  C 10.292594047619 0.869781818181764  10.721782936508 0.815945454545499  10.721782936508 0.815945454545499  C 10.721782936508 0.815945454545499  11.403815079365 1.19305454545452  11.403815079365 1.19305454545452  C 11.403815079365 1.19305454545452  11.9478936507936 1.11223636363627  11.9478936507936 1.11223636363627  C 11.9478936507936 1.11223636363627  12.2313932539681 1.30747272727274  12.2313932539681 1.30747272727274  C 12.2313932539681 1.30747272727274  12.2927059523809 1.90705454545457  12.2927059523809 1.90705454545457  C 12.2927059523809 1.90705454545457  12.7065666666667 2.17674545454543  12.7065666666667 2.17674545454543  C 12.7065666666667 2.17674545454543  12.7525511904763 2.21047272727276  12.7525511904763 2.21047272727276  C 12.7525511904763 2.21047272727276  13.2277246031746 2.72961818181807  13.2277246031746 2.72961818181807  C 13.2277246031746 2.72961818181807  13.2583809523809 2.85103636363647  13.2583809523809 2.85103636363647  C 13.2583809523809 2.85103636363647  13.2813015873016 2.92523636363626  13.2813015873016 2.92523636363626  C 13.2813015873016 2.92523636363626  13.5189599206349 3.33009090909093  13.5189599206349 3.33009090909093  C 13.5189599206349 3.33009090909093  14.0630384920636 3.33009090909093  14.0630384920636 3.33009090909093  C 14.0630384920636 3.33009090909093  14.4844916666666 3.33683636363639  14.4844916666666 3.33683636363639  C 14.4844916666666 3.33683636363639  14.7757269841269 3.6608727272727  14.7757269841269 3.6608727272727  C 14.7757269841269 3.6608727272727  14.423178968254 3.8431272727272  14.423178968254 3.8431272727272  C 14.423178968254 3.8431272727272  14.3771944444444 4.26859999999999  14.3771944444444 4.26859999999999  C 14.3771944444444 4.26859999999999  14.6837579365078 4.21450909090913  14.6837579365078 4.21450909090913  C 14.6837579365078 4.21450909090913  14.9903214285715 4.45772727272731  14.9903214285715 4.45772727272731  C 14.9903214285715 4.45772727272731  15.013242063492 4.58614545454543  15.013242063492 4.58614545454543  C 15.013242063492 4.58614545454543  14.8446321428571 5.03223636363646  14.8446321428571 5.03223636363646  C 14.8446321428571 5.03223636363646  14.5304761904762 5.05247272727274  14.5304761904762 5.05247272727274  C 14.5304761904762 5.05247272727274  13.7182261904761 4.76178181818182  13.7182261904761 4.76178181818182  C 13.7182261904761 4.76178181818182  13.4729753968254 4.92405454545462  13.4729753968254 4.92405454545462  C 13.4729753968254 4.92405454545462  12.7678793650794 4.94429090909091  12.7678793650794 4.94429090909091  C 12.7678793650794 4.94429090909091  12.5226285714284 4.61987272727276  12.5226285714284 4.61987272727276  C 12.5226285714284 4.61987272727276  11.9172373015873 4.55229090909086  11.9172373015873 4.55229090909086  C 11.9172373015873 4.55229090909086  11.7716912698413 5.20799999999997  11.7716912698413 5.20799999999997  C 11.7716912698413 5.20799999999997  11.5264404761905 5.32292727272738  11.5264404761905 5.32292727272738  C 11.5264404761905 5.32292727272738  11.5033765873015 5.85734545454545  11.5033765873015 5.85734545454545  C 11.5033765873015 5.85734545454545  11.4957841269842 5.88432727272732  11.4957841269842 5.88432727272732  C 11.4957841269842 5.88432727272732  11.4420638888889 5.98589090909093  11.4420638888889 5.98589090909093  C 11.4420638888889 5.98589090909093  11.7026428571428 6.61538181818173  11.7026428571428 6.61538181818173  C 11.7026428571428 6.61538181818173  12.1089111111112 7.4891090909091  12.1089111111112 7.4891090909091  C 12.1089111111112 7.4891090909091  11.9172373015873 7.84152727272726  11.9172373015873 7.84152727272726  C 11.9172373015873 7.84152727272726  12.1011753968254 8.15347272727274  12.1011753968254 8.15347272727274  C 12.1011753968254 8.15347272727274  12.5303642857142 8.2822727272727  12.5303642857142 8.2822727272727  C 12.5303642857142 8.2822727272727  12.3080341269842 8.56723636363631  12.3080341269842 8.56723636363631  C 12.3080341269842 8.56723636363631  12.9211611111111 8.90641818181825  12.9211611111111 8.90641818181825  C 12.9211611111111 8.90641818181825  13.4423190476191 9.44949090909086  13.4423190476191 9.44949090909086  C 13.4423190476191 9.44949090909086  13.3656781746032 9.89774545454543  13.3656781746032 9.89774545454543  C 13.3656781746032 9.89774545454543  13.0513789682539 10.3868545454545  13.0513789682539 10.3868545454545  C 13.0513789682539 10.3868545454545  13.2583809523809 10.8015090909091  13.2583809523809 10.8015090909091  C 13.2583809523809 10.8015090909091  13.6415853174603 10.5976181818181  13.6415853174603 10.5976181818181  C 13.6415853174603 10.5976181818181  13.9174924603174 10.7878909090908  13.9174924603174 10.7878909090908  C 13.9174924603174 10.7878909090908  14.0246464285714 11.4680363636364  14.0246464285714 11.4680363636364  C 14.0246464285714 11.4680363636364  14.3925226190476 11.2026727272728  14.3925226190476 11.2026727272728  C 14.3925226190476 11.2026727272728  14.4998198412699 10.7335454545455  14.4998198412699 10.7335454545455  C 14.4998198412699 10.7335454545455  14.6608373015873 10.4548181818182  14.6608373015873 10.4548181818182  C 14.6608373015873 10.4548181818182  15.442430952381 10.5839999999999  15.442430952381 10.5839999999999  C 15.442430952381 10.5839999999999  15.9251968253968 10.4820545454545  15.9251968253968 10.4820545454545  C 15.9251968253968 10.4820545454545  16.7375900793651 10.8151272727273  16.7375900793651 10.8151272727273  C 16.7375900793651 10.8151272727273  16.3774496031747 11.4135636363636  16.3774496031747 11.4135636363636  C 16.3774496031747 11.4135636363636  16.4694186507937 11.6516909090909  16.4694186507937 11.6516909090909  C 16.4694186507937 11.6516909090909  16.3161369047619 12.2847454545454  16.3161369047619 12.2847454545454  C 16.3161369047619 12.2847454545454  15.9482607142857 12.5707272727274  15.9482607142857 12.5707272727274  C 15.9482607142857 12.5707272727274  15.9635888888889 13.2111636363637  15.9635888888889 13.2111636363637  C 15.9635888888889 13.2111636363637  15.6570253968252 13.2656363636363  15.6570253968252 13.2656363636363  Z M 15.7259305555556 14.9405454545454  C 15.7259305555556 14.9405454545454  13.7033277777778 15.0496181818182  13.7033277777778 15.0496181818182  C 13.7033277777778 15.0496181818182  13.4504845238095 14.9950181818182  13.4504845238095 14.9950181818182  C 13.4504845238095 14.9950181818182  13.2129694444443 13.3747090909091  13.2129694444443 13.3747090909091  C 13.2129694444443 13.3747090909091  15.6570253968252 13.2656363636363  15.6570253968252 13.2656363636363  C 15.6570253968252 13.2656363636363  15.7259305555556 14.9405454545454  15.7259305555556 14.9405454545454  Z " fill-rule="evenodd" />
    </mask>
  </defs>
  <g transform="matrix(1 0 0 1 -1111 -271 )">
    <path d="M 15.6570253968252 13.2656363636363  C 15.6570253968252 13.2656363636363  14.6455091269841 14.6474363636363  14.6455091269841 14.6474363636363  C 14.6455091269841 14.6474363636363  13.8255234126983 13.2725090909091  13.8255234126983 13.2725090909091  C 13.8255234126983 13.2725090909091  13.4958960317459 14.8519636363636  13.4958960317459 14.8519636363636  C 13.4958960317459 14.8519636363636  13.4423190476191 13.2042909090908  13.4423190476191 13.2042909090908  C 13.4423190476191 13.2042909090908  12.7602869047619 13.2792545454545  12.7602869047619 13.2792545454545  C 12.7602869047619 13.2792545454545  12.5992694444443 13.0952181818182  12.5992694444443 13.0952181818182  C 12.5992694444443 13.0952181818182  12.2238007936509 13.3133636363636  12.2238007936509 13.3133636363636  C 12.2238007936509 13.3133636363636  11.6030813492063 15.2882545454545  11.6030813492063 15.2882545454545  C 11.6030813492063 15.2882545454545  11.794611904762 15.568  11.794611904762 15.568  C 11.794611904762 15.568  12.5226285714284 15.4041999999999  12.5226285714284 15.4041999999999  C 12.5226285714284 15.4041999999999  13.4499115079366 15.7931454545454  13.4499115079366 15.7931454545454  C 13.4499115079366 15.7931454545454  13.4652396825396 15.2746363636363  13.4652396825396 15.2746363636363  C 13.4652396825396 15.2746363636363  14.3849301587302 15.3223636363637  14.3849301587302 15.3223636363637  C 14.3849301587302 15.3223636363637  14.8830242063491 14.9950181818182  14.8830242063491 14.9950181818182  C 14.8830242063491 14.9950181818182  15.1358674603174 15.0496181818182  15.1358674603174 15.0496181818182  C 15.1358674603174 15.0496181818182  15.2049158730159 15.3223636363637  15.2049158730159 15.3223636363637  C 15.2049158730159 15.3223636363637  15.7030099206348 15.1860545454546  15.7030099206348 15.1860545454546  C 15.7030099206348 15.1860545454546  15.7489944444444 15.7111818181819  15.7489944444444 15.7111818181819  C 15.7489944444444 15.7111818181819  15.756586904762 15.7111818181819  15.756586904762 15.7111818181819  C 15.756586904762 15.7111818181819  15.7489944444444 15.7111818181819  15.7489944444444 15.7111818181819  C 15.7489944444444 15.7111818181819  15.756586904762 15.7111818181819  15.756586904762 15.7111818181819  C 15.756586904762 15.7111818181819  16.1781833333334 15.6565818181818  16.1781833333334 15.6565818181818  C 16.1781833333334 15.6565818181818  16.5613876984127 15.8613636363637  16.5613876984127 15.8613636363637  C 16.5613876984127 15.8613636363637  17.1361226190476 15.9090909090909  17.1361226190476 15.9090909090909  C 17.1361226190476 15.9090909090909  17.2280916666667 15.9500727272728  17.2280916666667 15.9500727272728  C 17.2280916666667 15.9500727272728  17.3047325396826 16.1207454545454  17.3047325396826 16.1207454545454  C 17.3047325396826 16.1207454545454  17.3429813492063 16.1479818181818  17.3429813492063 16.1479818181818  C 17.3429813492063 16.1479818181818  17.8641392857143 16.2845454545454  17.8641392857143 16.2845454545454  C 17.8641392857143 16.2845454545454  18.0174210317462 16.6463818181818  18.0174210317462 16.6463818181818  C 18.0174210317462 16.6463818181818  18.3698257936508 16.7762  18.3698257936508 16.7762  C 18.3698257936508 16.7762  18.3698257936508 17.1450363636363  18.3698257936508 17.1450363636363  C 18.3698257936508 17.1450363636363  17.9943571428572 17.3294545454545  17.9943571428572 17.3294545454545  C 17.9943571428572 17.3294545454545  17.9714365079366 17.3089636363636  17.9714365079366 17.3089636363636  C 17.9714365079366 17.3089636363636  17.2816686507937 17.514  17.2816686507937 17.514  C 17.2816686507937 17.514  17.1207944444445 18.0062909090909  17.1207944444445 18.0062909090909  C 17.1207944444445 18.0062909090909  15.9635888888889 18.7449818181817  15.9635888888889 18.7449818181817  C 15.9635888888889 18.7449818181817  15.5421357142857 19.7103454545455  15.5421357142857 19.7103454545455  C 15.5421357142857 19.7103454545455  15.7643226190477 21.1770363636364  15.7643226190477 21.1770363636364  C 15.7643226190477 21.1770363636364  16.293073015873 21.3074909090908  16.293073015873 21.3074909090908  C 16.293073015873 21.3074909090908  16.017165873016 21.7259636363635  16.017165873016 21.7259636363635  C 16.017165873016 21.7259636363635  15.664761111111 22.6802545454545  15.664761111111 22.6802545454545  C 15.664761111111 22.6802545454545  14.8063833333332 22.4810727272728  14.8063833333332 22.4810727272728  C 14.8063833333332 22.4810727272728  14.4768992063491 22.7970909090909  14.4768992063491 22.7970909090909  C 14.4768992063491 22.7970909090909  13.1586761904762 23.0718727272728  13.1586761904762 23.0718727272728  C 13.1586761904762 23.0718727272728  13.166411904762 23.6629272727273  13.166411904762 23.6629272727273  C 13.166411904762 23.6629272727273  13.4729753968254 23.9104727272727  13.4729753968254 23.9104727272727  C 13.4729753968254 23.9104727272727  14.3389456349207 24.1787636363636  14.3389456349207 24.1787636363636  C 14.3389456349207 24.1787636363636  14.3389456349207 24.9700181818182  14.3389456349207 24.9700181818182  C 14.3389456349207 24.9700181818182  14.1932563492063 25.2661818181818  14.1932563492063 25.2661818181818  C 14.1932563492063 25.2661818181818  13.2890373015873 25.5553454545454  13.2890373015873 25.5553454545454  C 13.2890373015873 25.5553454545454  13.0744428571429 26.0513272727273  13.0744428571429 26.0513272727273  C 13.0744428571429 26.0513272727273  12.0629265873017 26.2443999999999  12.0629265873017 26.2443999999999  C 12.0629265873017 26.2443999999999  11.0819234126984 26.2030363636364  11.0819234126984 26.2030363636364  C 11.0819234126984 26.2030363636364  10.4994527777778 26.4236  10.4994527777778 26.4236  C 10.4994527777778 26.4236  8.27758373015865 26.9682  8.27758373015865 26.9682  C 8.27758373015865 26.9682  6.83687857142866 27.0924181818182  6.83687857142866 27.0924181818182  C 6.83687857142866 27.0924181818182  6.65294047619034 26.7268909090909  6.65294047619034 26.7268909090909  C 6.65294047619034 26.7268909090909  6.90592698412695 26.327  6.90592698412695 26.327  C 6.90592698412695 26.327  6.33878452380952 25.858509090909  6.33878452380952 25.858509090909  C 6.33878452380952 25.858509090909  5.97090833333334 26.1754181818181  5.97090833333334 26.1754181818181  C 5.97090833333334 26.1754181818181  5.56478333333325 26.1822909090909  5.56478333333325 26.1822909090909  C 5.56478333333325 26.1822909090909  5.05136111111119 26.6717818181819  5.05136111111119 26.6717818181819  C 5.05136111111119 26.6717818181819  4.56845198412702 26.327  4.56845198412702 26.327  C 4.56845198412702 26.327  4.37692142857134 25.8653818181817  4.37692142857134 25.8653818181817  C 4.37692142857134 25.8653818181817  4.53779563492071 25.2591818181818  4.53779563492071 25.2591818181818  C 4.53779563492071 25.2591818181818  4.17006269841272 25.1422181818182  4.17006269841272 25.1422181818182  C 4.17006269841272 25.1422181818182  3.08176230158733 25.1284727272727  3.08176230158733 25.1284727272727  C 3.08176230158733 25.1284727272727  3.05110595238102 25.1284727272727  3.05110595238102 25.1284727272727  C 3.05110595238102 25.1284727272727  3.07416984126985 25.1284727272727  3.07416984126985 25.1284727272727  C 3.07416984126985 25.1284727272727  3.08176230158733 25.1284727272727  3.08176230158733 25.1284727272727  C 3.08176230158733 25.1284727272727  3.07416984126985 25.1284727272727  3.07416984126985 25.1284727272727  C 3.07416984126985 25.1284727272727  3.05110595238102 25.1284727272727  3.05110595238102 25.1284727272727  C 3.05110595238102 25.1284727272727  2.16221507936507 25.2591818181818  2.16221507936507 25.2591818181818  C 2.16221507936507 25.2591818181818  1.9322924603174 24.3644545454546  1.9322924603174 24.3644545454546  C 1.9322924603174 24.3644545454546  1.12763492063493 24.3163454545455  1.12763492063493 24.3163454545455  C 1.12763492063493 24.3163454545455  0.529836111111194 24.1718909090908  0.529836111111194 24.1718909090908  C 0.529836111111194 24.1718909090908  0.42253888888888 23.7249090909091  0.42253888888888 23.7249090909091  C 0.42253888888888 23.7249090909091  0.591148809523816 23.037509090909  0.591148809523816 23.037509090909  C 0.591148809523816 23.037509090909  0.246336507936576 22.721490909091  0.246336507936576 22.721490909091  C 0.246336507936576 22.721490909091  0.231008333333307 22.069090909091  0.231008333333307 22.069090909091  C 0.231008333333307 22.069090909091  0.0548059523808888 21.5544  0.0548059523808888 21.5544  C 0.0548059523808888 21.5544  0.307649206349197 20.9165090909091  0.307649206349197 20.9165090909091  C 0.307649206349197 20.9165090909091  0.637133333333395 20.5051636363636  0.637133333333395 20.5051636363636  C 0.637133333333395 20.5051636363636  0.629540873015799 20.0390909090909  0.629540873015799 20.0390909090909  C 0.629540873015799 20.0390909090909  0.989681349206307 19.7993090909091  0.989681349206307 19.7993090909091  C 0.989681349206307 19.7993090909091  1.35755753968249 19.7993090909091  1.35755753968249 19.7993090909091  C 1.35755753968249 19.7993090909091  2.09316666666666 19.7445818181818  2.09316666666666 19.7445818181818  C 2.09316666666666 19.7445818181818  2.59899642857147 18.9161636363635  2.59899642857147 18.9161636363635  C 2.59899642857147 18.9161636363635  2.59140396825387 18.9092909090909  2.59140396825387 18.9092909090909  C 2.59140396825387 18.9092909090909  2.59899642857147 18.9161636363635  2.59899642857147 18.9161636363635  C 2.59899642857147 18.9161636363635  2.56074761904756 18.3276545454546  2.56074761904756 18.3276545454546  C 2.56074761904756 18.3276545454546  2.07024603174602 18.2866727272727  2.07024603174602 18.2866727272727  C 2.07024603174602 18.2866727272727  1.89390039682542 17.3705636363637  1.89390039682542 17.3705636363637  C 1.89390039682542 17.3705636363637  2.21579206349202 17.2201272727273  2.21579206349202 17.2201272727273  C 2.21579206349202 17.2201272727273  2.10090238095233 16.2571818181818  2.10090238095233 16.2571818181818  C 2.10090238095233 16.2571818181818  2.31549682539685 15.568  2.31549682539685 15.568  C 2.31549682539685 15.568  2.07783849206351 15.281509090909  2.07783849206351 15.281509090909  C 2.07783849206351 15.281509090909  1.56441626984133 15.5542545454546  1.56441626984133 15.5542545454546  C 1.56441626984133 15.5542545454546  1.42646269841282 15.0427454545454  1.42646269841282 15.0427454545454  C 1.42646269841282 15.0427454545454  1.70236984126984 14.9746545454545  1.70236984126984 14.9746545454545  C 1.70236984126984 14.9746545454545  1.69477738095236 13.1838  1.69477738095236 13.1838  C 1.69477738095236 13.1838  2.14688690476191 12.8704545454545  2.14688690476191 12.8704545454545  C 2.14688690476191 12.8704545454545  1.6028083333332 12.8568363636364  1.6028083333332 12.8568363636364  C 1.6028083333332 12.8568363636364  1.01260198412695 12.4140545454545  1.01260198412695 12.4140545454545  C 1.01260198412695 12.4140545454545  1.45711904761913 12.1690545454545  1.45711904761913 12.1690545454545  C 1.45711904761913 12.1690545454545  1.44179087301586 11.4884000000001  1.44179087301586 11.4884000000001  C 1.44179087301586 11.4884000000001  1.04325833333326 11.1074727272728  1.04325833333326 11.1074727272728  C 1.04325833333326 11.1074727272728  1.30383730158746 10.7811454545454  1.30383730158746 10.7811454545454  C 1.30383730158746 10.7811454545454  1.3498218253967 10.2034545454545  1.3498218253967 10.2034545454545  C 1.3498218253967 10.2034545454545  1.81740277777772 9.43587272727268  1.81740277777772 9.43587272727268  C 1.81740277777772 9.43587272727268  2.52235555555569 9.29332727272731  2.52235555555569 9.29332727272731  C 2.52235555555569 9.29332727272731  2.5147630952381 9.13716363636365  2.5147630952381 9.13716363636365  C 2.5147630952381 9.13716363636365  2.84424722222229 8.86569090909086  2.84424722222229 8.86569090909086  C 2.84424722222229 8.86569090909086  2.99752896825396 9.02859999999998  2.99752896825396 9.02859999999998  C 2.99752896825396 9.02859999999998  3.05110595238102 9.24585454545456  3.05110595238102 9.24585454545456  C 3.05110595238102 9.24585454545456  3.24277976190479 9.79579999999999  3.24277976190479 9.79579999999999  C 3.24277976190479 9.79579999999999  3.48029484126982 9.86376363636373  3.48029484126982 9.86376363636373  C 3.48029484126982 9.86376363636373  3.8864198412698 9.63963636363633  3.8864198412698 9.63963636363633  C 3.8864198412698 9.63963636363633  5.04362539682541 10.0607818181818  5.04362539682541 10.0607818181818  C 5.04362539682541 10.0607818181818  5.587703968254 10.0878909090909  5.587703968254 10.0878909090909  C 5.587703968254 10.0878909090909  5.90200317460324 9.76869090909099  5.90200317460324 9.76869090909099  C 5.90200317460324 9.76869090909099  5.74098571428578 8.68254545454545  5.74098571428578 8.68254545454545  C 5.74098571428578 8.68254545454545  5.70273690476199 8.24167272727277  5.70273690476199 8.24167272727277  C 5.70273690476199 8.24167272727277  6.24681547619048 8.01780000000008  6.24681547619048 8.01780000000008  C 6.24681547619048 8.01780000000008  5.64901666666674 7.53658181818184  5.64901666666674 7.53658181818184  C 5.64901666666674 7.53658181818184  5.63368849206347 7.23163636363643  5.63368849206347 7.23163636363643  C 5.63368849206347 7.23163636363643  6.07820555555554 7.00139999999999  6.07820555555554 7.00139999999999  C 6.07820555555554 7.00139999999999  6.82155039682539 6.98103636363635  6.82155039682539 6.98103636363635  C 6.82155039682539 6.98103636363635  6.76797341269844 6.58827272727274  6.76797341269844 6.58827272727274  C 6.76797341269844 6.58827272727274  6.52272261904761 6.71007272727275  6.52272261904761 6.71007272727275  C 6.52272261904761 6.71007272727275  5.71032936507936 6.35803636363642  5.71032936507936 6.35803636363642  C 5.71032936507936 6.35803636363642  5.56478333333325 5.35003636363638  5.56478333333325 5.35003636363638  C 5.56478333333325 5.35003636363638  6.15484642857155 4.64698181818187  6.15484642857155 4.64698181818187  C 6.15484642857155 4.64698181818187  6.07820555555554 3.55956363636358  6.07820555555554 3.55956363636358  C 6.07820555555554 3.55956363636358  6.30039246031743 3.33009090909093  6.30039246031743 3.33009090909093  C 6.30039246031743 3.33009090909093  6.47673809523815 3.14109090909085  6.47673809523815 3.14109090909085  C 6.47673809523815 3.14109090909085  6.85994246031737 2.85103636363647  6.85994246031737 2.85103636363647  C 6.85994246031737 2.85103636363647  7.09745753968252 2.97919999999999  7.09745753968252 2.97919999999999  C 7.09745753968252 2.97919999999999  7.51131825396817 2.52050909090917  7.51131825396817 2.52050909090917  C 7.51131825396817 2.52050909090917  8.03247619047636 2.52725454545464  8.03247619047636 2.52725454545464  C 8.03247619047636 2.52725454545464  8.25466309523813 1.99474545454552  8.25466309523813 1.99474545454552  C 8.25466309523813 1.99474545454552  8.25466309523813 1.98800000000006  8.25466309523813 1.98800000000006  C 8.25466309523813 1.98800000000006  8.25466309523813 1.99474545454552  8.25466309523813 1.99474545454552  C 8.25466309523813 1.99474545454552  8.46152182539686 1.76565454545448  8.46152182539686 1.76565454545448  C 8.46152182539686 1.76565454545448  9.97070238095239 1.17956363636358  9.97070238095239 1.17956363636358  C 9.97070238095239 1.17956363636358  10.292594047619 0.869781818181764  10.292594047619 0.869781818181764  C 10.292594047619 0.869781818181764  10.721782936508 0.815945454545499  10.721782936508 0.815945454545499  C 10.721782936508 0.815945454545499  11.403815079365 1.19305454545452  11.403815079365 1.19305454545452  C 11.403815079365 1.19305454545452  11.9478936507936 1.11223636363627  11.9478936507936 1.11223636363627  C 11.9478936507936 1.11223636363627  12.2313932539681 1.30747272727274  12.2313932539681 1.30747272727274  C 12.2313932539681 1.30747272727274  12.2927059523809 1.90705454545457  12.2927059523809 1.90705454545457  C 12.2927059523809 1.90705454545457  12.7065666666667 2.17674545454543  12.7065666666667 2.17674545454543  C 12.7065666666667 2.17674545454543  12.7525511904763 2.21047272727276  12.7525511904763 2.21047272727276  C 12.7525511904763 2.21047272727276  13.2277246031746 2.72961818181807  13.2277246031746 2.72961818181807  C 13.2277246031746 2.72961818181807  13.2583809523809 2.85103636363647  13.2583809523809 2.85103636363647  C 13.2583809523809 2.85103636363647  13.2813015873016 2.92523636363626  13.2813015873016 2.92523636363626  C 13.2813015873016 2.92523636363626  13.5189599206349 3.33009090909093  13.5189599206349 3.33009090909093  C 13.5189599206349 3.33009090909093  14.0630384920636 3.33009090909093  14.0630384920636 3.33009090909093  C 14.0630384920636 3.33009090909093  14.4844916666666 3.33683636363639  14.4844916666666 3.33683636363639  C 14.4844916666666 3.33683636363639  14.7757269841269 3.6608727272727  14.7757269841269 3.6608727272727  C 14.7757269841269 3.6608727272727  14.423178968254 3.8431272727272  14.423178968254 3.8431272727272  C 14.423178968254 3.8431272727272  14.3771944444444 4.26859999999999  14.3771944444444 4.26859999999999  C 14.3771944444444 4.26859999999999  14.6837579365078 4.21450909090913  14.6837579365078 4.21450909090913  C 14.6837579365078 4.21450909090913  14.9903214285715 4.45772727272731  14.9903214285715 4.45772727272731  C 14.9903214285715 4.45772727272731  15.013242063492 4.58614545454543  15.013242063492 4.58614545454543  C 15.013242063492 4.58614545454543  14.8446321428571 5.03223636363646  14.8446321428571 5.03223636363646  C 14.8446321428571 5.03223636363646  14.5304761904762 5.05247272727274  14.5304761904762 5.05247272727274  C 14.5304761904762 5.05247272727274  13.7182261904761 4.76178181818182  13.7182261904761 4.76178181818182  C 13.7182261904761 4.76178181818182  13.4729753968254 4.92405454545462  13.4729753968254 4.92405454545462  C 13.4729753968254 4.92405454545462  12.7678793650794 4.94429090909091  12.7678793650794 4.94429090909091  C 12.7678793650794 4.94429090909091  12.5226285714284 4.61987272727276  12.5226285714284 4.61987272727276  C 12.5226285714284 4.61987272727276  11.9172373015873 4.55229090909086  11.9172373015873 4.55229090909086  C 11.9172373015873 4.55229090909086  11.7716912698413 5.20799999999997  11.7716912698413 5.20799999999997  C 11.7716912698413 5.20799999999997  11.5264404761905 5.32292727272738  11.5264404761905 5.32292727272738  C 11.5264404761905 5.32292727272738  11.5033765873015 5.85734545454545  11.5033765873015 5.85734545454545  C 11.5033765873015 5.85734545454545  11.4957841269842 5.88432727272732  11.4957841269842 5.88432727272732  C 11.4957841269842 5.88432727272732  11.4420638888889 5.98589090909093  11.4420638888889 5.98589090909093  C 11.4420638888889 5.98589090909093  11.7026428571428 6.61538181818173  11.7026428571428 6.61538181818173  C 11.7026428571428 6.61538181818173  12.1089111111112 7.4891090909091  12.1089111111112 7.4891090909091  C 12.1089111111112 7.4891090909091  11.9172373015873 7.84152727272726  11.9172373015873 7.84152727272726  C 11.9172373015873 7.84152727272726  12.1011753968254 8.15347272727274  12.1011753968254 8.15347272727274  C 12.1011753968254 8.15347272727274  12.5303642857142 8.2822727272727  12.5303642857142 8.2822727272727  C 12.5303642857142 8.2822727272727  12.3080341269842 8.56723636363631  12.3080341269842 8.56723636363631  C 12.3080341269842 8.56723636363631  12.9211611111111 8.90641818181825  12.9211611111111 8.90641818181825  C 12.9211611111111 8.90641818181825  13.4423190476191 9.44949090909086  13.4423190476191 9.44949090909086  C 13.4423190476191 9.44949090909086  13.3656781746032 9.89774545454543  13.3656781746032 9.89774545454543  C 13.3656781746032 9.89774545454543  13.0513789682539 10.3868545454545  13.0513789682539 10.3868545454545  C 13.0513789682539 10.3868545454545  13.2583809523809 10.8015090909091  13.2583809523809 10.8015090909091  C 13.2583809523809 10.8015090909091  13.6415853174603 10.5976181818181  13.6415853174603 10.5976181818181  C 13.6415853174603 10.5976181818181  13.9174924603174 10.7878909090908  13.9174924603174 10.7878909090908  C 13.9174924603174 10.7878909090908  14.0246464285714 11.4680363636364  14.0246464285714 11.4680363636364  C 14.0246464285714 11.4680363636364  14.3925226190476 11.2026727272728  14.3925226190476 11.2026727272728  C 14.3925226190476 11.2026727272728  14.4998198412699 10.7335454545455  14.4998198412699 10.7335454545455  C 14.4998198412699 10.7335454545455  14.6608373015873 10.4548181818182  14.6608373015873 10.4548181818182  C 14.6608373015873 10.4548181818182  15.442430952381 10.5839999999999  15.442430952381 10.5839999999999  C 15.442430952381 10.5839999999999  15.9251968253968 10.4820545454545  15.9251968253968 10.4820545454545  C 15.9251968253968 10.4820545454545  16.7375900793651 10.8151272727273  16.7375900793651 10.8151272727273  C 16.7375900793651 10.8151272727273  16.3774496031747 11.4135636363636  16.3774496031747 11.4135636363636  C 16.3774496031747 11.4135636363636  16.4694186507937 11.6516909090909  16.4694186507937 11.6516909090909  C 16.4694186507937 11.6516909090909  16.3161369047619 12.2847454545454  16.3161369047619 12.2847454545454  C 16.3161369047619 12.2847454545454  15.9482607142857 12.5707272727274  15.9482607142857 12.5707272727274  C 15.9482607142857 12.5707272727274  15.9635888888889 13.2111636363637  15.9635888888889 13.2111636363637  C 15.9635888888889 13.2111636363637  15.6570253968252 13.2656363636363  15.6570253968252 13.2656363636363  Z M 15.7259305555556 14.9405454545454  C 15.7259305555556 14.9405454545454  13.7033277777778 15.0496181818182  13.7033277777778 15.0496181818182  C 13.7033277777778 15.0496181818182  13.4504845238095 14.9950181818182  13.4504845238095 14.9950181818182  C 13.4504845238095 14.9950181818182  13.2129694444443 13.3747090909091  13.2129694444443 13.3747090909091  C 13.2129694444443 13.3747090909091  15.6570253968252 13.2656363636363  15.6570253968252 13.2656363636363  C 15.6570253968252 13.2656363636363  15.7259305555556 14.9405454545454  15.7259305555556 14.9405454545454  Z " fill-rule="nonzero" fill="#ffffff" stroke="none" fill-opacity="0" transform="matrix(1 0 0 1 1111 271 )" />
    <path d="M 15.6570253968252 13.2656363636363  C 15.6570253968252 13.2656363636363  14.6455091269841 14.6474363636363  14.6455091269841 14.6474363636363  C 14.6455091269841 14.6474363636363  13.8255234126983 13.2725090909091  13.8255234126983 13.2725090909091  C 13.8255234126983 13.2725090909091  13.4958960317459 14.8519636363636  13.4958960317459 14.8519636363636  C 13.4958960317459 14.8519636363636  13.4423190476191 13.2042909090908  13.4423190476191 13.2042909090908  C 13.4423190476191 13.2042909090908  12.7602869047619 13.2792545454545  12.7602869047619 13.2792545454545  C 12.7602869047619 13.2792545454545  12.5992694444443 13.0952181818182  12.5992694444443 13.0952181818182  C 12.5992694444443 13.0952181818182  12.2238007936509 13.3133636363636  12.2238007936509 13.3133636363636  C 12.2238007936509 13.3133636363636  11.6030813492063 15.2882545454545  11.6030813492063 15.2882545454545  C 11.6030813492063 15.2882545454545  11.794611904762 15.568  11.794611904762 15.568  C 11.794611904762 15.568  12.5226285714284 15.4041999999999  12.5226285714284 15.4041999999999  C 12.5226285714284 15.4041999999999  13.4499115079366 15.7931454545454  13.4499115079366 15.7931454545454  C 13.4499115079366 15.7931454545454  13.4652396825396 15.2746363636363  13.4652396825396 15.2746363636363  C 13.4652396825396 15.2746363636363  14.3849301587302 15.3223636363637  14.3849301587302 15.3223636363637  C 14.3849301587302 15.3223636363637  14.8830242063491 14.9950181818182  14.8830242063491 14.9950181818182  C 14.8830242063491 14.9950181818182  15.1358674603174 15.0496181818182  15.1358674603174 15.0496181818182  C 15.1358674603174 15.0496181818182  15.2049158730159 15.3223636363637  15.2049158730159 15.3223636363637  C 15.2049158730159 15.3223636363637  15.7030099206348 15.1860545454546  15.7030099206348 15.1860545454546  C 15.7030099206348 15.1860545454546  15.7489944444444 15.7111818181819  15.7489944444444 15.7111818181819  C 15.7489944444444 15.7111818181819  15.756586904762 15.7111818181819  15.756586904762 15.7111818181819  C 15.756586904762 15.7111818181819  15.7489944444444 15.7111818181819  15.7489944444444 15.7111818181819  C 15.7489944444444 15.7111818181819  15.756586904762 15.7111818181819  15.756586904762 15.7111818181819  C 15.756586904762 15.7111818181819  16.1781833333334 15.6565818181818  16.1781833333334 15.6565818181818  C 16.1781833333334 15.6565818181818  16.5613876984127 15.8613636363637  16.5613876984127 15.8613636363637  C 16.5613876984127 15.8613636363637  17.1361226190476 15.9090909090909  17.1361226190476 15.9090909090909  C 17.1361226190476 15.9090909090909  17.2280916666667 15.9500727272728  17.2280916666667 15.9500727272728  C 17.2280916666667 15.9500727272728  17.3047325396826 16.1207454545454  17.3047325396826 16.1207454545454  C 17.3047325396826 16.1207454545454  17.3429813492063 16.1479818181818  17.3429813492063 16.1479818181818  C 17.3429813492063 16.1479818181818  17.8641392857143 16.2845454545454  17.8641392857143 16.2845454545454  C 17.8641392857143 16.2845454545454  18.0174210317462 16.6463818181818  18.0174210317462 16.6463818181818  C 18.0174210317462 16.6463818181818  18.3698257936508 16.7762  18.3698257936508 16.7762  C 18.3698257936508 16.7762  18.3698257936508 17.1450363636363  18.3698257936508 17.1450363636363  C 18.3698257936508 17.1450363636363  17.9943571428572 17.3294545454545  17.9943571428572 17.3294545454545  C 17.9943571428572 17.3294545454545  17.9714365079366 17.3089636363636  17.9714365079366 17.3089636363636  C 17.9714365079366 17.3089636363636  17.2816686507937 17.514  17.2816686507937 17.514  C 17.2816686507937 17.514  17.1207944444445 18.0062909090909  17.1207944444445 18.0062909090909  C 17.1207944444445 18.0062909090909  15.9635888888889 18.7449818181817  15.9635888888889 18.7449818181817  C 15.9635888888889 18.7449818181817  15.5421357142857 19.7103454545455  15.5421357142857 19.7103454545455  C 15.5421357142857 19.7103454545455  15.7643226190477 21.1770363636364  15.7643226190477 21.1770363636364  C 15.7643226190477 21.1770363636364  16.293073015873 21.3074909090908  16.293073015873 21.3074909090908  C 16.293073015873 21.3074909090908  16.017165873016 21.7259636363635  16.017165873016 21.7259636363635  C 16.017165873016 21.7259636363635  15.664761111111 22.6802545454545  15.664761111111 22.6802545454545  C 15.664761111111 22.6802545454545  14.8063833333332 22.4810727272728  14.8063833333332 22.4810727272728  C 14.8063833333332 22.4810727272728  14.4768992063491 22.7970909090909  14.4768992063491 22.7970909090909  C 14.4768992063491 22.7970909090909  13.1586761904762 23.0718727272728  13.1586761904762 23.0718727272728  C 13.1586761904762 23.0718727272728  13.166411904762 23.6629272727273  13.166411904762 23.6629272727273  C 13.166411904762 23.6629272727273  13.4729753968254 23.9104727272727  13.4729753968254 23.9104727272727  C 13.4729753968254 23.9104727272727  14.3389456349207 24.1787636363636  14.3389456349207 24.1787636363636  C 14.3389456349207 24.1787636363636  14.3389456349207 24.9700181818182  14.3389456349207 24.9700181818182  C 14.3389456349207 24.9700181818182  14.1932563492063 25.2661818181818  14.1932563492063 25.2661818181818  C 14.1932563492063 25.2661818181818  13.2890373015873 25.5553454545454  13.2890373015873 25.5553454545454  C 13.2890373015873 25.5553454545454  13.0744428571429 26.0513272727273  13.0744428571429 26.0513272727273  C 13.0744428571429 26.0513272727273  12.0629265873017 26.2443999999999  12.0629265873017 26.2443999999999  C 12.0629265873017 26.2443999999999  11.0819234126984 26.2030363636364  11.0819234126984 26.2030363636364  C 11.0819234126984 26.2030363636364  10.4994527777778 26.4236  10.4994527777778 26.4236  C 10.4994527777778 26.4236  8.27758373015865 26.9682  8.27758373015865 26.9682  C 8.27758373015865 26.9682  6.83687857142866 27.0924181818182  6.83687857142866 27.0924181818182  C 6.83687857142866 27.0924181818182  6.65294047619034 26.7268909090909  6.65294047619034 26.7268909090909  C 6.65294047619034 26.7268909090909  6.90592698412695 26.327  6.90592698412695 26.327  C 6.90592698412695 26.327  6.33878452380952 25.858509090909  6.33878452380952 25.858509090909  C 6.33878452380952 25.858509090909  5.97090833333334 26.1754181818181  5.97090833333334 26.1754181818181  C 5.97090833333334 26.1754181818181  5.56478333333325 26.1822909090909  5.56478333333325 26.1822909090909  C 5.56478333333325 26.1822909090909  5.05136111111119 26.6717818181819  5.05136111111119 26.6717818181819  C 5.05136111111119 26.6717818181819  4.56845198412702 26.327  4.56845198412702 26.327  C 4.56845198412702 26.327  4.37692142857134 25.8653818181817  4.37692142857134 25.8653818181817  C 4.37692142857134 25.8653818181817  4.53779563492071 25.2591818181818  4.53779563492071 25.2591818181818  C 4.53779563492071 25.2591818181818  4.17006269841272 25.1422181818182  4.17006269841272 25.1422181818182  C 4.17006269841272 25.1422181818182  3.08176230158733 25.1284727272727  3.08176230158733 25.1284727272727  C 3.08176230158733 25.1284727272727  3.05110595238102 25.1284727272727  3.05110595238102 25.1284727272727  C 3.05110595238102 25.1284727272727  3.07416984126985 25.1284727272727  3.07416984126985 25.1284727272727  C 3.07416984126985 25.1284727272727  3.08176230158733 25.1284727272727  3.08176230158733 25.1284727272727  C 3.08176230158733 25.1284727272727  3.07416984126985 25.1284727272727  3.07416984126985 25.1284727272727  C 3.07416984126985 25.1284727272727  3.05110595238102 25.1284727272727  3.05110595238102 25.1284727272727  C 3.05110595238102 25.1284727272727  2.16221507936507 25.2591818181818  2.16221507936507 25.2591818181818  C 2.16221507936507 25.2591818181818  1.9322924603174 24.3644545454546  1.9322924603174 24.3644545454546  C 1.9322924603174 24.3644545454546  1.12763492063493 24.3163454545455  1.12763492063493 24.3163454545455  C 1.12763492063493 24.3163454545455  0.529836111111194 24.1718909090908  0.529836111111194 24.1718909090908  C 0.529836111111194 24.1718909090908  0.42253888888888 23.7249090909091  0.42253888888888 23.7249090909091  C 0.42253888888888 23.7249090909091  0.591148809523816 23.037509090909  0.591148809523816 23.037509090909  C 0.591148809523816 23.037509090909  0.246336507936576 22.721490909091  0.246336507936576 22.721490909091  C 0.246336507936576 22.721490909091  0.231008333333307 22.069090909091  0.231008333333307 22.069090909091  C 0.231008333333307 22.069090909091  0.0548059523808888 21.5544  0.0548059523808888 21.5544  C 0.0548059523808888 21.5544  0.307649206349197 20.9165090909091  0.307649206349197 20.9165090909091  C 0.307649206349197 20.9165090909091  0.637133333333395 20.5051636363636  0.637133333333395 20.5051636363636  C 0.637133333333395 20.5051636363636  0.629540873015799 20.0390909090909  0.629540873015799 20.0390909090909  C 0.629540873015799 20.0390909090909  0.989681349206307 19.7993090909091  0.989681349206307 19.7993090909091  C 0.989681349206307 19.7993090909091  1.35755753968249 19.7993090909091  1.35755753968249 19.7993090909091  C 1.35755753968249 19.7993090909091  2.09316666666666 19.7445818181818  2.09316666666666 19.7445818181818  C 2.09316666666666 19.7445818181818  2.59899642857147 18.9161636363635  2.59899642857147 18.9161636363635  C 2.59899642857147 18.9161636363635  2.59140396825387 18.9092909090909  2.59140396825387 18.9092909090909  C 2.59140396825387 18.9092909090909  2.59899642857147 18.9161636363635  2.59899642857147 18.9161636363635  C 2.59899642857147 18.9161636363635  2.56074761904756 18.3276545454546  2.56074761904756 18.3276545454546  C 2.56074761904756 18.3276545454546  2.07024603174602 18.2866727272727  2.07024603174602 18.2866727272727  C 2.07024603174602 18.2866727272727  1.89390039682542 17.3705636363637  1.89390039682542 17.3705636363637  C 1.89390039682542 17.3705636363637  2.21579206349202 17.2201272727273  2.21579206349202 17.2201272727273  C 2.21579206349202 17.2201272727273  2.10090238095233 16.2571818181818  2.10090238095233 16.2571818181818  C 2.10090238095233 16.2571818181818  2.31549682539685 15.568  2.31549682539685 15.568  C 2.31549682539685 15.568  2.07783849206351 15.281509090909  2.07783849206351 15.281509090909  C 2.07783849206351 15.281509090909  1.56441626984133 15.5542545454546  1.56441626984133 15.5542545454546  C 1.56441626984133 15.5542545454546  1.42646269841282 15.0427454545454  1.42646269841282 15.0427454545454  C 1.42646269841282 15.0427454545454  1.70236984126984 14.9746545454545  1.70236984126984 14.9746545454545  C 1.70236984126984 14.9746545454545  1.69477738095236 13.1838  1.69477738095236 13.1838  C 1.69477738095236 13.1838  2.14688690476191 12.8704545454545  2.14688690476191 12.8704545454545  C 2.14688690476191 12.8704545454545  1.6028083333332 12.8568363636364  1.6028083333332 12.8568363636364  C 1.6028083333332 12.8568363636364  1.01260198412695 12.4140545454545  1.01260198412695 12.4140545454545  C 1.01260198412695 12.4140545454545  1.45711904761913 12.1690545454545  1.45711904761913 12.1690545454545  C 1.45711904761913 12.1690545454545  1.44179087301586 11.4884000000001  1.44179087301586 11.4884000000001  C 1.44179087301586 11.4884000000001  1.04325833333326 11.1074727272728  1.04325833333326 11.1074727272728  C 1.04325833333326 11.1074727272728  1.30383730158746 10.7811454545454  1.30383730158746 10.7811454545454  C 1.30383730158746 10.7811454545454  1.3498218253967 10.2034545454545  1.3498218253967 10.2034545454545  C 1.3498218253967 10.2034545454545  1.81740277777772 9.43587272727268  1.81740277777772 9.43587272727268  C 1.81740277777772 9.43587272727268  2.52235555555569 9.29332727272731  2.52235555555569 9.29332727272731  C 2.52235555555569 9.29332727272731  2.5147630952381 9.13716363636365  2.5147630952381 9.13716363636365  C 2.5147630952381 9.13716363636365  2.84424722222229 8.86569090909086  2.84424722222229 8.86569090909086  C 2.84424722222229 8.86569090909086  2.99752896825396 9.02859999999998  2.99752896825396 9.02859999999998  C 2.99752896825396 9.02859999999998  3.05110595238102 9.24585454545456  3.05110595238102 9.24585454545456  C 3.05110595238102 9.24585454545456  3.24277976190479 9.79579999999999  3.24277976190479 9.79579999999999  C 3.24277976190479 9.79579999999999  3.48029484126982 9.86376363636373  3.48029484126982 9.86376363636373  C 3.48029484126982 9.86376363636373  3.8864198412698 9.63963636363633  3.8864198412698 9.63963636363633  C 3.8864198412698 9.63963636363633  5.04362539682541 10.0607818181818  5.04362539682541 10.0607818181818  C 5.04362539682541 10.0607818181818  5.587703968254 10.0878909090909  5.587703968254 10.0878909090909  C 5.587703968254 10.0878909090909  5.90200317460324 9.76869090909099  5.90200317460324 9.76869090909099  C 5.90200317460324 9.76869090909099  5.74098571428578 8.68254545454545  5.74098571428578 8.68254545454545  C 5.74098571428578 8.68254545454545  5.70273690476199 8.24167272727277  5.70273690476199 8.24167272727277  C 5.70273690476199 8.24167272727277  6.24681547619048 8.01780000000008  6.24681547619048 8.01780000000008  C 6.24681547619048 8.01780000000008  5.64901666666674 7.53658181818184  5.64901666666674 7.53658181818184  C 5.64901666666674 7.53658181818184  5.63368849206347 7.23163636363643  5.63368849206347 7.23163636363643  C 5.63368849206347 7.23163636363643  6.07820555555554 7.00139999999999  6.07820555555554 7.00139999999999  C 6.07820555555554 7.00139999999999  6.82155039682539 6.98103636363635  6.82155039682539 6.98103636363635  C 6.82155039682539 6.98103636363635  6.76797341269844 6.58827272727274  6.76797341269844 6.58827272727274  C 6.76797341269844 6.58827272727274  6.52272261904761 6.71007272727275  6.52272261904761 6.71007272727275  C 6.52272261904761 6.71007272727275  5.71032936507936 6.35803636363642  5.71032936507936 6.35803636363642  C 5.71032936507936 6.35803636363642  5.56478333333325 5.35003636363638  5.56478333333325 5.35003636363638  C 5.56478333333325 5.35003636363638  6.15484642857155 4.64698181818187  6.15484642857155 4.64698181818187  C 6.15484642857155 4.64698181818187  6.07820555555554 3.55956363636358  6.07820555555554 3.55956363636358  C 6.07820555555554 3.55956363636358  6.30039246031743 3.33009090909093  6.30039246031743 3.33009090909093  C 6.30039246031743 3.33009090909093  6.47673809523815 3.14109090909085  6.47673809523815 3.14109090909085  C 6.47673809523815 3.14109090909085  6.85994246031737 2.85103636363647  6.85994246031737 2.85103636363647  C 6.85994246031737 2.85103636363647  7.09745753968252 2.97919999999999  7.09745753968252 2.97919999999999  C 7.09745753968252 2.97919999999999  7.51131825396817 2.52050909090917  7.51131825396817 2.52050909090917  C 7.51131825396817 2.52050909090917  8.03247619047636 2.52725454545464  8.03247619047636 2.52725454545464  C 8.03247619047636 2.52725454545464  8.25466309523813 1.99474545454552  8.25466309523813 1.99474545454552  C 8.25466309523813 1.99474545454552  8.25466309523813 1.98800000000006  8.25466309523813 1.98800000000006  C 8.25466309523813 1.98800000000006  8.25466309523813 1.99474545454552  8.25466309523813 1.99474545454552  C 8.25466309523813 1.99474545454552  8.46152182539686 1.76565454545448  8.46152182539686 1.76565454545448  C 8.46152182539686 1.76565454545448  9.97070238095239 1.17956363636358  9.97070238095239 1.17956363636358  C 9.97070238095239 1.17956363636358  10.292594047619 0.869781818181764  10.292594047619 0.869781818181764  C 10.292594047619 0.869781818181764  10.721782936508 0.815945454545499  10.721782936508 0.815945454545499  C 10.721782936508 0.815945454545499  11.403815079365 1.19305454545452  11.403815079365 1.19305454545452  C 11.403815079365 1.19305454545452  11.9478936507936 1.11223636363627  11.9478936507936 1.11223636363627  C 11.9478936507936 1.11223636363627  12.2313932539681 1.30747272727274  12.2313932539681 1.30747272727274  C 12.2313932539681 1.30747272727274  12.2927059523809 1.90705454545457  12.2927059523809 1.90705454545457  C 12.2927059523809 1.90705454545457  12.7065666666667 2.17674545454543  12.7065666666667 2.17674545454543  C 12.7065666666667 2.17674545454543  12.7525511904763 2.21047272727276  12.7525511904763 2.21047272727276  C 12.7525511904763 2.21047272727276  13.2277246031746 2.72961818181807  13.2277246031746 2.72961818181807  C 13.2277246031746 2.72961818181807  13.2583809523809 2.85103636363647  13.2583809523809 2.85103636363647  C 13.2583809523809 2.85103636363647  13.2813015873016 2.92523636363626  13.2813015873016 2.92523636363626  C 13.2813015873016 2.92523636363626  13.5189599206349 3.33009090909093  13.5189599206349 3.33009090909093  C 13.5189599206349 3.33009090909093  14.0630384920636 3.33009090909093  14.0630384920636 3.33009090909093  C 14.0630384920636 3.33009090909093  14.4844916666666 3.33683636363639  14.4844916666666 3.33683636363639  C 14.4844916666666 3.33683636363639  14.7757269841269 3.6608727272727  14.7757269841269 3.6608727272727  C 14.7757269841269 3.6608727272727  14.423178968254 3.8431272727272  14.423178968254 3.8431272727272  C 14.423178968254 3.8431272727272  14.3771944444444 4.26859999999999  14.3771944444444 4.26859999999999  C 14.3771944444444 4.26859999999999  14.6837579365078 4.21450909090913  14.6837579365078 4.21450909090913  C 14.6837579365078 4.21450909090913  14.9903214285715 4.45772727272731  14.9903214285715 4.45772727272731  C 14.9903214285715 4.45772727272731  15.013242063492 4.58614545454543  15.013242063492 4.58614545454543  C 15.013242063492 4.58614545454543  14.8446321428571 5.03223636363646  14.8446321428571 5.03223636363646  C 14.8446321428571 5.03223636363646  14.5304761904762 5.05247272727274  14.5304761904762 5.05247272727274  C 14.5304761904762 5.05247272727274  13.7182261904761 4.76178181818182  13.7182261904761 4.76178181818182  C 13.7182261904761 4.76178181818182  13.4729753968254 4.92405454545462  13.4729753968254 4.92405454545462  C 13.4729753968254 4.92405454545462  12.7678793650794 4.94429090909091  12.7678793650794 4.94429090909091  C 12.7678793650794 4.94429090909091  12.5226285714284 4.61987272727276  12.5226285714284 4.61987272727276  C 12.5226285714284 4.61987272727276  11.9172373015873 4.55229090909086  11.9172373015873 4.55229090909086  C 11.9172373015873 4.55229090909086  11.7716912698413 5.20799999999997  11.7716912698413 5.20799999999997  C 11.7716912698413 5.20799999999997  11.5264404761905 5.32292727272738  11.5264404761905 5.32292727272738  C 11.5264404761905 5.32292727272738  11.5033765873015 5.85734545454545  11.5033765873015 5.85734545454545  C 11.5033765873015 5.85734545454545  11.4957841269842 5.88432727272732  11.4957841269842 5.88432727272732  C 11.4957841269842 5.88432727272732  11.4420638888889 5.98589090909093  11.4420638888889 5.98589090909093  C 11.4420638888889 5.98589090909093  11.7026428571428 6.61538181818173  11.7026428571428 6.61538181818173  C 11.7026428571428 6.61538181818173  12.1089111111112 7.4891090909091  12.1089111111112 7.4891090909091  C 12.1089111111112 7.4891090909091  11.9172373015873 7.84152727272726  11.9172373015873 7.84152727272726  C 11.9172373015873 7.84152727272726  12.1011753968254 8.15347272727274  12.1011753968254 8.15347272727274  C 12.1011753968254 8.15347272727274  12.5303642857142 8.2822727272727  12.5303642857142 8.2822727272727  C 12.5303642857142 8.2822727272727  12.3080341269842 8.56723636363631  12.3080341269842 8.56723636363631  C 12.3080341269842 8.56723636363631  12.9211611111111 8.90641818181825  12.9211611111111 8.90641818181825  C 12.9211611111111 8.90641818181825  13.4423190476191 9.44949090909086  13.4423190476191 9.44949090909086  C 13.4423190476191 9.44949090909086  13.3656781746032 9.89774545454543  13.3656781746032 9.89774545454543  C 13.3656781746032 9.89774545454543  13.0513789682539 10.3868545454545  13.0513789682539 10.3868545454545  C 13.0513789682539 10.3868545454545  13.2583809523809 10.8015090909091  13.2583809523809 10.8015090909091  C 13.2583809523809 10.8015090909091  13.6415853174603 10.5976181818181  13.6415853174603 10.5976181818181  C 13.6415853174603 10.5976181818181  13.9174924603174 10.7878909090908  13.9174924603174 10.7878909090908  C 13.9174924603174 10.7878909090908  14.0246464285714 11.4680363636364  14.0246464285714 11.4680363636364  C 14.0246464285714 11.4680363636364  14.3925226190476 11.2026727272728  14.3925226190476 11.2026727272728  C 14.3925226190476 11.2026727272728  14.4998198412699 10.7335454545455  14.4998198412699 10.7335454545455  C 14.4998198412699 10.7335454545455  14.6608373015873 10.4548181818182  14.6608373015873 10.4548181818182  C 14.6608373015873 10.4548181818182  15.442430952381 10.5839999999999  15.442430952381 10.5839999999999  C 15.442430952381 10.5839999999999  15.9251968253968 10.4820545454545  15.9251968253968 10.4820545454545  C 15.9251968253968 10.4820545454545  16.7375900793651 10.8151272727273  16.7375900793651 10.8151272727273  C 16.7375900793651 10.8151272727273  16.3774496031747 11.4135636363636  16.3774496031747 11.4135636363636  C 16.3774496031747 11.4135636363636  16.4694186507937 11.6516909090909  16.4694186507937 11.6516909090909  C 16.4694186507937 11.6516909090909  16.3161369047619 12.2847454545454  16.3161369047619 12.2847454545454  C 16.3161369047619 12.2847454545454  15.9482607142857 12.5707272727274  15.9482607142857 12.5707272727274  C 15.9482607142857 12.5707272727274  15.9635888888889 13.2111636363637  15.9635888888889 13.2111636363637  C 15.9635888888889 13.2111636363637  15.6570253968252 13.2656363636363  15.6570253968252 13.2656363636363  Z " stroke-width="2" stroke="#0099ff" fill="none" transform="matrix(1 0 0 1 1111 271 )" mask="url(#clip82)" />
    <path d="M 15.7259305555556 14.9405454545454  C 15.7259305555556 14.9405454545454  13.7033277777778 15.0496181818182  13.7033277777778 15.0496181818182  C 13.7033277777778 15.0496181818182  13.4504845238095 14.9950181818182  13.4504845238095 14.9950181818182  C 13.4504845238095 14.9950181818182  13.2129694444443 13.3747090909091  13.2129694444443 13.3747090909091  C 13.2129694444443 13.3747090909091  15.6570253968252 13.2656363636363  15.6570253968252 13.2656363636363  C 15.6570253968252 13.2656363636363  15.7259305555556 14.9405454545454  15.7259305555556 14.9405454545454  Z " stroke-width="2" stroke="#0099ff" fill="none" transform="matrix(1 0 0 1 1111 271 )" mask="url(#clip82)" />
  </g>
</svg>