<?xml version="1.0" encoding="utf-8"?>
<svg version="1.1" xmlns:xlink="http://www.w3.org/1999/xlink" width="22px" height="28px" xmlns="http://www.w3.org/2000/svg">
  <g transform="matrix(1 0 0 1 -901 -313 )">
    <path d="M 21.3132873828125 11.1904921777344  C 21.3132874121094 5.50092391601562  16.6870485546875 0.874685029296875  10.9974802636719 0.874685029296875  C 5.3129514453125 0.874685029296875  0.686712587890625 5.50092391601562  0.686712587890625 11.1854527050781  C 0.686712587890625 16.6734419433594  9.92911138671875 26.4197883300781  10.3221904882813 26.8330253515625  C 10.4985721484375 27.0194859570312  10.7455064550781 27.1253149414062  11.0025197363281 27.1253149414062  C 11.0075592089844 27.1253149414062  11.0176381542969 27.1253149414062  11.0226776269531 27.1253149414062  C 11.2847303808594 27.1253149414062  11.5367041601562 27.0043675097656  11.7080463476562 26.8027884863281  L 14.9081135351563 23.1390895214844  C 19.1614311816406 17.9333109277344  21.3132873828125 13.9118091699219  21.3132873828125 11.1904921777344  Z M 15.6841928515625 11.1854527050781  C 15.6841928515625 13.7757433203125  13.5877708789063 15.8721652929687  10.9974802636719 15.8721652929687  C 8.4071896484375 15.8721652929687  6.31076767578125 13.7757433203125  6.31076767578125 11.1854527050781  C 6.31076767578125 8.59516208984375  8.4071896484375 6.4987401171875  10.9974802636719 6.4987401171875  C 13.5877708789063 6.4987401171875  15.6841928515625 8.59516208984375  15.6841928515625 11.1854527050781  Z " fill-rule="nonzero" fill="#fc5b22" stroke="none" transform="matrix(1 0 0 1 901 313 )" />
  </g>
</svg>