<?xml version="1.0" encoding="utf-8"?>
<svg version="1.1" xmlns:xlink="http://www.w3.org/1999/xlink" width="23px" height="23px" xmlns="http://www.w3.org/2000/svg">
  <g transform="matrix(1 0 0 1 -1306 -427 )">
    <path d="M 14.10546875 14.10546875  C 15.3172075320513 12.8937299679487  15.9230769230769 11.4354967948718  15.9230769230769 9.73076923076925  C 15.9230769230769 8.02604166666665  15.3172075320513 6.56780849358977  14.10546875 5.35606971153844  C 12.8937299679487 4.14433092948717  11.4354967948718 3.53846153846156  9.73076923076925 3.53846153846156  C 8.0260416666667 3.53846153846156  6.56780849358971 4.14433092948717  5.35606971153849 5.35606971153844  C 4.14433092948717 6.56780849358977  3.53846153846151 8.02604166666665  3.53846153846151 9.73076923076925  C 3.53846153846151 11.4354967948718  4.14433092948717 12.8937299679487  5.35606971153849 14.10546875  C 6.56780849358971 15.3172075320513  9.73076923076925 16.62109375  9.73076923076925 16.62109375  C 9.73076923076925 16.62109375  12.8937299679487 15.3172075320513  14.10546875 14.10546875  Z M 22.4885817307692 19.9867788461539  C 22.8295272435897 20.3277243589743  23 20.7423878205128  23 21.2307692307692  C 23 21.7099358974359  22.8249198717949 22.1245993589743  22.4747596153846 22.4747596153846  C 22.1245993589743 22.8249198717949  21.7099358974359 23  21.2307692307692 23  C 20.7331730769231 23  20.3185096153846 22.8249198717949  19.9867788461539 22.4747596153846  L 15.2457932692308 17.7475961538461  C 13.5963541666667 18.8902243589743  11.7580128205128 19.4615384615384  9.73076923076925 19.4615384615384  C 8.41306089743595 19.4615384615384  7.15294471153849 19.2058293269231  5.95042067307688 18.6944110576923  C 4.74789663461538 18.1829927884616  3.71123798076925 17.4918870192308  2.84044471153849 16.62109375  C 1.96965144230774 15.7503004807692  1.27854567307688 14.7136418269231  0.76712740384613 13.5111177884616  C 0.255709134615377 12.30859375  0 11.0484775641025  0 9.73076923076925  C 0 8.4130608974359  0.255709134615377 7.15294471153844  0.76712740384613 5.95042067307694  C 1.27854567307688 4.74789663461538  1.96965144230774 3.71123798076925  2.84044471153849 2.84044471153844  C 3.71123798076925 1.96965144230769  4.74789663461538 1.27854567307694  5.95042067307688 0.76712740384613  C 7.15294471153849 0.255709134615377  8.41306089743595 0  9.73076923076925 0  C 11.0484775641025 0  12.30859375 0.255709134615377  13.5111177884615 0.76712740384613  C 14.7136418269231 1.27854567307694  15.7503004807692 1.96965144230769  16.62109375 2.84044471153844  C 17.4918870192308 3.71123798076925  18.1829927884615 4.74789663461538  18.6944110576923 5.95042067307694  C 19.2058293269231 7.15294471153844  19.4615384615385 8.4130608974359  19.4615384615385 9.73076923076925  C 19.4615384615385 11.7580128205128  18.8902243589743 13.5963541666667  17.7475961538461 15.2457932692308  L 22.4885817307692 19.9867788461539  Z " fill-rule="nonzero" fill="#ececec" stroke="none" transform="matrix(1 0 0 1 1306 427 )" />
  </g>
</svg>