<?xml version="1.0" encoding="utf-8"?>
<svg version="1.1" xmlns:xlink="http://www.w3.org/1999/xlink" width="21px" height="31px" xmlns="http://www.w3.org/2000/svg">
  <g transform="matrix(1 0 0 1 -587 -529 )">
    <path d="M 15.4833984375 16.4058441558442  L 0.9228515625 30.6980519480519  C 0.6630859375 30.9530303030303  0.4443359375 31.0402597402597  0.2666015625 30.9597402597403  C 0.0888671875 30.8792207792208  0 30.6645021645022  0 30.3155844155844  L 0 0.684415584415583  C 0 0.335497835497833  0.0888671875 0.120779220779219  0.2666015625 0.0402597402597386  C 0.4443359375 -0.040259740259742  0.6630859375 0.0469696969696956  0.9228515625 0.301948051948051  L 15.4833984375 14.5941558441558  C 15.6064453125 14.7149350649351  15.6953125 14.8424242424242  15.75 14.9766233766234  L 15.75 1.32857142857143  C 15.75 0.979653679653677  15.8798828125 0.677705627705626  16.1396484375 0.422727272727274  C 16.3994140625 0.167748917748915  16.70703125 0.0402597402597386  17.0625 0.0402597402597386  L 19.6875 0.0402597402597386  C 20.04296875 0.0402597402597386  20.3505859375 0.167748917748915  20.6103515625 0.422727272727274  C 20.8701171875 0.677705627705626  21 0.979653679653677  21 1.32857142857143  L 21 29.6714285714286  C 21 30.0203463203463  20.8701171875 30.3222943722944  20.6103515625 30.5772727272727  C 20.3505859375 30.8322510822511  20.04296875 30.9597402597403  19.6875 30.9597402597403  L 17.0625 30.9597402597403  C 16.70703125 30.9597402597403  16.3994140625 30.8322510822511  16.1396484375 30.5772727272727  C 15.8798828125 30.3222943722944  15.75 30.0203463203463  15.75 29.6714285714286  L 15.75 16.0233766233766  C 15.6953125 16.1575757575758  15.6064453125 16.2850649350649  15.4833984375 16.4058441558442  Z " fill-rule="nonzero" fill="#0476c7" stroke="none" transform="matrix(1 0 0 1 587 529 )" />
  </g>
</svg>