<?xml version="1.0" encoding="utf-8"?>
<svg version="1.1" xmlns:xlink="http://www.w3.org/1999/xlink" width="21px" height="31px" xmlns="http://www.w3.org/2000/svg">
  <g transform="matrix(1 0 0 1 -1227 -525 )">
    <path d="M 5.5166015625 14.5941558441558  L 20.0771484375 0.301948051948051  C 20.3369140625 0.0469696969696956  20.5556640625 -0.040259740259742  20.7333984375 0.0402597402597386  C 20.9111328125 0.120779220779219  21 0.335497835497833  21 0.684415584415583  L 21 30.3155844155844  C 21 30.6645021645022  20.9111328125 30.8792207792208  20.7333984375 30.9597402597403  C 20.5556640625 31.0402597402597  20.3369140625 30.9530303030303  20.0771484375 30.6980519480519  L 5.5166015625 16.4058441558442  C 5.3935546875 16.2850649350649  5.3046875 16.1575757575758  5.25 16.0233766233766  L 5.25 29.6714285714286  C 5.25 30.0203463203463  5.1201171875 30.3222943722944  4.8603515625 30.5772727272727  C 4.6005859375 30.8322510822511  4.29296875 30.9597402597403  3.9375 30.9597402597403  L 1.3125 30.9597402597403  C 0.95703125 30.9597402597403  0.6494140625 30.8322510822511  0.3896484375 30.5772727272727  C 0.1298828125 30.3222943722944  0 30.0203463203463  0 29.6714285714286  L 0 1.32857142857143  C 0 0.979653679653677  0.1298828125 0.677705627705626  0.3896484375 0.422727272727274  C 0.6494140625 0.167748917748915  0.95703125 0.0402597402597386  1.3125 0.0402597402597386  L 3.9375 0.0402597402597386  C 4.29296875 0.0402597402597386  4.6005859375 0.167748917748915  4.8603515625 0.422727272727274  C 5.1201171875 0.677705627705626  5.25 0.979653679653677  5.25 1.32857142857143  L 5.25 14.9766233766234  C 5.3046875 14.8424242424242  5.3935546875 14.7149350649351  5.5166015625 14.5941558441558  Z " fill-rule="nonzero" fill="#0b5188" stroke="none" transform="matrix(1 0 0 1 1227 525 )" />
  </g>
</svg>