<?xml version="1.0" standalone="no"?><!DOCTYPE svg PUBLIC "-//W3C//DTD SVG 1.1//EN" "http://www.w3.org/Graphics/SVG/1.1/DTD/svg11.dtd"><svg t="1690273233446" class="icon" viewBox="0 0 1024 1024" version="1.1" xmlns="http://www.w3.org/2000/svg" p-id="11367" xmlns:xlink="http://www.w3.org/1999/xlink" width="200" height="200"><path d="M951.242105 353.010526H72.757895l105.094737-185.936842s24.252632-21.557895 35.031579-24.252631c8.084211-2.694737 43.115789-5.389474 43.115789-5.389474h495.831579l56.589474 5.389474 35.031579 26.947368 107.789473 183.242105z" fill="#10ABFF" opacity=".4" p-id="11368"></path><path d="M980.884211 361.094737l-2.694737-2.694737L894.652632 215.578947c-40.421053-75.452632-67.368421-97.010526-129.347369-97.010526H258.694737c-61.978947 0-91.621053 21.557895-129.347369 97.010526l-86.231579 145.51579c-5.389474 8.084211-8.084211 16.168421-8.08421 26.947368v406.905263c0 29.642105 24.252632 56.589474 56.589474 56.589474H134.736842l26.947369 78.147369v2.694736l2.694736 2.694737 2.694737 2.694737 2.694737 2.694737h115.873684l2.694737-2.694737 2.694737-2.694737 2.694737-2.694737v-2.694736l26.947368-78.147369H700.631579l26.947368 78.147369v2.694736l2.694737 2.694737 2.694737 2.694737 2.694737 2.694737h115.873684l2.694737-2.694737 2.694737-2.694737 2.694737-2.694737v-2.694736l26.947368-78.147369h40.421053c29.642105 0 56.589474-24.252632 56.589473-56.589474V388.042105c5.389474-8.084211 2.694737-18.863158-2.694736-26.947368z m-48.505264 452.715789H91.621053c-10.778947 0-18.863158-8.084211-18.863158-18.863158V388.042105c0-10.778947 8.084211-18.863158 18.863158-18.863158h843.452631c10.778947 0 18.863158 8.084211 18.863158 18.863158v406.905263c-2.694737 10.778947-10.778947 18.863158-21.557895 18.863158zM401.515789 156.294737l-43.115789 177.852631H239.831579l88.926316-177.852631h72.757894z m177.852632 0l45.810526 177.852631h-229.052631l43.115789-177.852631h140.126316z m115.873684 0l72.757895 177.852631h-105.094737l-45.810526-177.852631h78.147368zM862.315789 234.442105l59.284211 99.705263H808.421053l-72.757895-177.852631h29.642105c40.421053 0 59.284211 5.389474 97.010526 78.147368zM258.694737 156.294737h29.642105l-88.926316 177.852631H102.4L161.684211 234.442105C199.410526 161.684211 218.273684 156.294737 258.694737 156.294737z m8.08421 749.136842H191.326316l-18.863158-53.894737h110.48421l-16.168421 53.894737z m568.589474 0h-72.757895l-18.863158-53.894737h110.484211l-18.863158 53.894737z" fill="#10ABFF" p-id="11369"></path><path d="M714.105263 428.463158c-43.115789 0-86.231579 16.168421-115.873684 48.505263-29.642105 29.642105-48.505263 72.757895-48.505263 115.873684 0 91.621053 75.452632 164.378947 167.073684 167.073684h2.694737c43.115789 0 83.536842-16.168421 115.873684-48.505263 29.642105-29.642105 48.505263-72.757895 48.505263-115.873684-2.694737-91.621053-78.147368-167.073684-169.768421-167.073684z m94.31579 256c-24.252632 24.252632-53.894737 35.031579-88.926316 35.031579h-2.694737c-70.063158 0-129.347368-59.284211-129.347368-129.347369 0-35.031579 13.473684-64.673684 35.031579-88.926315 24.252632-24.252632 53.894737-35.031579 88.926315-35.031579h2.694737c70.063158 0 129.347368 59.284211 129.347369 129.347368 0 32.336842-13.473684 64.673684-35.031579 88.926316z" fill="#10ABFF" p-id="11370"></path><path d="M714.105263 498.526316c-10.778947 0-18.863158 8.084211-18.863158 18.863158v37.726315c0 10.778947 8.084211 18.863158 18.863158 18.863158 10.778947 0 18.863158-8.084211 18.863158-18.863158v-37.726315c2.694737-10.778947-5.389474-16.168421-18.863158-18.863158zM657.515789 600.926316l-21.557894 32.336842c-5.389474 8.084211-2.694737 21.557895 5.389473 26.947368 2.694737 2.694737 8.084211 2.694737 10.778948 2.694737 5.389474 0 10.778947-2.694737 16.168421-8.08421l21.557895-32.336842c5.389474-8.084211 2.694737-21.557895-5.389474-26.947369-8.084211-5.389474-18.863158-2.694737-26.947369 5.389474zM773.389474 603.621053c-5.389474-8.084211-18.863158-10.778947-26.947369-5.389474-8.084211 5.389474-10.778947 18.863158-5.389473 26.947368l21.557894 32.336842c2.694737 5.389474 10.778947 8.084211 16.168421 8.084211 2.694737 0 8.084211 0 10.778948-2.694737 8.084211-5.389474 10.778947-18.863158 5.389473-26.947368l-21.557894-32.336842zM431.157895 512H172.463158c-21.557895 0-37.726316 16.168421-37.726316 35.031579v88.926316c0 21.557895 16.168421 37.726316 37.726316 37.726316H431.157895c21.557895 0 37.726316-16.168421 37.726316-37.726316v-88.926316c-2.694737-18.863158-18.863158-35.031579-37.726316-35.031579z m-2.694737 123.957895H172.463158v-88.926316h256v88.926316z" fill="#10ABFF" p-id="11371"></path></svg>